<svg width="20" height="25" viewBox="0 0 20 25" fill="none" xmlns="http://www.w3.org/2000/svg">
<path fill-rule="evenodd" clip-rule="evenodd" d="M5.7325 0.7325C6.20123 0.263627 6.83701 0.000141594 7.5 0H12.5C13.163 0 13.7989 0.263392 14.2678 0.732233C14.7366 1.20107 15 1.83696 15 2.5V5H18.75C19.0815 5 19.3995 5.1317 19.6339 5.36612C19.8683 5.60054 20 5.91848 20 6.25C20 6.58152 19.8683 6.89946 19.6339 7.13388C19.3995 7.36831 19.0815 7.5 18.75 7.5V22.5C18.75 23.163 18.4866 23.7989 18.0178 24.2678C17.5489 24.7366 16.913 25 16.25 25H3.75C3.08696 25 2.45107 24.7366 1.98223 24.2678C1.51339 23.7989 1.25 23.163 1.25 22.5V7.5C0.918479 7.5 0.600537 7.36831 0.366117 7.13388C0.131696 6.89946 0 6.58152 0 6.25C0 5.91848 0.131696 5.60054 0.366117 5.36612C0.600537 5.1317 0.918479 5 1.25 5H5V2.5C5.00014 1.83701 5.26363 1.20123 5.7325 0.7325ZM7.5 5H12.5V2.5H7.5V5ZM8.75 10C8.75 9.66848 8.6183 9.35054 8.38388 9.11612C8.14946 8.8817 7.83152 8.75 7.5 8.75C7.16848 8.75 6.85054 8.8817 6.61612 9.11612C6.3817 9.35054 6.25 9.66848 6.25 10V20C6.25 20.3315 6.3817 20.6495 6.61612 20.8839C6.85054 21.1183 7.16848 21.25 7.5 21.25C7.83152 21.25 8.14946 21.1183 8.38388 20.8839C8.6183 20.6495 8.75 20.3315 8.75 20V10ZM13.75 10C13.75 9.66848 13.6183 9.35054 13.3839 9.11612C13.1495 8.8817 12.8315 8.75 12.5 8.75C12.1685 8.75 11.8505 8.8817 11.6161 9.11612C11.3817 9.35054 11.25 9.66848 11.25 10V20C11.25 20.3315 11.3817 20.6495 11.6161 20.8839C11.8505 21.1183 12.1685 21.25 12.5 21.25C12.8315 21.25 13.1495 21.1183 13.3839 20.8839C13.6183 20.6495 13.75 20.3315 13.75 20V10Z" fill="#FD761A"/>
</svg>
