<svg width="38" height="37" viewBox="0 0 38 37" fill="none" xmlns="http://www.w3.org/2000/svg">
<rect width="38" height="37" rx="12" fill="white"/>
<path d="M15.6 29L13.7 25.8L10.1 25L10.45 21.3L8 18.5L10.45 15.7L10.1 12L13.7 11.2L15.6 8L19 9.45L22.4 8L24.3 11.2L27.9 12L27.55 15.7L30 18.5L27.55 21.3L27.9 25L24.3 25.8L22.4 29L19 27.55L15.6 29ZM16.45 26.45L19 25.35L21.6 26.45L23 24.05L25.75 23.4L25.5 20.6L27.35 18.5L25.5 16.35L25.75 13.55L23 12.95L21.55 10.55L19 11.65L16.4 10.55L15 12.95L12.25 13.55L12.5 16.35L10.65 18.5L12.5 20.6L12.25 23.45L15 24.05L16.45 26.45ZM17.95 22.05L23.6 16.4L22.2 14.95L17.95 19.2L15.8 17.1L14.4 18.5L17.95 22.05Z" fill="#007E37"/>
</svg>
