<svg width="24" height="24" viewBox="0 0 24 24" fill="none" xmlns="http://www.w3.org/2000/svg">
<path fill-rule="evenodd" clip-rule="evenodd" d="M11.9984 4.39996L3.0784 19.854L20.9214 19.853L11.9984 4.39996ZM2.7324 21.054C2.55686 21.054 2.38442 21.0077 2.23241 20.92C2.08039 20.8322 1.95416 20.706 1.86639 20.5539C1.77862 20.4019 1.73242 20.2295 1.73242 20.0539C1.73242 19.8784 1.77863 19.706 1.8664 19.554L11.1324 3.49996C11.2202 3.34795 11.3464 3.22172 11.4984 3.13396C11.6504 3.0462 11.8229 3 11.9984 3C12.1739 3 12.3464 3.0462 12.4984 3.13396C12.6504 3.22172 12.7766 3.34795 12.8644 3.49996L22.1344 19.553C22.2222 19.705 22.2684 19.8774 22.2684 20.0529C22.2684 20.2285 22.2222 20.4009 22.1344 20.5529C22.0466 20.705 21.9204 20.8312 21.7684 20.919C21.6164 21.0067 21.4439 21.053 21.2684 21.053L2.7324 21.054ZM11.3724 9.95396H12.6274L12.5304 14.676H11.4704L11.3734 9.95396H11.3724ZM11.9984 17.098C11.9062 17.0995 11.8145 17.0828 11.7288 17.0486C11.6431 17.0145 11.5651 16.9637 11.4992 16.8991C11.4333 16.8345 11.3809 16.7575 11.3451 16.6725C11.3092 16.5875 11.2906 16.4962 11.2904 16.404C11.2904 16.019 11.6024 15.716 11.9984 15.716C12.3984 15.716 12.7104 16.019 12.7104 16.404C12.71 16.4965 12.6912 16.5881 12.6551 16.6733C12.6189 16.7585 12.5662 16.8356 12.4999 16.9002C12.4336 16.9648 12.3551 17.0156 12.269 17.0495C12.1829 17.0835 12.0909 17.0999 11.9984 17.098Z" fill="#434655" fill-opacity="0.76"/>
</svg>
