<svg width="14" height="3" viewBox="0 0 14 3" fill="none" xmlns="http://www.w3.org/2000/svg">
<path d="M1.35424 2.68317C0.972567 2.68317 0.651442 2.55428 0.390865 2.29652C0.130288 2.03876 0 1.72044 0 1.34158C0 0.962723 0.130288 0.64441 0.390865 0.386646C0.651442 0.128882 0.972567 0 1.35424 0C1.73591 0 2.05704 0.128882 2.31762 0.386646C2.57819 0.64441 2.70848 0.962723 2.70848 1.34158C2.70848 1.72044 2.57819 2.03876 2.31762 2.29652C2.05704 2.55428 1.73591 2.68317 1.35424 2.68317ZM6.69799 2.68317C6.31632 2.68317 5.99519 2.55428 5.73462 2.29652C5.47404 2.03876 5.34375 1.72044 5.34375 1.34158C5.34375 0.962723 5.47404 0.64441 5.73462 0.386646C5.99519 0.128882 6.31632 0 6.69799 0C7.07966 0 7.40079 0.128882 7.66137 0.386646C7.92194 0.64441 8.05223 0.962723 8.05223 1.34158C8.05223 1.72044 7.92194 2.03876 7.66137 2.29652C7.40079 2.55428 7.07966 2.68317 6.69799 2.68317ZM12.0417 2.68317C11.6601 2.68317 11.3389 2.55428 11.0784 2.29652C10.8178 2.03876 10.6875 1.72044 10.6875 1.34158C10.6875 0.962723 10.8178 0.64441 11.0784 0.386646C11.3389 0.128882 11.6601 0 12.0417 0C12.4234 0 12.7445 0.128882 13.0051 0.386646C13.2657 0.64441 13.396 0.962723 13.396 1.34158C13.396 1.72044 13.2657 2.03876 13.0051 2.29652C12.7445 2.55428 12.4234 2.68317 12.0417 2.68317Z" fill="#434655" fill-opacity="0.2"/>
</svg>
