<svg width="80" height="80" viewBox="0 0 80 80" fill="none" xmlns="http://www.w3.org/2000/svg">
<rect width="80" height="80" rx="40" fill="#0058BE" fill-opacity="0.1"/>
<path d="M31.75 52C29.475 52 27.5312 51.2125 25.9188 49.6375C24.3063 48.0625 23.5 46.1375 23.5 43.8625C23.5 41.9125 24.0875 40.175 25.2625 38.65C26.4375 37.125 27.975 36.15 29.875 35.725C30.5 33.425 31.75 31.5625 33.625 30.1375C35.5 28.7125 37.625 28 40 28C42.925 28 45.4062 29.0188 47.4438 31.0563C49.4813 33.0938 50.5 35.575 50.5 38.5C52.225 38.7 53.6562 39.4437 54.7938 40.7312C55.9313 42.0188 56.5 43.525 56.5 45.25C56.5 47.125 55.8438 48.7188 54.5312 50.0312C53.2188 51.3438 51.625 52 49.75 52H41.5C40.675 52 39.9688 51.7062 39.3813 51.1187C38.7938 50.5312 38.5 49.825 38.5 49V41.275L36.1 43.6L34 41.5L40 35.5L46 41.5L43.9 43.6L41.5 41.275V49H49.75C50.8 49 51.6875 48.6375 52.4125 47.9125C53.1375 47.1875 53.5 46.3 53.5 45.25C53.5 44.2 53.1375 43.3125 52.4125 42.5875C51.6875 41.8625 50.8 41.5 49.75 41.5H47.5V38.5C47.5 36.425 46.7687 34.6562 45.3062 33.1937C43.8438 31.7312 42.075 31 40 31C37.925 31 36.1562 31.7312 34.6938 33.1937C33.2313 34.6562 32.5 36.425 32.5 38.5H31.75C30.3 38.5 29.0625 39.0125 28.0375 40.0375C27.0125 41.0625 26.5 42.3 26.5 43.75C26.5 45.2 27.0125 46.4375 28.0375 47.4625C29.0625 48.4875 30.3 49 31.75 49H35.5V52H31.75Z" fill="#0058BE"/>
</svg>
