<svg width="16" height="20" viewBox="0 0 16 20" fill="none" xmlns="http://www.w3.org/2000/svg">
<path d="M14 0C14.5304 0 15.0391 0.210714 15.4142 0.585786C15.7893 0.960859 16 1.46957 16 2V18C16 18.5304 15.7893 19.0391 15.4142 19.4142C15.0391 19.7893 14.5304 20 14 20H2C1.46957 20 0.960859 19.7893 0.585786 19.4142C0.210714 19.0391 0 18.5304 0 18V2C0 1.46957 0.210714 0.960859 0.585786 0.585786C0.960859 0.210714 1.46957 0 2 0H14ZM8 11H5C4.73478 11 4.48043 11.1054 4.29289 11.2929C4.10536 11.4804 4 11.7348 4 12C4 12.2652 4.10536 12.5196 4.29289 12.7071C4.48043 12.8946 4.73478 13 5 13H8C8.26522 13 8.51957 12.8946 8.70711 12.7071C8.89464 12.5196 9 12.2652 9 12C9 11.7348 8.89464 11.4804 8.70711 11.2929C8.51957 11.1054 8.26522 11 8 11ZM11 6H5C4.74512 6.00028 4.49997 6.09788 4.31463 6.27285C4.1293 6.44782 4.01776 6.68695 4.00283 6.94139C3.98789 7.19584 4.07067 7.44638 4.23426 7.64183C4.39785 7.83729 4.6299 7.9629 4.883 7.993L5 8H11C11.2549 7.99972 11.5 7.90212 11.6854 7.72715C11.8707 7.55218 11.9822 7.31305 11.9972 7.05861C12.0121 6.80416 11.9293 6.55362 11.7657 6.35817C11.6021 6.16271 11.3701 6.0371 11.117 6.007L11 6Z" fill="#2563EB"/>
</svg>
