<svg width="618" height="33" viewBox="0 0 618 33" fill="none" xmlns="http://www.w3.org/2000/svg">
<mask id="path-1-inside-1_1205_18781" fill="white">
<path d="M0 0H618V33H0V0Z"/>
</mask>
<path d="M0 0H618V33H0V0Z" fill="white"/>
<path d="M618 33V32H0V33V34H618V33Z" fill="#434655" fill-opacity="0.2" mask="url(#path-1-inside-1_1205_18781)"/>
<path d="M16 22V8H21.525C22.6083 8 23.6083 8.33333 24.525 9C25.4417 9.66667 25.9 10.5917 25.9 11.775C25.9 12.625 25.7083 13.2792 25.325 13.7375C24.9417 14.1958 24.5833 14.525 24.25 14.725C24.6667 14.9083 25.1292 15.25 25.6375 15.75C26.1458 16.25 26.4 17 26.4 18C26.4 19.4833 25.8583 20.5208 24.775 21.1125C23.6917 21.7042 22.675 22 21.725 22H16ZM19.025 19.2H21.625C22.425 19.2 22.9125 18.9958 23.0875 18.5875C23.2625 18.1792 23.35 17.8833 23.35 17.7C23.35 17.5167 23.2625 17.2208 23.0875 16.8125C22.9125 16.4042 22.4 16.2 21.55 16.2H19.025V19.2ZM19.025 13.5H21.35C21.9 13.5 22.3 13.3583 22.55 13.075C22.8 12.7917 22.925 12.475 22.925 12.125C22.925 11.725 22.7833 11.4 22.5 11.15C22.2167 10.9 21.85 10.775 21.4 10.775H19.025V13.5Z" fill="#434655" fill-opacity="0.76"/>
<path d="M42.4004 22V19.5H46.4004L49.4004 10.5H45.4004V8H55.4004V10.5H51.9004L48.9004 19.5H52.4004V22H42.4004Z" fill="#434655" fill-opacity="0.76"/>
<path d="M77.4004 23V21H89.4004V23H77.4004ZM77.4004 17V15H89.4004V17H77.4004ZM77.4004 11V9H89.4004V11H77.4004ZM73.4004 24C72.8504 24 72.3796 23.8042 71.9879 23.4125C71.5962 23.0208 71.4004 22.55 71.4004 22C71.4004 21.45 71.5962 20.9792 71.9879 20.5875C72.3796 20.1958 72.8504 20 73.4004 20C73.9504 20 74.4212 20.1958 74.8129 20.5875C75.2046 20.9792 75.4004 21.45 75.4004 22C75.4004 22.55 75.2046 23.0208 74.8129 23.4125C74.4212 23.8042 73.9504 24 73.4004 24ZM73.4004 18C72.8504 18 72.3796 17.8042 71.9879 17.4125C71.5962 17.0208 71.4004 16.55 71.4004 16C71.4004 15.45 71.5962 14.9792 71.9879 14.5875C72.3796 14.1958 72.8504 14 73.4004 14C73.9504 14 74.4212 14.1958 74.8129 14.5875C75.2046 14.9792 75.4004 15.45 75.4004 16C75.4004 16.55 75.2046 17.0208 74.8129 17.4125C74.4212 17.8042 73.9504 18 73.4004 18ZM73.4004 12C72.8504 12 72.3796 11.8042 71.9879 11.4125C71.5962 11.0208 71.4004 10.55 71.4004 10C71.4004 9.45 71.5962 8.97917 71.9879 8.5875C72.3796 8.19583 72.8504 8 73.4004 8C73.9504 8 74.4212 8.19583 74.8129 8.5875C75.2046 8.97917 75.4004 9.45 75.4004 10C75.4004 10.55 75.2046 11.0208 74.8129 11.4125C74.4212 11.8042 73.9504 12 73.4004 12Z" fill="#434655" fill-opacity="0.76"/>
<path d="M114.4 18H110.4C109.017 18 107.838 17.5125 106.863 16.5375C105.888 15.5625 105.4 14.3833 105.4 13C105.4 11.6167 105.888 10.4375 106.863 9.4625C107.838 8.4875 109.017 8 110.4 8H114.4V10H110.4C109.567 10 108.859 10.2917 108.275 10.875C107.692 11.4583 107.4 12.1667 107.4 13C107.4 13.8333 107.692 14.5417 108.275 15.125C108.859 15.7083 109.567 16 110.4 16H114.4V18ZM111.4 14V12H119.4V14H111.4ZM116.4 18V16H120.4C121.234 16 121.942 15.7083 122.525 15.125C123.109 14.5417 123.4 13.8333 123.4 13C123.4 12.1667 123.109 11.4583 122.525 10.875C121.942 10.2917 121.234 10 120.4 10H116.4V8H120.4C121.784 8 122.963 8.4875 123.938 9.4625C124.913 10.4375 125.4 11.6167 125.4 13C125.4 14.3833 124.913 15.5625 123.938 16.5375C122.963 17.5125 121.784 18 120.4 18H116.4Z" fill="#434655" fill-opacity="0.76"/>
</svg>
