<svg width="48" height="48" viewBox="0 0 48 48" fill="none" xmlns="http://www.w3.org/2000/svg">
<rect width="48" height="48" rx="24" fill="#E7E8E9"/>
<path d="M28.5 34.5C27.1167 34.5 25.9375 34.0125 24.9625 33.0375C23.9875 32.0625 23.5 30.8833 23.5 29.5C23.5 28.1167 23.9875 26.9375 24.9625 25.9625C25.9375 24.9875 27.1167 24.5 28.5 24.5C29.8833 24.5 31.0625 24.9875 32.0375 25.9625C33.0125 26.9375 33.5 28.1167 33.5 29.5C33.5 30.8833 33.0125 32.0625 32.0375 33.0375C31.0625 34.0125 29.8833 34.5 28.5 34.5ZM30.175 31.875L30.875 31.175L29 29.3V26.5H28V29.7L30.175 31.875ZM16.5 33.5C15.95 33.5 15.4792 33.3042 15.0875 32.9125C14.6958 32.5208 14.5 32.05 14.5 31.5V17.5C14.5 16.95 14.6958 16.4792 15.0875 16.0875C15.4792 15.6958 15.95 15.5 16.5 15.5H20.675C20.8583 14.9167 21.2167 14.4375 21.75 14.0625C22.2833 13.6875 22.8667 13.5 23.5 13.5C24.1667 13.5 24.7625 13.6875 25.2875 14.0625C25.8125 14.4375 26.1667 14.9167 26.35 15.5H30.5C31.05 15.5 31.5208 15.6958 31.9125 16.0875C32.3042 16.4792 32.5 16.95 32.5 17.5V23.75C32.2 23.5333 31.8833 23.35 31.55 23.2C31.2167 23.05 30.8667 22.9167 30.5 22.8V17.5H28.5V20.5H18.5V17.5H16.5V31.5H21.8C21.9167 31.8667 22.05 32.2167 22.2 32.55C22.35 32.8833 22.5333 33.2 22.75 33.5H16.5ZM23.5 17.5C23.7833 17.5 24.0208 17.4042 24.2125 17.2125C24.4042 17.0208 24.5 16.7833 24.5 16.5C24.5 16.2167 24.4042 15.9792 24.2125 15.7875C24.0208 15.5958 23.7833 15.5 23.5 15.5C23.2167 15.5 22.9792 15.5958 22.7875 15.7875C22.5958 15.9792 22.5 16.2167 22.5 16.5C22.5 16.7833 22.5958 17.0208 22.7875 17.2125C22.9792 17.4042 23.2167 17.5 23.5 17.5Z" fill="#FD761A"/>
</svg>
