<svg width="48" height="48" viewBox="0 0 48 48" fill="none" xmlns="http://www.w3.org/2000/svg">
<rect width="48" height="48" rx="24" fill="#F0FDF4"/>
<path d="M13 32V29.2C13 28.6333 13.1458 28.1125 13.4375 27.6375C13.7292 27.1625 14.1167 26.8 14.6 26.55C15.6333 26.0333 16.6833 25.6458 17.75 25.3875C18.8167 25.1292 19.9 25 21 25C22.1 25 23.1833 25.1292 24.25 25.3875C25.3167 25.6458 26.3667 26.0333 27.4 26.55C27.8833 26.8 28.2708 27.1625 28.5625 27.6375C28.8542 28.1125 29 28.6333 29 29.2V32H13ZM31 32V29C31 28.2667 30.7958 27.5625 30.3875 26.8875C29.9792 26.2125 29.4 25.6333 28.65 25.15C29.5 25.25 30.3 25.4208 31.05 25.6625C31.8 25.9042 32.5 26.2 33.15 26.55C33.75 26.8833 34.2083 27.2542 34.525 27.6625C34.8417 28.0708 35 28.5167 35 29V32H31ZM21 24C19.9 24 18.9583 23.6083 18.175 22.825C17.3917 22.0417 17 21.1 17 20C17 18.9 17.3917 17.9583 18.175 17.175C18.9583 16.3917 19.9 16 21 16C22.1 16 23.0417 16.3917 23.825 17.175C24.6083 17.9583 25 18.9 25 20C25 21.1 24.6083 22.0417 23.825 22.825C23.0417 23.6083 22.1 24 21 24ZM31 20C31 21.1 30.6083 22.0417 29.825 22.825C29.0417 23.6083 28.1 24 27 24C26.8167 24 26.5833 23.9792 26.3 23.9375C26.0167 23.8958 25.7833 23.85 25.6 23.8C26.05 23.2667 26.3958 22.675 26.6375 22.025C26.8792 21.375 27 20.7 27 20C27 19.3 26.8792 18.625 26.6375 17.975C26.3958 17.325 26.05 16.7333 25.6 16.2C25.8333 16.1167 26.0667 16.0625 26.3 16.0375C26.5333 16.0125 26.7667 16 27 16C28.1 16 29.0417 16.3917 29.825 17.175C30.6083 17.9583 31 18.9 31 20ZM15 30H27V29.2C27 29.0167 26.9542 28.85 26.8625 28.7C26.7708 28.55 26.65 28.4333 26.5 28.35C25.6 27.9 24.6917 27.5625 23.775 27.3375C22.8583 27.1125 21.9333 27 21 27C20.0667 27 19.1417 27.1125 18.225 27.3375C17.3083 27.5625 16.4 27.9 15.5 28.35C15.35 28.4333 15.2292 28.55 15.1375 28.7C15.0458 28.85 15 29.0167 15 29.2V30ZM21 22C21.55 22 22.0208 21.8042 22.4125 21.4125C22.8042 21.0208 23 20.55 23 20C23 19.45 22.8042 18.9792 22.4125 18.5875C22.0208 18.1958 21.55 18 21 18C20.45 18 19.9792 18.1958 19.5875 18.5875C19.1958 18.9792 19 19.45 19 20C19 20.55 19.1958 21.0208 19.5875 21.4125C19.9792 21.8042 20.45 22 21 22Z" fill="#007E37"/>
</svg>
