<svg width="11" height="3" viewBox="0 0 11 3" fill="none" xmlns="http://www.w3.org/2000/svg">
<path d="M1.0229 2.04599C0.742602 2.04599 0.502072 1.94561 0.301314 1.74485C0.100556 1.54409 0.000177622 1.30356 0.000177622 1.02326C0.000177622 0.742957 0.100556 0.502427 0.301314 0.301669C0.502072 0.100911 0.742602 0.000532627 1.0229 0.000532627C1.30321 0.000532627 1.54374 0.100911 1.7445 0.301669C1.94525 0.502427 2.04563 0.742957 2.04563 1.02326C2.04563 1.20887 1.99828 1.37932 1.90359 1.53462C1.81268 1.68993 1.68957 1.81493 1.53427 1.90962C1.38275 2.00053 1.2123 2.04599 1.0229 2.04599ZM5.42915 2.04599C5.14885 2.04599 4.90832 1.94561 4.70756 1.74485C4.50681 1.54409 4.40643 1.30356 4.40643 1.02326C4.40643 0.742957 4.50681 0.502427 4.70756 0.301669C4.90832 0.100911 5.14885 0.000532627 5.42915 0.000532627C5.70946 0.000532627 5.94999 0.100911 6.15075 0.301669C6.3515 0.502427 6.45188 0.742957 6.45188 1.02326C6.45188 1.20887 6.40453 1.37932 6.30984 1.53462C6.21893 1.68993 6.09582 1.81493 5.94052 1.90962C5.789 2.00053 5.61855 2.04599 5.42915 2.04599ZM9.8354 2.04599C9.5551 2.04599 9.31457 1.94561 9.11381 1.74485C8.91306 1.54409 8.81268 1.30356 8.81268 1.02326C8.81268 0.742957 8.91306 0.502427 9.11381 0.301669C9.31457 0.100911 9.5551 0.000532627 9.8354 0.000532627C10.1157 0.000532627 10.3562 0.100911 10.557 0.301669C10.7578 0.502427 10.8581 0.742957 10.8581 1.02326C10.8581 1.20887 10.8108 1.37932 10.7161 1.53462C10.6252 1.68993 10.5021 1.81493 10.3468 1.90962C10.1953 2.00053 10.0248 2.04599 9.8354 2.04599Z" fill="#434655" fill-opacity="0.76"/>
</svg>
