<svg width="25" height="25" viewBox="0 0 25 25" fill="none" xmlns="http://www.w3.org/2000/svg">
<path d="M8.75 13.125H10V10.625H11.25C11.6042 10.625 11.901 10.5052 12.1406 10.2656C12.3802 10.026 12.5 9.72917 12.5 9.375V8.125C12.5 7.77083 12.3802 7.47396 12.1406 7.23438C11.901 6.99479 11.6042 6.875 11.25 6.875H8.75V13.125ZM10 9.375V8.125H11.25V9.375H10ZM13.75 13.125H16.25C16.6042 13.125 16.901 13.0052 17.1406 12.7656C17.3802 12.526 17.5 12.2292 17.5 11.875V8.125C17.5 7.77083 17.3802 7.47396 17.1406 7.23438C16.901 6.99479 16.6042 6.875 16.25 6.875H13.75V13.125ZM15 11.875V8.125H16.25V11.875H15ZM18.75 13.125H20V10.625H21.25V9.375H20V8.125H21.25V6.875H18.75V13.125ZM7.5 20C6.8125 20 6.22396 19.7552 5.73438 19.2656C5.24479 18.776 5 18.1875 5 17.5V2.5C5 1.8125 5.24479 1.22396 5.73438 0.734375C6.22396 0.244792 6.8125 0 7.5 0H22.5C23.1875 0 23.776 0.244792 24.2656 0.734375C24.7552 1.22396 25 1.8125 25 2.5V17.5C25 18.1875 24.7552 18.776 24.2656 19.2656C23.776 19.7552 23.1875 20 22.5 20H7.5ZM7.5 17.5H22.5V2.5H7.5V17.5ZM2.5 25C1.8125 25 1.22396 24.7552 0.734375 24.2656C0.244792 23.776 0 23.1875 0 22.5V5H2.5V22.5H20V25H2.5ZM7.5 2.5V17.5V2.5Z" fill="#FD761A"/>
</svg>
