<svg width="64" height="64" viewBox="0 0 64 64" fill="none" xmlns="http://www.w3.org/2000/svg">
<rect width="64" height="64" rx="12" fill="#BA1A1A" fill-opacity="0.1"/>
<path d="M22.7493 47.417C21.9014 47.417 21.1758 47.1153 20.5725 46.512C19.9692 45.9087 19.667 45.1826 19.666 44.3337V28.917C19.666 28.0691 19.9682 27.3435 20.5725 26.7402C21.1768 26.1369 21.9025 25.8347 22.7493 25.8337H24.291V22.7503C24.291 20.6177 25.0428 18.8001 26.5465 17.2975C28.0501 15.7948 29.8677 15.043 31.9993 15.042C34.131 15.041 35.9491 15.7928 37.4538 17.2975C38.9584 18.8021 39.7097 20.6197 39.7077 22.7503V25.8337H41.2493C42.0973 25.8337 42.8234 26.1358 43.4277 26.7402C44.0321 27.3445 44.3337 28.0701 44.3327 28.917V44.3337C44.3327 45.1816 44.031 45.9077 43.4277 46.512C42.8244 47.1164 42.0983 47.418 41.2493 47.417H22.7493ZM34.1777 38.8037C34.781 38.1994 35.0827 37.4732 35.0827 36.6253C35.0827 35.7774 34.781 35.0518 34.1777 34.4485C33.5744 33.8452 32.8483 33.543 31.9993 33.542C31.1504 33.541 30.4248 33.8431 29.8225 34.4485C29.2202 35.0539 28.9181 35.7795 28.916 36.6253C28.914 37.4712 29.2161 38.1973 29.8225 38.8037C30.4289 39.4101 31.1545 39.7117 31.9993 39.7087C32.8442 39.7056 33.5703 39.4039 34.1777 38.8037ZM27.3743 25.8337H36.6243V22.7503C36.6243 21.4656 36.1747 20.3736 35.2754 19.4743C34.3761 18.575 33.2841 18.1253 31.9993 18.1253C30.7146 18.1253 29.6226 18.575 28.7233 19.4743C27.824 20.3736 27.3743 21.4656 27.3743 22.7503V25.8337Z" fill="#BA1A1A"/>
</svg>
