<svg width="12" height="17" viewBox="0 0 12 17" fill="none" xmlns="http://www.w3.org/2000/svg">
<path d="M1.5 16.5C1.0875 16.5 0.734375 16.3531 0.440625 16.0594C0.146875 15.7656 0 15.4125 0 15V1.5C0 1.0875 0.146875 0.734375 0.440625 0.440625C0.734375 0.146875 1.0875 0 1.5 0H9C9.4125 0 9.76562 0.146875 10.0594 0.440625C10.3531 0.734375 10.5 1.0875 10.5 1.5V3.825C10.725 3.9125 10.9062 4.05 11.0437 4.2375C11.1812 4.425 11.25 4.6375 11.25 4.875V6.375C11.25 6.6125 11.1812 6.825 11.0437 7.0125C10.9062 7.2 10.725 7.3375 10.5 7.425V15C10.5 15.4125 10.3531 15.7656 10.0594 16.0594C9.76562 16.3531 9.4125 16.5 9 16.5H1.5ZM1.5 15H9V1.5H1.5V15ZM1.5 15V1.5V15ZM3.75 14.25H6.75C6.9625 14.25 7.14062 14.1781 7.28438 14.0344C7.42813 13.8906 7.5 13.7125 7.5 13.5C7.5 13.2875 7.42813 13.1094 7.28438 12.9656C7.14062 12.8219 6.9625 12.75 6.75 12.75H3.75C3.5375 12.75 3.35938 12.8219 3.21563 12.9656C3.07188 13.1094 3 13.2875 3 13.5C3 13.7125 3.07188 13.8906 3.21563 14.0344C3.35938 14.1781 3.5375 14.25 3.75 14.25Z" fill="#2E3132"/>
</svg>
