<svg width="40" height="40" viewBox="0 0 40 40" fill="none" xmlns="http://www.w3.org/2000/svg">
<rect x="1" y="1" width="38" height="38" rx="19" fill="#1E293B"/>
<rect x="1" y="1" width="38" height="38" rx="19" stroke="#0F172A" stroke-width="2"/>
<path d="M13.8712 21.892V16.8636H15.1425V21.892H13.8712ZM11.9926 20.0135V18.7422H17.021V20.0135H11.9926ZM18.2897 23V21.892L20.8785 19.495C21.0986 19.282 21.2833 19.0902 21.4324 18.9197C21.584 18.7493 21.6988 18.5824 21.7769 18.419C21.855 18.2533 21.8941 18.0746 21.8941 17.8828C21.8941 17.6697 21.8456 17.4863 21.7485 17.3324C21.6514 17.1761 21.5189 17.0566 21.3508 16.9737C21.1827 16.8885 20.9921 16.8459 20.779 16.8459C20.5565 16.8459 20.3624 16.8909 20.1966 16.9808C20.0309 17.0708 19.9031 17.1998 19.8131 17.3679C19.7232 17.536 19.6782 17.736 19.6782 17.968H18.2187C18.2187 17.4922 18.3264 17.0791 18.5418 16.7287C18.7573 16.3783 19.0591 16.1072 19.4474 15.9155C19.8356 15.7237 20.2831 15.6278 20.7897 15.6278C21.3105 15.6278 21.7639 15.7202 22.1498 15.9048C22.538 16.0871 22.8399 16.3404 23.0553 16.6648C23.2707 16.9891 23.3785 17.3608 23.3785 17.7798C23.3785 18.0545 23.324 18.3255 23.2151 18.593C23.1086 18.8606 22.918 19.1577 22.6434 19.4844C22.3688 19.8087 21.9817 20.1982 21.4822 20.6527L20.4204 21.6932V21.7429H23.4743V23H18.2897ZM27.7526 15.7273V23H26.2149V17.1868H26.1723L24.5068 18.2308V16.8672L26.3073 15.7273H27.7526Z" fill="white"/>
</svg>
