<svg width="642" height="158" viewBox="0 0 642 158" fill="none" xmlns="http://www.w3.org/2000/svg">
<g filter="url(#filter0_d_1080_6469)">
<g clip-path="url(#clip0_1080_6469)">
<rect x="2" y="1" width="637.333" height="154" rx="16" fill="white"/>
<g opacity="0.1">
<path d="M506.994 170.003V151.336C506.994 147.558 507.966 144.086 509.911 140.919C511.855 137.753 514.439 135.336 517.661 133.669C524.55 130.225 531.55 127.641 538.661 125.919C545.772 124.197 552.994 123.336 560.327 123.336C567.661 123.336 574.883 124.197 581.994 125.919C589.105 127.641 596.105 130.225 602.994 133.669C606.216 135.336 608.8 137.753 610.744 140.919C612.689 144.086 613.661 147.558 613.661 151.336V170.003H506.994V170.003M626.994 170.003V150.003C626.994 145.114 625.633 140.419 622.911 135.919C620.189 131.419 616.327 127.558 611.327 124.336C616.994 125.003 622.327 126.141 627.327 127.753C632.327 129.364 636.994 131.336 641.327 133.669C645.327 135.891 648.383 138.364 650.494 141.086C652.605 143.808 653.661 146.78 653.661 150.003V170.003H626.994V170.003M560.327 116.669C552.994 116.669 546.716 114.058 541.494 108.836C536.272 103.614 533.661 97.3359 533.661 90.0026C533.661 82.6693 536.272 76.3915 541.494 71.1693C546.716 65.947 552.994 63.3359 560.327 63.3359C567.661 63.3359 573.939 65.947 579.161 71.1693C584.383 76.3915 586.994 82.6693 586.994 90.0026C586.994 97.3359 584.383 103.614 579.161 108.836C573.939 114.058 567.661 116.669 560.327 116.669V116.669M626.994 90.0026C626.994 97.3359 624.383 103.614 619.161 108.836C613.939 114.058 607.661 116.669 600.327 116.669C599.105 116.669 597.55 116.53 595.661 116.253C593.772 115.975 592.216 115.669 590.994 115.336C593.994 111.78 596.3 107.836 597.911 103.503C599.522 99.1693 600.327 94.6693 600.327 90.0026C600.327 85.3359 599.522 80.8359 597.911 76.5026C596.3 72.1693 593.994 68.2248 590.994 64.6693C592.55 64.1137 594.105 63.7526 595.661 63.5859C597.216 63.4193 598.772 63.3359 600.327 63.3359C607.661 63.3359 613.939 65.947 619.161 71.1693C624.383 76.3915 626.994 82.6693 626.994 90.0026V90.0026M520.327 156.669H600.327V151.336C600.327 150.114 600.022 149.003 599.411 148.003C598.8 147.003 597.994 146.225 596.994 145.669C590.994 142.669 584.939 140.419 578.827 138.919C572.716 137.419 566.55 136.669 560.327 136.669C554.105 136.669 547.939 137.419 541.827 138.919C535.716 140.419 529.661 142.669 523.661 145.669C522.661 146.225 521.855 147.003 521.244 148.003C520.633 149.003 520.327 150.114 520.327 151.336V156.669V156.669M560.327 103.336C563.994 103.336 567.133 102.03 569.744 99.4193C572.355 96.8082 573.661 93.6693 573.661 90.0026C573.661 86.3359 572.355 83.197 569.744 80.5859C567.133 77.9748 563.994 76.6693 560.327 76.6693C556.661 76.6693 553.522 77.9748 550.911 80.5859C548.3 83.197 546.994 86.3359 546.994 90.0026C546.994 93.6693 548.3 96.8082 550.911 99.4193C553.522 102.03 556.661 103.336 560.327 103.336V103.336M560.327 156.669V156.669V156.669V156.669V156.669V156.669V156.669V156.669V156.669V156.669V156.669V156.669V156.669M560.327 90.0026V90.0026V90.0026V90.0026V90.0026V90.0026V90.0026V90.0026V90.0026V90.0026" fill="black"/>
</g>
</g>
<rect x="2.5" y="1.5" width="636.333" height="153" rx="15.5" stroke="#F3F4F5"/>
</g>
<defs>
<filter id="filter0_d_1080_6469" x="0" y="0" width="641.333" height="158" filterUnits="userSpaceOnUse" color-interpolation-filters="sRGB">
<feFlood flood-opacity="0" result="BackgroundImageFix"/>
<feColorMatrix in="SourceAlpha" type="matrix" values="0 0 0 0 0 0 0 0 0 0 0 0 0 0 0 0 0 0 127 0" result="hardAlpha"/>
<feOffset dy="1"/>
<feGaussianBlur stdDeviation="1"/>
<feComposite in2="hardAlpha" operator="out"/>
<feColorMatrix type="matrix" values="0 0 0 0 0 0 0 0 0 0 0 0 0 0 0 0 0 0 0.05 0"/>
<feBlend mode="normal" in2="BackgroundImageFix" result="effect1_dropShadow_1080_6469"/>
<feBlend mode="normal" in="SourceGraphic" in2="effect1_dropShadow_1080_6469" result="shape"/>
</filter>
<clipPath id="clip0_1080_6469">
<rect x="2" y="1" width="637.333" height="154" rx="16" fill="white"/>
</clipPath>
</defs>
</svg>
