<svg width="11" height="3" viewBox="0 0 11 3" fill="none" xmlns="http://www.w3.org/2000/svg">
<path d="M1.0229 2.0455C0.742602 2.0455 0.502072 1.94512 0.301314 1.74436C0.100556 1.5436 0.000177622 1.30307 0.000177622 1.02277C0.000177622 0.742469 0.100556 0.501938 0.301314 0.301181C0.502072 0.100423 0.742602 4.43459e-05 1.0229 4.43459e-05C1.30321 4.43459e-05 1.54374 0.100423 1.7445 0.301181C1.94525 0.501938 2.04563 0.742469 2.04563 1.02277C2.04563 1.20838 1.99828 1.37883 1.90359 1.53414C1.81268 1.68944 1.68957 1.81444 1.53427 1.90914C1.38275 2.00004 1.2123 2.0455 1.0229 2.0455ZM5.42915 2.0455C5.14885 2.0455 4.90832 1.94512 4.70756 1.74436C4.50681 1.5436 4.40643 1.30307 4.40643 1.02277C4.40643 0.742469 4.50681 0.501938 4.70756 0.301181C4.90832 0.100423 5.14885 4.43459e-05 5.42915 4.43459e-05C5.70946 4.43459e-05 5.94999 0.100423 6.15075 0.301181C6.3515 0.501938 6.45188 0.742469 6.45188 1.02277C6.45188 1.20838 6.40453 1.37883 6.30984 1.53414C6.21893 1.68944 6.09582 1.81444 5.94052 1.90914C5.789 2.00004 5.61855 2.0455 5.42915 2.0455ZM9.8354 2.0455C9.5551 2.0455 9.31457 1.94512 9.11381 1.74436C8.91306 1.5436 8.81268 1.30307 8.81268 1.02277C8.81268 0.742469 8.91306 0.501938 9.11381 0.301181C9.31457 0.100423 9.5551 4.43459e-05 9.8354 4.43459e-05C10.1157 4.43459e-05 10.3562 0.100423 10.557 0.301181C10.7578 0.501938 10.8581 0.742469 10.8581 1.02277C10.8581 1.20838 10.8108 1.37883 10.7161 1.53414C10.6252 1.68944 10.5021 1.81444 10.3468 1.90914C10.1953 2.00004 10.0248 2.0455 9.8354 2.0455Z" fill="#94A3B8"/>
</svg>
