<svg width="43" height="24" viewBox="0 0 43 24" fill="none" xmlns="http://www.w3.org/2000/svg">
<rect width="42.41" height="24" rx="12" fill="white" fill-opacity="0.2"/>
<path d="M8.78889 16V7.26953H10.5793V14.5157H14.3438V16H8.78889ZM17.3645 7.26953V16H15.574V7.26953H17.3645ZM21.4991 16L18.44 7.26953H20.4283L21.8246 11.4809C21.9913 12.0141 22.1606 12.5999 22.3325 13.2384C22.5044 13.8769 22.6853 14.5742 22.8751 15.3303H22.4906C22.6762 14.5652 22.8514 13.8656 23.0161 13.2317C23.1808 12.5977 23.3434 12.0141 23.504 11.4809L24.8535 7.26953H26.8282L23.836 16H21.4991ZM27.9022 16V7.26953H33.7478V8.75386H29.6926V10.8611H33.4385V12.3201H29.6926V14.5157H33.7594V16H27.9022Z" fill="white"/>
</svg>
