<svg width="40" height="40" viewBox="0 0 40 40" fill="none" xmlns="http://www.w3.org/2000/svg">
<rect width="40" height="40" rx="12" fill="#E7E8E9"/>
<path d="M8.25896 26V14.3594H11.9209L13.8051 19.7033C13.8841 19.9511 13.9742 20.2735 14.0756 20.6706C14.1771 21.0676 14.2802 21.4952 14.3849 21.9534C14.4897 22.4116 14.5878 22.8565 14.6792 23.2882C14.7705 23.7199 14.8458 24.0957 14.9051 24.4156H14.4377C14.4994 24.1029 14.5752 23.7319 14.6652 23.3026C14.7551 22.8733 14.8525 22.429 14.9573 21.9696C15.0621 21.5102 15.1651 21.0802 15.2663 20.6796C15.3675 20.2789 15.4575 19.9535 15.5365 19.7033L17.3942 14.3594H21.064V26H18.6707V20.5118C18.6707 20.2582 18.6748 19.9418 18.683 19.5628C18.6913 19.1838 18.7014 18.7744 18.7134 18.3346C18.7255 17.8948 18.7368 17.4512 18.7474 17.0038C18.758 16.5564 18.7646 16.1363 18.7669 15.7435H18.9215C18.8205 16.176 18.7096 16.622 18.5886 17.0816C18.4676 17.5412 18.3464 17.9878 18.225 18.4213C18.1036 18.8549 17.988 19.2521 17.8782 19.6131C17.7684 19.9741 17.6742 20.2737 17.5957 20.5118L15.6692 26H13.6587L11.7015 20.5118C11.623 20.2761 11.5293 19.9795 11.4205 19.6221C11.3117 19.2647 11.1952 18.8704 11.071 18.4393C10.9468 18.0081 10.8228 17.5615 10.6993 17.0996C10.5757 16.6376 10.4572 16.1855 10.3439 15.7435H10.5309C10.5357 16.1195 10.5434 16.5288 10.554 16.9714C10.5647 17.4141 10.5754 17.8571 10.5862 18.3004C10.597 18.7438 10.6072 19.158 10.6166 19.543C10.626 19.928 10.6307 20.251 10.6307 20.5118V26H8.25896ZM22.7018 16.3385V14.3594H32.2075V16.3385H28.6518V26H26.2646V16.3385H22.7018Z" fill="#007E37"/>
</svg>
