<svg width="40" height="40" viewBox="0 0 40 40" fill="none" xmlns="http://www.w3.org/2000/svg">
<rect width="40" height="40" rx="12" fill="#E7E8E9"/>
<path d="M10.7514 26V14.3594H13.1386V24.0209H18.158V26H10.7514ZM23.8909 26H20.8759V23.9449H23.7803C24.5285 23.9449 25.1562 23.8125 25.6633 23.5475C26.1703 23.2826 26.5522 22.8714 26.8089 22.3138C27.0655 21.7563 27.1939 21.0427 27.1939 20.1731C27.1939 19.3055 27.0647 18.5948 26.8064 18.0408C26.5482 17.4869 26.1675 17.0773 25.6643 16.8122C25.1612 16.547 24.5379 16.4144 23.7944 16.4144H20.8219V14.3594H23.9339C25.1031 14.3594 26.1076 14.5918 26.9474 15.0568C27.7873 15.5217 28.434 16.1885 28.8876 17.0571C29.3412 17.9257 29.568 18.9644 29.568 20.1731C29.568 21.3839 29.3413 22.4247 28.8879 23.2957C28.4345 24.1667 27.7839 24.8352 26.9361 25.3011C26.0883 25.767 25.0732 26 23.8909 26ZM22.1855 14.3594V26H19.7983V14.3594H22.1855Z" fill="#2563EB"/>
</svg>
