<svg width="34" height="37" viewBox="0 0 34 37" fill="none" xmlns="http://www.w3.org/2000/svg">
<rect width="34" height="37" rx="4" fill="#E7E8E9"/>
<path d="M14 10V8H20V10H14ZM16 21H18V15H16V21ZM17 29C15.7667 29 14.6042 28.7625 13.5125 28.2875C12.4208 27.8125 11.4667 27.1667 10.65 26.35C9.83333 25.5333 9.1875 24.5792 8.7125 23.4875C8.2375 22.3958 8 21.2333 8 20C8 18.7667 8.2375 17.6042 8.7125 16.5125C9.1875 15.4208 9.83333 14.4667 10.65 13.65C11.4667 12.8333 12.4208 12.1875 13.5125 11.7125C14.6042 11.2375 15.7667 11 17 11C18.0333 11 19.025 11.1667 19.975 11.5C20.925 11.8333 21.8167 12.3167 22.65 12.95L24.05 11.55L25.45 12.95L24.05 14.35C24.6833 15.1833 25.1667 16.075 25.5 17.025C25.8333 17.975 26 18.9667 26 20C26 21.2333 25.7625 22.3958 25.2875 23.4875C24.8125 24.5792 24.1667 25.5333 23.35 26.35C22.5333 27.1667 21.5792 27.8125 20.4875 28.2875C19.3958 28.7625 18.2333 29 17 29ZM17 27C18.9333 27 20.5833 26.3167 21.95 24.95C23.3167 23.5833 24 21.9333 24 20C24 18.0667 23.3167 16.4167 21.95 15.05C20.5833 13.6833 18.9333 13 17 13C15.0667 13 13.4167 13.6833 12.05 15.05C10.6833 16.4167 10 18.0667 10 20C10 21.9333 10.6833 23.5833 12.05 24.95C13.4167 26.3167 15.0667 27 17 27Z" fill="#434655" fill-opacity="0.76"/>
</svg>
