<svg width="28" height="48" viewBox="0 0 28 48" fill="none" xmlns="http://www.w3.org/2000/svg">
<rect width="27.08" height="48" rx="4" fill="#BA1A1A" fill-opacity="0.1"/>
<path d="M10.5391 24.5H11.5391V22.5H12.5391C12.8224 22.5 13.0599 22.4042 13.2516 22.2125C13.4432 22.0208 13.5391 21.7833 13.5391 21.5V20.5C13.5391 20.2167 13.4432 19.9792 13.2516 19.7875C13.0599 19.5958 12.8224 19.5 12.5391 19.5H10.5391V24.5ZM11.5391 21.5V20.5H12.5391V21.5H11.5391ZM14.5391 24.5H16.5391C16.8224 24.5 17.0599 24.4042 17.2516 24.2125C17.4432 24.0208 17.5391 23.7833 17.5391 23.5V20.5C17.5391 20.2167 17.4432 19.9792 17.2516 19.7875C17.0599 19.5958 16.8224 19.5 16.5391 19.5H14.5391V24.5ZM15.5391 23.5V20.5H16.5391V23.5H15.5391ZM18.5391 24.5H19.5391V22.5H20.5391V21.5H19.5391V20.5H20.5391V19.5H18.5391V24.5ZM9.53906 30C8.98906 30 8.51823 29.8042 8.12656 29.4125C7.7349 29.0208 7.53906 28.55 7.53906 28V16C7.53906 15.45 7.7349 14.9792 8.12656 14.5875C8.51823 14.1958 8.98906 14 9.53906 14H21.5391C22.0891 14 22.5599 14.1958 22.9516 14.5875C23.3432 14.9792 23.5391 15.45 23.5391 16V28C23.5391 28.55 23.3432 29.0208 22.9516 29.4125C22.5599 29.8042 22.0891 30 21.5391 30H9.53906ZM9.53906 28H21.5391V16H9.53906V28ZM5.53906 34C4.98906 34 4.51823 33.8042 4.12656 33.4125C3.7349 33.0208 3.53906 32.55 3.53906 32V18H5.53906V32H19.5391V34H5.53906ZM9.53906 16V28V16Z" fill="#BA1A1A"/>
</svg>
