<svg width="48" height="48" viewBox="0 0 48 48" fill="none" xmlns="http://www.w3.org/2000/svg">
<rect width="48" height="48" rx="8" fill="#BA1A1A" fill-opacity="0.1"/>
<path d="M10.25 35.875L24 12.125L37.75 35.875H10.25ZM14.5625 33.375H33.4375L24 17.125L14.5625 33.375ZM24 32.125C24.3542 32.125 24.651 32.0052 24.8906 31.7656C25.1302 31.526 25.25 31.2292 25.25 30.875C25.25 30.5208 25.1302 30.224 24.8906 29.9844C24.651 29.7448 24.3542 29.625 24 29.625C23.6458 29.625 23.349 29.7448 23.1094 29.9844C22.8698 30.224 22.75 30.5208 22.75 30.875C22.75 31.2292 22.8698 31.526 23.1094 31.7656C23.349 32.0052 23.6458 32.125 24 32.125ZM22.75 28.375H25.25V22.125H22.75V28.375Z" fill="#BA1A1A"/>
</svg>
