<svg width="32" height="32" viewBox="0 0 32 32" fill="none" xmlns="http://www.w3.org/2000/svg">
<g clip-path="url(#clip0_150_6584)">
<path d="M15.9996 15.1111C17.2302 15.1111 18.4332 14.7461 19.4564 14.0624C20.4797 13.3787 21.2772 12.407 21.7482 11.27C22.2191 10.133 22.3423 8.88195 22.1022 7.67496C21.8621 6.46796 21.2695 5.35927 20.3993 4.48908C19.5291 3.61888 18.4205 3.02627 17.2135 2.78619C16.0065 2.5461 14.7554 2.66932 13.6184 3.14027C12.4815 3.61121 11.5097 4.40873 10.826 5.43197C10.1423 6.45521 9.77734 7.65821 9.77734 8.88885C9.77734 10.5391 10.4329 12.1217 11.5998 13.2886C12.7667 14.4555 14.3493 15.1111 15.9996 15.1111ZM15.9996 4.44441C16.8786 4.44441 17.7379 4.70507 18.4688 5.19343C19.1997 5.68179 19.7693 6.37592 20.1057 7.18804C20.4421 8.00015 20.5301 8.89378 20.3586 9.75592C20.1871 10.6181 19.7638 11.41 19.1423 12.0315C18.5207 12.6531 17.7288 13.0764 16.8666 13.2479C16.0045 13.4194 15.1109 13.3314 14.2988 12.995C13.4866 12.6586 12.7925 12.0889 12.3041 11.3581C11.8158 10.6272 11.5551 9.76788 11.5551 8.88885C11.5551 7.71011 12.0234 6.57965 12.8569 5.74615C13.6904 4.91266 14.8208 4.44441 15.9996 4.44441Z" fill="#2E3132"/>
<path d="M27.0853 21.6622C25.6598 20.1556 23.942 18.9555 22.0369 18.1353C20.1318 17.3151 18.0795 16.8921 16.0053 16.8921C13.9312 16.8921 11.8788 17.3151 9.97372 18.1353C8.06863 18.9555 6.35082 20.1556 4.92531 21.6622C4.61626 21.9923 4.44461 22.4278 4.44531 22.88V27.5555C4.44531 28.027 4.63262 28.4792 4.96601 28.8126C5.29941 29.146 5.7516 29.3333 6.22309 29.3333H25.7786C26.2501 29.3333 26.7023 29.146 27.0357 28.8126C27.3691 28.4792 27.5564 28.027 27.5564 27.5555V22.88C27.5595 22.429 27.3911 21.9937 27.0853 21.6622ZM25.7786 27.5555H6.22309V22.8711C7.48285 21.5446 8.99935 20.4883 10.6803 19.7665C12.3612 19.0446 14.1715 18.6724 16.0009 18.6724C17.8302 18.6724 19.6405 19.0446 21.3214 19.7665C23.0024 20.4883 24.5189 21.5446 25.7786 22.8711V27.5555Z" fill="#2E3132"/>
</g>
<defs>
<clipPath id="clip0_150_6584">
<rect width="32" height="32" fill="white"/>
</clipPath>
</defs>
</svg>
