<svg width="32" height="32" viewBox="0 0 32 32" fill="none" xmlns="http://www.w3.org/2000/svg">
<g clip-path="url(#clip0_150_6626)">
<path fill-rule="evenodd" clip-rule="evenodd" d="M1.14567 8.20005C0.802526 8.36144 0.512395 8.61716 0.309178 8.93731C0.10596 9.25747 -0.00195313 9.62884 -0.00195312 10.008C-0.00195313 10.3873 0.10596 10.7586 0.309178 11.0788C0.512395 11.3989 0.802526 11.6547 1.14567 11.816L4.00567 13.166V21.006C4.00567 22.49 4.48767 24.146 5.89367 25.166C7.66567 26.446 10.8937 28.006 16.0137 28.006C21.1337 28.006 24.3537 26.436 26.1337 25.166C27.5397 24.15 28.0217 22.506 28.0217 21.006V13.166L30.0217 12.22V21C30.0217 21.2653 30.127 21.5196 30.3146 21.7072C30.5021 21.8947 30.7565 22 31.0217 22C31.2869 22 31.5412 21.8947 31.7288 21.7072C31.9163 21.5196 32.0217 21.2653 32.0217 21V10C32.0218 9.62128 31.9143 9.25028 31.7118 8.93021C31.5092 8.61014 31.22 8.35416 30.8777 8.19205L19.4377 2.79205C18.3684 2.28642 17.2004 2.02417 16.0177 2.02417C14.8349 2.02417 13.6669 2.28642 12.5977 2.79205L1.15767 8.19205L1.14567 8.20005ZM6.00567 21V14.1L12.5857 17.22C13.6549 17.7257 14.8229 17.9879 16.0057 17.9879C17.1884 17.9879 18.3564 17.7257 19.4257 17.22L26.0057 14.1V21C26.0057 22.112 25.6457 23.02 24.9457 23.52C23.4977 24.566 20.6857 26 16.0057 26C11.3257 26 8.50567 24.576 7.06567 23.52C6.36767 23.016 6.00567 22.102 6.00567 21ZM13.4457 4.60005C14.2459 4.221 15.1202 4.02438 16.0057 4.02438C16.8911 4.02438 17.7655 4.221 18.5657 4.60005L30.0057 10L18.5657 15.4C17.7655 15.7791 16.8911 15.9757 16.0057 15.9757C15.1202 15.9757 14.2459 15.7791 13.4457 15.4L2.00567 10L13.4457 4.60005Z" fill="#2563EB"/>
</g>
<defs>
<clipPath id="clip0_150_6626">
<rect width="32" height="32" fill="white"/>
</clipPath>
</defs>
</svg>
