<svg width="32" height="32" viewBox="0 0 32 32" fill="none" xmlns="http://www.w3.org/2000/svg">
<path d="M21.3327 29.3333V17.3333C21.3327 15.4479 21.3327 14.5053 20.746 13.9199C20.162 13.3333 19.2193 13.3333 17.3327 13.3333H14.666C12.7807 13.3333 11.838 13.3333 11.2527 13.9199C10.666 14.5039 10.666 15.4466 10.666 17.3333V29.3333" stroke="#2563EB" stroke-width="1.5" stroke-linecap="round"/>
<path opacity="0.5" d="M10.666 29.3333C10.666 27.4479 10.666 26.5053 10.0793 25.9199C9.49535 25.3333 8.55268 25.3333 6.66602 25.3333C4.77935 25.3333 3.83802 25.3333 3.25268 25.9199C2.66602 26.5039 2.66602 27.4466 2.66602 29.3333M29.3327 29.3333V25.3333C29.3327 23.4479 29.3327 22.5053 28.746 21.9199C28.162 21.3333 27.2193 21.3333 25.3327 21.3333C23.446 21.3333 22.5047 21.3333 21.9193 21.9199C21.3327 22.5039 21.3327 23.4466 21.3327 25.3333V29.3333" stroke="#2563EB" stroke-width="1.5" stroke-linecap="round"/>
<path d="M14.8598 4.03063C15.3664 3.11996 15.6198 2.66663 15.9984 2.66663C16.3771 2.66663 16.6304 3.11996 17.1371 4.03063L17.2678 4.26529C17.4118 4.52396 17.4838 4.65196 17.5958 4.73729C17.7091 4.82263 17.8491 4.85463 18.1291 4.91729L18.3824 4.97596C19.3664 5.19863 19.8584 5.30929 19.9758 5.68529C20.0931 6.06129 19.7571 6.45463 19.0864 7.23863L18.9131 7.44129C18.7224 7.66396 18.6264 7.77463 18.5838 7.91329C18.5411 8.05196 18.5558 8.19996 18.5838 8.49729L18.6104 8.76796C18.7118 9.81463 18.7624 10.3386 18.4571 10.5706C18.1504 10.804 17.6891 10.5906 16.7678 10.1666L16.5304 10.0573C16.2678 9.93729 16.1371 9.87596 15.9984 9.87596C15.8598 9.87596 15.7291 9.93729 15.4664 10.0573L15.2291 10.1666C14.3078 10.5906 13.8464 10.804 13.5398 10.5706C13.2331 10.3386 13.2851 9.81463 13.3864 8.76796L13.4131 8.49729C13.4411 8.19996 13.4558 8.05196 13.4131 7.91329C13.3704 7.77463 13.2744 7.66396 13.0838 7.44129L12.9104 7.23863C12.2398 6.45463 11.9038 6.06263 12.0211 5.68529C12.1384 5.30929 12.6304 5.19863 13.6144 4.97596L13.8678 4.91729C14.1478 4.85463 14.2878 4.82396 14.4011 4.73729C14.5131 4.65196 14.5851 4.52396 14.7291 4.26529L14.8598 4.03063Z" stroke="#2563EB" stroke-width="1.5"/>
</svg>
