<svg width="32" height="32" viewBox="0 0 32 32" fill="none" xmlns="http://www.w3.org/2000/svg">
<path d="M21.3327 9.33333C21.3327 6.81867 21.3327 5.56267 20.5513 4.78133C19.77 4 18.514 4 15.9993 4C13.4847 4 12.2287 4 11.4473 4.78133C10.666 5.56267 10.666 6.81867 10.666 9.33333M2.66602 18.6667C2.66602 14.9213 2.66602 13.0493 3.56468 11.704C3.9539 11.1214 4.45409 10.6212 5.03668 10.232C6.38202 9.33333 8.25268 9.33333 11.9993 9.33333H19.9993C23.7447 9.33333 25.6167 9.33333 26.962 10.232C27.5446 10.6212 28.0448 11.1214 28.434 11.704C29.3327 13.0493 29.3327 14.92 29.3327 18.6667C29.3327 22.4133 29.3327 24.284 28.434 25.6293C28.0448 26.2119 27.5446 26.7121 26.962 27.1013C25.6167 28 23.746 28 19.9993 28H11.9993C8.25402 28 6.38202 28 5.03668 27.1013C4.45409 26.7121 3.9539 26.2119 3.56468 25.6293C2.66602 24.284 2.66602 22.4133 2.66602 18.6667Z" stroke="#2563EB" stroke-width="1.5" stroke-linecap="round" stroke-linejoin="round"/>
<path d="M8 14.6667L8.86933 14.9361C13.517 16.3563 18.483 16.3563 23.1307 14.9361L24 14.6667M16 16.0001V18.6667" stroke="#2563EB" stroke-width="1.5" stroke-linecap="round" stroke-linejoin="round"/>
</svg>
