<svg width="40" height="40" viewBox="0 0 40 40" fill="none" xmlns="http://www.w3.org/2000/svg">
<rect width="40" height="40" rx="12" fill="#DBE1FF"/>
<path d="M20.0006 26.1622C19.0389 26.1622 18.1974 25.9846 17.4759 25.6295C16.7545 25.2743 16.1943 24.7779 15.7954 24.1402C15.3965 23.5026 15.197 22.7614 15.197 21.9167V14.3594H17.5843V21.7194C17.5843 22.1726 17.6848 22.5745 17.8857 22.925C18.0867 23.2755 18.3679 23.5511 18.7292 23.7519C19.0905 23.9527 19.5143 24.0531 20.0006 24.0531C20.4898 24.0531 20.9151 23.9527 21.2766 23.7519C21.6381 23.5511 21.9188 23.2755 22.1185 22.925C22.3183 22.5745 22.4182 22.1726 22.4182 21.7194V14.3594H24.8055V21.9167C24.8055 22.7614 24.6053 23.5026 24.205 24.1402C23.8047 24.7779 23.2443 25.2743 22.5238 25.6295C21.8034 25.9846 20.9623 26.1622 20.0006 26.1622Z" fill="#2563EB"/>
</svg>
