<svg width="30" height="20" viewBox="0 0 30 20" fill="none" xmlns="http://www.w3.org/2000/svg">
<path d="M15.625 9.9375C16.2292 9.27083 16.6927 8.51042 17.0156 7.65625C17.3385 6.80208 17.5 5.91667 17.5 5C17.5 4.08333 17.3385 3.19792 17.0156 2.34375C16.6927 1.48958 16.2292 0.729167 15.625 0.0625C16.875 0.229167 17.9167 0.78125 18.75 1.71875C19.5833 2.65625 20 3.75 20 5C20 6.25 19.5833 7.34375 18.75 8.28125C17.9167 9.21875 16.875 9.77083 15.625 9.9375ZM22.5 20V16.25C22.5 15.5 22.3333 14.7865 22 14.1094C21.6667 13.4323 21.2292 12.8333 20.6875 12.3125C21.75 12.6875 22.7344 13.1719 23.6406 13.7656C24.5469 14.3594 25 15.1875 25 16.25V20H22.5ZM25 11.25V8.75H22.5V6.25H25V3.75H27.5V6.25H30V8.75H27.5V11.25H25ZM10 10C8.625 10 7.44792 9.51042 6.46875 8.53125C5.48958 7.55208 5 6.375 5 5C5 3.625 5.48958 2.44792 6.46875 1.46875C7.44792 0.489583 8.625 0 10 0C11.375 0 12.5521 0.489583 13.5312 1.46875C14.5104 2.44792 15 3.625 15 5C15 6.375 14.5104 7.55208 13.5312 8.53125C12.5521 9.51042 11.375 10 10 10ZM0 20V16.5C0 15.7917 0.182292 15.1406 0.546875 14.5469C0.911458 13.9531 1.39583 13.5 2 13.1875C3.29167 12.5417 4.60417 12.0573 5.9375 11.7344C7.27083 11.4115 8.625 11.25 10 11.25C11.375 11.25 12.7292 11.4115 14.0625 11.7344C15.3958 12.0573 16.7083 12.5417 18 13.1875C18.6042 13.5 19.0885 13.9531 19.4531 14.5469C19.8177 15.1406 20 15.7917 20 16.5V20H0ZM10 7.5C10.6875 7.5 11.276 7.25521 11.7656 6.76562C12.2552 6.27604 12.5 5.6875 12.5 5C12.5 4.3125 12.2552 3.72396 11.7656 3.23438C11.276 2.74479 10.6875 2.5 10 2.5C9.3125 2.5 8.72396 2.74479 8.23438 3.23438C7.74479 3.72396 7.5 4.3125 7.5 5C7.5 5.6875 7.74479 6.27604 8.23438 6.76562C8.72396 7.25521 9.3125 7.5 10 7.5ZM2.5 17.5H17.5V16.5C17.5 16.2708 17.4427 16.0625 17.3281 15.875C17.2135 15.6875 17.0625 15.5417 16.875 15.4375C15.75 14.875 14.6146 14.4531 13.4688 14.1719C12.3229 13.8906 11.1667 13.75 10 13.75C8.83333 13.75 7.67708 13.8906 6.53125 14.1719C5.38542 14.4531 4.25 14.875 3.125 15.4375C2.9375 15.5417 2.78646 15.6875 2.67188 15.875C2.55729 16.0625 2.5 16.2708 2.5 16.5V17.5Z" fill="#2563EB"/>
</svg>
