<svg width="32" height="32" viewBox="0 0 32 32" fill="none" xmlns="http://www.w3.org/2000/svg">
<path d="M26.6673 13.3327C26.6673 19.99 19.282 26.9233 16.802 29.0647C16.571 29.2384 16.2897 29.3323 16.0007 29.3323C15.7116 29.3323 15.4304 29.2384 15.1993 29.0647C12.7193 26.9233 5.33398 19.99 5.33398 13.3327C5.33398 10.5037 6.45779 7.7906 8.45818 5.79021C10.4586 3.78982 13.1717 2.66602 16.0007 2.66602C18.8296 2.66602 21.5427 3.78982 23.5431 5.79021C25.5435 7.7906 26.6673 10.5037 26.6673 13.3327Z" stroke="#2E3132" stroke-width="2" stroke-linecap="round" stroke-linejoin="round"/>
<path d="M16 17.332C18.2091 17.332 20 15.5412 20 13.332C20 11.1229 18.2091 9.33203 16 9.33203C13.7909 9.33203 12 11.1229 12 13.332C12 15.5412 13.7909 17.332 16 17.332Z" stroke="#2E3132" stroke-width="2" stroke-linecap="round" stroke-linejoin="round"/>
</svg>
