<svg width="30" height="30" viewBox="0 0 30 30" fill="none" xmlns="http://www.w3.org/2000/svg">
<rect x="0.5" y="0.5" width="29" height="29" rx="3.5" stroke="#2563EB"/>
<path d="M15 22.0098L10.8 23.8098C10.1333 24.0931 9.5 24.0391 8.9 23.6478C8.3 23.2564 8 22.7021 8 21.9848V9.00977C8 8.45977 8.196 7.9891 8.588 7.59777C8.98 7.20643 9.45067 7.01043 10 7.00977H20C20.55 7.00977 21.021 7.20577 21.413 7.59777C21.805 7.98977 22.0007 8.46043 22 9.00977V21.9848C22 22.7014 21.7 23.2558 21.1 23.6478C20.5 24.0398 19.8667 24.0938 19.2 23.8098L15 22.0098ZM15 19.8098L20 21.9598V9.00977H10V21.9598L15 19.8098ZM15 9.00977H10H20H15Z" fill="#2563EB"/>
</svg>
