<svg width="32" height="32" viewBox="0 0 32 32" fill="none" xmlns="http://www.w3.org/2000/svg">
<path fill-rule="evenodd" clip-rule="evenodd" d="M30.202 6.112L20.854 0.48H20.734C20.254 0.16 19.6947 0 19.056 0C18.416 0 17.8167 0.16 17.258 0.48L1.8 9.588C1.24 9.908 0.8 10.348 0.48 10.908C0.16 11.464 0 12.022 0 12.582V22.65C0 23.29 0.16 23.8893 0.48 24.448C0.8 25.0067 1.23933 25.406 1.798 25.646L11.146 31.16C11.706 31.48 12.3053 31.64 12.944 31.64C13.5827 31.64 14.182 31.48 14.742 31.16L30.202 22.17C30.762 21.85 31.202 21.4107 31.522 20.852C31.842 20.2933 32.0013 19.6947 32 19.056V9.108C32 8.468 31.84 7.90867 31.52 7.43C31.2 6.87 30.7607 6.43067 30.202 6.112ZM4.434 11.506L18.816 3.116C18.976 3.036 19.136 3.036 19.296 3.116L27.446 7.91L13.184 16.18C13.024 16.34 12.864 16.34 12.704 16.18L4.434 11.506ZM11.386 27.926L3.236 23.132C3.076 23.052 2.996 22.892 2.996 22.652V14.02L11.386 18.934V27.926ZM14.5 18.936L14.74 18.816L29 10.546V19.176C29 19.336 28.8807 19.456 28.642 19.536L14.5 27.926V18.936Z" fill="#2E3132"/>
</svg>
