<svg width="32" height="32" viewBox="0 0 32 32" fill="none" xmlns="http://www.w3.org/2000/svg">
<g clip-path="url(#clip0_574_37199)">
<path d="M15.9996 15.1105C17.2302 15.1105 18.4332 14.7455 19.4564 14.0618C20.4797 13.3781 21.2772 12.4063 21.7482 11.2694C22.2191 10.1324 22.3423 8.88134 22.1022 7.67435C21.8621 6.46735 21.2695 5.35866 20.3993 4.48846C19.5291 3.61827 18.4205 3.02566 17.2135 2.78558C16.0065 2.54549 14.7554 2.66871 13.6184 3.13966C12.4815 3.6106 11.5097 4.40812 10.826 5.43136C10.1423 6.4546 9.77734 7.6576 9.77734 8.88824C9.77734 10.5385 10.4329 12.1211 11.5998 13.288C12.7667 14.4549 14.3493 15.1105 15.9996 15.1105ZM15.9996 4.4438C16.8786 4.4438 17.7379 4.70446 18.4688 5.19282C19.1997 5.68118 19.7693 6.37531 20.1057 7.18743C20.4421 7.99954 20.5301 8.89317 20.3586 9.75531C20.1871 10.6174 19.7638 11.4094 19.1423 12.0309C18.5207 12.6525 17.7288 13.0758 16.8666 13.2473C16.0045 13.4188 15.1109 13.3308 14.2988 12.9944C13.4866 12.658 12.7925 12.0883 12.3041 11.3574C11.8158 10.6266 11.5551 9.76727 11.5551 8.88824C11.5551 7.7095 12.0234 6.57904 12.8569 5.74554C13.6904 4.91205 14.8208 4.4438 15.9996 4.4438Z" fill="#2E3132"/>
<path d="M27.0853 21.6627C25.6598 20.156 23.942 18.9559 22.0369 18.1358C20.1318 17.3156 18.0795 16.8926 16.0053 16.8926C13.9312 16.8926 11.8788 17.3156 9.97372 18.1358C8.06863 18.9559 6.35082 20.156 4.92531 21.6627C4.61626 21.9928 4.44461 22.4283 4.44531 22.8805V27.556C4.44531 28.0275 4.63262 28.4797 4.96601 28.8131C5.29941 29.1465 5.7516 29.3338 6.22309 29.3338H25.7786C26.2501 29.3338 26.7023 29.1465 27.0357 28.8131C27.3691 28.4797 27.5564 28.0275 27.5564 27.556V22.8805C27.5595 22.4295 27.3911 21.9942 27.0853 21.6627ZM25.7786 27.556H6.22309V22.8716C7.48285 21.5451 8.99935 20.4888 10.6803 19.767C12.3612 19.0451 14.1715 18.6729 16.0009 18.6729C17.8302 18.6729 19.6405 19.0451 21.3214 19.767C23.0024 20.4888 24.5189 21.5451 25.7786 22.8716V27.556Z" fill="#2E3132"/>
</g>
<defs>
<clipPath id="clip0_574_37199">
<rect width="32" height="32" fill="white"/>
</clipPath>
</defs>
</svg>
