<svg width="32" height="32" viewBox="0 0 32 32" fill="none" xmlns="http://www.w3.org/2000/svg">
<rect width="32" height="32" rx="16" fill="#0266FF" fill-opacity="0.1"/>
<path d="M6.95287 20.5V10.3145H9.28152L12.4975 15.4706C12.661 15.7352 12.8276 16.0218 12.9973 16.3304C13.1671 16.639 13.3395 16.9824 13.5145 17.3607C13.6896 17.7389 13.865 18.1651 14.0406 18.6393H13.8265C13.7954 18.2597 13.7664 17.8566 13.7395 17.4299C13.7127 17.0033 13.6908 16.5934 13.674 16.2003C13.6571 15.8072 13.6487 15.4751 13.6487 15.204V10.3145H15.7818V20.5H13.4469L10.527 15.8254C10.3116 15.4728 10.1123 15.132 9.92914 14.8029C9.74594 14.4737 9.55542 14.1088 9.35759 13.7081C9.15976 13.3074 8.92367 12.8297 8.64933 12.2752H8.91443C8.9446 12.7663 8.9731 13.2383 8.99995 13.6913C9.02679 14.1443 9.04837 14.5537 9.06469 14.9195C9.081 15.2853 9.08916 15.5851 9.08916 15.8191V20.5H6.95287ZM17.6238 20.5V10.3145H21.6688C22.4142 10.3145 23.036 10.4271 23.5342 10.6525C24.0325 10.8778 24.4061 11.1871 24.6551 11.5802C24.904 11.9733 25.0285 12.4232 25.0285 12.9297C25.0285 13.3328 24.9486 13.6835 24.7887 13.9819C24.6288 14.2802 24.4114 14.5242 24.1363 14.7137C23.8612 14.9033 23.5485 15.0378 23.1981 15.1174V15.2205C23.5811 15.2362 23.942 15.345 24.2809 15.5467C24.6198 15.7485 24.8952 16.0309 25.1071 16.3939C25.319 16.7568 25.425 17.1902 25.425 17.6938C25.425 18.2289 25.2935 18.7082 25.0305 19.1319C24.7675 19.5556 24.3767 19.8895 23.8582 20.1337C23.3397 20.3779 22.6966 20.5 21.9289 20.5H17.6238ZM19.7126 18.783H21.5145C22.1278 18.783 22.5749 18.6648 22.8557 18.4284C23.1365 18.192 23.2769 17.881 23.2769 17.4956C23.2769 17.2079 23.2076 16.9532 23.0689 16.7313C22.9301 16.5094 22.7332 16.3352 22.478 16.2088C22.2228 16.0824 21.9195 16.0192 21.5681 16.0192H19.7126V18.783ZM19.7126 14.5932H21.3567C21.6549 14.5932 21.9219 14.5399 22.1578 14.4332C22.3938 14.3266 22.5799 14.1742 22.7161 13.9762C22.8524 13.7781 22.9205 13.5418 22.9205 13.2672C22.9205 12.8965 22.7889 12.5954 22.5255 12.3639C22.2622 12.1324 21.8863 12.0166 21.3978 12.0166H19.7126V14.5932Z" fill="#0055D7"/>
</svg>
