<svg width="48" height="48" viewBox="0 0 48 48" fill="none" xmlns="http://www.w3.org/2000/svg">
<rect width="48" height="48" rx="12" fill="white"/>
<path d="M24 34C23.45 34 22.9792 33.8042 22.5875 33.4125C22.1958 33.0208 22 32.55 22 32H26C26 32.55 25.8042 33.0208 25.4125 33.4125C25.0208 33.8042 24.55 34 24 34ZM20 31V29H28V31H20ZM20.25 28C19.1 27.3167 18.1875 26.4 17.5125 25.25C16.8375 24.1 16.5 22.85 16.5 21.5C16.5 19.4167 17.2292 17.6458 18.6875 16.1875C20.1458 14.7292 21.9167 14 24 14C26.0833 14 27.8542 14.7292 29.3125 16.1875C30.7708 17.6458 31.5 19.4167 31.5 21.5C31.5 22.85 31.1625 24.1 30.4875 25.25C29.8125 26.4 28.9 27.3167 27.75 28H20.25Z" fill="#0266FF"/>
</svg>
