<svg width="64" height="64" viewBox="0 0 64 64" fill="none" xmlns="http://www.w3.org/2000/svg">
<rect width="64" height="64" rx="12" fill="#E7E8E9"/>
<path d="M30.75 38.25H33.25V30.75H30.75V38.25ZM32 28.25C32.3542 28.25 32.651 28.1302 32.8906 27.8906C33.1302 27.651 33.25 27.3542 33.25 27C33.25 26.6458 33.1302 26.349 32.8906 26.1094C32.651 25.8698 32.3542 25.75 32 25.75C31.6458 25.75 31.349 25.8698 31.1094 26.1094C30.8698 26.349 30.75 26.6458 30.75 27C30.75 27.3542 30.8698 27.651 31.1094 27.8906C31.349 28.1302 31.6458 28.25 32 28.25ZM32 44.5C30.2708 44.5 28.6458 44.1719 27.125 43.5156C25.6042 42.8594 24.2812 41.9688 23.1562 40.8438C22.0312 39.7188 21.1406 38.3958 20.4844 36.875C19.8281 35.3542 19.5 33.7292 19.5 32C19.5 30.2708 19.8281 28.6458 20.4844 27.125C21.1406 25.6042 22.0312 24.2812 23.1562 23.1562C24.2812 22.0312 25.6042 21.1406 27.125 20.4844C28.6458 19.8281 30.2708 19.5 32 19.5C33.7292 19.5 35.3542 19.8281 36.875 20.4844C38.3958 21.1406 39.7188 22.0312 40.8438 23.1562C41.9688 24.2812 42.8594 25.6042 43.5156 27.125C44.1719 28.6458 44.5 30.2708 44.5 32C44.5 33.7292 44.1719 35.3542 43.5156 36.875C42.8594 38.3958 41.9688 39.7188 40.8438 40.8438C39.7188 41.9688 38.3958 42.8594 36.875 43.5156C35.3542 44.1719 33.7292 44.5 32 44.5Z" fill="#2563EB"/>
</svg>
