<svg width="10" height="11" viewBox="0 0 10 11" fill="none" xmlns="http://www.w3.org/2000/svg">
<path d="M1.75 10.5C1.42917 10.5 1.15451 10.3858 0.926042 10.1573C0.697569 9.92882 0.583333 9.65417 0.583333 9.33333V1.75H0V0.583333H2.91667V0H6.41667V0.583333H9.33333V1.75H8.75V9.33333C8.75 9.65417 8.63576 9.92882 8.40729 10.1573C8.17882 10.3858 7.90417 10.5 7.58333 10.5H1.75ZM7.58333 1.75H1.75V9.33333H7.58333V1.75ZM2.91667 8.16667H4.08333V2.91667H2.91667V8.16667ZM5.25 8.16667H6.41667V2.91667H5.25V8.16667ZM1.75 1.75V9.33333V1.75Z" fill="white"/>
</svg>
