<svg width="40" height="40" viewBox="0 0 40 40" fill="none" xmlns="http://www.w3.org/2000/svg">
<rect width="40" height="40" rx="20" fill="#EFF6FF"/>
<path d="M19.9987 20.8327C19.1793 20.8327 18.4883 20.5514 17.9258 19.9889C17.3633 19.4264 17.082 18.7355 17.082 17.916C17.082 17.0966 17.3633 16.4056 17.9258 15.8431C18.4883 15.2806 19.1793 14.9993 19.9987 14.9993C20.8181 14.9993 21.5091 15.2806 22.0716 15.8431C22.6341 16.4056 22.9154 17.0966 22.9154 17.916C22.9154 18.7355 22.6341 19.4264 22.0716 19.9889C21.5091 20.5514 20.8181 20.8327 19.9987 20.8327ZM19.9987 19.166C20.3598 19.166 20.6584 19.048 20.8945 18.8118C21.1306 18.5757 21.2487 18.2771 21.2487 17.916C21.2487 17.5549 21.1306 17.2563 20.8945 17.0202C20.6584 16.7841 20.3598 16.666 19.9987 16.666C19.6376 16.666 19.339 16.7841 19.1029 17.0202C18.8668 17.2563 18.7487 17.5549 18.7487 17.916C18.7487 18.2771 18.8668 18.5757 19.1029 18.8118C19.339 19.048 19.6376 19.166 19.9987 19.166ZM19.9987 28.3327C18.0681 27.8466 16.4744 26.7389 15.2174 25.0098C13.9605 23.2806 13.332 21.3605 13.332 19.2493V14.166L19.9987 11.666L26.6654 14.166V19.2493C26.6654 21.3605 26.0369 23.2806 24.7799 25.0098C23.523 26.7389 21.9293 27.8466 19.9987 28.3327ZM19.9987 13.4368L14.9987 15.3118V19.2493C14.9987 19.9993 15.1029 20.7285 15.3112 21.4368C15.5195 22.1452 15.8043 22.8118 16.1654 23.4368C16.7487 23.1452 17.3598 22.916 17.9987 22.7493C18.6376 22.5827 19.3043 22.4993 19.9987 22.4993C20.6931 22.4993 21.3598 22.5827 21.9987 22.7493C22.6376 22.916 23.2487 23.1452 23.832 23.4368C24.1931 22.8118 24.4779 22.1452 24.6862 21.4368C24.8945 20.7285 24.9987 19.9993 24.9987 19.2493V15.3118L19.9987 13.4368ZM19.9987 24.166C19.4987 24.166 19.0126 24.2216 18.5404 24.3327C18.0681 24.4438 17.6168 24.5966 17.1862 24.791C17.589 25.2077 18.0265 25.5688 18.4987 25.8743C18.9709 26.1799 19.4709 26.416 19.9987 26.5827C20.5265 26.416 21.0265 26.1799 21.4987 25.8743C21.9709 25.5688 22.4084 25.2077 22.8112 24.791C22.3806 24.5966 21.9293 24.4438 21.457 24.3327C20.9848 24.2216 20.4987 24.166 19.9987 24.166Z" fill="#2563EB"/>
</svg>
