<svg width="68" height="68" viewBox="0 0 68 68" fill="none" xmlns="http://www.w3.org/2000/svg">
<g filter="url(#filter0_d_1205_13040)">
<rect x="2" y="1" width="64" height="64" rx="32" fill="white" shape-rendering="crispEdges"/>
<path d="M27.125 43C25.2292 43 23.6094 42.3438 22.2656 41.0312C20.9219 39.7188 20.25 38.1146 20.25 36.2188C20.25 34.5938 20.7396 33.1458 21.7188 31.875C22.6979 30.6042 23.9792 29.7917 25.5625 29.4375C26.0833 27.5208 27.125 25.9688 28.6875 24.7812C30.25 23.5938 32.0208 23 34 23C36.4375 23 38.5052 23.849 40.2031 25.5469C41.901 27.2448 42.75 29.3125 42.75 31.75C44.1875 31.9167 45.3802 32.5365 46.3281 33.6094C47.276 34.6823 47.75 35.9375 47.75 37.375C47.75 38.9375 47.2031 40.2656 46.1094 41.3594C45.0156 42.4531 43.6875 43 42.125 43H35.25C34.5625 43 33.974 42.7552 33.4844 42.2656C32.9948 41.776 32.75 41.1875 32.75 40.5V34.0625L30.75 36L29 34.25L34 29.25L39 34.25L37.25 36L35.25 34.0625V40.5H42.125C43 40.5 43.7396 40.1979 44.3438 39.5938C44.9479 38.9896 45.25 38.25 45.25 37.375C45.25 36.5 44.9479 35.7604 44.3438 35.1562C43.7396 34.5521 43 34.25 42.125 34.25H40.25V31.75C40.25 30.0208 39.6406 28.5469 38.4219 27.3281C37.2031 26.1094 35.7292 25.5 34 25.5C32.2708 25.5 30.7969 26.1094 29.5781 27.3281C28.3594 28.5469 27.75 30.0208 27.75 31.75H27.125C25.9167 31.75 24.8854 32.1771 24.0312 33.0312C23.1771 33.8854 22.75 34.9167 22.75 36.125C22.75 37.3333 23.1771 38.3646 24.0312 39.2188C24.8854 40.0729 25.9167 40.5 27.125 40.5H30.25V43H27.125Z" fill="#2563EB"/>
</g>
<defs>
<filter id="filter0_d_1205_13040" x="0" y="0" width="68" height="68" filterUnits="userSpaceOnUse" color-interpolation-filters="sRGB">
<feFlood flood-opacity="0" result="BackgroundImageFix"/>
<feColorMatrix in="SourceAlpha" type="matrix" values="0 0 0 0 0 0 0 0 0 0 0 0 0 0 0 0 0 0 127 0" result="hardAlpha"/>
<feOffset dy="1"/>
<feGaussianBlur stdDeviation="1"/>
<feComposite in2="hardAlpha" operator="out"/>
<feColorMatrix type="matrix" values="0 0 0 0 0 0 0 0 0 0 0 0 0 0 0 0 0 0 0.05 0"/>
<feBlend mode="normal" in2="BackgroundImageFix" result="effect1_dropShadow_1205_13040"/>
<feBlend mode="normal" in="SourceGraphic" in2="effect1_dropShadow_1205_13040" result="shape"/>
</filter>
</defs>
</svg>
