<svg width="40" height="40" viewBox="0 0 40 40" fill="none" xmlns="http://www.w3.org/2000/svg">
<rect width="40" height="40" rx="20" fill="#EFF6FF"/>
<path d="M18.7057 22.9173C19.0391 23.2507 19.4696 23.4138 19.9974 23.4069C20.5252 23.4 20.9141 23.209 21.1641 22.834L25.8307 15.834L18.8307 20.5007C18.4557 20.7507 18.2578 21.1326 18.237 21.6465C18.2161 22.1604 18.3724 22.584 18.7057 22.9173ZM19.9974 13.334C20.8168 13.334 21.605 13.4486 22.362 13.6777C23.1189 13.9069 23.8307 14.2507 24.4974 14.709L22.9141 15.709C22.4557 15.4729 21.98 15.2958 21.487 15.1777C20.9939 15.0597 20.4974 15.0007 19.9974 15.0007C18.1502 15.0007 16.5773 15.65 15.2786 16.9486C13.98 18.2472 13.3307 19.8201 13.3307 21.6673C13.3307 22.2507 13.4106 22.827 13.5703 23.3965C13.73 23.9659 13.9557 24.5007 14.2474 25.0007H25.7474C26.0668 24.4729 26.2995 23.9243 26.4453 23.3548C26.5911 22.7854 26.6641 22.1951 26.6641 21.584C26.6641 21.084 26.605 20.5979 26.487 20.1257C26.3689 19.6534 26.1918 19.1951 25.9557 18.7507L26.9557 17.1673C27.3724 17.8201 27.7023 18.5145 27.9453 19.2507C28.1884 19.9868 28.3168 20.7507 28.3307 21.5423C28.3446 22.334 28.2543 23.0909 28.0599 23.8132C27.8655 24.5354 27.5807 25.2229 27.2057 25.8757C27.053 26.1257 26.8446 26.3201 26.5807 26.459C26.3168 26.5979 26.0391 26.6673 25.7474 26.6673H14.2474C13.9557 26.6673 13.678 26.5979 13.4141 26.459C13.1502 26.3201 12.9418 26.1257 12.7891 25.8757C12.428 25.2507 12.1502 24.5875 11.9557 23.8861C11.7613 23.1847 11.6641 22.4451 11.6641 21.6673C11.6641 20.5145 11.8828 19.4347 12.3203 18.4277C12.7578 17.4208 13.355 16.5388 14.112 15.7819C14.8689 15.025 15.7543 14.4277 16.7682 13.9902C17.7821 13.5527 18.8585 13.334 19.9974 13.334Z" fill="#2563EB"/>
</svg>
