<svg width="40" height="40" viewBox="0 0 40 40" fill="none" xmlns="http://www.w3.org/2000/svg">
<rect width="40" height="40" rx="20" fill="#F1F5F9"/>
<rect x="1" y="1" width="38" height="38" rx="19" stroke="#434655" stroke-opacity="0.2" stroke-width="2"/>
<path d="M15.6068 22.1862V16.1717H17.0938V22.1862H15.6068ZM13.3475 19.8823V18.4729H19.3531V19.8823H13.3475ZM20.8896 23.5V22.2131L23.983 19.3103C24.2482 19.0516 24.4723 18.8184 24.6555 18.6108C24.8387 18.4031 24.9782 18.1987 25.0738 17.9975C25.1695 17.7963 25.2173 17.5778 25.2173 17.342C25.2173 17.0817 25.1582 16.8575 25.0401 16.6697C24.9219 16.4818 24.7614 16.3373 24.5586 16.2361C24.3557 16.1349 24.1234 16.0843 23.8615 16.0843C23.5906 16.0843 23.3542 16.139 23.1523 16.2485C22.9503 16.3579 22.794 16.5141 22.6834 16.7172C22.5727 16.9202 22.5174 17.1636 22.5174 17.4474H20.8118C20.8118 16.879 20.9409 16.3858 21.1993 15.9678C21.4576 15.5497 21.8171 15.226 22.2779 14.9965C22.7387 14.7671 23.2711 14.6523 23.875 14.6523C24.4915 14.6523 25.0301 14.7623 25.4906 14.9823C25.9511 15.2022 26.3093 15.5058 26.5653 15.8931C26.8212 16.2803 26.9492 16.7256 26.9492 17.2291C26.9492 17.556 26.8857 17.8774 26.7587 18.1931C26.6317 18.5088 26.4056 18.8624 26.0803 19.254C25.7551 19.6455 25.2935 20.1158 24.6956 20.6648L23.374 21.967V22.031H27.0672V23.5H20.8896Z" fill="#475569"/>
</svg>
