<svg width="608" height="109" viewBox="0 0 608 109" fill="none" xmlns="http://www.w3.org/2000/svg">
<mask id="path-1-inside-1_829_31012" fill="white">
<path d="M0 0H608V109H0V0Z"/>
</mask>
<path d="M0 0H608V109H0V0Z" fill="#F3F4F5"/>
<path d="M608 109V108H0V109V110H608V109Z" fill="#E7E8E9" mask="url(#path-1-inside-1_829_31012)"/>
<path d="M32 39V25H37.525C38.6083 25 39.6083 25.3333 40.525 26C41.4417 26.6667 41.9 27.5917 41.9 28.775C41.9 29.625 41.7083 30.2792 41.325 30.7375C40.9417 31.1958 40.5833 31.525 40.25 31.725C40.6667 31.9083 41.1292 32.25 41.6375 32.75C42.1458 33.25 42.4 34 42.4 35C42.4 36.4833 41.8583 37.5208 40.775 38.1125C39.6917 38.7042 38.675 39 37.725 39H32ZM35.025 36.2H37.625C38.425 36.2 38.9125 35.9958 39.0875 35.5875C39.2625 35.1792 39.35 34.8833 39.35 34.7C39.35 34.5167 39.2625 34.2208 39.0875 33.8125C38.9125 33.4042 38.4 33.2 37.55 33.2H35.025V36.2ZM35.025 30.5H37.35C37.9 30.5 38.3 30.3583 38.55 30.075C38.8 29.7917 38.925 29.475 38.925 29.125C38.925 28.725 38.7833 28.4 38.5 28.15C38.2167 27.9 37.85 27.775 37.4 27.775H35.025V30.5Z" fill="#2E3132"/>
<path d="M76.0195 39V36.5H80.0195L83.0195 27.5H79.0195V25H89.0195V27.5H85.5195L82.5195 36.5H86.0195V39H76.0195Z" fill="#2E3132"/>
<path d="M120.029 41V39H134.029V41H120.029ZM127.029 37C125.346 37 124.038 36.475 123.104 35.425C122.171 34.375 121.704 32.9833 121.704 31.25V23H124.279V31.4C124.279 32.3333 124.513 33.0917 124.979 33.675C125.446 34.2583 126.129 34.55 127.029 34.55C127.929 34.55 128.613 34.2583 129.079 33.675C129.546 33.0917 129.779 32.3333 129.779 31.4V23H132.354V31.25C132.354 32.9833 131.888 34.375 130.954 35.425C130.021 36.475 128.713 37 127.029 37Z" fill="#2E3132"/>
<rect x="164.051" y="24" width="1" height="16" fill="#434655" fill-opacity="0.2"/>
<path d="M191.051 39V37H203.051V39H191.051ZM191.051 33V31H203.051V33H191.051ZM191.051 27V25H203.051V27H191.051ZM187.051 40C186.501 40 186.03 39.8042 185.638 39.4125C185.247 39.0208 185.051 38.55 185.051 38C185.051 37.45 185.247 36.9792 185.638 36.5875C186.03 36.1958 186.501 36 187.051 36C187.601 36 188.072 36.1958 188.463 36.5875C188.855 36.9792 189.051 37.45 189.051 38C189.051 38.55 188.855 39.0208 188.463 39.4125C188.072 39.8042 187.601 40 187.051 40ZM187.051 34C186.501 34 186.03 33.8042 185.638 33.4125C185.247 33.0208 185.051 32.55 185.051 32C185.051 31.45 185.247 30.9792 185.638 30.5875C186.03 30.1958 186.501 30 187.051 30C187.601 30 188.072 30.1958 188.463 30.5875C188.855 30.9792 189.051 31.45 189.051 32C189.051 32.55 188.855 33.0208 188.463 33.4125C188.072 33.8042 187.601 34 187.051 34ZM187.051 28C186.501 28 186.03 27.8042 185.638 27.4125C185.247 27.0208 185.051 26.55 185.051 26C185.051 25.45 185.247 24.9792 185.638 24.5875C186.03 24.1958 186.501 24 187.051 24C187.601 24 188.072 24.1958 188.463 24.5875C188.855 24.9792 189.051 25.45 189.051 26C189.051 26.55 188.855 27.0208 188.463 27.4125C188.072 27.8042 187.601 28 187.051 28Z" fill="#2E3132"/>
<path d="M229.061 42V40.5H231.561V39.75H230.061V38.25H231.561V37.5H229.061V36H232.061C232.344 36 232.581 36.0958 232.773 36.2875C232.965 36.4792 233.061 36.7167 233.061 37V38C233.061 38.2833 232.965 38.5208 232.773 38.7125C232.581 38.9042 232.344 39 232.061 39C232.344 39 232.581 39.0958 232.773 39.2875C232.965 39.4792 233.061 39.7167 233.061 40V41C233.061 41.2833 232.965 41.5208 232.773 41.7125C232.581 41.9042 232.344 42 232.061 42H229.061ZM229.061 35V32.25C229.061 31.9667 229.156 31.7292 229.348 31.5375C229.54 31.3458 229.777 31.25 230.061 31.25H231.561V30.5H229.061V29H232.061C232.344 29 232.581 29.0958 232.773 29.2875C232.965 29.4792 233.061 29.7167 233.061 30V31.75C233.061 32.0333 232.965 32.2708 232.773 32.4625C232.581 32.6542 232.344 32.75 232.061 32.75H230.561V33.5H233.061V35H229.061ZM230.561 28V23.5H229.061V22H232.061V28H230.561ZM235.061 39V37H247.061V39H235.061ZM235.061 33V31H247.061V33H235.061ZM235.061 27V25H247.061V27H235.061Z" fill="#2E3132"/>
<path d="M274.78 38L277.08 34C275.98 34 275.038 33.6083 274.255 32.825C273.472 32.0417 273.08 31.1 273.08 30C273.08 28.9 273.472 27.9583 274.255 27.175C275.038 26.3917 275.98 26 277.08 26C278.18 26 279.122 26.3917 279.905 27.175C280.688 27.9583 281.08 28.9 281.08 30C281.08 30.3833 281.034 30.7375 280.943 31.0625C280.851 31.3875 280.713 31.7 280.53 32L277.08 38H274.78ZM283.78 38L286.08 34C284.98 34 284.038 33.6083 283.255 32.825C282.472 32.0417 282.08 31.1 282.08 30C282.08 28.9 282.472 27.9583 283.255 27.175C284.038 26.3917 284.98 26 286.08 26C287.18 26 288.122 26.3917 288.905 27.175C289.688 27.9583 290.08 28.9 290.08 30C290.08 30.3833 290.034 30.7375 289.943 31.0625C289.851 31.3875 289.713 31.7 289.53 32L286.08 38H283.78ZM277.08 31.5C277.497 31.5 277.851 31.3542 278.143 31.0625C278.434 30.7708 278.58 30.4167 278.58 30C278.58 29.5833 278.434 29.2292 278.143 28.9375C277.851 28.6458 277.497 28.5 277.08 28.5C276.663 28.5 276.309 28.6458 276.018 28.9375C275.726 29.2292 275.58 29.5833 275.58 30C275.58 30.4167 275.726 30.7708 276.018 31.0625C276.309 31.3542 276.663 31.5 277.08 31.5ZM286.08 31.5C286.497 31.5 286.851 31.3542 287.143 31.0625C287.434 30.7708 287.58 30.4167 287.58 30C287.58 29.5833 287.434 29.2292 287.143 28.9375C286.851 28.6458 286.497 28.5 286.08 28.5C285.663 28.5 285.309 28.6458 285.018 28.9375C284.726 29.2292 284.58 29.5833 284.58 30C284.58 30.4167 284.726 30.7708 285.018 31.0625C285.309 31.3542 285.663 31.5 286.08 31.5Z" fill="#2E3132"/>
<rect x="317.09" y="24" width="1" height="16" fill="#434655" fill-opacity="0.2"/>
<path d="M347.09 37H343.09C341.707 37 340.527 36.5125 339.552 35.5375C338.577 34.5625 338.09 33.3833 338.09 32C338.09 30.6167 338.577 29.4375 339.552 28.4625C340.527 27.4875 341.707 27 343.09 27H347.09V29H343.09C342.257 29 341.548 29.2917 340.965 29.875C340.382 30.4583 340.09 31.1667 340.09 32C340.09 32.8333 340.382 33.5417 340.965 34.125C341.548 34.7083 342.257 35 343.09 35H347.09V37ZM344.09 33V31H352.09V33H344.09ZM349.09 37V35H353.09C353.923 35 354.632 34.7083 355.215 34.125C355.798 33.5417 356.09 32.8333 356.09 32C356.09 31.1667 355.798 30.4583 355.215 29.875C354.632 29.2917 353.923 29 353.09 29H349.09V27H353.09C354.473 27 355.652 27.4875 356.627 28.4625C357.602 29.4375 358.09 30.6167 358.09 32C358.09 33.3833 357.602 34.5625 356.627 35.5375C355.652 36.5125 354.473 37 353.09 37H349.09Z" fill="#2E3132"/>
<path d="M384.109 41C383.559 41 383.089 40.8042 382.697 40.4125C382.305 40.0208 382.109 39.55 382.109 39V25C382.109 24.45 382.305 23.9792 382.697 23.5875C383.089 23.1958 383.559 23 384.109 23H398.109C398.659 23 399.13 23.1958 399.522 23.5875C399.914 23.9792 400.109 24.45 400.109 25V39C400.109 39.55 399.914 40.0208 399.522 40.4125C399.13 40.8042 398.659 41 398.109 41H384.109ZM384.109 39H398.109V25H384.109V39ZM385.109 37H397.109L393.359 32L390.359 36L388.109 33L385.109 37ZM384.109 39V25V39Z" fill="#2E3132"/>
<path d="M428.131 40C427.581 40 427.11 39.8042 426.718 39.4125C426.327 39.0208 426.131 38.55 426.131 38V26C426.131 25.45 426.327 24.9792 426.718 24.5875C427.11 24.1958 427.581 24 428.131 24H440.131C440.681 24 441.152 24.1958 441.543 24.5875C441.935 24.9792 442.131 25.45 442.131 26V30.5L446.131 26.5V37.5L442.131 33.5V38C442.131 38.55 441.935 39.0208 441.543 39.4125C441.152 39.8042 440.681 40 440.131 40H428.131ZM428.131 38H440.131V26H428.131V38ZM428.131 38V26V38Z" fill="#2E3132"/>
<rect x="470.141" y="24" width="1" height="16" fill="#434655" fill-opacity="0.2"/>
<path d="M491.141 41V39H509.141V41H491.141ZM491.141 37V35H503.141V37H491.141ZM491.141 33V31H509.141V33H491.141ZM491.141 29V27H503.141V29H491.141ZM491.141 25V23H509.141V25H491.141Z" fill="#2E3132"/>
<path d="M535.16 41V39H553.16V41H535.16ZM539.16 37V35H549.16V37H539.16ZM535.16 33V31H553.16V33H535.16ZM539.16 29V27H549.16V29H539.16ZM535.16 25V23H553.16V25H535.16Z" fill="#2E3132"/>
<path d="M38 82L32 76L38 70L39.425 71.425L34.825 76.025L39.4 80.6L38 82ZM46 82L44.575 80.575L49.175 75.975L44.6 71.4L46 70L52 76L46 82Z" fill="#2E3132"/>
<path d="M510.969 78V69.2727H516.381V70.4062H512.285V73.0653H515.993V74.1946H512.285V78H510.969ZM520.174 78.1321C519.561 78.1321 519.025 77.9915 518.568 77.7102C518.11 77.429 517.755 77.0355 517.502 76.5298C517.249 76.0241 517.123 75.4332 517.123 74.7571C517.123 74.0781 517.249 73.4844 517.502 72.9759C517.755 72.4673 518.11 72.0724 518.568 71.7912C519.025 71.5099 519.561 71.3693 520.174 71.3693C520.788 71.3693 521.323 71.5099 521.781 71.7912C522.238 72.0724 522.593 72.4673 522.846 72.9759C523.099 73.4844 523.225 74.0781 523.225 74.7571C523.225 75.4332 523.099 76.0241 522.846 76.5298C522.593 77.0355 522.238 77.429 521.781 77.7102C521.323 77.9915 520.788 78.1321 520.174 78.1321ZM520.178 77.0625C520.576 77.0625 520.906 76.9574 521.167 76.7472C521.428 76.5369 521.622 76.2571 521.747 75.9077C521.874 75.5582 521.938 75.1733 521.938 74.7528C521.938 74.3352 521.874 73.9517 521.747 73.6023C521.622 73.25 521.428 72.9673 521.167 72.7543C520.906 72.5412 520.576 72.4347 520.178 72.4347C519.778 72.4347 519.445 72.5412 519.181 72.7543C518.92 72.9673 518.725 73.25 518.597 73.6023C518.472 73.9517 518.41 74.3352 518.41 74.7528C518.41 75.1733 518.472 75.5582 518.597 75.9077C518.725 76.2571 518.92 76.5369 519.181 76.7472C519.445 76.9574 519.778 77.0625 520.178 77.0625ZM525.922 74.1136V78H524.648V71.4545H525.871V72.5199H525.952C526.102 72.1733 526.338 71.8949 526.659 71.6847C526.983 71.4744 527.39 71.3693 527.882 71.3693C528.328 71.3693 528.719 71.4631 529.054 71.6506C529.389 71.8352 529.649 72.1108 529.834 72.4773C530.018 72.8437 530.111 73.2969 530.111 73.8366V78H528.836V73.9901C528.836 73.5156 528.713 73.1449 528.466 72.8778C528.219 72.608 527.879 72.473 527.447 72.473C527.152 72.473 526.889 72.5369 526.659 72.6648C526.432 72.7926 526.251 72.9801 526.118 73.2273C525.987 73.4716 525.922 73.767 525.922 74.1136ZM534.875 71.4545V72.4773H531.3V71.4545H534.875ZM532.258 69.8864H533.532V76.0781C533.532 76.3253 533.569 76.5114 533.643 76.6364C533.717 76.7585 533.812 76.8423 533.929 76.8878C534.048 76.9304 534.177 76.9517 534.317 76.9517C534.419 76.9517 534.508 76.9446 534.585 76.9304C534.662 76.9162 534.721 76.9048 534.764 76.8963L534.994 77.9489C534.92 77.9773 534.815 78.0057 534.679 78.0341C534.542 78.0653 534.372 78.0824 534.167 78.0852C533.832 78.0909 533.52 78.0312 533.23 77.9062C532.94 77.7812 532.706 77.5881 532.527 77.3267C532.348 77.0653 532.258 76.7372 532.258 76.3423V69.8864ZM537.124 78.081C536.891 78.081 536.691 77.9986 536.523 77.8338C536.355 77.6662 536.271 77.4645 536.271 77.2287C536.271 76.9957 536.355 76.7969 536.523 76.6321C536.691 76.4645 536.891 76.3807 537.124 76.3807C537.357 76.3807 537.557 76.4645 537.725 76.6321C537.892 76.7969 537.976 76.9957 537.976 77.2287C537.976 77.3849 537.936 77.5284 537.857 77.6591C537.78 77.7869 537.678 77.8892 537.55 77.9659C537.422 78.0426 537.28 78.081 537.124 78.081ZM537.124 73.3168C536.891 73.3168 536.691 73.233 536.523 73.0653C536.355 72.8977 536.271 72.6974 536.271 72.4645C536.271 72.2315 536.355 72.0327 536.523 71.8679C536.691 71.7003 536.891 71.6165 537.124 71.6165C537.357 71.6165 537.557 71.7003 537.725 71.8679C537.892 72.0327 537.976 72.2315 537.976 72.4645C537.976 72.6207 537.936 72.7642 537.857 72.8949C537.78 73.0227 537.678 73.125 537.55 73.2017C537.422 73.2784 537.28 73.3168 537.124 73.3168ZM544.278 69.2727V78H542.961V69.2727H544.278ZM547.367 74.1136V78H546.093V71.4545H547.316V72.5199H547.397C547.547 72.1733 547.783 71.8949 548.104 71.6847C548.428 71.4744 548.836 71.3693 549.327 71.3693C549.773 71.3693 550.164 71.4631 550.499 71.6506C550.834 71.8352 551.094 72.1108 551.279 72.4773C551.464 72.8437 551.556 73.2969 551.556 73.8366V78H550.282V73.9901C550.282 73.5156 550.158 73.1449 549.911 72.8778C549.664 72.608 549.324 72.473 548.893 72.473C548.597 72.473 548.334 72.5369 548.104 72.6648C547.877 72.7926 547.697 72.9801 547.563 73.2273C547.432 73.4716 547.367 73.767 547.367 74.1136ZM556.32 71.4545V72.4773H552.745V71.4545H556.32ZM553.704 69.8864H554.978V76.0781C554.978 76.3253 555.015 76.5114 555.089 76.6364C555.162 76.7585 555.258 76.8423 555.374 76.8878C555.493 76.9304 555.623 76.9517 555.762 76.9517C555.864 76.9517 555.954 76.9446 556.03 76.9304C556.107 76.9162 556.167 76.9048 556.209 76.8963L556.439 77.9489C556.366 77.9773 556.26 78.0057 556.124 78.0341C555.988 78.0653 555.817 78.0824 555.613 78.0852C555.278 78.0909 554.965 78.0312 554.675 77.9062C554.385 77.7812 554.151 77.5881 553.972 77.3267C553.793 77.0653 553.704 76.7372 553.704 76.3423V69.8864ZM560.48 78.1321C559.835 78.1321 559.28 77.9943 558.814 77.7188C558.351 77.4403 557.993 77.0497 557.74 76.5469C557.49 76.0412 557.365 75.4489 557.365 74.7699C557.365 74.0994 557.49 73.5085 557.74 72.9972C557.993 72.4858 558.345 72.0866 558.797 71.7997C559.252 71.5128 559.783 71.3693 560.391 71.3693C560.76 71.3693 561.118 71.4304 561.465 71.5526C561.811 71.6747 562.122 71.8665 562.398 72.1278C562.673 72.3892 562.891 72.7287 563.05 73.1463C563.209 73.5611 563.289 74.0653 563.289 74.6591V75.1108H558.085V74.1562H562.04C562.04 73.821 561.972 73.5241 561.835 73.2656C561.699 73.0043 561.507 72.7983 561.26 72.6477C561.016 72.4972 560.729 72.4219 560.399 72.4219C560.041 72.4219 559.729 72.5099 559.462 72.6861C559.198 72.8594 558.993 73.0866 558.848 73.3679C558.706 73.6463 558.635 73.9489 558.635 74.2756V75.0213C558.635 75.4588 558.712 75.831 558.865 76.1378C559.021 76.4446 559.239 76.679 559.517 76.8409C559.796 77 560.121 77.0795 560.493 77.0795C560.735 77.0795 560.955 77.0455 561.154 76.9773C561.352 76.9062 561.524 76.8011 561.669 76.6619C561.814 76.5227 561.925 76.3509 562.002 76.1463L563.208 76.3636C563.111 76.7187 562.938 77.0298 562.688 77.2969C562.441 77.5611 562.129 77.767 561.754 77.9148C561.382 78.0597 560.958 78.1321 560.48 78.1321ZM564.702 78V71.4545H565.934V72.4943H566.002C566.121 72.142 566.331 71.8651 566.633 71.6634C566.937 71.4588 567.28 71.3565 567.664 71.3565C567.743 71.3565 567.837 71.3594 567.945 71.3651C568.056 71.3707 568.143 71.3778 568.205 71.3864V72.6051C568.154 72.5909 568.063 72.5753 567.932 72.5582C567.802 72.5384 567.671 72.5284 567.54 72.5284C567.239 72.5284 566.971 72.5923 566.735 72.7202C566.502 72.8452 566.317 73.0199 566.181 73.2443C566.045 73.4659 565.976 73.7187 565.976 74.0028V78H564.702Z" fill="#434655" fill-opacity="0.76"/>
<path d="M580.5 76.1585L577 72.6585L577.817 71.8418L580.5 74.5251L583.183 71.8418L584 72.6585L580.5 76.1585Z" fill="#434655" fill-opacity="0.76"/>
</svg>
