<svg width="44" height="48" viewBox="0 0 44 48" fill="none" xmlns="http://www.w3.org/2000/svg">
<rect width="43.28" height="48" rx="12" fill="#E7E8E9"/>
<path d="M20.3281 28.4375L27.3906 21.375L25.6094 19.5938L20.3281 24.875L17.7031 22.25L15.9219 24.0312L20.3281 28.4375ZM21.6406 36.5C18.7448 35.7708 16.3542 34.1094 14.4688 31.5156C12.5833 28.9219 11.6406 26.0417 11.6406 22.875V15.25L21.6406 11.5L31.6406 15.25V22.875C31.6406 26.0417 30.6979 28.9219 28.8125 31.5156C26.9271 34.1094 24.5365 35.7708 21.6406 36.5ZM21.6406 33.875C23.8073 33.1875 25.599 31.8125 27.0156 29.75C28.4323 27.6875 29.1406 25.3958 29.1406 22.875V16.9688L21.6406 14.1562L14.1406 16.9688V22.875C14.1406 25.3958 14.849 27.6875 16.2656 29.75C17.6823 31.8125 19.474 33.1875 21.6406 33.875Z" fill="#2563EB"/>
</svg>
