<svg width="68" height="84" viewBox="0 0 68 84" fill="none" xmlns="http://www.w3.org/2000/svg">
<g filter="url(#filter0_d_923_47550)">
<rect x="2" y="1" width="64" height="80" rx="8" fill="white"/>
<rect x="2.5" y="1.5" width="63" height="79" rx="7.5" stroke="#EFF6FF"/>
<path d="M35.166 22.4987H41.5827L35.166 16.082V22.4987ZM26.9993 14.332H36.3327L43.3327 21.332V35.332C43.3327 35.9509 43.0868 36.5444 42.6493 36.9819C42.2117 37.4195 41.6182 37.6654 40.9993 37.6654H26.9993C26.3805 37.6654 25.787 37.4195 25.3494 36.9819C24.9118 36.5444 24.666 35.9509 24.666 35.332V16.6654C24.666 16.0465 24.9118 15.453 25.3494 15.0154C25.787 14.5779 26.3805 14.332 26.9993 14.332ZM32.751 26.512C33.2293 27.562 33.836 28.4254 34.536 29.0204L35.0143 29.3937C33.9993 29.5804 32.5993 29.907 31.1177 30.4787L30.9893 30.5254L31.5727 29.312C32.0977 28.297 32.4827 27.3754 32.751 26.512ZM40.311 30.957C40.521 30.747 40.626 30.4787 40.6377 30.187C40.6727 29.9537 40.6143 29.732 40.4977 29.5454C40.1593 28.997 39.2843 28.7404 37.8377 28.7404L36.3327 28.822L35.3177 28.1454C34.5827 27.5387 33.9177 26.477 33.451 25.1587L33.4977 24.9954C33.8827 23.4437 34.2443 21.5654 33.4743 20.7954C33.3802 20.7039 33.2688 20.6321 33.1466 20.584C33.0244 20.5359 32.8939 20.5126 32.7627 20.5154H32.4827C32.051 20.5154 31.666 20.9704 31.561 21.4137C31.1293 22.9654 31.386 23.817 31.8177 25.2287V25.2404C31.526 26.267 31.1527 27.457 30.5577 28.6587L29.4377 30.7587L28.3993 31.3304C26.9993 32.2054 26.3343 33.1854 26.206 33.8037C26.1593 34.0254 26.1827 34.2237 26.2643 34.4337L26.2993 34.492L26.8593 34.8537L27.3727 34.982C28.3177 34.982 29.391 33.8737 30.8377 31.4004L31.0477 31.3187C32.2493 30.9337 33.7427 30.6654 35.7493 30.4437C36.951 31.0387 38.3627 31.307 39.2493 31.307C39.7627 31.307 40.1127 31.1787 40.311 30.957ZM39.8327 30.1287L39.9377 30.257C39.926 30.3737 39.891 30.3854 39.8327 30.4087H39.786L39.5643 30.432C39.0277 30.432 38.1993 30.2104 37.3477 29.837C37.4527 29.7204 37.4993 29.7204 37.616 29.7204C39.2493 29.7204 39.716 30.012 39.8327 30.1287ZM29.1343 31.832C28.376 33.2204 27.6877 33.9904 27.1627 34.1654C27.221 33.722 27.746 32.952 28.5743 32.1937L29.1343 31.832ZM32.6577 23.7704C32.3893 22.7204 32.3777 21.8687 32.576 21.3787L32.6577 21.2387L32.8327 21.297C33.031 21.577 33.0543 21.9504 32.9377 22.5804L32.9027 22.767L32.716 23.7237L32.6577 23.7704Z" fill="#BA1A1A"/>
<rect width="62" height="20" transform="translate(3 60)" fill="#F3F4F5"/>
<path d="M25.8985 73V67.1797H28.1691C28.611 67.1797 28.9869 67.2638 29.2967 67.432C29.6066 67.6001 29.843 67.832 30.006 68.1275C30.1691 68.423 30.2506 68.7622 30.2506 69.1452C30.2506 69.5295 30.168 69.8683 30.0029 70.1615C29.8377 70.4547 29.5981 70.6842 29.2839 70.8502C28.9697 71.0162 28.5889 71.0992 28.1414 71.0992H26.6827V70.1367H27.9523C28.1949 70.1367 28.3951 70.0945 28.5531 70.0102C28.7111 69.9258 28.8285 69.809 28.9054 69.6599C28.9823 69.5107 29.0208 69.3392 29.0208 69.1452C29.0208 68.9483 28.9823 68.7763 28.9054 68.6291C28.8285 68.4818 28.7108 68.3674 28.5522 68.2857C28.3936 68.2041 28.1925 68.1632 27.9487 68.1632H27.0921V73H25.8985ZM33.9284 73H32.4209V71.9725H33.8731C34.2472 71.9725 34.5611 71.9062 34.8146 71.7738C35.0681 71.6413 35.2591 71.4357 35.3874 71.1569C35.5157 70.8781 35.5799 70.5214 35.5799 70.0866C35.5799 69.6528 35.5153 69.2974 35.3862 69.0204C35.257 68.7434 35.0667 68.5387 34.8151 68.4061C34.5636 68.2735 34.2519 68.2072 33.8802 68.2072H32.3939V67.1797H33.9499C34.5345 67.1797 35.0368 67.2959 35.4567 67.5284C35.8766 67.7609 36.2 68.0943 36.4268 68.5286C36.6536 68.9629 36.767 69.4822 36.767 70.0866C36.767 70.6919 36.6536 71.2124 36.4269 71.6479C36.2002 72.0833 35.8749 72.4176 35.451 72.6505C35.0271 72.8835 34.5196 73 33.9284 73ZM33.0757 67.1797V73H31.8821V67.1797H33.0757ZM38.4594 73V67.1797H42.2891V68.1692H39.6531V69.7944H42.0319V70.7671H39.6531V73H38.4594Z" fill="#434655" fill-opacity="0.76"/>
</g>
<defs>
<filter id="filter0_d_923_47550" x="0" y="0" width="68" height="84" filterUnits="userSpaceOnUse" color-interpolation-filters="sRGB">
<feFlood flood-opacity="0" result="BackgroundImageFix"/>
<feColorMatrix in="SourceAlpha" type="matrix" values="0 0 0 0 0 0 0 0 0 0 0 0 0 0 0 0 0 0 127 0" result="hardAlpha"/>
<feOffset dy="1"/>
<feGaussianBlur stdDeviation="1"/>
<feComposite in2="hardAlpha" operator="out"/>
<feColorMatrix type="matrix" values="0 0 0 0 0 0 0 0 0 0 0 0 0 0 0 0 0 0 0.05 0"/>
<feBlend mode="normal" in2="BackgroundImageFix" result="effect1_dropShadow_923_47550"/>
<feBlend mode="normal" in="SourceGraphic" in2="effect1_dropShadow_923_47550" result="shape"/>
</filter>
</defs>
</svg>
