<svg width="96" height="96" viewBox="0 0 96 96" fill="none" xmlns="http://www.w3.org/2000/svg">
<rect width="96" height="96" rx="16" fill="#F3F4F5"/>
<path d="M40.5 55.5H43.5V48H40.5V55.5ZM52.5 55.5H55.5V40.5H52.5V55.5ZM46.5 55.5H49.5V51H46.5V55.5ZM46.5 48H49.5V45H46.5V48ZM37.5 61.5C36.675 61.5 35.9688 61.2062 35.3813 60.6187C34.7938 60.0312 34.5 59.325 34.5 58.5V37.5C34.5 36.675 34.7938 35.9688 35.3813 35.3813C35.9688 34.7938 36.675 34.5 37.5 34.5H58.5C59.325 34.5 60.0312 34.7938 60.6187 35.3813C61.2062 35.9688 61.5 36.675 61.5 37.5V58.5C61.5 59.325 61.2062 60.0312 60.6187 60.6187C60.0312 61.2062 59.325 61.5 58.5 61.5H37.5ZM37.5 58.5H58.5V37.5H37.5V58.5ZM37.5 37.5V58.5V37.5Z" fill="#004AC6"/>
</svg>
