<svg width="32" height="32" viewBox="0 0 32 32" fill="none" xmlns="http://www.w3.org/2000/svg">
<rect width="32" height="32" rx="16" fill="#DBEAFE"/>
<path d="M6.71924 19.5V10.7695H9.46573L10.8788 14.7775C10.9381 14.9633 11.0057 15.2052 11.0818 15.5029C11.1578 15.8007 11.2351 16.1214 11.3137 16.4651C11.3923 16.8087 11.4659 17.1424 11.5344 17.4662C11.6029 17.7899 11.6594 18.0718 11.7038 18.3117H11.3533C11.3996 18.0772 11.4564 17.7989 11.5239 17.4769C11.5914 17.155 11.6644 16.8217 11.743 16.4772C11.8216 16.1327 11.8988 15.8102 11.9747 15.5097C12.0506 15.2092 12.1182 14.9651 12.1774 14.7775L13.5707 10.7695H16.3231V19.5H14.528V15.3839C14.528 15.1936 14.5311 14.9564 14.5373 14.6721C14.5435 14.3878 14.5511 14.0808 14.5601 13.7509C14.5691 13.4211 14.5776 13.0884 14.5856 12.7528C14.5936 12.4173 14.5984 12.1022 14.6002 11.8076H14.7161C14.6404 12.132 14.5572 12.4665 14.4665 12.8112C14.3757 13.1559 14.2848 13.4908 14.1938 13.816C14.1027 14.1411 14.016 14.4391 13.9337 14.7098C13.8513 14.9806 13.7807 15.2053 13.7218 15.3839L12.2769 19.5H10.769L9.30116 15.3839C9.24226 15.2071 9.172 14.9846 9.0904 14.7166C9.0088 14.4485 8.92141 14.1528 8.82825 13.8295C8.73509 13.5061 8.64216 13.1712 8.54946 12.8247C8.45677 12.4782 8.36792 12.1392 8.28292 11.8076H8.4232C8.42679 12.0896 8.43257 12.3966 8.44054 12.7286C8.44851 13.0605 8.45655 13.3928 8.46468 13.7253C8.47281 14.0579 8.4804 14.3685 8.48747 14.6573C8.49454 14.946 8.49808 15.1882 8.49808 15.3839V19.5H6.71924ZM17.3957 19.5L20.3821 10.7695H22.7217L25.784 19.5H23.7957L22.3966 15.2886C22.2264 14.7447 22.055 14.1491 21.8825 13.5018C21.7099 12.8545 21.5278 12.1492 21.3362 11.3859H21.7243C21.5387 12.1528 21.3651 12.8617 21.2034 13.5126C21.0417 14.1634 20.8805 14.7554 20.7199 15.2886L19.3704 19.5H17.3957ZM19.2616 17.4739V16.0709H23.9181V17.4739H19.2616Z" fill="#434655" fill-opacity="0.76"/>
</svg>
