<svg width="32" height="32" viewBox="0 0 32 32" fill="none" xmlns="http://www.w3.org/2000/svg">
<rect width="32" height="32" rx="16" fill="#2563EB"/>
<path d="M8.42147 19.5V10.7695H11.8274C12.4902 10.7695 13.054 10.8957 13.5188 11.1479C13.9836 11.4002 14.3382 11.748 14.5828 12.1913C14.8273 12.6345 14.9496 13.1434 14.9496 13.7177C14.9496 14.2942 14.8257 14.8024 14.578 15.2422C14.3303 15.682 13.9708 16.0264 13.4996 16.2753C13.0283 16.5243 12.4571 16.6487 11.7858 16.6487H9.59781V15.2051H11.5021C11.866 15.2051 12.1664 15.1418 12.4034 15.0152C12.6403 14.8887 12.8165 14.7135 12.9318 14.4898C13.0472 14.2661 13.1049 14.0088 13.1049 13.7177C13.1049 13.4225 13.0472 13.1645 12.9318 12.9436C12.8165 12.7228 12.6399 12.5511 12.402 12.4286C12.1642 12.3061 11.8624 12.2448 11.4967 12.2448H10.2119V19.5H8.42147ZM18.7527 19.5L15.6937 10.7695H17.6819L19.0783 14.9809C19.245 15.5141 19.4142 16.0999 19.5861 16.7384C19.7581 17.3769 19.9389 18.0742 20.1288 18.8303H19.7443C19.9299 18.0652 20.1051 17.3656 20.2697 16.7317C20.4344 16.0977 20.5971 15.5141 20.7577 14.9809L22.1072 10.7695H24.0819L21.0896 19.5H18.7527Z" fill="white"/>
</svg>
