<svg width="44" height="44" viewBox="0 0 44 44" fill="none" xmlns="http://www.w3.org/2000/svg">
<g filter="url(#filter0_d_731_41851)">
<rect x="2" y="1" width="40" height="40" rx="4" fill="white" shape-rendering="crispEdges"/>
<path d="M14 31C13.45 31 12.9792 30.8042 12.5875 30.4125C12.1958 30.0208 12 29.55 12 29V18C12 17.45 12.1958 16.9792 12.5875 16.5875C12.9792 16.1958 13.45 16 14 16H19V13C19 12.45 19.1958 11.9792 19.5875 11.5875C19.9792 11.1958 20.45 11 21 11H23C23.55 11 24.0208 11.1958 24.4125 11.5875C24.8042 11.9792 25 12.45 25 13V16H30C30.55 16 31.0208 16.1958 31.4125 16.5875C31.8042 16.9792 32 17.45 32 18V29C32 29.55 31.8042 30.0208 31.4125 30.4125C31.0208 30.8042 30.55 31 30 31H14ZM14 29H30V18H25C25 18.55 24.8042 19.0208 24.4125 19.4125C24.0208 19.8042 23.55 20 23 20H21C20.45 20 19.9792 19.8042 19.5875 19.4125C19.1958 19.0208 19 18.55 19 18H14V29ZM16 27H22V26.55C22 26.2667 21.9208 26.0042 21.7625 25.7625C21.6042 25.5208 21.3833 25.3333 21.1 25.2C20.7667 25.05 20.4292 24.9375 20.0875 24.8625C19.7458 24.7875 19.3833 24.75 19 24.75C18.6167 24.75 18.2542 24.7875 17.9125 24.8625C17.5708 24.9375 17.2333 25.05 16.9 25.2C16.6167 25.3333 16.3958 25.5208 16.2375 25.7625C16.0792 26.0042 16 26.2667 16 26.55V27ZM24 25.5H28V24H24V25.5ZM19 24C19.4167 24 19.7708 23.8542 20.0625 23.5625C20.3542 23.2708 20.5 22.9167 20.5 22.5C20.5 22.0833 20.3542 21.7292 20.0625 21.4375C19.7708 21.1458 19.4167 21 19 21C18.5833 21 18.2292 21.1458 17.9375 21.4375C17.6458 21.7292 17.5 22.0833 17.5 22.5C17.5 22.9167 17.6458 23.2708 17.9375 23.5625C18.2292 23.8542 18.5833 24 19 24ZM24 22.5H28V21H24V22.5ZM21 18H23V13H21V18Z" fill="#2563EB"/>
</g>
<defs>
<filter id="filter0_d_731_41851" x="0" y="0" width="44" height="44" filterUnits="userSpaceOnUse" color-interpolation-filters="sRGB">
<feFlood flood-opacity="0" result="BackgroundImageFix"/>
<feColorMatrix in="SourceAlpha" type="matrix" values="0 0 0 0 0 0 0 0 0 0 0 0 0 0 0 0 0 0 127 0" result="hardAlpha"/>
<feOffset dy="1"/>
<feGaussianBlur stdDeviation="1"/>
<feComposite in2="hardAlpha" operator="out"/>
<feColorMatrix type="matrix" values="0 0 0 0 0 0 0 0 0 0 0 0 0 0 0 0 0 0 0.05 0"/>
<feBlend mode="normal" in2="BackgroundImageFix" result="effect1_dropShadow_731_41851"/>
<feBlend mode="normal" in="SourceGraphic" in2="effect1_dropShadow_731_41851" result="shape"/>
</filter>
</defs>
</svg>
