<svg width="181" height="48" viewBox="0 0 181 48" fill="none" xmlns="http://www.w3.org/2000/svg">
<rect x="0.5" y="0.5" width="179.4" height="47" rx="7.5" stroke="#C3C6D7" stroke-opacity="0.3"/>
<g clip-path="url(#clip0_113_578)">
<path d="M61.1904 24C61.1904 19.5817 57.6087 16 53.1904 16C48.7722 16 45.1904 19.5817 45.1904 24C45.1904 27.993 48.1159 31.3027 51.9404 31.9028V26.3125H49.9092V24H51.9404V22.2375C51.9404 20.2325 53.1348 19.125 54.9622 19.125C55.8374 19.125 56.7529 19.2812 56.7529 19.2812V21.25H55.7442C54.7504 21.25 54.4404 21.8667 54.4404 22.4994V24H56.6592L56.3045 26.3125H54.4404V31.9028C58.2649 31.3027 61.1904 27.9931 61.1904 24Z" fill="#1877F2"/>
<path d="M56.3045 26.3125L56.6592 24H54.4404V22.4994C54.4404 21.8666 54.7504 21.25 55.7442 21.25H56.7529V19.2812C56.7529 19.2812 55.8374 19.125 54.9621 19.125C53.1348 19.125 51.9404 20.2325 51.9404 22.2375V24H49.9092V26.3125H51.9404V31.9028C52.3539 31.9676 52.7719 32.0001 53.1904 32C53.609 32.0001 54.0269 31.9676 54.4404 31.9028V26.3125H56.3045Z" fill="white"/>
</g>
<path d="M69.0062 29V18.8182H75.5289V20.3643H70.8507V23.1286H75.0815V24.6747H70.8507V29H69.0062ZM79.2589 29.1541C78.775 29.1541 78.3391 29.0679 77.9513 28.8956C77.5669 28.7199 77.262 28.4614 77.0366 28.12C76.8145 27.7786 76.7035 27.3577 76.7035 26.8572C76.7035 26.4264 76.783 26.0701 76.9421 25.7884C77.1012 25.5066 77.3183 25.2812 77.5934 25.1122C77.8685 24.9432 78.1784 24.8156 78.5231 24.7294C78.8711 24.6399 79.2307 24.5753 79.6019 24.5355C80.0494 24.4891 80.4123 24.4477 80.6907 24.4112C80.9691 24.3714 81.1713 24.3118 81.2972 24.2322C81.4265 24.1494 81.4911 24.0218 81.4911 23.8494V23.8196C81.4911 23.4451 81.3801 23.1551 81.158 22.9496C80.936 22.7441 80.6161 22.6413 80.1985 22.6413C79.7577 22.6413 79.408 22.7375 79.1495 22.9297C78.8943 23.1219 78.7219 23.349 78.6325 23.6108L76.9521 23.3722C77.0846 22.9081 77.3034 22.5204 77.6083 22.2088C77.9132 21.8939 78.2861 21.6586 78.7269 21.5028C79.1677 21.3438 79.6549 21.2642 80.1886 21.2642C80.5565 21.2642 80.9227 21.3073 81.2873 21.3935C81.6519 21.4796 81.985 21.6222 82.2866 21.821C82.5882 22.0166 82.8301 22.2834 83.0124 22.6214C83.198 22.9595 83.2908 23.3821 83.2908 23.8892V29H81.5607V27.951H81.5011C81.3917 28.1631 81.2376 28.362 81.0387 28.5476C80.8432 28.7299 80.5962 28.8774 80.2979 28.9901C80.003 29.0994 79.6566 29.1541 79.2589 29.1541ZM79.7262 27.8317C80.0875 27.8317 80.4007 27.7604 80.6658 27.6179C80.931 27.4721 81.1348 27.2798 81.2773 27.0412C81.4232 26.8026 81.4961 26.5424 81.4961 26.2607V25.3608C81.4397 25.4072 81.3436 25.4503 81.2077 25.4901C81.0752 25.5298 80.926 25.5646 80.7603 25.5945C80.5946 25.6243 80.4305 25.6508 80.2681 25.674C80.1057 25.6972 79.9648 25.7171 79.8455 25.7337C79.5771 25.7701 79.3368 25.8298 79.1246 25.9126C78.9125 25.9955 78.7451 26.1115 78.6225 26.2607C78.4999 26.4065 78.4386 26.5954 78.4386 26.8274C78.4386 27.1589 78.5595 27.4091 78.8015 27.5781C79.0434 27.7472 79.3517 27.8317 79.7262 27.8317ZM88.4315 29.1491C87.6692 29.1491 87.0146 28.9818 86.4677 28.647C85.9241 28.3123 85.5049 27.8499 85.2099 27.2599C84.9182 26.6667 84.7724 25.9839 84.7724 25.2116C84.7724 24.4361 84.9215 23.7517 85.2198 23.1584C85.5181 22.5618 85.939 22.0978 86.4826 21.7663C87.0295 21.4316 87.6758 21.2642 88.4215 21.2642C89.0413 21.2642 89.5898 21.3786 90.0671 21.6072C90.5477 21.8326 90.9305 22.1525 91.2156 22.5668C91.5006 22.9777 91.663 23.4583 91.7028 24.0085H89.9826C89.913 23.6406 89.7473 23.334 89.4854 23.0888C89.2269 22.8402 88.8806 22.7159 88.4464 22.7159C88.0785 22.7159 87.7553 22.8153 87.4769 23.0142C87.1985 23.2098 86.9814 23.4915 86.8256 23.8594C86.6732 24.2273 86.5969 24.6681 86.5969 25.1818C86.5969 25.7022 86.6732 26.1496 86.8256 26.5241C86.9781 26.8954 87.1919 27.1821 87.467 27.3842C87.7454 27.5831 88.0719 27.6825 88.4464 27.6825C88.7115 27.6825 88.9485 27.6328 89.1573 27.5334C89.3694 27.4306 89.5468 27.2831 89.6893 27.0909C89.8318 26.8987 89.9296 26.665 89.9826 26.3899H91.7028C91.6597 26.9302 91.5006 27.4091 91.2255 27.8267C90.9504 28.241 90.5759 28.5658 90.1019 28.8011C89.628 29.0331 89.0711 29.1491 88.4315 29.1491ZM96.5613 29.1491C95.7956 29.1491 95.1344 28.9901 94.5776 28.6719C94.0241 28.3504 93.5982 27.8963 93.2999 27.3097C93.0016 26.7197 92.8525 26.0253 92.8525 25.2266C92.8525 24.4411 93.0016 23.7517 93.2999 23.1584C93.6015 22.5618 94.0224 22.0978 94.5627 21.7663C95.1029 21.4316 95.7376 21.2642 96.4668 21.2642C96.9374 21.2642 97.3816 21.3404 97.7992 21.4929C98.2201 21.642 98.5913 21.8741 98.9128 22.1889C99.2376 22.5038 99.4928 22.9048 99.6784 23.392C99.8641 23.8759 99.9569 24.4527 99.9569 25.1222V25.674H93.6976V24.4609H98.2317C98.2284 24.1162 98.1538 23.8097 98.008 23.5412C97.8622 23.2694 97.6583 23.0556 97.3965 22.8999C97.138 22.7441 96.8364 22.6662 96.4917 22.6662C96.1238 22.6662 95.8006 22.7557 95.5222 22.9347C95.2438 23.1103 95.0267 23.3423 94.8709 23.6307C94.7185 23.9157 94.6406 24.2289 94.6373 24.5703V25.6293C94.6373 26.0734 94.7185 26.4545 94.8809 26.7727C95.0433 27.0876 95.2703 27.3295 95.562 27.4986C95.8536 27.6643 96.195 27.7472 96.5861 27.7472C96.848 27.7472 97.0849 27.7107 97.2971 27.6378C97.5092 27.5616 97.6931 27.4505 97.8489 27.3047C98.0047 27.1589 98.1223 26.9782 98.2019 26.7628L99.8823 26.9517C99.7762 27.3958 99.574 27.7836 99.2757 28.1151C98.9808 28.4432 98.6029 28.6984 98.1422 28.8807C97.6815 29.0597 97.1545 29.1491 96.5613 29.1491ZM101.559 29V18.8182H103.359V22.6264H103.433C103.526 22.4408 103.657 22.2436 103.826 22.0348C103.995 21.8227 104.224 21.642 104.512 21.4929C104.8 21.3404 105.168 21.2642 105.616 21.2642C106.206 21.2642 106.738 21.415 107.212 21.7166C107.689 22.0149 108.067 22.4574 108.345 23.044C108.627 23.6274 108.768 24.3433 108.768 25.1918C108.768 26.0303 108.63 26.7429 108.355 27.3295C108.08 27.9162 107.705 28.3636 107.232 28.6719C106.758 28.9801 106.221 29.1342 105.621 29.1342C105.183 29.1342 104.82 29.0613 104.532 28.9155C104.244 28.7696 104.012 28.594 103.836 28.3885C103.664 28.1797 103.529 27.9825 103.433 27.7969H103.329V29H101.559ZM103.324 25.1818C103.324 25.6757 103.393 26.1082 103.533 26.4794C103.675 26.8506 103.879 27.1406 104.144 27.3494C104.413 27.5549 104.737 27.6577 105.119 27.6577C105.516 27.6577 105.849 27.5516 106.118 27.3395C106.386 27.1241 106.589 26.8307 106.724 26.4595C106.864 26.085 106.933 25.6591 106.933 25.1818C106.933 24.7079 106.865 24.2869 106.729 23.919C106.594 23.5511 106.391 23.2628 106.123 23.054C105.854 22.8452 105.52 22.7408 105.119 22.7408C104.734 22.7408 104.408 22.8419 104.139 23.044C103.871 23.2462 103.667 23.5296 103.528 23.8942C103.392 24.2588 103.324 24.688 103.324 25.1818ZM113.629 29.1491C112.883 29.1491 112.237 28.9851 111.69 28.657C111.143 28.3288 110.719 27.8698 110.417 27.2798C110.119 26.6899 109.97 26.0005 109.97 25.2116C109.97 24.4228 110.119 23.7318 110.417 23.1385C110.719 22.5452 111.143 22.0845 111.69 21.7564C112.237 21.4283 112.883 21.2642 113.629 21.2642C114.374 21.2642 115.021 21.4283 115.568 21.7564C116.115 22.0845 116.537 22.5452 116.835 23.1385C117.137 23.7318 117.288 24.4228 117.288 25.2116C117.288 26.0005 117.137 26.6899 116.835 27.2798C116.537 27.8698 116.115 28.3288 115.568 28.657C115.021 28.9851 114.374 29.1491 113.629 29.1491ZM113.639 27.7074C114.043 27.7074 114.381 27.5964 114.653 27.3743C114.925 27.1489 115.127 26.8473 115.259 26.4695C115.395 26.0916 115.463 25.6707 115.463 25.2067C115.463 24.7393 115.395 24.3168 115.259 23.9389C115.127 23.5578 114.925 23.2545 114.653 23.0291C114.381 22.8037 114.043 22.6911 113.639 22.6911C113.224 22.6911 112.88 22.8037 112.605 23.0291C112.333 23.2545 112.129 23.5578 111.993 23.9389C111.86 24.3168 111.794 24.7393 111.794 25.2067C111.794 25.6707 111.86 26.0916 111.993 26.4695C112.129 26.8473 112.333 27.1489 112.605 27.3743C112.88 27.5964 113.224 27.7074 113.639 27.7074ZM122.146 29.1491C121.401 29.1491 120.754 28.9851 120.207 28.657C119.661 28.3288 119.236 27.8698 118.935 27.2798C118.636 26.6899 118.487 26.0005 118.487 25.2116C118.487 24.4228 118.636 23.7318 118.935 23.1385C119.236 22.5452 119.661 22.0845 120.207 21.7564C120.754 21.4283 121.401 21.2642 122.146 21.2642C122.892 21.2642 123.538 21.4283 124.085 21.7564C124.632 22.0845 125.055 22.5452 125.353 23.1385C125.655 23.7318 125.805 24.4228 125.805 25.2116C125.805 26.0005 125.655 26.6899 125.353 27.2798C125.055 27.8698 124.632 28.3288 124.085 28.657C123.538 28.9851 122.892 29.1491 122.146 29.1491ZM122.156 27.7074C122.561 27.7074 122.899 27.5964 123.17 27.3743C123.442 27.1489 123.644 26.8473 123.777 26.4695C123.913 26.0916 123.981 25.6707 123.981 25.2067C123.981 24.7393 123.913 24.3168 123.777 23.9389C123.644 23.5578 123.442 23.2545 123.17 23.0291C122.899 22.8037 122.561 22.6911 122.156 22.6911C121.742 22.6911 121.397 22.8037 121.122 23.0291C120.85 23.2545 120.647 23.5578 120.511 23.9389C120.378 24.3168 120.312 24.7393 120.312 25.2067C120.312 25.6707 120.378 26.0916 120.511 26.4695C120.647 26.8473 120.85 27.1489 121.122 27.3743C121.397 27.5964 121.742 27.7074 122.156 27.7074ZM128.974 26.6037L128.969 24.4311H129.257L132.001 21.3636H134.104L130.729 25.1222H130.356L128.974 26.6037ZM127.333 29V18.8182H129.133V29H127.333ZM132.126 29L129.64 25.5249L130.853 24.2571L134.278 29H132.126Z" fill="#191C1E"/>
<defs>
<clipPath id="clip0_113_578">
<rect width="16" height="16" fill="white" transform="translate(45.1904 16)"/>
</clipPath>
</defs>
</svg>
