<svg width="188" height="48" viewBox="0 0 188 48" fill="none" xmlns="http://www.w3.org/2000/svg">
<rect x="0.5" y="0.5" width="186.08" height="47" rx="7.5" stroke="#C3C6D7" stroke-opacity="0.3"/>
<path opacity="0.987" fill-rule="evenodd" clip-rule="evenodd" d="M63.5391 14.0759C64.4454 13.9747 64.9816 13.9747 65.9554 14.0759C67.6791 14.3311 69.2769 15.1278 70.5179 16.3509C69.6793 17.1436 68.8517 17.9479 68.0354 18.7634C66.4721 17.4384 64.7271 17.1326 62.8004 17.8459C61.3871 18.4959 60.4029 19.5493 59.8479 21.0059C58.9409 20.3307 58.0458 19.6398 57.1629 18.9334C57.1015 18.9011 57.0315 18.8893 56.9629 18.8997C58.3654 16.1955 60.5571 14.5872 63.5379 14.0747" fill="#F44336"/>
<path opacity="0.997" fill-rule="evenodd" clip-rule="evenodd" d="M56.9602 18.8997C57.031 18.8889 57.0981 18.9002 57.1614 18.9335C58.0443 19.6398 58.9395 20.3308 59.8464 21.006C59.7037 21.5736 59.6137 22.1531 59.5777 22.7372C59.6085 23.3022 59.6981 23.8568 59.8464 24.401L57.0277 26.6447C55.8002 24.0797 55.7777 21.4981 56.9602 18.8997Z" fill="#FFC107"/>
<path opacity="0.999" fill-rule="evenodd" clip-rule="evenodd" d="M70.3834 29.3622C69.5058 28.5882 68.5869 27.8621 67.6309 27.1872C68.5893 26.5105 69.1709 25.5822 69.3759 24.4022H64.6797V21.1409C67.388 21.1184 70.0951 21.1413 72.8009 21.2097C73.3143 23.9972 72.7214 26.5105 71.0222 28.7497C70.8201 28.9645 70.6061 29.1689 70.3834 29.3622Z" fill="#448AFF"/>
<path opacity="0.993" fill-rule="evenodd" clip-rule="evenodd" d="M59.8461 24.4021C60.8711 26.9496 62.7503 28.1388 65.4836 27.9696C66.2509 27.8808 66.9865 27.6127 67.6311 27.1871C68.5878 27.8638 69.5053 28.5888 70.3836 29.3621C68.9919 30.6127 67.2175 31.3547 65.3498 31.4671C64.9255 31.501 64.4992 31.501 64.0748 31.4671C60.8932 31.0921 58.544 29.4846 57.0273 26.6446L59.8461 24.4021Z" fill="#43A047"/>
<path d="M88.6534 22.0696C88.5705 21.8011 88.4562 21.5608 88.3104 21.3487C88.1679 21.1333 87.9955 20.9493 87.7933 20.7969C87.5945 20.6444 87.3658 20.5301 87.1072 20.4538C86.8487 20.3743 86.567 20.3345 86.2621 20.3345C85.7152 20.3345 85.228 20.4721 84.8004 20.7472C84.3729 21.0223 84.0365 21.4266 83.7912 21.9602C83.5492 22.4905 83.4283 23.1368 83.4283 23.8991C83.4283 24.6681 83.5492 25.3194 83.7912 25.853C84.0331 26.3866 84.3696 26.7926 84.8004 27.071C85.2313 27.3461 85.7318 27.4837 86.3018 27.4837C86.8189 27.4837 87.2663 27.3842 87.6442 27.1854C88.0253 26.9865 88.3187 26.7048 88.5241 26.3402C88.7296 25.9723 88.8324 25.5414 88.8324 25.0476L89.25 25.1122H86.4858V23.6705H90.6172V24.8935C90.6172 25.7652 90.4316 26.5192 90.0604 27.1555C89.6892 27.7919 89.1787 28.2824 88.5291 28.6271C87.8795 28.9685 87.1338 29.1392 86.2919 29.1392C85.3539 29.1392 84.5303 28.9287 83.821 28.5078C83.1151 28.0836 82.5632 27.482 82.1655 26.7031C81.7711 25.9209 81.5739 24.9929 81.5739 23.919C81.5739 23.0971 81.6899 22.3629 81.9219 21.7166C82.1572 21.0703 82.4853 20.5218 82.9062 20.071C83.3272 19.617 83.821 19.2723 84.3878 19.0369C84.9545 18.7983 85.571 18.679 86.2372 18.679C86.8007 18.679 87.326 18.7618 87.8132 18.9276C88.3004 19.09 88.733 19.322 89.1108 19.6236C89.492 19.9252 89.8052 20.2831 90.0504 20.6974C90.2957 21.1117 90.4564 21.5691 90.5327 22.0696H88.6534ZM95.6522 29.1491C94.9064 29.1491 94.2601 28.9851 93.7132 28.657C93.1664 28.3288 92.7421 27.8698 92.4405 27.2798C92.1422 26.6899 91.9931 26.0005 91.9931 25.2116C91.9931 24.4228 92.1422 23.7318 92.4405 23.1385C92.7421 22.5452 93.1664 22.0845 93.7132 21.7564C94.2601 21.4283 94.9064 21.2642 95.6522 21.2642C96.3979 21.2642 97.0442 21.4283 97.5911 21.7564C98.138 22.0845 98.5605 22.5452 98.8588 23.1385C99.1605 23.7318 99.3113 24.4228 99.3113 25.2116C99.3113 26.0005 99.1605 26.6899 98.8588 27.2798C98.5605 27.8698 98.138 28.3288 97.5911 28.657C97.0442 28.9851 96.3979 29.1491 95.6522 29.1491ZM95.6621 27.7074C96.0665 27.7074 96.4045 27.5964 96.6763 27.3743C96.9481 27.1489 97.1503 26.8473 97.2828 26.4695C97.4187 26.0916 97.4867 25.6707 97.4867 25.2067C97.4867 24.7393 97.4187 24.3168 97.2828 23.9389C97.1503 23.5578 96.9481 23.2545 96.6763 23.0291C96.4045 22.8037 96.0665 22.6911 95.6621 22.6911C95.2478 22.6911 94.9031 22.8037 94.628 23.0291C94.3562 23.2545 94.1524 23.5578 94.0165 23.9389C93.8839 24.3168 93.8176 24.7393 93.8176 25.2067C93.8176 25.6707 93.8839 26.0916 94.0165 26.4695C94.1524 26.8473 94.3562 27.1489 94.628 27.3743C94.9031 27.5964 95.2478 27.7074 95.6621 27.7074ZM104.17 29.1491C103.424 29.1491 102.778 28.9851 102.231 28.657C101.684 28.3288 101.26 27.8698 100.958 27.2798C100.66 26.6899 100.511 26.0005 100.511 25.2116C100.511 24.4228 100.66 23.7318 100.958 23.1385C101.26 22.5452 101.684 22.0845 102.231 21.7564C102.778 21.4283 103.424 21.2642 104.17 21.2642C104.915 21.2642 105.562 21.4283 106.109 21.7564C106.656 22.0845 107.078 22.5452 107.376 23.1385C107.678 23.7318 107.829 24.4228 107.829 25.2116C107.829 26.0005 107.678 26.6899 107.376 27.2798C107.078 27.8698 106.656 28.3288 106.109 28.657C105.562 28.9851 104.915 29.1491 104.17 29.1491ZM104.18 27.7074C104.584 27.7074 104.922 27.5964 105.194 27.3743C105.466 27.1489 105.668 26.8473 105.8 26.4695C105.936 26.0916 106.004 25.6707 106.004 25.2067C106.004 24.7393 105.936 24.3168 105.8 23.9389C105.668 23.5578 105.466 23.2545 105.194 23.0291C104.922 22.8037 104.584 22.6911 104.18 22.6911C103.765 22.6911 103.421 22.8037 103.146 23.0291C102.874 23.2545 102.67 23.5578 102.534 23.9389C102.402 24.3168 102.335 24.7393 102.335 25.2067C102.335 25.6707 102.402 26.0916 102.534 26.4695C102.67 26.8473 102.874 27.1489 103.146 27.3743C103.421 27.5964 103.765 27.7074 104.18 27.7074ZM112.677 32.0227C112.031 32.0227 111.476 31.9349 111.012 31.7592C110.548 31.5869 110.175 31.3549 109.893 31.0632C109.612 30.7715 109.416 30.4484 109.307 30.0938L110.927 29.701C111 29.8501 111.106 29.9976 111.246 30.1435C111.385 30.2926 111.572 30.4152 111.807 30.5114C112.046 30.6108 112.346 30.6605 112.707 30.6605C113.218 30.6605 113.64 30.5362 113.975 30.2876C114.31 30.0424 114.477 29.638 114.477 29.0746V27.6278H114.388C114.295 27.8134 114.159 28.004 113.98 28.1996C113.804 28.3951 113.571 28.5592 113.279 28.6918C112.991 28.8243 112.628 28.8906 112.19 28.8906C111.604 28.8906 111.072 28.7531 110.594 28.478C110.12 28.1996 109.742 27.7853 109.461 27.2351C109.182 26.6816 109.043 25.9889 109.043 25.157C109.043 24.3184 109.182 23.6108 109.461 23.0341C109.742 22.4541 110.122 22.0149 110.599 21.7166C111.077 21.415 111.608 21.2642 112.195 21.2642C112.643 21.2642 113.01 21.3404 113.299 21.4929C113.59 21.642 113.823 21.8227 113.995 22.0348C114.167 22.2436 114.298 22.4408 114.388 22.6264H114.487V21.3636H116.262V29.1243C116.262 29.7772 116.106 30.3175 115.795 30.745C115.483 31.1726 115.057 31.4924 114.517 31.7045C113.977 31.9167 113.363 32.0227 112.677 32.0227ZM112.692 27.4787C113.073 27.4787 113.398 27.3859 113.667 27.2003C113.935 27.0147 114.139 26.7479 114.278 26.3999C114.417 26.0518 114.487 25.6342 114.487 25.147C114.487 24.6664 114.417 24.2455 114.278 23.8842C114.142 23.523 113.94 23.2429 113.672 23.044C113.407 22.8419 113.08 22.7408 112.692 22.7408C112.291 22.7408 111.956 22.8452 111.688 23.054C111.42 23.2628 111.217 23.5495 111.081 23.9141C110.946 24.2753 110.878 24.6863 110.878 25.147C110.878 25.6143 110.946 26.0237 111.081 26.375C111.221 26.723 111.425 26.9948 111.693 27.1903C111.965 27.3826 112.298 27.4787 112.692 27.4787ZM119.906 18.8182V29H118.106V18.8182H119.906ZM125.137 29.1491C124.372 29.1491 123.711 28.9901 123.154 28.6719C122.6 28.3504 122.174 27.8963 121.876 27.3097C121.578 26.7197 121.429 26.0253 121.429 25.2266C121.429 24.4411 121.578 23.7517 121.876 23.1584C122.178 22.5618 122.599 22.0978 123.139 21.7663C123.679 21.4316 124.314 21.2642 125.043 21.2642C125.514 21.2642 125.958 21.3404 126.375 21.4929C126.796 21.642 127.167 21.8741 127.489 22.1889C127.814 22.5038 128.069 22.9048 128.255 23.392C128.44 23.8759 128.533 24.4527 128.533 25.1222V25.674H122.274V24.4609H126.808C126.805 24.1162 126.73 23.8097 126.584 23.5412C126.438 23.2694 126.234 23.0556 125.973 22.8999C125.714 22.7441 125.413 22.6662 125.068 22.6662C124.7 22.6662 124.377 22.7557 124.098 22.9347C123.82 23.1103 123.603 23.3423 123.447 23.6307C123.295 23.9157 123.217 24.2289 123.213 24.5703V25.6293C123.213 26.0734 123.295 26.4545 123.457 26.7727C123.619 27.0876 123.846 27.3295 124.138 27.4986C124.43 27.6643 124.771 27.7472 125.162 27.7472C125.424 27.7472 125.661 27.7107 125.873 27.6378C126.085 27.5616 126.269 27.4505 126.425 27.3047C126.581 27.1589 126.699 26.9782 126.778 26.7628L128.458 26.9517C128.352 27.3958 128.15 27.7836 127.852 28.1151C127.557 28.4432 127.179 28.6984 126.718 28.8807C126.258 29.0597 125.731 29.1491 125.137 29.1491Z" fill="#191C1E"/>
</svg>
