<svg width="28" height="48" viewBox="0 0 28 48" fill="none" xmlns="http://www.w3.org/2000/svg">
<path fill-rule="evenodd" clip-rule="evenodd" d="M1.03551 21C0.372475 21.6632 3.8147e-06 22.5626 3.8147e-06 23.5004C3.8147e-06 24.4382 0.372475 25.3376 1.03551 26.0009L21.0427 46.008C21.3689 46.3458 21.7592 46.6153 22.1907 46.8006C22.6222 46.986 23.0862 47.0835 23.5558 47.0876C24.0255 47.0917 24.4912 47.0022 24.9258 46.8244C25.3605 46.6465 25.7553 46.3839 26.0874 46.0519C26.4195 45.7198 26.6821 45.3249 26.8599 44.8903C27.0378 44.4556 27.1272 43.9899 27.1232 43.5203C27.1191 43.0507 27.0215 42.5866 26.8362 42.1551C26.6508 41.7236 26.3814 41.3334 26.0436 41.0071L8.53686 23.5004L26.0436 5.9937C26.6878 5.32667 27.0443 4.43329 27.0362 3.50598C27.0282 2.57866 26.6562 1.69161 26.0005 1.03588C25.3448 0.380143 24.4577 0.0081918 23.5304 0.000133697C22.6031 -0.00792441 21.7097 0.348556 21.0427 0.992796L1.03551 21Z" fill="#2E3132"/>
</svg>
