<svg width="56" height="56" viewBox="0 0 56 56" fill="none" xmlns="http://www.w3.org/2000/svg">
<rect width="56" height="56" rx="8" fill="#007E37"/>
<path d="M17.6 40.5C16.885 40.5 16.2731 40.2425 15.7644 39.7276C15.2557 39.2127 15.0009 38.593 15 37.8684V23.3947C15 22.6711 15.2548 22.0518 15.7644 21.5368C16.274 21.0219 16.8859 20.764 17.6 20.7632H22.8V18.1316C22.8 17.4079 23.0548 16.7886 23.5644 16.2737C24.074 15.7588 24.6859 15.5009 25.4 15.5H30.6C31.315 15.5 31.9273 15.7579 32.4369 16.2737C32.9465 16.7895 33.2009 17.4088 33.2 18.1316V20.7632H38.4C39.115 20.7632 39.7273 21.0211 40.2369 21.5368C40.7465 22.0526 41.0009 22.6719 41 23.3947V37.8684C41 38.5921 40.7456 39.2118 40.2369 39.7276C39.7282 40.2434 39.1159 40.5009 38.4 40.5H17.6ZM17.6 37.8684H38.4V23.3947H17.6V37.8684ZM25.4 20.7632H30.6V18.1316H25.4V20.7632Z" fill="white"/>
</svg>
