<svg width="56" height="56" viewBox="0 0 56 56" fill="none" xmlns="http://www.w3.org/2000/svg">
<rect width="56" height="56" rx="8" fill="#2563EB"/>
<path d="M28 14.5C31.713 14.5 35.274 15.9223 37.8995 18.4541C40.525 20.9858 42 24.4196 42 28C42 31.5804 40.525 35.0142 37.8995 37.5459C35.274 40.0777 31.713 41.5 28 41.5C24.287 41.5 20.726 40.0777 18.1005 37.5459C15.475 35.0142 14 31.5804 14 28C14 24.4196 15.475 20.9858 18.1005 18.4541C20.726 15.9223 24.287 14.5 28 14.5ZM28 33.0449C26.5101 33.0442 25.0462 33.4212 23.7551 34.1382C22.4639 34.8551 21.391 35.8868 20.6438 37.1298C22.7459 38.709 25.3353 39.565 28 39.5615C30.6643 39.5639 33.2528 38.7073 35.3541 37.1277C34.6068 35.8854 33.5341 34.8544 32.2434 34.1378C30.9527 33.4212 29.4893 33.0443 28 33.0449ZM28 16.4344C25.6762 16.4358 23.4029 17.088 21.4564 18.3119C19.5098 19.5358 17.9739 21.2786 17.0353 23.3284C16.0967 25.3783 15.7958 27.6469 16.1692 29.8585C16.5426 32.0702 17.5743 34.1296 19.1388 35.7865C20.0891 34.3515 21.3992 33.1707 22.948 32.353C24.4968 31.5354 26.2343 31.1074 28 31.1085C31.7225 31.1085 34.9926 32.9756 36.8612 35.7845C38.425 34.1275 39.4561 32.0683 39.8291 29.857C40.2022 27.6457 39.9011 25.3775 38.9626 23.328C38.024 21.2785 36.4884 19.5361 34.5423 18.3123C32.5962 17.0885 30.3234 16.4361 28 16.4344ZM28 21.1838C28.6643 21.1651 29.3257 21.2751 29.945 21.5073C30.5644 21.7395 31.1292 22.0892 31.6059 22.5357C32.0826 22.9821 32.4615 23.5163 32.7203 24.1065C32.9791 24.6967 33.1124 25.331 33.1124 25.9718C33.1124 26.6126 32.9791 27.2469 32.7203 27.8372C32.4615 28.4274 32.0826 28.9616 31.6059 29.408C31.1292 29.8545 30.5644 30.2042 29.945 30.4364C29.3257 30.6686 28.6643 30.7786 28 30.7599C26.7005 30.7341 25.4634 30.2182 24.5538 29.3228C23.6443 28.4275 23.1349 27.2241 23.1349 25.9708C23.1349 24.7175 23.6443 23.5141 24.5538 22.6188C25.4634 21.7235 26.7005 21.2096 28 21.1838ZM28 23.1161C27.2151 23.1161 26.4624 23.4168 25.9074 23.9519C25.3524 24.4871 25.0406 25.213 25.0406 25.9698C25.0406 26.7266 25.3524 27.4525 25.9074 27.9877C26.4624 28.5228 27.2151 28.8235 28 28.8235C28.7849 28.8235 29.5376 28.5228 30.0926 27.9877C30.6476 27.4525 30.9594 26.7266 30.9594 25.9698C30.9594 25.213 30.6476 24.4871 30.0926 23.9519C29.5376 23.4168 28.7849 23.1161 28 23.1161Z" fill="white"/>
</svg>
