<svg width="60" height="60" viewBox="0 0 60 60" fill="none" xmlns="http://www.w3.org/2000/svg">
<g filter="url(#filter0_d_409_35580)">
<rect x="2" y="1" width="56" height="56" rx="12" fill="#FFDAD6" shape-rendering="crispEdges"/>
<path d="M30 35.25C30.3542 35.25 30.651 35.1302 30.8906 34.8906C31.1302 34.651 31.25 34.3542 31.25 34C31.25 33.6458 31.1302 33.349 30.8906 33.1094C30.651 32.8698 30.3542 32.75 30 32.75C29.6458 32.75 29.349 32.8698 29.1094 33.1094C28.8698 33.349 28.75 33.6458 28.75 34C28.75 34.3542 28.8698 34.651 29.1094 34.8906C29.349 35.1302 29.6458 35.25 30 35.25ZM28.75 30.25H31.25V22.75H28.75V30.25ZM25.3125 40.25L18.75 33.6875V24.3125L25.3125 17.75H34.6875L41.25 24.3125V33.6875L34.6875 40.25H25.3125Z" fill="#BA1A1A"/>
</g>
<defs>
<filter id="filter0_d_409_35580" x="0" y="0" width="60" height="60" filterUnits="userSpaceOnUse" color-interpolation-filters="sRGB">
<feFlood flood-opacity="0" result="BackgroundImageFix"/>
<feColorMatrix in="SourceAlpha" type="matrix" values="0 0 0 0 0 0 0 0 0 0 0 0 0 0 0 0 0 0 127 0" result="hardAlpha"/>
<feOffset dy="1"/>
<feGaussianBlur stdDeviation="1"/>
<feComposite in2="hardAlpha" operator="out"/>
<feColorMatrix type="matrix" values="0 0 0 0 0.729412 0 0 0 0 0.101961 0 0 0 0 0.101961 0 0 0 0.1 0"/>
<feBlend mode="normal" in2="BackgroundImageFix" result="effect1_dropShadow_409_35580"/>
<feBlend mode="normal" in="SourceGraphic" in2="effect1_dropShadow_409_35580" result="shape"/>
</filter>
</defs>
</svg>
