<svg width="48" height="48" viewBox="0 0 48 48" fill="none" xmlns="http://www.w3.org/2000/svg">
<rect width="48" height="48" rx="12" fill="#004AC6" fill-opacity="0.1"/>
<path d="M17.75 30.25H30.25V27.75H17.75V30.25ZM24 26.5L29 21.5L27.25 19.75L25.25 21.6875V16.5H22.75V21.6875L20.75 19.75L19 21.5L24 26.5ZM24 36.5C22.2708 36.5 20.6458 36.1719 19.125 35.5156C17.6042 34.8594 16.2812 33.9688 15.1562 32.8438C14.0312 31.7188 13.1406 30.3958 12.4844 28.875C11.8281 27.3542 11.5 25.7292 11.5 24C11.5 22.2708 11.8281 20.6458 12.4844 19.125C13.1406 17.6042 14.0312 16.2812 15.1562 15.1562C16.2812 14.0312 17.6042 13.1406 19.125 12.4844C20.6458 11.8281 22.2708 11.5 24 11.5C25.7292 11.5 27.3542 11.8281 28.875 12.4844C30.3958 13.1406 31.7188 14.0312 32.8438 15.1562C33.9688 16.2812 34.8594 17.6042 35.5156 19.125C36.1719 20.6458 36.5 22.2708 36.5 24C36.5 25.7292 36.1719 27.3542 35.5156 28.875C34.8594 30.3958 33.9688 31.7188 32.8438 32.8438C31.7188 33.9688 30.3958 34.8594 28.875 35.5156C27.3542 36.1719 25.7292 36.5 24 36.5ZM24 34C26.7917 34 29.1562 33.0312 31.0938 31.0938C33.0312 29.1562 34 26.7917 34 24C34 21.2083 33.0312 18.8438 31.0938 16.9062C29.1562 14.9688 26.7917 14 24 14C21.2083 14 18.8438 14.9688 16.9062 16.9062C14.9688 18.8438 14 21.2083 14 24C14 26.7917 14.9688 29.1562 16.9062 31.0938C18.8438 33.0312 21.2083 34 24 34Z" fill="#004AC6"/>
</svg>
