<svg width="64" height="64" viewBox="0 0 64 64" fill="none" xmlns="http://www.w3.org/2000/svg">
<rect width="64" height="64" rx="12" fill="#EFF6FF"/>
<path d="M26.9 47.75L24.05 42.95L18.65 41.75L19.175 36.2L15.5 32L19.175 27.8L18.65 22.25L24.05 21.05L26.9 16.25L32 18.425L37.1 16.25L39.95 21.05L45.35 22.25L44.825 27.8L48.5 32L44.825 36.2L45.35 41.75L39.95 42.95L37.1 47.75L32 45.575L26.9 47.75ZM30.425 37.325L38.9 28.85L36.8 26.675L30.425 33.05L27.2 29.9L25.1 32L30.425 37.325Z" fill="#2563EB"/>
</svg>
