<svg width="52" height="58" viewBox="0 0 52 58" fill="none" xmlns="http://www.w3.org/2000/svg">
<g filter="url(#filter0_d_731_41920)">
<rect x="2" y="1" width="48" height="54" rx="4" fill="white" shape-rendering="crispEdges"/>
<path d="M20 37H32V34H20V37ZM20 31H32V28H20V31ZM17 43C16.175 43 15.4688 42.7062 14.8813 42.1187C14.2938 41.5312 14 40.825 14 40V16C14 15.175 14.2938 14.4688 14.8813 13.8813C15.4688 13.2938 16.175 13 17 13H29L38 22V40C38 40.825 37.7062 41.5312 37.1187 42.1187C36.5312 42.7062 35.825 43 35 43H17ZM27.5 23.5H35L27.5 16V23.5Z" fill="#EF4444"/>
</g>
<defs>
<filter id="filter0_d_731_41920" x="0" y="0" width="52" height="58" filterUnits="userSpaceOnUse" color-interpolation-filters="sRGB">
<feFlood flood-opacity="0" result="BackgroundImageFix"/>
<feColorMatrix in="SourceAlpha" type="matrix" values="0 0 0 0 0 0 0 0 0 0 0 0 0 0 0 0 0 0 127 0" result="hardAlpha"/>
<feOffset dy="1"/>
<feGaussianBlur stdDeviation="1"/>
<feComposite in2="hardAlpha" operator="out"/>
<feColorMatrix type="matrix" values="0 0 0 0 0 0 0 0 0 0 0 0 0 0 0 0 0 0 0.05 0"/>
<feBlend mode="normal" in2="BackgroundImageFix" result="effect1_dropShadow_731_41920"/>
<feBlend mode="normal" in="SourceGraphic" in2="effect1_dropShadow_731_41920" result="shape"/>
</filter>
</defs>
</svg>
