<svg width="64" height="64" viewBox="0 0 64 64" fill="none" xmlns="http://www.w3.org/2000/svg">
<rect width="64" height="64" rx="12" fill="#FFDAD6"/>
<path d="M15.5 46.25L32 17.75L48.5 46.25H15.5ZM32 41.75C32.425 41.75 32.7812 41.6063 33.0688 41.3188C33.3563 41.0312 33.5 40.675 33.5 40.25C33.5 39.825 33.3563 39.4688 33.0688 39.1812C32.7812 38.8937 32.425 38.75 32 38.75C31.575 38.75 31.2188 38.8937 30.9312 39.1812C30.6437 39.4688 30.5 39.825 30.5 40.25C30.5 40.675 30.6437 41.0312 30.9312 41.3188C31.2188 41.6063 31.575 41.75 32 41.75ZM30.5 37.25H33.5V29.75H30.5V37.25Z" fill="#BA1A1A"/>
</svg>
