<svg width="40" height="40" viewBox="0 0 40 40" fill="none" xmlns="http://www.w3.org/2000/svg">
<rect width="40" height="40" rx="12" fill="#E7E8E9"/>
<path d="M14.5 28C12.9833 28 11.6875 27.475 10.6125 26.425C9.5375 25.375 9 24.0917 9 22.575C9 21.275 9.39167 20.1167 10.175 19.1C10.9583 18.0833 11.9833 17.4333 13.25 17.15C13.6667 15.6167 14.5 14.375 15.75 13.425C17 12.475 18.4167 12 20 12C21.95 12 23.6042 12.6792 24.9625 14.0375C26.3208 15.3958 27 17.05 27 19C28.15 19.1333 29.1042 19.6292 29.8625 20.4875C30.6208 21.3458 31 22.35 31 23.5C31 24.75 30.5625 25.8125 29.6875 26.6875C28.8125 27.5625 27.75 28 26.5 28H21C20.45 28 19.9792 27.8042 19.5875 27.4125C19.1958 27.0208 19 26.55 19 26V20.85L17.4 22.4L16 21L20 17L24 21L22.6 22.4L21 20.85V26H26.5C27.2 26 27.7917 25.7583 28.275 25.275C28.7583 24.7917 29 24.2 29 23.5C29 22.8 28.7583 22.2083 28.275 21.725C27.7917 21.2417 27.2 21 26.5 21H25V19C25 17.6167 24.5125 16.4375 23.5375 15.4625C22.5625 14.4875 21.3833 14 20 14C18.6167 14 17.4375 14.4875 16.4625 15.4625C15.4875 16.4375 15 17.6167 15 19H14.5C13.5333 19 12.7083 19.3417 12.025 20.025C11.3417 20.7083 11 21.5333 11 22.5C11 23.4667 11.3417 24.2917 12.025 24.975C12.7083 25.6583 13.5333 26 14.5 26H17V28H14.5Z" fill="#737686"/>
</svg>
