<svg width="22" height="20" viewBox="0 0 22 20" fill="none" xmlns="http://www.w3.org/2000/svg">
<path d="M1.51243 19.4241C1.045 19.4241 0.676 19.2739 0.405429 18.9733C0.156 18.6956 0.0217143 18.3313 0.00257145 17.8804L0 17.766V1.65857C0 1.14829 0.135143 0.744429 0.405429 0.447C0.654857 0.172143 0.988429 0.0241428 1.40614 0.00299999L1.51286 0H13.0016C13.463 0 13.829 0.148857 14.0996 0.446571C14.349 0.720857 14.4833 1.08614 14.5024 1.54243L14.5046 1.65814V4.48243H19.926C20.3517 4.48243 20.6961 4.61057 20.9593 4.86686L21.0236 4.93371C21.2733 5.21086 21.4076 5.575 21.4264 6.02614L21.429 6.14057V17.766C21.429 18.27 21.2939 18.6724 21.0236 18.9733C20.7741 19.2504 20.4431 19.3999 20.0306 19.4216L19.9256 19.4241H1.51243ZM14.5041 17.766C14.5041 17.8317 14.5019 17.8956 14.4973 17.9576H19.4421C19.6184 17.9576 19.7491 17.915 19.8343 17.8299C19.9071 17.7567 19.9487 17.6481 19.959 17.5041L19.962 17.4291V6.47786C19.962 6.29557 19.9194 6.16186 19.8343 6.07671C19.7614 6.00386 19.655 5.96229 19.515 5.952L19.4421 5.94943L14.5041 5.949V17.766ZM12.5186 1.467H1.99543C1.81314 1.467 1.67943 1.50943 1.59429 1.59429C1.52143 1.66743 1.47986 1.776 1.46957 1.92L1.467 1.99543V17.4291C1.467 17.6111 1.50943 17.7447 1.59429 17.8299C1.66743 17.9027 1.776 17.9443 1.92 17.9546L1.99543 17.9576L4.08128 17.9571V15.27C4.08128 14.9109 4.15557 14.6384 4.30414 14.4527L4.35043 14.3996C4.51329 14.231 4.75529 14.1391 5.07643 14.124L5.175 14.1219H9.32957C9.70586 14.1219 9.98214 14.2144 10.1584 14.3996C10.3187 14.5681 10.4061 14.8231 10.4207 15.1646L10.4229 15.2696L10.4224 17.9571H12.5181C12.6944 17.9571 12.825 17.9147 12.9099 17.8299C12.9827 17.7567 13.0244 17.6481 13.035 17.5041L13.0376 17.4291V1.99543C13.0376 1.81314 12.995 1.67943 12.9099 1.59429C12.825 1.50943 12.6949 1.467 12.5186 1.467ZM8.93786 15.3154H5.56671C5.39014 15.3154 5.29371 15.3957 5.27743 15.5563L5.27529 15.6069L5.27486 17.9571H9.22886V15.6069C9.22886 15.4303 9.14871 15.3339 8.98843 15.3176L8.93786 15.3154ZM17.9666 14.4133C18.1557 14.4133 18.2581 14.5 18.2739 14.6734L18.276 14.7231V16.1443C18.276 16.3337 18.1893 16.4363 18.0159 16.452L17.9666 16.4541H16.4996C16.3161 16.4541 16.2166 16.3674 16.2009 16.194L16.1991 16.1443V14.7231C16.1991 14.5337 16.2834 14.4311 16.452 14.4154L16.4996 14.4133H17.9666ZM17.9666 10.9333C18.1557 10.9333 18.2581 11.02 18.2739 11.1934L18.276 11.2427V12.6639C18.276 12.8533 18.1893 12.9559 18.0159 12.9716L17.9666 12.9737H16.4996C16.3161 12.9737 16.2166 12.887 16.2009 12.7136L16.1991 12.6639V11.2427C16.1991 11.0533 16.2834 10.9507 16.452 10.935L16.4996 10.9329L17.9666 10.9333ZM6.00386 10.1949C6.23414 10.1949 6.358 10.301 6.37543 10.5133L6.37757 10.5686V12.2906C6.37757 12.5203 6.27143 12.644 6.05914 12.6617L6.00386 12.6639H4.22743C4.00886 12.6639 3.89114 12.5579 3.87429 12.3459L3.87214 12.2901V10.5686C3.87214 10.3389 3.973 10.215 4.17471 10.197L4.22743 10.1949H6.00386ZM10.2681 10.1949C10.4979 10.1949 10.6216 10.301 10.6393 10.5133L10.6414 10.5686V12.2906C10.6414 12.5203 10.5353 12.644 10.323 12.6617L10.2677 12.6639H8.50028C8.276 12.6639 8.15528 12.5579 8.13814 12.3459L8.136 12.2901V10.5686C8.136 10.3389 8.23943 10.215 8.44628 10.197L8.50028 10.1949H10.2681ZM17.9666 7.45243C18.1557 7.45243 18.2581 7.53929 18.2739 7.713L18.276 7.76229V9.18386C18.276 9.373 18.1893 9.47543 18.0159 9.49114L17.9666 9.49329H16.4996C16.3161 9.49329 16.2166 9.40657 16.2009 9.23314L16.1991 9.18386V7.76229C16.1991 7.57343 16.2834 7.47086 16.452 7.45457L16.4996 7.45243H17.9666ZM6.00386 6.58671C6.23414 6.58671 6.358 6.693 6.37543 6.90557L6.37757 6.96043V8.68243C6.37757 8.91271 6.27143 9.03657 6.05914 9.054L6.00386 9.05614H4.22743C4.00886 9.05614 3.89114 8.95 3.87429 8.73771L3.87214 8.68243V6.96043C3.87214 6.73071 3.973 6.607 4.17471 6.58929L4.22743 6.58714L6.00386 6.58671ZM10.2681 6.58671C10.4979 6.58671 10.6216 6.693 10.6393 6.90557L10.6414 6.96043V8.68243C10.6414 8.91271 10.5353 9.03657 10.323 9.054L10.2677 9.05614H8.50028C8.276 9.05614 8.15528 8.95 8.13814 8.73771L8.136 8.68243V6.96043C8.136 6.73071 8.23943 6.607 8.44628 6.58929L8.50028 6.58714L10.2681 6.58671ZM6.00386 2.97943C6.23414 2.97943 6.358 3.08543 6.37543 3.29743L6.37757 3.35314V5.07471C6.37757 5.30443 6.27143 5.42814 6.05914 5.44586L6.00386 5.44843H4.22743C4.00886 5.44843 3.89114 5.34229 3.87429 5.13L3.87214 5.07471V3.35271C3.87214 3.123 3.973 2.99929 4.17471 2.98157L4.22743 2.97943H6.00386ZM10.2681 2.97943C10.4979 2.97943 10.6216 3.08543 10.6393 3.29743L10.6414 3.35314V5.07471C10.6414 5.30443 10.5353 5.42814 10.323 5.44586L10.2677 5.44843H8.50028C8.276 5.44843 8.15528 5.34229 8.13814 5.13L8.136 5.07471V3.35271C8.136 3.123 8.23943 2.99929 8.44628 2.98157L8.50028 2.97943H10.2681Z" fill="#434655" fill-opacity="0.76"/>
</svg>
