<svg width="11" height="11" viewBox="0 0 11 11" fill="none" xmlns="http://www.w3.org/2000/svg">
<path d="M10.5 2.33333V9.33333C10.5 9.65417 10.3858 9.92882 10.1573 10.1573C9.92882 10.3858 9.65417 10.5 9.33333 10.5H1.16667C0.845833 10.5 0.571181 10.3858 0.342708 10.1573C0.114236 9.92882 0 9.65417 0 9.33333V1.16667C0 0.845833 0.114236 0.571181 0.342708 0.342708C0.571181 0.114236 0.845833 0 1.16667 0H8.16667L10.5 2.33333ZM9.33333 2.82917L7.67083 1.16667H1.16667V9.33333H9.33333V2.82917ZM5.25 8.75C5.73611 8.75 6.14931 8.57986 6.48958 8.23958C6.82986 7.89931 7 7.48611 7 7C7 6.51389 6.82986 6.10069 6.48958 5.76042C6.14931 5.42014 5.73611 5.25 5.25 5.25C4.76389 5.25 4.35069 5.42014 4.01042 5.76042C3.67014 6.10069 3.5 6.51389 3.5 7C3.5 7.48611 3.67014 7.89931 4.01042 8.23958C4.35069 8.57986 4.76389 8.75 5.25 8.75ZM1.75 4.08333H7V1.75H1.75V4.08333ZM1.16667 2.82917V9.33333V1.16667V2.82917Z" fill="white"/>
</svg>
