<svg width="567" height="40" viewBox="0 0 567 40" fill="none" xmlns="http://www.w3.org/2000/svg">
<mask id="path-1-inside-1_1205_9918" fill="white">
<path d="M0 0H567V39.5H0V0Z"/>
</mask>
<path d="M0 0H567V39.5H0V0Z" fill="#F3F4F5"/>
<path d="M567 39.5V38.5H0V39.5V40.5H567V39.5Z" fill="#E7E8E9" mask="url(#path-1-inside-1_1205_9918)"/>
<path d="M14 22.1667V14H17.2229C17.8549 14 18.4382 14.1944 18.9729 14.5833C19.5076 14.9722 19.775 15.5118 19.775 16.2021C19.775 16.6979 19.6632 17.0795 19.4396 17.3469C19.216 17.6142 19.0069 17.8063 18.8125 17.9229C19.0556 18.0299 19.3253 18.2292 19.6219 18.5208C19.9184 18.8125 20.0667 19.25 20.0667 19.8333C20.0667 20.6986 19.7507 21.3038 19.1188 21.649C18.4868 21.9941 17.8938 22.1667 17.3396 22.1667H14ZM15.7646 20.5333H17.2812C17.7479 20.5333 18.0323 20.4142 18.1344 20.176C18.2365 19.9378 18.2875 19.7653 18.2875 19.6583C18.2875 19.5514 18.2365 19.3788 18.1344 19.1406C18.0323 18.9024 17.7333 18.7833 17.2375 18.7833H15.7646V20.5333ZM15.7646 17.2083H17.1208C17.4417 17.2083 17.675 17.1257 17.8208 16.9604C17.9667 16.7951 18.0396 16.6104 18.0396 16.4062C18.0396 16.1729 17.9569 15.9833 17.7917 15.8375C17.6264 15.6917 17.4125 15.6187 17.15 15.6187H15.7646V17.2083Z" fill="black"/>
<path d="M40.0664 22.1667V20.7083H42.3997L44.1497 15.4583H41.8164V14H47.6497V15.4583H45.6081L43.8581 20.7083H45.8997V22.1667H40.0664Z" fill="black"/>
<path d="M71.1504 22.75V21.5833H78.1504V22.75H71.1504ZM71.1504 19.25V18.0833H78.1504V19.25H71.1504ZM71.1504 15.75V14.5833H78.1504V15.75H71.1504ZM68.8171 23.3333C68.4962 23.3333 68.2216 23.2191 67.9931 22.9906C67.7646 22.7622 67.6504 22.4875 67.6504 22.1667C67.6504 21.8458 67.7646 21.5712 67.9931 21.3427C68.2216 21.1142 68.4962 21 68.8171 21C69.1379 21 69.4125 21.1142 69.641 21.3427C69.8695 21.5712 69.9837 21.8458 69.9837 22.1667C69.9837 22.4875 69.8695 22.7622 69.641 22.9906C69.4125 23.2191 69.1379 23.3333 68.8171 23.3333ZM68.8171 19.8333C68.4962 19.8333 68.2216 19.7191 67.9931 19.4906C67.7646 19.2622 67.6504 18.9875 67.6504 18.6667C67.6504 18.3458 67.7646 18.0712 67.9931 17.8427C68.2216 17.6142 68.4962 17.5 68.8171 17.5C69.1379 17.5 69.4125 17.6142 69.641 17.8427C69.8695 18.0712 69.9837 18.3458 69.9837 18.6667C69.9837 18.9875 69.8695 19.2622 69.641 19.4906C69.4125 19.7191 69.1379 19.8333 68.8171 19.8333ZM68.8171 16.3333C68.4962 16.3333 68.2216 16.2191 67.9931 15.9906C67.7646 15.7622 67.6504 15.4875 67.6504 15.1667C67.6504 14.8458 67.7646 14.5712 67.9931 14.3427C68.2216 14.1142 68.4962 14 68.8171 14C69.1379 14 69.4125 14.1142 69.641 14.3427C69.8695 14.5712 69.9837 14.8458 69.9837 15.1667C69.9837 15.4875 69.8695 15.7622 69.641 15.9906C69.4125 16.2191 69.1379 16.3333 68.8171 16.3333Z" fill="black"/>
<path d="M103.4 19.8333H101.067C100.26 19.8333 99.5723 19.549 99.0035 18.9802C98.4348 18.4115 98.1504 17.7236 98.1504 16.9167C98.1504 16.1097 98.4348 15.4219 99.0035 14.8531C99.5723 14.2844 100.26 14 101.067 14H103.4V15.1667H101.067C100.581 15.1667 100.168 15.3368 99.8275 15.6771C99.4872 16.0174 99.3171 16.4306 99.3171 16.9167C99.3171 17.4028 99.4872 17.816 99.8275 18.1562C100.168 18.4965 100.581 18.6667 101.067 18.6667H103.4V19.8333ZM101.65 17.5V16.3333H106.317V17.5H101.65ZM104.567 19.8333V18.6667H106.9C107.387 18.6667 107.8 18.4965 108.14 18.1562C108.48 17.816 108.65 17.4028 108.65 16.9167C108.65 16.4306 108.48 16.0174 108.14 15.6771C107.8 15.3368 107.387 15.1667 106.9 15.1667H104.567V14H106.9C107.707 14 108.395 14.2844 108.964 14.8531C109.533 15.4219 109.817 16.1097 109.817 16.9167C109.817 17.7236 109.533 18.4115 108.964 18.9802C108.395 19.549 107.707 19.8333 106.9 19.8333H104.567Z" fill="black"/>
<path d="M130.983 24.5C130.662 24.5 130.388 24.3858 130.159 24.1573C129.931 23.9288 129.816 23.6542 129.816 23.3333V15.1667C129.816 14.8458 129.931 14.5712 130.159 14.3427C130.388 14.1142 130.662 14 130.983 14H139.15C139.471 14 139.745 14.1142 139.974 14.3427C140.202 14.5712 140.316 14.8458 140.316 15.1667V23.3333C140.316 23.6542 140.202 23.9288 139.974 24.1573C139.745 24.3858 139.471 24.5 139.15 24.5H130.983ZM130.983 23.3333H139.15V15.1667H130.983V23.3333ZM131.566 22.1667H138.566L136.379 19.25L134.629 21.5833L133.316 19.8333L131.566 22.1667ZM130.983 23.3333V15.1667V23.3333Z" fill="black"/>
</svg>
