<svg width="32" height="32" viewBox="0 0 32 32" fill="none" xmlns="http://www.w3.org/2000/svg">
<rect width="32" height="32" rx="4" fill="#1877F2" fill-opacity="0.1"/>
<path d="M19.5 21.8346C19.0139 21.8346 18.6007 21.6645 18.2604 21.3242C17.9201 20.9839 17.75 20.5707 17.75 20.0846C17.75 20.0263 17.7646 19.8902 17.7937 19.6763L13.6958 17.2846C13.5403 17.4305 13.3604 17.5447 13.1562 17.6273C12.9521 17.71 12.7333 17.7513 12.5 17.7513C12.0139 17.7513 11.6007 17.5812 11.2604 17.2409C10.9201 16.9006 10.75 16.4874 10.75 16.0013C10.75 15.5152 10.9201 15.102 11.2604 14.7617C11.6007 14.4214 12.0139 14.2513 12.5 14.2513C12.7333 14.2513 12.9521 14.2926 13.1562 14.3753C13.3604 14.4579 13.5403 14.5721 13.6958 14.718L17.7937 12.3263C17.7743 12.2582 17.7622 12.1926 17.7573 12.1294C17.7524 12.0662 17.75 11.9957 17.75 11.918C17.75 11.4319 17.9201 11.0187 18.2604 10.6784C18.6007 10.3381 19.0139 10.168 19.5 10.168C19.9861 10.168 20.3993 10.3381 20.7396 10.6784C21.0799 11.0187 21.25 11.4319 21.25 11.918C21.25 12.4041 21.0799 12.8173 20.7396 13.1576C20.3993 13.4978 19.9861 13.668 19.5 13.668C19.2667 13.668 19.0479 13.6266 18.8438 13.544C18.6396 13.4614 18.4597 13.3471 18.3042 13.2013L14.2062 15.593C14.2257 15.661 14.2378 15.7266 14.2427 15.7898C14.2476 15.853 14.25 15.9235 14.25 16.0013C14.25 16.0791 14.2476 16.1496 14.2427 16.2128C14.2378 16.276 14.2257 16.3416 14.2062 16.4096L18.3042 18.8013C18.4597 18.6555 18.6396 18.5412 18.8438 18.4586C19.0479 18.376 19.2667 18.3346 19.5 18.3346C19.9861 18.3346 20.3993 18.5048 20.7396 18.8451C21.0799 19.1853 21.25 19.5985 21.25 20.0846C21.25 20.5707 21.0799 20.9839 20.7396 21.3242C20.3993 21.6645 19.9861 21.8346 19.5 21.8346ZM19.5 20.668C19.6653 20.668 19.8038 20.6121 19.9156 20.5003C20.0274 20.3885 20.0833 20.2499 20.0833 20.0846C20.0833 19.9194 20.0274 19.7808 19.9156 19.669C19.8038 19.5572 19.6653 19.5013 19.5 19.5013C19.3347 19.5013 19.1962 19.5572 19.0844 19.669C18.9726 19.7808 18.9167 19.9194 18.9167 20.0846C18.9167 20.2499 18.9726 20.3885 19.0844 20.5003C19.1962 20.6121 19.3347 20.668 19.5 20.668ZM12.5 16.5846C12.6653 16.5846 12.8038 16.5287 12.9156 16.4169C13.0274 16.3051 13.0833 16.1666 13.0833 16.0013C13.0833 15.836 13.0274 15.6975 12.9156 15.5857C12.8038 15.4739 12.6653 15.418 12.5 15.418C12.3347 15.418 12.1962 15.4739 12.0844 15.5857C11.9726 15.6975 11.9167 15.836 11.9167 16.0013C11.9167 16.1666 11.9726 16.3051 12.0844 16.4169C12.1962 16.5287 12.3347 16.5846 12.5 16.5846ZM19.5 12.5013C19.6653 12.5013 19.8038 12.4454 19.9156 12.3336C20.0274 12.2218 20.0833 12.0832 20.0833 11.918C20.0833 11.7527 20.0274 11.6141 19.9156 11.5023C19.8038 11.3905 19.6653 11.3346 19.5 11.3346C19.3347 11.3346 19.1962 11.3905 19.0844 11.5023C18.9726 11.6141 18.9167 11.7527 18.9167 11.918C18.9167 12.0832 18.9726 12.2218 19.0844 12.3336C19.1962 12.4454 19.3347 12.5013 19.5 12.5013Z" fill="#2563EB"/>
</svg>
