<svg width="32" height="32" viewBox="0 0 32 32" fill="none" xmlns="http://www.w3.org/2000/svg">
<rect width="32" height="32" rx="4" fill="#1877F2" fill-opacity="0.1"/>
<g clip-path="url(#clip0_691_41290)">
<path d="M24.8958 6H7.10417C6.49417 6 6 6.49417 6 7.10417V24.8967C6 25.5058 6.49417 26 7.10417 26H16.6833V18.255H14.0767V15.2367H16.6833V13.0108C16.6833 10.4275 18.2608 9.02083 20.5658 9.02083C21.67 9.02083 22.6183 9.10333 22.895 9.14V11.84L21.2967 11.8408C20.0433 11.8408 19.8008 12.4367 19.8008 13.31V15.2375H22.79L22.4008 18.2558H19.8008V26H24.8975C25.5058 26 26 25.5058 26 24.8958V7.10417C26 6.49417 25.5058 6 24.8958 6V6Z" fill="#2563EB"/>
</g>
<defs>
<clipPath id="clip0_691_41290">
<rect width="20" height="20" fill="white" transform="translate(6 6)"/>
</clipPath>
</defs>
</svg>
