<svg width="22" height="14" viewBox="0 0 22 14" fill="none" xmlns="http://www.w3.org/2000/svg">
<path d="M2 14C1.45 14 0.979167 13.8042 0.5875 13.4125C0.195833 13.0208 0 12.55 0 12V2C0 1.45 0.195833 0.979167 0.5875 0.5875C0.979167 0.195833 1.45 0 2 0H12C12.55 0 13.0208 0.195833 13.4125 0.5875C13.8042 0.979167 14 1.45 14 2V12C14 12.55 13.8042 13.0208 13.4125 13.4125C13.0208 13.8042 12.55 14 12 14H2ZM17 6C16.7167 6 16.4792 5.90417 16.2875 5.7125C16.0958 5.52083 16 5.28333 16 5V1C16 0.716667 16.0958 0.479167 16.2875 0.2875C16.4792 0.0958333 16.7167 0 17 0H21C21.2833 0 21.5208 0.0958333 21.7125 0.2875C21.9042 0.479167 22 0.716667 22 1V5C22 5.28333 21.9042 5.52083 21.7125 5.7125C21.5208 5.90417 21.2833 6 21 6H17ZM18 4H20V2H18V4ZM2 12H12V2H2V12ZM3 10H11L8.375 6.5L6.5 9L5.125 7.175L3 10ZM17 14C16.7167 14 16.4792 13.9042 16.2875 13.7125C16.0958 13.5208 16 13.2833 16 13V9C16 8.71667 16.0958 8.47917 16.2875 8.2875C16.4792 8.09583 16.7167 8 17 8H21C21.2833 8 21.5208 8.09583 21.7125 8.2875C21.9042 8.47917 22 8.71667 22 9V13C22 13.2833 21.9042 13.5208 21.7125 13.7125C21.5208 13.9042 21.2833 14 21 14H17ZM18 12H20V10H18V12ZM2 12V2V12ZM18 4V2V4ZM18 12V10V12Z" fill="#2563EB"/>
</svg>
