<svg width="32" height="32" viewBox="0 0 32 32" fill="none" xmlns="http://www.w3.org/2000/svg">
<rect width="32" height="32" rx="4" fill="#0A66C2" fill-opacity="0.1"/>
<g clip-path="url(#clip0_691_41300)">
<path d="M21.8333 6H10.1667C7.86583 6 6 7.86583 6 10.1667V21.8333C6 24.1342 7.86583 26 10.1667 26H21.8333C24.135 26 26 24.1342 26 21.8333V10.1667C26 7.86583 24.135 6 21.8333 6ZM12.6667 21.8333H10.1667V12.6667H12.6667V21.8333ZM11.4167 11.61C10.6117 11.61 9.95833 10.9517 9.95833 10.14Cnan nan 10.6117 8.67 11.4167 8.67Cnan nan 12.875 9.32833 12.875 10.14Cnan nan 12.2225 11.61 11.4167 11.61ZM22.6667 21.8333H20.1667V17.1633C20.1667 14.3567 16.8333 14.5692 16.8333 17.1633V21.8333H14.3333V12.6667H16.8333V14.1375C17.9967 11.9825 22.6667 11.8233 22.6667 16.2008V21.8333Z" fill="#2563EB"/>
</g>
<defs>
<clipPath id="clip0_691_41300">
<rect width="20" height="20" fill="white" transform="translate(6 6)"/>
</clipPath>
</defs>
</svg>
