<svg width="32" height="32" viewBox="0 0 32 32" fill="none" xmlns="http://www.w3.org/2000/svg">
<rect width="32" height="32" rx="4" fill="#0077B5" fill-opacity="0.1"/>
<path d="M15.416 18.9154H13.0827C12.2757 18.9154 11.5879 18.631 11.0191 18.0622C10.4504 17.4935 10.166 16.8056 10.166 15.9987C10.166 15.1918 10.4504 14.5039 11.0191 13.9352C11.5879 13.3664 12.2757 13.082 13.0827 13.082H15.416V14.2487H13.0827C12.5966 14.2487 12.1834 14.4188 11.8431 14.7591C11.5028 15.0994 11.3327 15.5126 11.3327 15.9987C11.3327 16.4848 11.5028 16.898 11.8431 17.2383C12.1834 17.5786 12.5966 17.7487 13.0827 17.7487H15.416V18.9154ZM13.666 16.582V15.4154H18.3327V16.582H13.666ZM16.5827 18.9154V17.7487H18.916C19.4021 17.7487 19.8153 17.5786 20.1556 17.2383C20.4959 16.898 20.666 16.4848 20.666 15.9987C20.666 15.5126 20.4959 15.0994 20.1556 14.7591C19.8153 14.4188 19.4021 14.2487 18.916 14.2487H16.5827V13.082H18.916C19.723 13.082 20.4108 13.3664 20.9796 13.9352C21.5483 14.5039 21.8327 15.1918 21.8327 15.9987C21.8327 16.8056 21.5483 17.4935 20.9796 18.0622C20.4108 18.631 19.723 18.9154 18.916 18.9154H16.5827Z" fill="#2563EB"/>
</svg>
