<svg width="64" height="64" viewBox="0 0 64 64" fill="none" xmlns="http://www.w3.org/2000/svg">
<rect width="64" height="64" rx="12" fill="#EFF6FF"/>
<path d="M30.5 39.5H33.5V30.5H30.5V39.5ZM32 27.5C32.425 27.5 32.7812 27.3563 33.0688 27.0688C33.3563 26.7812 33.5 26.425 33.5 26C33.5 25.575 33.3563 25.2188 33.0688 24.9313C32.7812 24.6438 32.425 24.5 32 24.5C31.575 24.5 31.2188 24.6438 30.9312 24.9313C30.6437 25.2188 30.5 25.575 30.5 26C30.5 26.425 30.6437 26.7812 30.9312 27.0688C31.2188 27.3563 31.575 27.5 32 27.5ZM32 47C29.925 47 27.975 46.6063 26.15 45.8188C24.325 45.0312 22.7375 43.9625 21.3875 42.6125C20.0375 41.2625 18.9688 39.675 18.1812 37.85C17.3937 36.025 17 34.075 17 32C17 29.925 17.3937 27.975 18.1812 26.15C18.9688 24.325 20.0375 22.7375 21.3875 21.3875C22.7375 20.0375 24.325 18.9688 26.15 18.1812C27.975 17.3937 29.925 17 32 17C34.075 17 36.025 17.3937 37.85 18.1812C39.675 18.9688 41.2625 20.0375 42.6125 21.3875C43.9625 22.7375 45.0312 24.325 45.8188 26.15C46.6063 27.975 47 29.925 47 32C47 34.075 46.6063 36.025 45.8188 37.85C45.0312 39.675 43.9625 41.2625 42.6125 42.6125C41.2625 43.9625 39.675 45.0312 37.85 45.8188C36.025 46.6063 34.075 47 32 47Z" fill="#2563EB"/>
</svg>
