<svg width="21" height="19" viewBox="0 0 21 19" fill="none" xmlns="http://www.w3.org/2000/svg">
<path fill-rule="evenodd" clip-rule="evenodd" d="M10.266 1.39996L1.34597 16.854L19.189 16.853L10.266 1.39996ZM0.999975 18.054C0.82444 18.054 0.651999 18.0077 0.499984 17.92C0.347968 17.8322 0.221734 17.706 0.133968 17.5539C0.0462029 17.4019 -1.11483e-06 17.2295 0 17.0539C1.11487e-06 16.8784 0.0462074 16.706 0.133975 16.554L9.39997 0.499956C9.48775 0.347949 9.61398 0.221722 9.766 0.133962C9.91801 0.0462015 10.0904 0 10.266 0C10.4415 0 10.6139 0.0462015 10.766 0.133962C10.918 0.221722 11.0442 0.347949 11.132 0.499956L20.402 16.553C20.4897 16.705 20.5359 16.8774 20.5359 17.0529C20.536 17.2285 20.4897 17.4009 20.402 17.5529C20.3142 17.705 20.188 17.8312 20.036 17.919C19.884 18.0067 19.7115 18.053 19.536 18.053L0.999975 18.054ZM9.63997 6.95396H10.895L10.798 11.676H9.73798L9.64097 6.95396H9.63997ZM10.266 14.098C10.1737 14.0995 10.0821 14.0828 9.9964 14.0486C9.9107 14.0145 9.83264 13.9637 9.76676 13.8991C9.70089 13.8345 9.6485 13.7575 9.61266 13.6725C9.57681 13.5875 9.55823 13.4962 9.55797 13.404C9.55797 13.019 9.86998 12.716 10.266 12.716C10.666 12.716 10.978 13.019 10.978 13.404C10.9776 13.4965 10.9588 13.5881 10.9227 13.6733C10.8865 13.7585 10.8338 13.8356 10.7675 13.9002C10.7012 13.9648 10.6227 14.0156 10.5366 14.0495C10.4505 14.0835 10.3585 14.0999 10.266 14.098Z" fill="#434655" fill-opacity="0.76"/>
</svg>
