<svg width="241" height="192" viewBox="0 0 241 192" fill="none" xmlns="http://www.w3.org/2000/svg">
<rect x="32.1641" y="8" width="176" height="176" rx="88" stroke="#F3F4F5" stroke-width="16"/>
<path d="M92.7959 95.852V91.8113L101.768 77.6738H105.334V83.1864H103.26L97.9405 91.5933V91.7691H110.905V95.852H92.7959ZM103.321 99.5V94.6215L103.435 92.8285V77.6738H108.28V99.5H103.321ZM121.492 99.793C119.908 99.793 118.501 99.5081 117.27 98.9384C116.039 98.3687 115.069 97.5818 114.36 96.5779C113.65 95.574 113.282 94.4226 113.256 93.1238H118.289C118.303 93.657 118.456 94.1256 118.748 94.5295C119.039 94.9334 119.426 95.246 119.906 95.4673C120.387 95.6886 120.915 95.7992 121.492 95.7992C122.163 95.7992 122.753 95.6516 123.264 95.3565C123.774 95.0614 124.175 94.649 124.465 94.1193C124.755 93.5896 124.901 92.9734 124.901 92.2707C124.901 91.5559 124.753 90.9294 124.458 90.3913C124.163 89.8532 123.758 89.4349 123.243 89.1362C122.728 88.8376 122.13 88.6883 121.449 88.6883C120.805 88.6883 120.201 88.8291 119.638 89.1108C119.075 89.3924 118.645 89.7735 118.349 90.2539L113.76 89.3973L114.715 77.6738H128.626V81.868H118.973L118.482 87.0488H118.599C118.967 86.4551 119.552 85.9662 120.354 85.5822C121.157 85.1982 122.067 85.0062 123.087 85.0062C124.06 85.0062 124.962 85.1795 125.792 85.526C126.622 85.8725 127.344 86.3642 127.958 87.0011C128.572 87.638 129.048 88.3915 129.387 89.2616C129.727 90.1317 129.896 91.0867 129.896 92.1266C129.896 93.6195 129.546 94.9426 128.846 96.0957C128.145 97.2488 127.165 98.1533 125.904 98.8092C124.643 99.465 123.172 99.793 121.492 99.793ZM137.4 95.1477V89.0422H138.139L142.826 83.123H148.642L141.77 91.5137H140.43L137.4 95.1477ZM132.798 99.5V77.6738H137.906V99.5H132.798ZM142.965 99.5L138.61 92.6563L141.977 89.0258L148.876 99.5H142.965Z" fill="black"/>
<path d="M96.0418 111.462V110.225H101.983V111.462H99.7606V117.5H98.2686V111.462H96.0418ZM106.203 117.598C105.561 117.598 104.983 117.451 104.47 117.158C103.957 116.865 103.551 116.44 103.254 115.883C102.956 115.327 102.807 114.655 102.807 113.867C102.807 113.075 102.956 112.4 103.254 111.842C103.551 111.285 103.957 110.86 104.47 110.567C104.983 110.273 105.561 110.127 106.203 110.127C106.846 110.127 107.423 110.273 107.935 110.567C108.446 110.86 108.851 111.285 109.148 111.842C109.446 112.4 109.595 113.075 109.595 113.867C109.595 114.657 109.446 115.329 109.148 115.886C108.851 116.442 108.446 116.867 107.935 117.159C107.423 117.451 106.846 117.598 106.203 117.598ZM106.203 116.274C106.58 116.274 106.909 116.182 107.19 115.997C107.472 115.813 107.691 115.541 107.847 115.183C108.004 114.824 108.082 114.385 108.082 113.867C108.082 113.344 108.004 112.903 107.847 112.543C107.691 112.184 107.472 111.912 107.19 111.727C106.909 111.543 106.58 111.45 106.203 111.45C105.827 111.45 105.498 111.543 105.216 111.728C104.933 111.914 104.714 112.186 104.556 112.546C104.399 112.905 104.32 113.346 104.32 113.867C104.32 114.385 104.399 114.824 104.556 115.181C104.714 115.539 104.933 115.811 105.216 115.996C105.498 116.182 105.827 116.274 106.203 116.274ZM105.521 109.626H104.248V109.59L105.657 108.147H106.779L108.19 109.59V109.626H106.912L106.219 108.796L105.521 109.626ZM107.71 107.753H106.954L107.27 107.198C107.288 107.163 107.292 107.138 107.281 107.122C107.27 107.106 107.247 107.098 107.212 107.098H106.526V106.445H107.212C107.53 106.445 107.76 106.499 107.904 106.606C108.047 106.714 108.118 106.846 108.117 107.002C108.116 107.159 108.056 107.313 107.938 107.466L107.71 107.753ZM110.711 117.5V110.225H112.375L114.672 113.908C114.789 114.097 114.908 114.301 115.029 114.522C115.15 114.742 115.273 114.987 115.398 115.258C115.523 115.528 115.649 115.832 115.774 116.171H115.621C115.599 115.9 115.578 115.612 115.559 115.307C115.54 115.002 115.524 114.71 115.512 114.429C115.5 114.148 115.494 113.911 115.494 113.717V110.225H117.018V117.5H115.35L113.264 114.161C113.11 113.909 112.968 113.666 112.837 113.431C112.706 113.196 112.57 112.935 112.429 112.649C112.288 112.362 112.119 112.021 111.923 111.625H112.112C112.134 111.976 112.154 112.313 112.174 112.637C112.193 112.96 112.208 113.253 112.22 113.514C112.231 113.775 112.237 113.989 112.237 114.157V117.5H110.711ZM121.558 117.598C120.878 117.598 120.282 117.447 119.768 117.145C119.254 116.843 118.853 116.413 118.566 115.856C118.278 115.299 118.135 114.637 118.135 113.872C118.135 113.085 118.284 112.412 118.583 111.854C118.882 111.296 119.287 110.868 119.799 110.572C120.311 110.275 120.886 110.127 121.525 110.127C121.934 110.127 122.315 110.186 122.668 110.304C123.021 110.423 123.335 110.591 123.611 110.81C123.887 111.028 124.112 111.287 124.287 111.585C124.461 111.884 124.573 112.212 124.624 112.571H123.108C123.058 112.396 122.986 112.24 122.894 112.102C122.801 111.964 122.688 111.846 122.556 111.749C122.424 111.651 122.273 111.577 122.105 111.526C121.937 111.476 121.751 111.45 121.549 111.45C121.175 111.45 120.845 111.544 120.558 111.73C120.271 111.916 120.048 112.189 119.887 112.547C119.727 112.906 119.647 113.342 119.647 113.857C119.647 114.371 119.726 114.809 119.885 115.168C120.043 115.528 120.266 115.802 120.553 115.991C120.84 116.18 121.178 116.274 121.568 116.274C121.919 116.274 122.22 116.21 122.471 116.083C122.723 115.955 122.916 115.774 123.05 115.54C123.184 115.305 123.25 115.029 123.25 114.71L123.563 114.756H121.672V113.624H124.697V114.533C124.697 115.169 124.562 115.715 124.292 116.173C124.023 116.631 123.652 116.983 123.18 117.229C122.708 117.475 122.167 117.598 121.558 117.598ZM127.917 111.462V110.225H133.858V111.462H131.636V117.5H130.144V111.462H127.917ZM136.373 110.225V117.5H134.881V110.225H136.373ZM137.689 117.5V110.225H139.352L141.649 113.908C141.766 114.097 141.885 114.301 142.006 114.522C142.128 114.742 142.251 114.987 142.376 115.258C142.501 115.528 142.626 115.832 142.752 116.171H142.599C142.576 115.9 142.556 115.612 142.537 115.307C142.517 115.002 142.502 114.71 142.49 114.429C142.478 114.148 142.472 113.911 142.472 113.717V110.225H143.995V117.5H142.327L140.242 114.161C140.088 113.909 139.946 113.666 139.815 113.431C139.684 113.196 139.548 112.935 139.407 112.649C139.265 112.362 139.097 112.021 138.901 111.625H139.09C139.112 111.976 139.132 112.313 139.151 112.637C139.17 112.96 139.186 113.253 139.197 113.514C139.209 113.775 139.215 113.989 139.215 114.157V117.5H137.689Z" fill="#434655" fill-opacity="0.2"/>
<rect x="18.3469" y="96" width="144" height="144" rx="72" transform="rotate(-45 18.3469 96)" stroke="#2563EB" stroke-width="16"/>
<mask id="path-5-inside-1_236_8906" fill="white">
<path d="M50.8848 56.0008C72.9761 17.7374 121.903 4.62738 160.167 26.7188C198.43 48.8102 211.54 97.7374 189.449 136.001C167.357 174.264 118.43 187.374 80.1668 165.283C41.9034 143.191 28.7934 94.2642 50.8848 56.0008Z"/>
</mask>
<g clip-path="url(#paint0_diamond_236_8906_clip_path)" data-figma-skip-parse="true" mask="url(#path-5-inside-1_236_8906)"><g transform="matrix(0.069282 0.04 -0.04 0.069282 80.1668 165.283)"><rect x="0" y="0" width="1200" height="2200" fill="url(#paint0_diamond_236_8906)" opacity="1" shape-rendering="crispEdges"/><rect x="0" y="0" width="1200" height="2200" transform="scale(1 -1)" fill="url(#paint0_diamond_236_8906)" opacity="1" shape-rendering="crispEdges"/><rect x="0" y="0" width="1200" height="2200" transform="scale(-1 1)" fill="url(#paint0_diamond_236_8906)" opacity="1" shape-rendering="crispEdges"/><rect x="0" y="0" width="1200" height="2200" transform="scale(-1)" fill="url(#paint0_diamond_236_8906)" opacity="1" shape-rendering="crispEdges"/></g></g><path d="M50.8848 56.0008M189.449 136.001M189.449 136.001M50.8848 56.0008M160.167 26.7188M189.449 136.001M80.1668 165.283M50.8848 56.0008M80.1668 165.283L88.1668 151.426C57.556 133.753 47.068 94.6115 64.7411 64.0008L50.8848 56.0008L37.0284 48.0008C10.5187 93.9168 26.2507 152.63 72.1668 179.139L80.1668 165.283ZM189.449 136.001L175.592 128.001C157.919 158.612 118.777 169.1 88.1668 151.426L80.1668 165.283L72.1668 179.139C118.083 205.649 176.796 189.917 203.305 144.001L189.449 136.001ZM160.167 26.7188L152.167 40.5752C182.778 58.2483 193.266 97.3901 175.592 128.001L189.449 136.001L203.305 144.001C229.815 98.0847 214.083 39.372 168.167 12.8624L160.167 26.7188ZM160.167 26.7188L168.167 12.8624C122.251 -13.6473 63.538 2.08471 37.0284 48.0008L50.8848 56.0008L64.7411 64.0008C82.4143 33.3901 121.556 22.9021 152.167 40.5752L160.167 26.7188Z" data-figma-gradient-fill="{&#34;type&#34;:&#34;GRADIENT_DIAMOND&#34;,&#34;stops&#34;:[{&#34;color&#34;:{&#34;r&#34;:0.96078431606292725,&#34;g&#34;:0.61960786581039429,&#34;b&#34;:0.043137256056070328,&#34;a&#34;:1.0},&#34;position&#34;:0.99999988079071045},{&#34;color&#34;:{&#34;r&#34;:0.0,&#34;g&#34;:0.0,&#34;b&#34;:0.0,&#34;a&#34;:0.0},&#34;position&#34;:1.0}],&#34;stopsVar&#34;:[],&#34;transform&#34;:{&#34;m00&#34;:138.56404113769531,&#34;m01&#34;:-80.000030517578125,&#34;m02&#34;:50.884750366210938,&#34;m10&#34;:80.000030517578125,&#34;m11&#34;:138.56404113769531,&#34;m12&#34;:56.000774383544922},&#34;opacity&#34;:1.0,&#34;blendMode&#34;:&#34;NORMAL&#34;,&#34;visible&#34;:true}" mask="url(#path-5-inside-1_236_8906)"/>
<mask id="path-7-inside-2_236_8906" fill="white">
<path d="M50.5446 56.6004C72.3029 18.1466 121.114 4.61218 159.568 26.3704C198.022 48.1287 211.556 96.9402 189.798 135.394C168.04 173.848 119.228 187.382 80.7746 165.624C42.3208 143.866 28.7864 95.0543 50.5446 56.6004Z"/>
</mask>
<g clip-path="url(#paint1_diamond_236_8906_clip_path)" data-figma-skip-parse="true" mask="url(#path-7-inside-2_236_8906)"><g transform="matrix(0.0696268 0.0393968 -0.0393968 0.0696268 50.5446 56.6004)"><rect x="0" y="0" width="2200" height="1200" fill="url(#paint1_diamond_236_8906)" opacity="1" shape-rendering="crispEdges"/><rect x="0" y="0" width="2200" height="1200" transform="scale(1 -1)" fill="url(#paint1_diamond_236_8906)" opacity="1" shape-rendering="crispEdges"/><rect x="0" y="0" width="2200" height="1200" transform="scale(-1 1)" fill="url(#paint1_diamond_236_8906)" opacity="1" shape-rendering="crispEdges"/><rect x="0" y="0" width="2200" height="1200" transform="scale(-1)" fill="url(#paint1_diamond_236_8906)" opacity="1" shape-rendering="crispEdges"/></g></g><path d="M80.7746 165.624L88.654 151.699C57.8909 134.292 47.0634 95.2429 64.47 64.4798L50.5446 56.6004L36.6192 48.7211C10.5093 94.8657 26.7507 153.44 72.8953 179.549L80.7746 165.624ZM189.798 135.394L175.873 127.515C158.466 158.278 119.417 169.105 88.654 151.699L80.7746 165.624L72.8953 179.549C119.04 205.659 177.614 189.418 203.724 143.273L189.798 135.394ZM159.568 26.3704L151.689 40.2958C182.452 57.7024 193.279 96.7516 175.873 127.515L189.798 135.394L203.724 143.273C229.834 97.1288 213.592 38.555 167.448 12.4451L159.568 26.3704ZM159.568 26.3704L167.448 12.4451C121.303 -13.6648 62.7291 2.57649 36.6192 48.7211L50.5446 56.6004L64.47 64.4798C81.8766 33.7167 120.926 22.8892 151.689 40.2958L159.568 26.3704Z" data-figma-gradient-fill="{&#34;type&#34;:&#34;GRADIENT_DIAMOND&#34;,&#34;stops&#34;:[{&#34;color&#34;:{&#34;r&#34;:0.7294117808341980,&#34;g&#34;:0.10196078568696976,&#34;b&#34;:0.10196078568696976,&#34;a&#34;:1.0},&#34;position&#34;:0.99999988079071045},{&#34;color&#34;:{&#34;r&#34;:0.0,&#34;g&#34;:0.0,&#34;b&#34;:0.0,&#34;a&#34;:0.0},&#34;position&#34;:1.0}],&#34;stopsVar&#34;:[],&#34;transform&#34;:{&#34;m00&#34;:139.25363159179688,&#34;m01&#34;:-78.793594360351562,&#34;m02&#34;:20.314592361450195,&#34;m10&#34;:78.793594360351562,&#34;m11&#34;:139.25363159179688,&#34;m12&#34;:-52.423164367675781},&#34;opacity&#34;:1.0,&#34;blendMode&#34;:&#34;NORMAL&#34;,&#34;visible&#34;:true}" mask="url(#path-7-inside-2_236_8906)"/>
<defs>
<clipPath id="paint0_diamond_236_8906_clip_path"><path d="M50.8848 56.0008M189.449 136.001M189.449 136.001M50.8848 56.0008M160.167 26.7188M189.449 136.001M80.1668 165.283M50.8848 56.0008M80.1668 165.283L88.1668 151.426C57.556 133.753 47.068 94.6115 64.7411 64.0008L50.8848 56.0008L37.0284 48.0008C10.5187 93.9168 26.2507 152.63 72.1668 179.139L80.1668 165.283ZM189.449 136.001L175.592 128.001C157.919 158.612 118.777 169.1 88.1668 151.426L80.1668 165.283L72.1668 179.139C118.083 205.649 176.796 189.917 203.305 144.001L189.449 136.001ZM160.167 26.7188L152.167 40.5752C182.778 58.2483 193.266 97.3901 175.592 128.001L189.449 136.001L203.305 144.001C229.815 98.0847 214.083 39.372 168.167 12.8624L160.167 26.7188ZM160.167 26.7188L168.167 12.8624C122.251 -13.6473 63.538 2.08471 37.0284 48.0008L50.8848 56.0008L64.7411 64.0008C82.4143 33.3901 121.556 22.9021 152.167 40.5752L160.167 26.7188Z" mask="url(#path-5-inside-1_236_8906)"/></clipPath><clipPath id="paint1_diamond_236_8906_clip_path"><path d="M80.7746 165.624L88.654 151.699C57.8909 134.292 47.0634 95.2429 64.47 64.4798L50.5446 56.6004L36.6192 48.7211C10.5093 94.8657 26.7507 153.44 72.8953 179.549L80.7746 165.624ZM189.798 135.394L175.873 127.515C158.466 158.278 119.417 169.105 88.654 151.699L80.7746 165.624L72.8953 179.549C119.04 205.659 177.614 189.418 203.724 143.273L189.798 135.394ZM159.568 26.3704L151.689 40.2958C182.452 57.7024 193.279 96.7516 175.873 127.515L189.798 135.394L203.724 143.273C229.834 97.1288 213.592 38.555 167.448 12.4451L159.568 26.3704ZM159.568 26.3704L167.448 12.4451C121.303 -13.6648 62.7291 2.57649 36.6192 48.7211L50.5446 56.6004L64.47 64.4798C81.8766 33.7167 120.926 22.8892 151.689 40.2958L159.568 26.3704Z" mask="url(#path-7-inside-2_236_8906)"/></clipPath><linearGradient id="paint0_diamond_236_8906" x1="0" y1="0" x2="500" y2="500" gradientUnits="userSpaceOnUse">
<stop offset="1" stop-color="#F59E0B"/>
<stop offset="1" stop-opacity="0"/>
</linearGradient>
<linearGradient id="paint1_diamond_236_8906" x1="0" y1="0" x2="500" y2="500" gradientUnits="userSpaceOnUse">
<stop offset="1" stop-color="#BA1A1A"/>
<stop offset="1" stop-opacity="0"/>
</linearGradient>
</defs>
</svg>
