<svg width="38" height="38" viewBox="0 0 38 38" fill="none" xmlns="http://www.w3.org/2000/svg">
<path d="M18.75 29.1667C19.3403 29.1667 19.8354 28.9667 20.2354 28.5667C20.6354 28.1667 20.8347 27.6722 20.8333 27.0833C20.8319 26.4944 20.6319 26 20.2333 25.6C19.8347 25.2 19.3403 25 18.75 25C18.1597 25 17.6653 25.2 17.2667 25.6C16.8681 26 16.6681 26.4944 16.6667 27.0833C16.6653 27.6722 16.8653 28.1674 17.2667 28.5687C17.6681 28.9701 18.1625 29.1694 18.75 29.1667ZM16.6667 20.8333H20.8333V8.33333H16.6667V20.8333ZM10.9375 37.5L0 26.5625V10.9375L10.9375 0H26.5625L37.5 10.9375V26.5625L26.5625 37.5H10.9375Z" fill="#BA1A1A"/>
</svg>
