<svg width="40" height="40" viewBox="0 0 40 40" fill="none" xmlns="http://www.w3.org/2000/svg">
<rect width="40" height="40" rx="4" fill="#E7E8E9"/>
<path d="M9 29.5L20 10.5L31 29.5H9ZM12.45 27.5H27.55L20 14.5L12.45 27.5ZM20 26.5C20.2833 26.5 20.5208 26.4042 20.7125 26.2125C20.9042 26.0208 21 25.7833 21 25.5C21 25.2167 20.9042 24.9792 20.7125 24.7875C20.5208 24.5958 20.2833 24.5 20 24.5C19.7167 24.5 19.4792 24.5958 19.2875 24.7875C19.0958 24.9792 19 25.2167 19 25.5C19 25.7833 19.0958 26.0208 19.2875 26.2125C19.4792 26.4042 19.7167 26.5 20 26.5ZM19 23.5H21V18.5H19V23.5Z" fill="#BA1A1A"/>
</svg>
