<svg width="309" height="48" viewBox="0 0 309 48" fill="none" xmlns="http://www.w3.org/2000/svg">
<rect width="309" height="48" rx="8" fill="white"/>
<path d="M103.725 21V19H105.725V21H103.725ZM103.725 29V23H105.725V29H103.725ZM110.725 29H108.725C108.175 29 107.704 28.8042 107.312 28.4125C106.92 28.0208 106.725 27.55 106.725 27V21C106.725 20.45 106.92 19.9792 107.312 19.5875C107.704 19.1958 108.175 19 108.725 19H110.725C111.275 19 111.745 19.1958 112.137 19.5875C112.529 19.9792 112.725 20.45 112.725 21V27C112.725 27.55 112.529 28.0208 112.137 28.4125C111.745 28.8042 111.275 29 110.725 29ZM108.725 27H110.725V21H108.725V27ZM113.725 29V27H117.725V25H115.725C115.175 25 114.704 24.8042 114.312 24.4125C113.92 24.0208 113.725 23.55 113.725 23V21C113.725 20.45 113.92 19.9792 114.312 19.5875C114.704 19.1958 115.175 19 115.725 19H119.725V21H115.725V23H117.725C118.275 23 118.745 23.1958 119.137 23.5875C119.529 23.9792 119.725 24.45 119.725 25V27C119.725 27.55 119.529 28.0208 119.137 28.4125C118.745 28.8042 118.275 29 117.725 29H113.725Z" fill="#004AC6"/>
<path d="M128.098 30L132.08 18.3594H135.2L139.283 30H136.632L134.766 24.3848C134.539 23.6596 134.311 22.8654 134.081 22.0024C133.851 21.1393 133.608 20.199 133.352 19.1813H133.87C133.622 20.2038 133.391 21.1489 133.175 22.0168C132.96 22.8846 132.745 23.6739 132.531 24.3848L130.731 30H128.098ZM130.586 27.2985V25.4278H136.795V27.2985H130.586ZM140.661 33.2656V21.2656H142.965V22.7358H143.079C143.187 22.5036 143.34 22.2655 143.54 22.0215C143.739 21.7775 144.004 21.5723 144.333 21.4059C144.662 21.2395 145.074 21.1562 145.568 21.1562C146.216 21.1562 146.807 21.3231 147.342 21.6567C147.877 21.9904 148.306 22.4902 148.628 23.1562C148.95 23.8223 149.111 24.6528 149.111 25.6478C149.111 26.6171 148.955 27.436 148.643 28.1047C148.33 28.7733 147.906 29.2806 147.369 29.6265C146.833 29.9724 146.228 30.1453 145.555 30.1453C145.082 30.1453 144.681 30.065 144.352 29.9045C144.023 29.7439 143.757 29.5453 143.552 29.3088C143.347 29.0722 143.19 28.8366 143.079 28.602H143.004V33.2656H140.661ZM144.834 28.2673C145.243 28.2673 145.586 28.1553 145.863 27.9314C146.14 27.7074 146.35 27.3974 146.493 27.0012C146.636 26.6051 146.707 26.1516 146.707 25.6406C146.707 25.1293 146.636 24.6779 146.495 24.2866C146.353 23.8952 146.144 23.5887 145.867 23.3669C145.59 23.1451 145.245 23.0343 144.834 23.0343C144.432 23.0343 144.091 23.1416 143.811 23.3561C143.531 23.5707 143.318 23.8725 143.173 24.2614C143.027 24.6504 142.954 25.1101 142.954 25.6406C142.954 26.1655 143.028 26.6247 143.174 27.0183C143.321 27.4118 143.535 27.7183 143.817 27.9379C144.098 28.1575 144.437 28.2673 144.834 28.2673ZM150.747 33.2656V21.2656H153.051V22.7358H153.165C153.273 22.5036 153.426 22.2655 153.626 22.0215C153.825 21.7775 154.09 21.5723 154.419 21.4059C154.748 21.2395 155.16 21.1562 155.654 21.1562C156.302 21.1562 156.893 21.3231 157.428 21.6567C157.963 21.9904 158.392 22.4902 158.714 23.1562C159.036 23.8223 159.197 24.6528 159.197 25.6478C159.197 26.6171 159.041 27.436 158.728 28.1047C158.416 28.7733 157.992 29.2806 157.455 29.6265C156.919 29.9724 156.314 30.1453 155.641 30.1453C155.168 30.1453 154.767 30.065 154.438 29.9045C154.109 29.7439 153.843 29.5453 153.638 29.3088C153.433 29.0722 153.276 28.8366 153.165 28.602H153.09V33.2656H150.747ZM154.92 28.2673C155.329 28.2673 155.672 28.1553 155.949 27.9314C156.226 27.7074 156.436 27.3974 156.579 27.0012C156.722 26.6051 156.793 26.1516 156.793 25.6406C156.793 25.1293 156.722 24.6779 156.581 24.2866C156.439 23.8952 156.23 23.5887 155.953 23.3669C155.675 23.1451 155.331 23.0343 154.92 23.0343C154.518 23.0343 154.177 23.1416 153.897 23.3561C153.617 23.5707 153.404 23.8725 153.259 24.2614C153.113 24.6504 153.04 25.1101 153.04 25.6406C153.04 26.1655 153.114 26.6247 153.26 27.0183C153.407 27.4118 153.621 27.7183 153.903 27.9379C154.184 28.1575 154.523 28.2673 154.92 28.2673ZM168.946 30.1694C168.015 30.1694 167.204 30.0262 166.514 29.7399C165.824 29.4536 165.286 29.0297 164.9 28.4682C164.515 27.9067 164.31 27.2132 164.285 26.3878H166.606C166.637 26.7803 166.753 27.1079 166.957 27.3707C167.16 27.6334 167.431 27.8303 167.77 27.9613C168.11 28.0923 168.493 28.1578 168.921 28.1578C169.346 28.1578 169.717 28.0957 170.033 27.9717C170.35 27.8476 170.596 27.6736 170.772 27.4497C170.948 27.2258 171.036 26.9672 171.036 26.6739C171.036 26.4058 170.957 26.182 170.799 26.0024C170.642 25.8229 170.414 25.6689 170.116 25.5403C169.817 25.4118 169.456 25.2973 169.031 25.1967L167.751 24.8785C166.766 24.6382 165.994 24.2615 165.435 23.7484C164.876 23.2353 164.597 22.5554 164.597 21.7086C164.597 21.0074 164.786 20.3938 165.166 19.8678C165.545 19.3419 166.064 18.9329 166.724 18.641C167.383 18.3491 168.133 18.2031 168.976 18.2031C169.838 18.2031 170.588 18.3505 171.229 18.6452C171.87 18.94 172.369 19.3485 172.727 19.8709C173.085 20.3933 173.27 20.9952 173.283 21.6766H170.977C170.932 21.2101 170.732 20.8487 170.378 20.5922C170.023 20.3358 169.549 20.2076 168.955 20.2076C168.55 20.2076 168.205 20.2657 167.919 20.3819C167.633 20.4982 167.415 20.6581 167.266 20.8618C167.116 21.0655 167.042 21.2976 167.042 21.5581C167.042 21.8434 167.129 22.0803 167.303 22.2686C167.476 22.4569 167.706 22.6102 167.99 22.7286C168.275 22.8469 168.58 22.9451 168.906 23.0233L169.956 23.2803C170.446 23.3917 170.902 23.5415 171.325 23.7295C171.747 23.9175 172.117 24.1481 172.434 24.4212C172.751 24.6944 172.998 25.0178 173.174 25.3916C173.351 25.7654 173.439 26.1965 173.439 26.6847C173.439 27.3904 173.261 28.0048 172.905 28.5279C172.549 29.051 172.036 29.4553 171.366 29.7409C170.697 30.0266 169.89 30.1694 168.946 30.1694ZM179.439 21.2656V23.051H174.257V21.2656H179.439ZM175.459 19.1875H177.802V27.4433C177.802 27.7214 177.864 27.9264 177.988 28.0582C178.111 28.1901 178.315 28.2561 178.597 28.2561C178.689 28.2561 178.815 28.2449 178.975 28.2227C179.136 28.2005 179.258 28.1789 179.341 28.1581L179.677 29.9152C179.416 29.9926 179.157 30.0464 178.9 30.0766C178.643 30.1069 178.397 30.122 178.162 30.122C177.285 30.122 176.616 29.9095 176.153 29.4843C175.691 29.0591 175.459 28.4476 175.459 27.6497V19.1875ZM184.711 30.1706C183.835 30.1706 183.077 29.9824 182.437 29.606C181.797 29.2296 181.304 28.7036 180.958 28.0279C180.612 27.3522 180.439 26.5665 180.439 25.6706C180.439 24.7676 180.612 23.9777 180.958 23.3008C181.304 22.6239 181.797 22.0973 182.437 21.7209C183.077 21.3445 183.835 21.1562 184.711 21.1562C185.589 21.1562 186.347 21.3445 186.986 21.7209C187.624 22.0973 188.116 22.6239 188.462 23.3008C188.808 23.9777 188.981 24.7676 188.981 25.6706C188.981 26.5665 188.808 27.3522 188.462 28.0279C188.116 28.7036 187.624 29.2296 186.986 29.606C186.347 29.9824 185.589 30.1706 184.711 30.1706ZM184.711 28.3264C185.128 28.3264 185.476 28.2105 185.757 27.9787C186.037 27.7469 186.247 27.43 186.387 27.0278C186.527 26.6256 186.597 26.1704 186.597 25.6622C186.597 25.1488 186.527 24.6919 186.387 24.2915C186.247 23.8911 186.037 23.5759 185.757 23.3457C185.476 23.1156 185.128 23.0005 184.711 23.0005C184.293 23.0005 183.945 23.1156 183.666 23.3457C183.386 23.5759 183.176 23.8905 183.036 24.2897C182.896 24.6889 182.826 25.1464 182.826 25.6622C182.826 26.1704 182.896 26.6256 183.036 27.0278C183.176 27.43 183.386 27.7469 183.666 27.9787C183.945 28.2105 184.293 28.3264 184.711 28.3264ZM190.614 30V21.2656H192.885V22.7866H192.978C193.137 22.2482 193.405 21.8407 193.783 21.5641C194.16 21.2874 194.594 21.1491 195.084 21.1491C195.205 21.1491 195.335 21.1559 195.474 21.1695C195.613 21.1832 195.735 21.2025 195.841 21.2273V23.3207C195.738 23.2849 195.586 23.256 195.387 23.2337C195.188 23.2115 195.002 23.2004 194.829 23.2004C194.471 23.2004 194.15 23.2778 193.866 23.4325C193.581 23.5873 193.359 23.8016 193.198 24.0754C193.037 24.3491 192.957 24.667 192.957 25.0291V30H190.614ZM200.689 30.1706C199.798 30.1706 199.029 29.988 198.383 29.6229C197.738 29.2577 197.242 28.7392 196.896 28.0673C196.549 27.3955 196.376 26.599 196.376 25.6778C196.376 24.7792 196.548 23.9908 196.892 23.3127C197.236 22.6347 197.723 22.1057 198.352 21.7259C198.981 21.3461 199.721 21.1562 200.572 21.1562C201.142 21.1562 201.675 21.2471 202.171 21.4289C202.666 21.6107 203.101 21.8848 203.475 22.2513C203.849 22.6177 204.142 23.0782 204.352 23.6327C204.562 24.1871 204.668 24.8385 204.668 25.5867V26.2444H197.338V24.77H203.526L202.431 25.1653C202.431 24.7105 202.361 24.3153 202.222 23.9797C202.083 23.6441 201.878 23.3837 201.605 23.1986C201.333 23.0135 200.994 22.921 200.589 22.921C200.184 22.921 199.84 23.0147 199.558 23.2022C199.276 23.3897 199.061 23.6441 198.913 23.9653C198.766 24.2866 198.693 24.6518 198.693 25.0611V26.0991C198.693 26.6043 198.777 27.0287 198.946 27.3723C199.115 27.716 199.353 27.9741 199.66 28.1468C199.966 28.3195 200.322 28.4059 200.727 28.4059C201 28.4059 201.249 28.367 201.472 28.2891C201.696 28.2112 201.888 28.096 202.049 27.9433C202.21 27.7905 202.332 27.6023 202.417 27.3786L204.535 27.7705C204.394 28.253 204.15 28.6742 203.801 29.0343C203.453 29.3943 203.017 29.6737 202.493 29.8725C201.968 30.0712 201.367 30.1706 200.689 30.1706Z" fill="#004AC6"/>
</svg>
