<svg width="309" height="50" viewBox="0 0 309 50" fill="none" xmlns="http://www.w3.org/2000/svg">
<rect width="309" height="50" rx="8" fill="#2563EB" fill-opacity="0.2"/>
<rect x="0.5" y="0.5" width="308" height="49" rx="7.5" stroke="white" stroke-opacity="0.3"/>
<path d="M98.625 32V18L109.625 25L98.625 32ZM100.625 28.35L105.875 25L100.625 21.65V28.35Z" fill="white"/>
<path d="M123.835 31.1562C122.748 31.1562 121.794 30.9148 120.972 30.4318C120.15 29.9488 119.509 29.2614 119.049 28.3696C118.589 27.4778 118.359 26.4199 118.359 25.1959C118.359 23.9362 118.598 22.8598 119.076 21.9666C119.554 21.0733 120.203 20.3895 121.022 19.9149C121.84 19.4404 122.761 19.2031 123.784 19.2031C124.438 19.2031 125.047 19.2978 125.612 19.4871C126.177 19.6764 126.68 19.946 127.122 20.2958C127.563 20.6456 127.923 21.0592 128.202 21.5366C128.481 22.014 128.661 22.5395 128.742 23.1133H126.317C126.236 22.8339 126.122 22.5838 125.973 22.3628C125.824 22.1419 125.644 21.9535 125.433 21.7976C125.221 21.6417 124.981 21.5233 124.711 21.4422C124.442 21.3612 124.146 21.3207 123.821 21.3207C123.223 21.3207 122.695 21.4697 122.236 21.7679C121.777 22.066 121.42 22.5019 121.163 23.0757C120.907 23.6495 120.779 24.3478 120.779 25.1706C120.779 25.9943 120.905 26.6938 121.159 27.2692C121.412 27.8446 121.768 28.2834 122.228 28.5855C122.687 28.8876 123.229 29.0387 123.852 29.0387C124.413 29.0387 124.895 28.9366 125.298 28.7325C125.701 28.5284 126.009 28.2388 126.223 27.8636C126.437 27.4884 126.544 27.046 126.544 26.5366L127.044 26.6099H124.018V24.7983H128.858V26.2531C128.858 27.2701 128.642 28.1447 128.211 28.8769C127.78 29.6092 127.187 30.1721 126.431 30.5658C125.676 30.9594 124.81 31.1562 123.835 31.1562ZM134.54 31.1706C133.664 31.1706 132.906 30.9824 132.266 30.606C131.626 30.2296 131.133 29.7036 130.787 29.0279C130.441 28.3522 130.268 27.5665 130.268 26.6706C130.268 25.7676 130.441 24.9777 130.787 24.3008C131.133 23.6239 131.626 23.0973 132.266 22.7209C132.906 22.3445 133.664 22.1562 134.54 22.1562C135.418 22.1562 136.177 22.3445 136.815 22.7209C137.454 23.0973 137.946 23.6239 138.292 24.3008C138.638 24.9777 138.811 25.7676 138.811 26.6706C138.811 27.5665 138.638 28.3522 138.292 29.0279C137.946 29.7036 137.454 30.2296 136.815 30.606C136.177 30.9824 135.418 31.1706 134.54 31.1706ZM134.54 29.3264C134.957 29.3264 135.306 29.2105 135.586 28.9787C135.866 28.7469 136.077 28.43 136.217 28.0278C136.357 27.6256 136.427 27.1704 136.427 26.6622C136.427 26.1488 136.357 25.6919 136.217 25.2915C136.077 24.8911 135.866 24.5759 135.586 24.3457C135.306 24.1156 134.957 24.0005 134.54 24.0005C134.123 24.0005 133.774 24.1156 133.495 24.3457C133.216 24.5759 133.006 24.8905 132.866 25.2897C132.726 25.6889 132.656 26.1464 132.656 26.6622C132.656 27.1704 132.726 27.6256 132.866 28.0278C133.006 28.43 133.216 28.7469 133.495 28.9787C133.774 29.2105 134.123 29.3264 134.54 29.3264ZM144.353 31.1706C143.476 31.1706 142.718 30.9824 142.079 30.606C141.439 30.2296 140.946 29.7036 140.6 29.0279C140.254 28.3522 140.081 27.5665 140.081 26.6706C140.081 25.7676 140.254 24.9777 140.6 24.3008C140.946 23.6239 141.439 23.0973 142.079 22.7209C142.718 22.3445 143.476 22.1562 144.353 22.1562C145.231 22.1562 145.989 22.3445 146.628 22.7209C147.266 23.0973 147.758 23.6239 148.104 24.3008C148.45 24.9777 148.623 25.7676 148.623 26.6706C148.623 27.5665 148.45 28.3522 148.104 29.0279C147.758 29.7036 147.266 30.2296 146.628 30.606C145.989 30.9824 145.231 31.1706 144.353 31.1706ZM144.353 29.3264C144.769 29.3264 145.118 29.2105 145.398 28.9787C145.679 28.7469 145.889 28.43 146.029 28.0278C146.169 27.6256 146.239 27.1704 146.239 26.6622C146.239 26.1488 146.169 25.6919 146.029 25.2915C145.889 24.8911 145.679 24.5759 145.398 24.3457C145.118 24.1156 144.769 24.0005 144.353 24.0005C143.935 24.0005 143.587 24.1156 143.307 24.3457C143.028 24.5759 142.818 24.8905 142.678 25.2897C142.538 25.6889 142.468 26.1464 142.468 26.6622C142.468 27.1704 142.538 27.6256 142.678 28.0278C142.818 28.43 143.028 28.7469 143.307 28.9787C143.587 29.2105 143.935 29.3264 144.353 29.3264ZM154.137 34.4531C153.409 34.4531 152.775 34.3612 152.235 34.1775C151.695 33.9937 151.255 33.7404 150.916 33.4176C150.577 33.0947 150.343 32.7252 150.214 32.309L152.228 31.7519C152.302 31.9129 152.416 32.0704 152.568 32.2243C152.721 32.3782 152.924 32.5042 153.179 32.6025C153.434 32.7007 153.75 32.7498 154.128 32.7498C154.725 32.7498 155.194 32.6127 155.537 32.3384C155.879 32.0641 156.05 31.638 156.05 31.0598V29.4533H155.867C155.762 29.6875 155.611 29.9135 155.413 30.1314C155.215 30.3493 154.956 30.528 154.635 30.6673C154.315 30.8066 153.918 30.8763 153.446 30.8763C152.79 30.8763 152.193 30.7221 151.656 30.4139C151.118 30.1057 150.69 29.6367 150.371 29.0069C150.052 28.3771 149.893 27.5812 149.893 26.6191C149.893 25.6336 150.055 24.8103 150.38 24.1491C150.705 23.4878 151.137 22.9904 151.676 22.6567C152.214 22.3231 152.806 22.1562 153.452 22.1562C153.944 22.1562 154.356 22.2389 154.687 22.4041C155.019 22.5693 155.288 22.7745 155.494 23.0197C155.7 23.2649 155.857 23.5036 155.965 23.7358H156.06V22.2656H158.368V30.927C158.368 31.7136 158.186 32.3683 157.824 32.8913C157.461 33.4143 156.962 33.8053 156.326 34.0644C155.69 34.3236 154.96 34.4531 154.137 34.4531ZM154.178 29.0947C154.58 29.0947 154.92 28.9961 155.199 28.7989C155.478 28.6017 155.69 28.3167 155.837 27.944C155.984 27.5712 156.057 27.1248 156.057 26.6047C156.057 26.0862 155.984 25.6348 155.839 25.2506C155.693 24.8665 155.481 24.5677 155.202 24.3543C154.924 24.141 154.582 24.0343 154.178 24.0343C153.769 24.0343 153.425 24.1445 153.145 24.3651C152.865 24.5857 152.654 24.8886 152.511 25.274C152.369 25.6594 152.297 26.1029 152.297 26.6047C152.297 27.1108 152.369 27.5509 152.513 27.9248C152.657 28.2988 152.869 28.5872 153.149 28.7902C153.429 28.9932 153.772 29.0947 154.178 29.0947ZM162.708 19.3594V31H160.365V19.3594H162.708ZM168.652 31.1706C167.76 31.1706 166.991 30.988 166.346 30.6229C165.7 30.2577 165.204 29.7392 164.858 29.0673C164.512 28.3955 164.338 27.599 164.338 26.6778C164.338 25.7792 164.51 24.9908 164.854 24.3127C165.198 23.6347 165.685 23.1057 166.314 22.7259C166.943 22.3461 167.683 22.1562 168.534 22.1562C169.104 22.1562 169.637 22.2471 170.133 22.4289C170.628 22.6107 171.063 22.8848 171.437 23.2513C171.812 23.6177 172.104 24.0782 172.314 24.6327C172.525 25.1871 172.63 25.8385 172.63 26.5867V27.2444H165.3V25.77H171.488L170.393 26.1653C170.393 25.7105 170.323 25.3153 170.185 24.9797C170.046 24.6441 169.84 24.3837 169.567 24.1986C169.295 24.0135 168.956 23.921 168.551 23.921C168.146 23.921 167.802 24.0147 167.52 24.2022C167.238 24.3897 167.023 24.6441 166.876 24.9653C166.728 25.2866 166.655 25.6518 166.655 26.0611V27.0991C166.655 27.6043 166.739 28.0287 166.908 28.3723C167.078 28.716 167.315 28.9741 167.622 29.1468C167.929 29.3195 168.284 29.4059 168.689 29.4059C168.962 29.4059 169.211 29.367 169.434 29.2891C169.658 29.2112 169.85 29.096 170.011 28.9433C170.172 28.7905 170.295 28.6023 170.379 28.3786L172.498 28.7705C172.356 29.253 172.112 29.6742 171.764 30.0343C171.415 30.3943 170.979 30.6737 170.455 30.8725C169.93 31.0712 169.329 31.1706 168.652 31.1706ZM178.075 31V19.3594H182.617C183.5 19.3594 184.252 19.5276 184.872 19.8639C185.491 20.2003 185.964 20.664 186.29 21.255C186.616 21.846 186.779 22.5245 186.779 23.2903C186.779 24.059 186.614 24.7365 186.284 25.3229C185.954 25.9093 185.474 26.3685 184.846 26.7004C184.218 27.0323 183.456 27.1983 182.561 27.1983H179.644V25.2734H182.183C182.668 25.2734 183.069 25.189 183.384 25.0203C183.7 24.8516 183.935 24.618 184.089 24.3198C184.243 24.0215 184.32 23.6783 184.32 23.2903C184.32 22.8967 184.243 22.5526 184.089 22.2582C183.935 21.9637 183.7 21.7348 183.383 21.5714C183.066 21.4081 182.663 21.3265 182.176 21.3265H180.463V31H178.075ZM190.732 19.3594V31H188.389V19.3594H190.732ZM195.166 31.1694C194.611 31.1694 194.114 31.0715 193.675 30.8759C193.235 30.6802 192.89 30.3889 192.638 30.0019C192.387 29.6149 192.261 29.1335 192.261 28.5578C192.261 28.0691 192.35 27.6614 192.528 27.3348C192.706 27.0083 192.95 26.7453 193.26 26.5459C193.57 26.3466 193.922 26.1949 194.316 26.0909C194.71 25.9868 195.122 25.9144 195.554 25.8736C196.058 25.8228 196.465 25.7749 196.775 25.73C197.084 25.6851 197.312 25.6149 197.457 25.5193C197.601 25.4237 197.674 25.2818 197.674 25.0936V25.0552C197.674 24.8059 197.621 24.595 197.515 24.4226C197.409 24.2502 197.254 24.118 197.051 24.0262C196.848 23.9344 196.598 23.8885 196.301 23.8885C196.003 23.8885 195.742 23.9339 195.518 24.0247C195.294 24.1155 195.111 24.2368 194.968 24.3885C194.825 24.5403 194.723 24.7106 194.66 24.8997L192.511 24.543C192.659 24.0342 192.908 23.6027 193.257 23.2484C193.606 22.8941 194.04 22.6234 194.559 22.4366C195.078 22.2497 195.661 22.1562 196.309 22.1562C196.777 22.1562 197.233 22.2118 197.676 22.3229C198.119 22.434 198.516 22.6078 198.868 22.8442C199.22 23.0807 199.499 23.3865 199.706 23.7616C199.913 24.1367 200.017 24.5894 200.017 25.1198V31H197.794V29.7872H197.717C197.576 30.0578 197.388 30.297 197.154 30.5047C196.92 30.7124 196.638 30.8751 196.309 30.9928C195.98 31.1105 195.599 31.1694 195.166 31.1694ZM195.826 29.5264C196.195 29.5264 196.519 29.4529 196.798 29.3061C197.077 29.1592 197.296 28.961 197.454 28.7114C197.612 28.4618 197.691 28.1839 197.691 27.8775V26.9324C197.619 26.9804 197.514 27.0254 197.375 27.0674C197.235 27.1095 197.08 27.1471 196.909 27.1803C196.737 27.2136 196.568 27.2424 196.401 27.2668C196.234 27.2912 196.085 27.3127 195.955 27.3311C195.668 27.37 195.414 27.436 195.196 27.5291C194.978 27.6222 194.808 27.7467 194.687 27.9027C194.567 28.0586 194.506 28.254 194.506 28.4889C194.506 28.715 194.563 28.9051 194.677 29.059C194.791 29.2129 194.947 29.3292 195.145 29.4081C195.343 29.4869 195.569 29.5264 195.826 29.5264ZM201.68 34.0923L202.216 32.3251L202.504 32.4021C202.821 32.4835 203.102 32.5058 203.344 32.4692C203.587 32.4325 203.783 32.3335 203.931 32.1721C204.079 32.0108 204.168 31.7851 204.199 31.495L204.268 31.0258L200.987 22.2656H203.475L204.942 26.7998C205.123 27.3724 205.27 27.9447 205.381 28.5168C205.493 29.0888 205.62 29.6867 205.762 30.3104H205.217C205.36 29.6867 205.501 29.0868 205.64 28.5107C205.78 27.9347 205.943 27.3644 206.13 26.7998L207.667 22.2656H210.127L206.417 32.0304C206.24 32.4996 206.013 32.9064 205.736 33.2509C205.459 33.5954 205.115 33.8611 204.704 34.0479C204.293 34.2347 203.795 34.3281 203.209 34.3281C202.9 34.3281 202.609 34.3057 202.337 34.2608C202.065 34.2159 201.846 34.1597 201.68 34.0923Z" fill="white"/>
</svg>
