<svg width="27" height="27" viewBox="0 0 27 27" fill="none" xmlns="http://www.w3.org/2000/svg">
<path d="M19.5 0C19.8674 4.84658e-05 20.222 0.134934 20.4966 0.379073C20.7711 0.623212 20.9465 0.959623 20.9895 1.3245L21 1.5V3H24C24.7569 2.99976 25.4858 3.28561 26.0408 3.80025C26.5958 4.31488 26.9357 5.02027 26.9925 5.775L27 6V24C27.0002 24.7569 26.7144 25.4858 26.1998 26.0408C25.6851 26.5958 24.9797 26.9357 24.225 26.9925L24 27H3C2.24314 27.0002 1.51415 26.7144 0.959178 26.1998C0.404206 25.6851 0.0642651 24.9797 0.00750032 24.225L1.50402e-07 24V6C-0.000239369 5.24314 0.28561 4.51415 0.800245 3.95918C1.31488 3.40421 2.02027 3.06427 2.775 3.0075L3 3H6V1.5C6.00042 1.11768 6.14682 0.749952 6.40927 0.471948C6.67173 0.193943 7.03043 0.0266475 7.41209 0.00424182C7.79375 -0.0181639 8.16957 0.106012 8.46275 0.351397C8.75593 0.596783 8.94434 0.944856 8.9895 1.3245L9 1.5V3H18V1.5C18 1.10218 18.158 0.720644 18.4393 0.43934C18.7206 0.158035 19.1022 0 19.5 0ZM24 13.5H3V24H24V13.5ZM24 6H3V10.5H24V6Z" fill="black"/>
</svg>
