<svg width="38" height="43" viewBox="0 0 38 43" fill="none" xmlns="http://www.w3.org/2000/svg">
<path d="M35.127 15.147H34.11V10.2405L34.101 10.1475C34.1025 9.95037 34.0321 9.75945 33.903 9.6105L25.74 0.285003L25.734 0.279003C25.6847 0.226572 25.6293 0.180242 25.569 0.141003L25.515 0.108003C25.4629 0.0796726 25.4081 0.0565603 25.3515 0.0390028L25.3065 0.0240031C25.2443 0.00787436 25.1803 -0.000191413 25.116 3.44775e-06H5.0505C4.134 3.44775e-06 3.39 0.745503 3.39 1.6605V15.1455H2.373C1.062 15.1455 0 16.2075 0 17.5185V29.8605C0 31.17 1.0635 32.2335 2.373 32.2335H3.39V40.6815C3.39 41.5965 4.134 42.342 5.0505 42.342H32.4495C33.3645 42.342 34.11 41.5965 34.11 40.6815V32.2335H35.127C36.4365 32.2335 37.5 31.1715 37.5 29.8605V17.5185C37.5 16.209 36.438 15.147 35.127 15.147ZM5.0505 1.6605H24.285V10.1565C24.285 10.6155 24.657 10.986 25.116 10.986H32.451V15.1455H5.0505V1.6605ZM17.4735 24.4125C15.4575 23.6925 14.127 22.5765 14.127 20.814C14.127 18.7455 15.873 17.181 18.7155 17.181C20.1015 17.181 21.09 17.451 21.81 17.7915L21.198 19.986C20.4135 19.6043 19.5519 19.4077 18.6795 19.4115C17.4915 19.4115 16.9155 19.968 16.9155 20.58C16.9155 21.354 17.58 21.6945 19.164 22.2885C21.306 23.0805 22.2945 24.195 22.2945 25.905C22.2945 27.939 20.748 29.6655 17.4195 29.6655C16.0335 29.6655 14.667 29.2875 13.983 28.9095L14.541 26.661C15.4827 27.1426 16.5224 27.4013 17.58 27.417C18.84 27.417 19.506 26.8935 19.506 26.103C19.506 25.347 18.9315 24.9165 17.4735 24.4125ZM3.1845 23.5845C3.1845 19.464 6.135 17.1795 9.804 17.1795C11.226 17.1795 12.3045 17.466 12.7905 17.7015L12.2145 19.878C11.4859 19.572 10.7022 19.4189 9.912 19.428C7.7535 19.428 6.063 20.7405 6.063 23.439C6.063 25.8495 7.5015 27.3795 9.93 27.3795C10.776 27.3795 11.676 27.219 12.2325 26.9835L12.63 29.142C12.144 29.3745 10.992 29.664 9.5355 29.664C5.343 29.6655 3.1845 27.039 3.1845 23.5845ZM32.4495 40.2345H5.0505V32.235H32.4495V40.2345ZM30.2325 29.4855H27.03L23.145 17.3595H26.1495L27.624 22.488C28.0365 23.9445 28.4145 25.3125 28.7025 26.823H28.7565C29.0634 25.3816 29.4292 23.9534 29.853 22.542L31.401 17.361H34.314L30.2325 29.4855Z" fill="#FD761A"/>
</svg>
