<svg width="54" height="54" viewBox="0 0 54 54" fill="none" xmlns="http://www.w3.org/2000/svg">
<path d="M9 47.25C7.7625 47.25 6.7035 46.8097 5.823 45.9292C4.9425 45.0488 4.5015 43.989 4.5 42.75V18C4.5 16.7625 4.941 15.7035 5.823 14.823C6.705 13.9425 7.764 13.5015 9 13.5H18V9C18 7.7625 18.441 6.7035 19.323 5.823C20.205 4.9425 21.264 4.5015 22.5 4.5H31.5C32.7375 4.5 33.7973 4.941 34.6793 5.823C35.5613 6.705 36.0015 7.764 36 9V13.5H45C46.2375 13.5 47.2973 13.941 48.1793 14.823C49.0613 15.705 49.5015 16.764 49.5 18V42.75C49.5 43.9875 49.0598 45.0472 48.1793 45.9292C47.2988 46.8112 46.239 47.2515 45 47.25H9ZM9 42.75H45V18H9V42.75ZM22.5 13.5H31.5V9H22.5V13.5Z" fill="#434655" fill-opacity="0.76"/>
</svg>
