<svg width="45" height="60" viewBox="0 0 45 60" fill="none" xmlns="http://www.w3.org/2000/svg">
<path d="M14.5645 25.0504C14.4091 24.8545 14.2161 24.6917 13.9969 24.5716C13.7776 24.4514 13.5366 24.3763 13.2879 24.3507C13.0392 24.3251 12.7878 24.3494 12.5487 24.4224C12.3096 24.4953 12.0874 24.6153 11.8954 24.7754C11.7033 24.9355 11.5452 25.1323 11.4303 25.3544C11.3154 25.5764 11.2461 25.8192 11.2265 26.0685C11.2069 26.3177 11.2373 26.5684 11.3159 26.8057C11.3946 27.043 11.5199 27.2622 11.6845 27.4504L20.0583 37.5004L11.6845 47.5504C11.3803 47.9338 11.238 48.4211 11.2882 48.908C11.3384 49.3949 11.5769 49.8429 11.953 50.1562C12.329 50.4696 12.8127 50.6235 13.3007 50.585C13.7886 50.5466 14.2422 50.3188 14.5645 49.9504L22.4995 40.4291L30.4345 49.9541C30.7533 50.336 31.2107 50.5757 31.7061 50.6203C31.9515 50.6425 32.1987 50.616 32.4338 50.5426C32.6689 50.4691 32.8873 50.3501 33.0764 50.1923C33.2655 50.0344 33.4217 49.8409 33.536 49.6227C33.6503 49.4045 33.7205 49.166 33.7426 48.9206C33.7647 48.6753 33.7383 48.428 33.6648 48.1929C33.5914 47.9578 33.4723 47.7395 33.3145 47.5504L24.9408 37.5004L33.3145 27.4504C33.6188 27.0669 33.761 26.5797 33.7108 26.0928C33.6607 25.6059 33.4221 25.1579 33.0461 24.8445C32.67 24.5312 32.1863 24.3773 31.6984 24.4158C31.2104 24.4542 30.7568 24.682 30.4345 25.0504L22.4995 34.5716L14.5645 25.0504Z" fill="#007E37"/>
<path d="M45 52.5V16.875L28.125 0H7.5C5.51088 0 3.60322 0.790176 2.1967 2.1967C0.790176 3.60322 0 5.51088 0 7.5V52.5C0 54.4891 0.790176 56.3968 2.1967 57.8033C3.60322 59.2098 5.51088 60 7.5 60H37.5C39.4891 60 41.3968 59.2098 42.8033 57.8033C44.2098 56.3968 45 54.4891 45 52.5ZM28.125 11.25C28.125 12.7418 28.7176 14.1726 29.7725 15.2275C30.8274 16.2824 32.2582 16.875 33.75 16.875H41.25V52.5C41.25 53.4946 40.8549 54.4484 40.1516 55.1516C39.4484 55.8549 38.4946 56.25 37.5 56.25H7.5C6.50544 56.25 5.55161 55.8549 4.84835 55.1516C4.14509 54.4484 3.75 53.4946 3.75 52.5V7.5C3.75 6.50544 4.14509 5.55161 4.84835 4.84835C5.55161 4.14509 6.50544 3.75 7.5 3.75H28.125V11.25Z" fill="#007E37"/>
</svg>
