<svg width="60" height="60" viewBox="0 0 60 60" fill="none" xmlns="http://www.w3.org/2000/svg">
<g clip-path="url(#clip0_713_20699)">
<path d="M30 12.5C27.6794 12.5 25.4538 13.4219 23.8128 15.0628C22.1719 16.7038 21.25 18.9294 21.25 21.25C21.25 23.5706 22.1719 25.7962 23.8128 27.4372C25.4538 29.0781 27.6794 30 30 30C32.3206 30 34.5462 29.0781 36.1872 27.4372C37.8281 25.7962 38.75 23.5706 38.75 21.25C38.75 18.9294 37.8281 16.7038 36.1872 15.0628C34.5462 13.4219 32.3206 12.5 30 12.5ZM30 17.5C30.9946 17.5 31.9484 17.8951 32.6516 18.5983C33.3549 19.3016 33.75 20.2554 33.75 21.25C33.75 22.2446 33.3549 23.1984 32.6516 23.9017C31.9484 24.6049 30.9946 25 30 25C29.0054 25 28.0516 24.6049 27.3483 23.9017C26.6451 23.1984 26.25 22.2446 26.25 21.25C26.25 20.2554 26.6451 19.3016 27.3483 18.5983C28.0516 17.8951 29.0054 17.5 30 17.5ZM13.75 20C12.0924 20 10.5027 20.6585 9.33058 21.8306C8.15848 23.0027 7.5 24.5924 7.5 26.25C7.5 28.6 8.825 30.625 10.725 31.7C11.625 32.2 12.65 32.5 13.75 32.5C14.85 32.5 15.875 32.2 16.775 31.7C17.7 31.175 18.475 30.425 19.05 29.525C17.2287 27.1514 16.2442 24.2418 16.25 21.25V20.55C15.5 20.2 14.65 20 13.75 20ZM46.25 20C45.35 20 44.5 20.2 43.75 20.55V21.25C43.75 24.25 42.775 27.15 40.95 29.525C41.25 30 41.575 30.375 41.95 30.75C43.1026 31.8682 44.6441 32.4956 46.25 32.5C47.35 32.5 48.375 32.2 49.275 31.7C51.175 30.625 52.5 28.6 52.5 26.25C52.5 24.5924 51.8415 23.0027 50.6694 21.8306C49.4973 20.6585 47.9076 20 46.25 20ZM30 35C24.15 35 12.5 37.925 12.5 43.75V47.5H47.5V43.75C47.5 37.925 35.85 35 30 35ZM11.775 36.375C6.95 36.95 0 39.4 0 43.75V47.5H7.5V42.675C7.5 40.15 9.225 38.05 11.775 36.375ZM48.225 36.375C50.775 38.05 52.5 40.15 52.5 42.675V47.5H60V43.75C60 39.4 53.05 36.95 48.225 36.375ZM30 40C33.825 40 38.1 41.25 40.575 42.5H19.425C21.9 41.25 26.175 40 30 40Z" fill="#434655" fill-opacity="0.76"/>
</g>
<defs>
<clipPath id="clip0_713_20699">
<rect width="60" height="60" fill="white"/>
</clipPath>
</defs>
</svg>
