<svg width="38" height="43" viewBox="0 0 38 43" fill="none" xmlns="http://www.w3.org/2000/svg">
<path d="M35.127 15.1455H34.11V10.239L34.101 10.146C34.102 9.94879 34.0323 9.75775 33.9045 9.6075L25.74 0.283503L25.734 0.277503C25.6301 0.16522 25.498 0.0828576 25.3515 0.0390035L25.3065 0.0240031C25.2443 0.00787436 25.1803 -0.000191413 25.116 3.44775e-06H5.0505C4.134 3.44775e-06 3.39 0.745503 3.39 1.6605V15.1455H2.373C1.062 15.1455 0 16.2075 0 17.5185V29.8605C0 31.17 1.0635 32.2335 2.373 32.2335H3.39V40.683C3.39 41.598 4.134 42.3435 5.0505 42.3435H32.4495C33.3645 42.3435 34.11 41.598 34.11 40.683V32.2335H35.127C36.438 32.2335 37.5 31.17 37.5 29.8605V17.5185C37.5 16.2075 36.4365 15.1455 35.127 15.1455ZM5.0505 1.6605H24.285V10.1565C24.285 10.6155 24.657 10.986 25.116 10.986H32.451V15.1455H5.0505V1.6605ZM25.4355 23.7555C25.4355 26.1285 24.5715 27.7665 23.373 28.7775C22.068 29.862 20.082 30.378 17.6535 30.378C16.2 30.378 15.171 30.285 14.4705 30.195V18.0165C15.501 17.8515 16.8435 17.76 18.261 17.76C20.6145 17.76 22.1415 18.183 23.337 19.0845C24.6255 20.04 25.4355 21.567 25.4355 23.7555ZM3.7815 30.2505V18.0165C4.6455 17.8695 5.8605 17.76 7.5705 17.76C9.3 17.76 10.533 18.0915 11.3595 18.753C12.15 19.3785 12.6825 20.409 12.6825 21.6225C12.6825 22.8375 12.279 23.8665 11.5425 24.5655C10.5855 25.467 9.1695 25.872 7.5135 25.872C7.146 25.872 6.8145 25.854 6.558 25.8165V30.2505H3.7815ZM32.4495 40.233H5.0505V32.2335H32.4495V40.233ZM34.8555 20.151H30.09V22.9845H34.542V25.266H30.09V30.2505H27.2775V17.8515H34.8555V20.151Z" fill="#BA1A1A"/>
</svg>
