<svg width="60" height="60" viewBox="0 0 60 60" fill="none" xmlns="http://www.w3.org/2000/svg">
<path d="M18.22 30.72C17.74 31.1983 17.5 31.7917 17.5 32.5V40C17.5 40.7083 17.74 41.3025 18.22 41.7825C18.7 42.2625 19.2933 42.5017 20 42.5C20.7067 42.4983 21.3008 42.2583 21.7825 41.78C22.2642 41.3017 22.5033 40.7083 22.5 40V32.5C22.5 31.7917 22.26 31.1983 21.78 30.72C21.3 30.2417 20.7067 30.0017 20 30C19.2933 29.9983 18.7 30.2383 18.22 30.72ZM38.22 18.22C37.74 18.6983 37.5 19.2917 37.5 20V40C37.5 40.7083 37.74 41.3025 38.22 41.7825C38.7 42.2625 39.2933 42.5017 40 42.5C40.7067 42.4983 41.3008 42.2583 41.7825 41.78C42.2642 41.3017 42.5033 40.7083 42.5 40V20C42.5 19.2917 42.26 18.6983 41.78 18.22C41.3 17.7417 40.7067 17.5017 40 17.5C39.2933 17.4983 38.7 17.7383 38.22 18.22ZM28.22 35.72C27.74 36.1983 27.5 36.7917 27.5 37.5V40C27.5 40.7083 27.74 41.3025 28.22 41.7825C28.7 42.2625 29.2933 42.5017 30 42.5C30.7067 42.4983 31.3008 42.2583 31.7825 41.78C32.2642 41.3017 32.5033 40.7083 32.5 40V37.5C32.5 36.7917 32.26 36.1983 31.78 35.72C31.3 35.2417 30.7067 35.0017 30 35C29.2933 34.9983 28.7 35.2383 28.22 35.72ZM12.5 52.5C11.125 52.5 9.94833 52.0108 8.97 51.0325C7.99167 50.0542 7.50167 48.8767 7.5 47.5V12.5C7.5 11.125 7.99 9.94833 8.97 8.97C9.95 7.99167 11.1267 7.50167 12.5 7.5H47.5C48.875 7.5 50.0525 7.99 51.0325 8.97C52.0125 9.95 52.5017 11.1267 52.5 12.5V47.5C52.5 48.875 52.0108 50.0525 51.0325 51.0325C50.0542 52.0125 48.8767 52.5017 47.5 52.5H12.5ZM12.5 47.5H47.5V12.5H12.5V47.5ZM31.7825 29.2825C32.2608 28.8025 32.5 28.2083 32.5 27.5C32.5 26.7917 32.26 26.1983 31.78 25.72C31.3 25.2417 30.7067 25.0017 30 25C29.2933 24.9983 28.7 25.2383 28.22 25.72C27.74 26.2017 27.5 26.795 27.5 27.5C27.5 28.205 27.74 28.7992 28.22 29.2825C28.7 29.7658 29.2933 30.005 30 30C30.7067 29.995 31.3008 29.755 31.7825 29.28" fill="#434655" fill-opacity="0.76"/>
</svg>
