<svg width="15" height="15" viewBox="0 0 15 15" fill="none" xmlns="http://www.w3.org/2000/svg">
<path d="M7.5 8.55L9.67499 10.725C9.81249 10.8625 9.98749 10.9312 10.2 10.9312C10.4125 10.9312 10.5875 10.8625 10.725 10.725C10.8625 10.5875 10.9312 10.4125 10.9312 10.2C10.9312 9.9875 10.8625 9.8125 10.725 9.675L8.55 7.5L10.725 5.325C10.8625 5.1875 10.9312 5.0125 10.9312 4.8C10.9312 4.5875 10.8625 4.4125 10.725 4.275C10.5875 4.1375 10.4125 4.06875 10.2 4.06875C9.98749 4.06875 9.81249 4.1375 9.67499 4.275L7.5 6.45L5.325 4.275C5.1875 4.1375 5.0125 4.06875 4.8 4.06875C4.5875 4.06875 4.4125 4.1375 4.275 4.275C4.1375 4.4125 4.06875 4.5875 4.06875 4.8C4.06875 5.0125 4.1375 5.1875 4.275 5.325L6.45 7.5L4.275 9.675C4.1375 9.8125 4.06875 9.9875 4.06875 10.2C4.06875 10.4125 4.1375 10.5875 4.275 10.725C4.4125 10.8625 4.5875 10.9312 4.8 10.9312C5.0125 10.9312 5.1875 10.8625 5.325 10.725L7.5 8.55ZM7.5 15C6.4625 15 5.4875 14.803 4.575 14.409C3.6625 14.015 2.86875 13.4807 2.19375 12.8062C1.51875 12.1317 0.9845 11.338 0.591001 10.425C0.197501 9.512 0.000500949 8.537 9.49366e-07 7.5C-0.00049905 6.463 0.196501 5.488 0.591001 4.575C0.9855 3.662 1.51975 2.86825 2.19375 2.19375C2.86775 1.51925 3.6615 0.985 4.575 0.591C5.4885 0.197 6.4635 0 7.5 0C8.5365 0 9.51149 0.197 10.425 0.591C11.3385 0.985 12.1322 1.51925 12.8062 2.19375C13.4802 2.86825 14.0147 3.662 14.4097 4.575C14.8047 5.488 15.0015 6.463 15 7.5C14.9985 8.537 14.8015 9.512 14.409 10.425C14.0165 11.338 13.4822 12.1317 12.8062 12.8062C12.1302 13.4807 11.3365 14.0152 10.425 14.4097C9.51349 14.8042 8.5385 15.001 7.5 15ZM7.5 13.5C9.17499 13.5 10.5937 12.9187 11.7562 11.7562C12.9187 10.5937 13.5 9.175 13.5 7.5C13.5 5.825 12.9187 4.40625 11.7562 3.24375C10.5937 2.08125 9.17499 1.5 7.5 1.5C5.825 1.5 4.40625 2.08125 3.24375 3.24375C2.08125 4.40625 1.5 5.825 1.5 7.5C1.5 9.175 2.08125 10.5937 3.24375 11.7562C4.40625 12.9187 5.825 13.5 7.5 13.5Z" fill="#EF4444"/>
</svg>
