<svg width="32" height="32" viewBox="0 0 32 32" fill="none" xmlns="http://www.w3.org/2000/svg">
<rect x="1" y="1" width="30" height="30" rx="15" fill="#E7E8E9"/>
<rect x="1" y="1" width="30" height="30" rx="15" stroke="white" stroke-width="2"/>
<path d="M9.04339 17.9052V12.8931H10.2826V17.9052H9.04339ZM7.16068 15.9853V14.8107H12.1653V15.9853H7.16068ZM16.1247 19.0977C15.6262 19.0977 15.1821 19.0059 14.7926 18.8225C14.4031 18.639 14.0951 18.3862 13.8687 18.0641C13.6422 17.742 13.5235 17.3734 13.5125 16.9584H14.9647C14.9737 17.1469 15.0311 17.3134 15.137 17.4581C15.2428 17.6027 15.3821 17.7152 15.5548 17.7954C15.7275 17.8756 15.9174 17.9157 16.1247 17.9157C16.3684 17.9157 16.5839 17.861 16.7712 17.7515C16.9585 17.642 17.1054 17.4897 17.2119 17.2945C17.3184 17.0993 17.3716 16.8742 17.3716 16.6192C17.3716 16.3595 17.3169 16.1301 17.2074 15.931C17.0979 15.732 16.9481 15.5766 16.7578 15.4649C16.5675 15.3531 16.3474 15.2973 16.0977 15.2973C15.8801 15.2973 15.6712 15.341 15.4708 15.4284C15.2705 15.5159 15.1145 15.6325 15.0029 15.7783L13.6644 15.5444L14.015 11.7246H18.4179V12.954H15.2498L15.0614 14.7959H15.1005C15.2309 14.6195 15.4241 14.4742 15.68 14.3602C15.936 14.2462 16.221 14.1892 16.5349 14.1892C16.8617 14.1892 17.1641 14.2476 17.4422 14.3645C17.7202 14.4815 17.9621 14.6472 18.1678 14.8616C18.3735 15.0761 18.5332 15.3292 18.647 15.621C18.7608 15.9129 18.8177 16.2328 18.8177 16.5809C18.8177 17.0692 18.7044 17.5027 18.4778 17.8813C18.2511 18.26 17.9357 18.5574 17.5316 18.7735C17.1274 18.9896 16.6585 19.0977 16.1247 19.0977ZM22.4962 19.0977C21.9682 19.0977 21.4997 19.007 21.0905 18.8258C20.6814 18.6446 20.3589 18.3933 20.1231 18.072C19.8873 17.7506 19.7656 17.3794 19.7581 16.9584H21.2599C21.2689 17.1403 21.3281 17.2992 21.4374 17.4352C21.5468 17.5712 21.6939 17.6765 21.8788 17.7511C22.0637 17.8257 22.2708 17.863 22.5 17.863C22.7392 17.863 22.9505 17.821 23.1337 17.7372C23.317 17.6534 23.4607 17.5366 23.5649 17.3867C23.6691 17.2368 23.7212 17.0638 23.7212 16.8677C23.7212 16.6655 23.6667 16.4881 23.5577 16.3354C23.4488 16.1826 23.2931 16.0629 23.0908 15.9762C22.8885 15.8895 22.6462 15.8462 22.364 15.8462H21.6914V14.7373H22.364C22.5998 14.7373 22.8078 14.6961 22.9883 14.6138C23.1687 14.5315 23.3095 14.4173 23.4106 14.2713C23.5117 14.1253 23.5622 13.9551 23.5622 13.7608C23.5622 13.5726 23.5186 13.4083 23.4312 13.268C23.3439 13.1276 23.2215 13.0179 23.064 12.9388C22.9064 12.8598 22.7222 12.8202 22.5113 12.8202C22.299 12.8202 22.1049 12.858 21.9289 12.9334C21.7528 13.0089 21.6115 13.1151 21.5048 13.2521C21.398 13.3891 21.3425 13.5527 21.338 13.7429H19.9038C19.9098 13.3269 20.0277 12.9599 20.2575 12.6421C20.4873 12.3243 20.7986 12.0756 21.1913 11.8961C21.584 11.7167 22.027 11.627 22.5203 11.627C23.0184 11.627 23.4544 11.7181 23.8281 11.9004C24.2019 12.0827 24.492 12.3281 24.6986 12.6366C24.9051 12.9452 25.0084 13.2895 25.0084 13.6697C25.0084 14.0764 24.8826 14.4163 24.6309 14.6896C24.3793 14.9629 24.0512 15.1382 23.6467 15.2154V15.2687C23.9999 15.3141 24.2974 15.4134 24.5391 15.5667C24.7808 15.7201 24.9634 15.9158 25.0868 16.1538C25.2103 16.3917 25.272 16.6611 25.272 16.9618C25.272 17.3748 25.1532 17.7423 24.9155 18.0645C24.6778 18.3867 24.3502 18.6394 23.9328 18.8227C23.5154 19.006 23.0365 19.0977 22.4962 19.0977Z" fill="#434655" fill-opacity="0.2"/>
</svg>
