<svg width="22" height="20" viewBox="0 0 22 20" fill="none" xmlns="http://www.w3.org/2000/svg">
<path d="M14.6743 19.4074H19.9264C20.3876 19.4074 20.7533 19.2574 21.0236 18.9574C21.2936 18.6563 21.4286 18.254 21.4286 17.7506V6.13543C21.4286 5.63171 21.2936 5.22971 21.0236 4.92943C20.7533 4.62886 20.3876 4.47857 19.9264 4.47857H15.12V17.7514C15.12 18.0609 15.0821 18.3537 15.0064 18.63C14.9318 18.9033 14.8199 19.1651 14.6739 19.4079M17.1861 9.08529V7.62857C17.1861 7.41629 17.2923 7.31014 17.5046 7.31014H19.0157C19.2283 7.31014 19.3344 7.41629 19.3341 7.62857V9.08529C19.3341 9.30386 19.228 9.41314 19.0157 9.41314H17.5046C17.2923 9.41314 17.1861 9.30386 17.1861 9.08529ZM17.1861 12.672V11.2153C17.1861 11.003 17.2923 10.8969 17.5046 10.8969H19.0157C19.2283 10.8969 19.3344 11.003 19.3341 11.2153V12.672C19.3341 12.8843 19.228 12.9904 19.0157 12.9904H17.5046C17.2923 12.9904 17.1861 12.8843 17.1861 12.672ZM17.1861 16.2583V14.802C17.1861 14.5834 17.2923 14.4741 17.5046 14.4741H19.0157C19.2283 14.4741 19.3344 14.5834 19.3341 14.802V16.2583C19.3341 16.4709 19.228 16.5771 19.0157 16.5771H17.5046C17.2923 16.5771 17.1861 16.4709 17.1861 16.2583ZM0 17.7514C0 18.2549 0.135 18.6569 0.405 18.9574C0.675 19.2577 1.04357 19.4079 1.51071 19.4079H12.3621C12.8293 19.4079 13.1979 19.2579 13.4679 18.9579C13.7379 18.657 13.8729 18.2549 13.8729 17.7514V1.65686C13.8729 1.14686 13.7379 0.743286 13.4679 0.446143C13.1979 0.149 12.8293 0.000285714 12.3621 0H1.51029C1.04343 0 0.675143 0.148571 0.405429 0.445714C0.135143 0.743714 0 1.14757 0 1.65729V17.7514ZM3.78686 17.9426V14.9841C3.78686 14.7716 3.85057 14.603 3.978 14.4784C4.10543 14.3539 4.27229 14.2917 4.47857 14.292H9.47614C9.68871 14.292 9.85714 14.3543 9.98143 14.4789C10.1057 14.6031 10.1679 14.7716 10.1679 14.9841V17.9426H3.78686ZM3.48643 4.88871V3.123C3.48643 2.86186 3.61071 2.73129 3.85929 2.73129H5.68029C5.94114 2.73129 6.07157 2.86171 6.07157 3.12257V4.88871C6.07157 5.14957 5.94114 5.28 5.68029 5.28H3.85971C3.61114 5.28 3.48671 5.14957 3.48643 4.88871ZM7.88357 4.88871V3.123C7.88357 2.86186 8.01086 2.73129 8.26543 2.73129H10.077C10.3379 2.73129 10.4683 2.86171 10.4683 3.12257V4.88871C10.4683 5.14957 10.3379 5.28 10.077 5.28H8.26543C8.01057 5.28 7.88314 5.14957 7.88314 4.88871M3.486 8.60271V6.837C3.486 6.57557 3.61029 6.445 3.85886 6.44529H5.67986C5.94071 6.44529 6.07114 6.57586 6.07114 6.837V8.60271C6.07114 8.86357 5.94071 8.994 5.67986 8.994H3.85929C3.61071 8.994 3.48629 8.86357 3.486 8.60271ZM7.88314 8.60271V6.837C7.88314 6.57557 8.01043 6.445 8.265 6.44529H10.0766C10.3374 6.44529 10.4679 6.57586 10.4679 6.837V8.60271C10.4679 8.86357 10.3374 8.994 10.0766 8.994H8.265C8.01014 8.994 7.88314 8.86357 7.88314 8.60271ZM3.48557 12.3167V10.551C3.48557 10.2896 3.60986 10.159 3.85843 10.1593H5.67943C5.94029 10.1593 6.07071 10.2899 6.07071 10.551V12.3167C6.07071 12.5781 5.94029 12.7087 5.67943 12.7084H3.85886C3.61029 12.7084 3.48586 12.5779 3.48557 12.3167ZM7.88271 12.3167V10.551C7.88271 10.2896 8.01 10.159 8.26457 10.1593H10.0761C10.337 10.1593 10.4674 10.2899 10.4674 10.551V12.3167C10.4674 12.5781 10.337 12.7087 10.0761 12.7084H8.26457C8.00972 12.7084 7.88271 12.5779 7.88271 12.3167Z" fill="#2563EB"/>
</svg>
