<svg width="92" height="81" viewBox="0 0 92 81" fill="none" xmlns="http://www.w3.org/2000/svg">
<path d="M0 96V0H53.3333V21.3333H106.667V96H0ZM10.6667 85.3333H21.3333V74.6667H10.6667V85.3333ZM10.6667 64H21.3333V53.3333H10.6667V64ZM10.6667 42.6667H21.3333V32H10.6667V42.6667ZM10.6667 21.3333H21.3333V10.6667H10.6667V21.3333ZM32 85.3333H42.6667V74.6667H32V85.3333ZM32 64H42.6667V53.3333H32V64ZM32 42.6667H42.6667V32H32V42.6667ZM32 21.3333H42.6667V10.6667H32V21.3333ZM53.3333 85.3333H96V32H53.3333V42.6667H64V53.3333H53.3333V64H64V74.6667H53.3333V85.3333ZM74.6667 53.3333V42.6667H85.3333V53.3333H74.6667ZM74.6667 74.6667V64H85.3333V74.6667H74.6667Z" fill="#DBEAFE"/>
</svg>
