<svg width="14" height="20" viewBox="0 0 14 20" fill="none" xmlns="http://www.w3.org/2000/svg">
<path d="M7 17C4.65 15.2667 2.89583 13.5833 1.7375 11.95C0.579167 10.3167 0 8.71667 0 7.15C0 5.06667 0.65 3.35417 1.95 2.0125C3.25 0.670833 4.93333 0 7 0C9.06667 0 10.75 0.670833 12.05 2.0125C13.35 3.35417 14 5.06667 14 7.15C14 8.71667 13.4208 10.3167 12.2625 11.95C11.1042 13.5833 9.35 15.2667 7 17ZM7 9C7.55 9 8.02083 8.80417 8.4125 8.4125C8.80417 8.02083 9 7.55 9 7C9 6.45 8.80417 5.97917 8.4125 5.5875C8.02083 5.19583 7.55 5 7 5C6.45 5 5.97917 5.19583 5.5875 5.5875C5.19583 5.97917 5 6.45 5 7C5 7.55 5.19583 8.02083 5.5875 8.4125C5.97917 8.80417 6.45 9 7 9ZM0 20V18H14V20H0Z" fill="#0055D7"/>
</svg>
