<svg width="80" height="80" viewBox="0 0 80 80" fill="none" xmlns="http://www.w3.org/2000/svg">
<rect width="80" height="80" rx="12" fill="#BA1A1A" fill-opacity="0.1"/>
<path d="M40 50C40.5667 50 41.0417 49.8083 41.425 49.425C41.8083 49.0417 42 48.5667 42 48C42 47.4333 41.8083 46.9583 41.425 46.575C41.0417 46.1917 40.5667 46 40 46C39.4333 46 38.9583 46.1917 38.575 46.575C38.1917 46.9583 38 47.4333 38 48C38 48.5667 38.1917 49.0417 38.575 49.425C38.9583 49.8083 39.4333 50 40 50ZM38 42H42V30H38V42ZM32.5 58L22 47.5V32.5L32.5 22H47.5L58 32.5V47.5L47.5 58H32.5Z" fill="#BA1A1A"/>
</svg>
