<svg width="48" height="48" viewBox="0 0 48 48" fill="none" xmlns="http://www.w3.org/2000/svg">
<rect width="48" height="48" rx="8" fill="#2563EB" fill-opacity="0.1"/>
<path d="M24 36.5C22.2708 36.5 20.6458 36.1719 19.125 35.5156C17.6042 34.8594 16.2812 33.9688 15.1562 32.8438C14.0312 31.7188 13.1406 30.3958 12.4844 28.875C11.8281 27.3542 11.5 25.7292 11.5 24C11.5 22.2708 11.8281 20.6458 12.4844 19.125C13.1406 17.6042 14.0312 16.2812 15.1562 15.1562C16.2812 14.0312 17.6042 13.1406 19.125 12.4844C20.6458 11.8281 22.2708 11.5 24 11.5C25.7292 11.5 27.3542 11.8281 28.875 12.4844C30.3958 13.1406 31.7188 14.0312 32.8438 15.1562C33.9688 16.2812 34.8594 17.6042 35.5156 19.125C36.1719 20.6458 36.5 22.2708 36.5 24C36.5 25.7292 36.1719 27.3542 35.5156 28.875C34.8594 30.3958 33.9688 31.7188 32.8438 32.8438C31.7188 33.9688 30.3958 34.8594 28.875 35.5156C27.3542 36.1719 25.7292 36.5 24 36.5ZM22.75 33.9375V31.5C22.0625 31.5 21.474 31.2552 20.9844 30.7656C20.4948 30.276 20.25 29.6875 20.25 29V27.75L14.25 21.75C14.1875 22.125 14.1302 22.5 14.0781 22.875C14.026 23.25 14 23.625 14 24C14 26.5208 14.8281 28.7292 16.4844 30.625C18.1406 32.5208 20.2292 33.625 22.75 33.9375ZM31.375 30.75C32.2292 29.8125 32.8802 28.7656 33.3281 27.6094C33.776 26.4531 34 25.25 34 24C34 21.9583 33.4323 20.0938 32.2969 18.4062C31.1615 16.7188 29.6458 15.5 27.75 14.75V15.25C27.75 15.9375 27.5052 16.526 27.0156 17.0156C26.526 17.5052 25.9375 17.75 25.25 17.75H22.75V20.25C22.75 20.6042 22.6302 20.901 22.3906 21.1406C22.151 21.3802 21.8542 21.5 21.5 21.5H19V24H26.5C26.8542 24 27.151 24.1198 27.3906 24.3594C27.6302 24.599 27.75 24.8958 27.75 25.25V29H29C29.5417 29 30.0312 29.1615 30.4688 29.4844C30.9062 29.8073 31.2083 30.2292 31.375 30.75Z" fill="#2563EB"/>
</svg>
