<svg width="40" height="40" viewBox="0 0 40 40" fill="none" xmlns="http://www.w3.org/2000/svg">
<rect width="40" height="40" rx="12" fill="white"/>
<path d="M13 30V22.5H11.5V17C11.5 16.45 11.6958 15.9792 12.0875 15.5875C12.4792 15.1958 12.95 15 13.5 15H16.5C17.05 15 17.5208 15.1958 17.9125 15.5875C18.3042 15.9792 18.5 16.45 18.5 17V22.5H17V30H13ZM15 14C14.45 14 13.9792 13.8042 13.5875 13.4125C13.1958 13.0208 13 12.55 13 12C13 11.45 13.1958 10.9792 13.5875 10.5875C13.9792 10.1958 14.45 10 15 10C15.55 10 16.0208 10.1958 16.4125 10.5875C16.8042 10.9792 17 11.45 17 12C17 12.55 16.8042 13.0208 16.4125 13.4125C16.0208 13.8042 15.55 14 15 14ZM22.5 30V24H19.5L22.05 16.35C22.1833 15.9167 22.4292 15.5833 22.7875 15.35C23.1458 15.1167 23.55 15 24 15C24.45 15 24.8542 15.1167 25.2125 15.35C25.5708 15.5833 25.8167 15.9167 25.95 16.35L28.5 24H25.5V30H22.5ZM24 14C23.45 14 22.9792 13.8042 22.5875 13.4125C22.1958 13.0208 22 12.55 22 12C22 11.45 22.1958 10.9792 22.5875 10.5875C22.9792 10.1958 23.45 10 24 10C24.55 10 25.0208 10.1958 25.4125 10.5875C25.8042 10.9792 26 11.45 26 12C26 12.55 25.8042 13.0208 25.4125 13.4125C25.0208 13.8042 24.55 14 24 14Z" fill="#2563EB"/>
</svg>
