<svg width="40" height="40" viewBox="0 0 40 40" fill="none" xmlns="http://www.w3.org/2000/svg">
<rect width="40" height="40" rx="12" fill="white"/>
<path d="M13.4922 30V25.7C12.5422 24.8333 11.8047 23.8208 11.2797 22.6625C10.7547 21.5042 10.4922 20.2833 10.4922 19C10.4922 16.5 11.3672 14.375 13.1172 12.625C14.8672 10.875 16.9922 10 19.4922 10C21.5755 10 23.4214 10.6125 25.0297 11.8375C26.638 13.0625 27.6839 14.6583 28.1672 16.625L29.4672 21.75C29.5505 22.0667 29.4922 22.3542 29.2922 22.6125C29.0922 22.8708 28.8255 23 28.4922 23H26.4922V26C26.4922 26.55 26.2964 27.0208 25.9047 27.4125C25.513 27.8042 25.0422 28 24.4922 28H22.4922V30H20.4922V26H24.4922V21H27.1922L26.2422 17.125C25.8589 15.6083 25.0422 14.375 23.7922 13.425C22.5422 12.475 21.1089 12 19.4922 12C17.5589 12 15.9089 12.675 14.5422 14.025C13.1755 15.375 12.4922 17.0167 12.4922 18.95C12.4922 19.95 12.6964 20.9 13.1047 21.8C13.513 22.7 14.0922 23.5 14.8422 24.2L15.4922 24.8V30H13.4922ZM18.4922 23H20.4922L20.6422 21.75C20.7755 21.7 20.8964 21.6417 21.0047 21.575C21.113 21.5083 21.2089 21.4333 21.2922 21.35L22.4422 21.85L23.4422 20.15L22.4422 19.4C22.4755 19.2667 22.4922 19.1333 22.4922 19C22.4922 18.8667 22.4755 18.7333 22.4422 18.6L23.4422 17.85L22.4422 16.15L21.2922 16.65C21.2089 16.5667 21.113 16.4917 21.0047 16.425C20.8964 16.3583 20.7755 16.3 20.6422 16.25L20.4922 15H18.4922L18.3422 16.25C18.2089 16.3 18.088 16.3583 17.9797 16.425C17.8714 16.4917 17.7755 16.5667 17.6922 16.65L16.5422 16.15L15.5422 17.85L16.5422 18.6C16.5089 18.7333 16.4922 18.8667 16.4922 19C16.4922 19.1333 16.5089 19.2667 16.5422 19.4L15.5422 20.15L16.5422 21.85L17.6922 21.35C17.7755 21.4333 17.8714 21.5083 17.9797 21.575C18.088 21.6417 18.2089 21.7 18.3422 21.75L18.4922 23ZM19.4922 20.5C19.0755 20.5 18.7214 20.3542 18.4297 20.0625C18.138 19.7708 17.9922 19.4167 17.9922 19C17.9922 18.5833 18.138 18.2292 18.4297 17.9375C18.7214 17.6458 19.0755 17.5 19.4922 17.5C19.9089 17.5 20.263 17.6458 20.5547 17.9375C20.8464 18.2292 20.9922 18.5833 20.9922 19C20.9922 19.4167 20.8464 19.7708 20.5547 20.0625C20.263 20.3542 19.9089 20.5 19.4922 20.5Z" fill="#2563EB"/>
</svg>
