<svg width="40" height="40" viewBox="0 0 40 40" fill="none" xmlns="http://www.w3.org/2000/svg">
<rect width="40" height="40" rx="12" fill="white"/>
<path d="M16 28H24V25C24 23.9 23.6083 22.9583 22.825 22.175C22.0417 21.3917 21.1 21 20 21C18.9 21 17.9583 21.3917 17.175 22.175C16.3917 22.9583 16 23.9 16 25V28ZM20 19C21.1 19 22.0417 18.6083 22.825 17.825C23.6083 17.0417 24 16.1 24 15V12H16V15C16 16.1 16.3917 17.0417 17.175 17.825C17.9583 18.6083 18.9 19 20 19ZM12 30V28H14V25C14 23.9833 14.2375 23.0292 14.7125 22.1375C15.1875 21.2458 15.85 20.5333 16.7 20C15.85 19.4667 15.1875 18.7542 14.7125 17.8625C14.2375 16.9708 14 16.0167 14 15V12H12V10H28V12H26V15C26 16.0167 25.7625 16.9708 25.2875 17.8625C24.8125 18.7542 24.15 19.4667 23.3 20C24.15 20.5333 24.8125 21.2458 25.2875 22.1375C25.7625 23.0292 26 23.9833 26 25V28H28V30H12Z" fill="#2563EB"/>
</svg>
