<svg width="36" height="36" viewBox="0 0 36 36" fill="none" xmlns="http://www.w3.org/2000/svg">
<rect x="0.5" y="0.5" width="35" height="35" rx="17.5" fill="#007E37"/>
<rect x="0.5" y="0.5" width="35" height="35" rx="17.5" stroke="#007E37"/>
<path d="M17.2394 27.2192L17.0018 27.0583C15.8127 26.2264 14.7078 25.2802 13.7028 24.2333C11.9369 22.3833 9.95703 19.6101 9.95703 16.3371C9.95703 12.3104 13.2251 8.29492 18.0004 8.29492C22.7758 8.29492 26.0439 12.3104 26.0439 16.3383C26.0439 19.6114 24.0639 22.3845 22.2981 24.232C21.2931 25.2789 20.1882 26.2251 18.9991 27.0571C18.8984 27.1272 18.8192 27.1809 18.7615 27.218C18.5103 27.385 18.2541 27.5434 18.0004 27.7043C17.7468 27.5434 17.4906 27.385 17.2394 27.2192ZM18.0004 18.8132C18.6568 18.8132 19.2863 18.5525 19.7505 18.0884C20.2146 17.6242 20.4753 16.9947 20.4753 16.3383C20.4753 15.682 20.2146 15.0525 19.7505 14.5883C19.2863 14.1242 18.6568 13.8634 18.0004 13.8634C17.3441 13.8634 16.7146 14.1242 16.2504 14.5883C15.7863 15.0525 15.5255 15.682 15.5255 16.3383C15.5255 16.9947 15.7863 17.6242 16.2504 18.0884C16.7146 18.5525 17.3441 18.8132 18.0004 18.8132Z" fill="white"/>
</svg>
