<svg width="24" height="24" viewBox="0 0 24 24" fill="none" xmlns="http://www.w3.org/2000/svg">
<g clip-path="url(#clip0_785_44723)">
<path d="M18 21.9993H3.33333C2.97971 21.9993 2.64057 21.8589 2.39052 21.6088C2.14048 21.3588 2 21.0196 2 20.666V5.99935C2 5.64573 2.14048 5.30659 2.39052 5.05654C2.64057 4.80649 2.97971 4.66602 3.33333 4.66602H10V5.99935H3.33333V20.666H18V13.9993H19.3333V20.666C19.3333 21.0196 19.1929 21.3588 18.9428 21.6088C18.6928 21.8589 18.3536 21.9993 18 21.9993Z" fill="#2563EB"/>
<path d="M12.0014 2C11.8246 2 11.655 2.07024 11.53 2.19526C11.405 2.32029 11.3347 2.48986 11.3347 2.66667C11.3347 2.84348 11.405 3.01305 11.53 3.13807C11.655 3.2631 11.8246 3.33333 12.0014 3.33333H19.7281L10.4947 12.5667C10.425 12.6264 10.3683 12.7 10.3283 12.7827C10.2882 12.8654 10.2658 12.9555 10.2622 13.0473C10.2587 13.1391 10.2741 13.2307 10.3077 13.3162C10.3412 13.4018 10.392 13.4795 10.457 13.5444C10.522 13.6094 10.5996 13.6602 10.6852 13.6938C10.7707 13.7273 10.8623 13.7427 10.9541 13.7392C11.0459 13.7357 11.136 13.7132 11.2187 13.6732C11.3014 13.6331 11.375 13.5765 11.4347 13.5067L20.6681 4.27333V12C20.6681 12.1768 20.7383 12.3464 20.8633 12.4714C20.9884 12.5964 21.1579 12.6667 21.3347 12.6667C21.5116 12.6667 21.6811 12.5964 21.8062 12.4714C21.9312 12.3464 22.0014 12.1768 22.0014 12V2H12.0014Z" fill="#2563EB"/>
</g>
<defs>
<clipPath id="clip0_785_44723">
<rect width="24" height="24" fill="white"/>
</clipPath>
</defs>
</svg>
