<svg width="32" height="32" viewBox="0 0 32 32" fill="none" xmlns="http://www.w3.org/2000/svg">
<rect x="1" y="1" width="30" height="30" rx="11" fill="#F3F4F5"/>
<rect x="1" y="1" width="30" height="30" rx="11" stroke="white" stroke-width="2"/>
<path d="M12.1804 17.9052V12.8931H13.4196V17.9052H12.1804ZM10.2977 15.9853V14.8107H15.3023V15.9853H10.2977ZM19.3588 19.0977C18.8308 19.0977 18.3622 19.007 17.9531 18.8258C17.5439 18.6446 17.2214 18.3933 16.9856 18.072C16.7498 17.7506 16.6282 17.3794 16.6207 16.9584H18.1225C18.1315 17.1403 18.1906 17.2992 18.3 17.4352C18.4093 17.5712 18.5565 17.6765 18.7414 17.7511C18.9263 17.8257 19.1334 17.863 19.3626 17.863C19.6018 17.863 19.813 17.821 19.9963 17.7372C20.1796 17.6534 20.3233 17.5366 20.4275 17.3867C20.5317 17.2368 20.5838 17.0638 20.5838 16.8677C20.5838 16.6655 20.5293 16.4881 20.4203 16.3354C20.3113 16.1826 20.1557 16.0629 19.9534 15.9762C19.7511 15.8895 19.5088 15.8462 19.2266 15.8462H18.554V14.7373H19.2266C19.4623 14.7373 19.6704 14.6961 19.8508 14.6138C20.0313 14.5315 20.172 14.4173 20.2731 14.2713C20.3742 14.1253 20.4248 13.9551 20.4248 13.7608C20.4248 13.5726 20.3811 13.4083 20.2938 13.268C20.2065 13.1276 20.084 13.0179 19.9265 12.9388C19.769 12.8598 19.5848 12.8202 19.3738 12.8202C19.1616 12.8202 18.9675 12.858 18.7914 12.9334C18.6154 13.0089 18.474 13.1151 18.3673 13.2521C18.2606 13.3891 18.205 13.5527 18.2005 13.7429H16.7664C16.7724 13.3269 16.8903 12.9599 17.1201 12.6421C17.3498 12.3243 17.6611 12.0756 18.0539 11.8961C18.4466 11.7167 18.8896 11.627 19.3828 11.627C19.881 11.627 20.317 11.7181 20.6907 11.9004C21.0644 12.0827 21.3546 12.3281 21.5611 12.6366C21.7677 12.9452 21.8709 13.2895 21.8709 13.6697C21.8709 14.0764 21.7451 14.4163 21.4935 14.6896C21.2419 14.9629 20.9138 15.1382 20.5093 15.2154V15.2687C20.8625 15.3141 21.1599 15.4134 21.4016 15.5667C21.6433 15.7201 21.8259 15.9158 21.9494 16.1538C22.0729 16.3917 22.1346 16.6611 22.1346 16.9618C22.1346 17.3748 22.0158 17.7423 21.7781 18.0645C21.5404 18.3867 21.2128 18.6394 20.7954 18.8227C20.378 19.006 19.8991 19.0977 19.3588 19.0977Z" fill="black"/>
</svg>
