<svg width="32" height="32" viewBox="0 0 32 32" fill="none" xmlns="http://www.w3.org/2000/svg">
<rect width="32" height="32" rx="12" fill="#F3F4F5"/>
<path d="M11.3327 20.6673C11.0118 20.6673 10.7372 20.5531 10.5087 20.3246C10.2803 20.0961 10.166 19.8215 10.166 19.5007V12.5007C10.166 12.1798 10.2803 11.9052 10.5087 11.6767C10.7372 11.4482 11.0118 11.334 11.3327 11.334H20.666C20.9868 11.334 21.2615 11.4482 21.49 11.6767C21.7184 11.9052 21.8327 12.1798 21.8327 12.5007V19.5007C21.8327 19.8215 21.7184 20.0961 21.49 20.3246C21.2615 20.5531 20.9868 20.6673 20.666 20.6673H11.3327ZM15.9993 16.584L11.3327 13.6673V19.5007H20.666V13.6673L15.9993 16.584ZM15.9993 15.4173L20.666 12.5007H11.3327L15.9993 15.4173ZM11.3327 13.6673V12.5007V13.6673V19.5007V13.6673Z" fill="#007E37"/>
</svg>
