<svg width="32" height="32" viewBox="0 0 32 32" fill="none" xmlns="http://www.w3.org/2000/svg">
<rect width="32" height="32" rx="12" fill="#F3F4F5"/>
<path d="M12.4993 17.166H17.166V15.9993H12.4993V17.166ZM12.4993 15.416H19.4993V14.2493H12.4993V15.416ZM12.4993 13.666H19.4993V12.4993H12.4993V13.666ZM10.166 21.8327V11.3327C10.166 11.0118 10.2803 10.7372 10.5087 10.5087C10.7372 10.2803 11.0118 10.166 11.3327 10.166H20.666C20.9868 10.166 21.2615 10.2803 21.49 10.5087C21.7184 10.7372 21.8327 11.0118 21.8327 11.3327V18.3327C21.8327 18.6535 21.7184 18.9282 21.49 19.1566C21.2615 19.3851 20.9868 19.4993 20.666 19.4993H12.4993L10.166 21.8327ZM12.0035 18.3327H20.666V11.3327H11.3327V18.9889L12.0035 18.3327ZM11.3327 18.3327V11.3327V18.3327Z" fill="#2563EB"/>
</svg>
