<svg width="32" height="32" viewBox="0 0 32 32" fill="none" xmlns="http://www.w3.org/2000/svg">
<rect width="32" height="32" rx="12" fill="#F3F4F5"/>
<path d="M20.6375 21.25C19.4222 21.25 18.2215 20.9851 17.0354 20.4552C15.8493 19.9253 14.7701 19.1743 13.7979 18.2021C12.8257 17.2299 12.0747 16.1507 11.5448 14.9646C11.0149 13.7785 10.75 12.5778 10.75 11.3625C10.75 11.1875 10.8083 11.0417 10.925 10.925C11.0417 10.8083 11.1875 10.75 11.3625 10.75H13.725C13.8611 10.75 13.9826 10.7962 14.0896 10.8885C14.1965 10.9809 14.2597 11.0903 14.2792 11.2167L14.6583 13.2583C14.6778 13.4139 14.6729 13.5451 14.6437 13.6521C14.6146 13.759 14.5611 13.8514 14.4833 13.9292L13.0687 15.3583C13.2632 15.7181 13.4941 16.0656 13.7615 16.401C14.0288 16.7365 14.3229 17.0597 14.6437 17.3708C14.9451 17.6722 15.2611 17.9517 15.5917 18.2094C15.9222 18.467 16.2722 18.7028 16.6417 18.9167L18.0125 17.5458C18.1 17.4583 18.2142 17.3927 18.3552 17.349C18.4962 17.3052 18.6347 17.2931 18.7708 17.3125L20.7833 17.7208C20.9194 17.7597 21.0312 17.8302 21.1187 17.9323C21.2062 18.0344 21.25 18.1486 21.25 18.275V20.6375C21.25 20.8125 21.1917 20.9583 21.075 21.075C20.9583 21.1917 20.8125 21.25 20.6375 21.25ZM12.5146 14.25L13.4771 13.2875L13.2292 11.9167H11.9312C11.9799 12.3153 12.0479 12.709 12.1354 13.0979C12.2229 13.4868 12.3493 13.8708 12.5146 14.25ZM17.7354 19.4708C18.1146 19.6361 18.501 19.7674 18.8948 19.8646C19.2885 19.9618 19.6847 20.025 20.0833 20.0542V18.7708L18.7125 18.4938L17.7354 19.4708Z" fill="#FD761A"/>
</svg>
