<svg width="64" height="64" viewBox="0 0 64 64" fill="none" xmlns="http://www.w3.org/2000/svg">
<rect width="64" height="64" rx="32" fill="#DBEAFE"/>
<path d="M42 25.75H34.5V23.25H42V25.75ZM22 43.25V23.25C22 22.5625 22.2448 21.974 22.7344 21.4844C23.224 20.9948 23.8125 20.75 24.5 20.75H32C32 21.2292 32 21.6458 32 22C32 22.3542 32 22.7708 32 23.25H24.5V39.4375L30.75 36.75L37 39.4375V30.75C37.4792 30.75 37.8958 30.75 38.25 30.75C38.6042 30.75 39.0208 30.75 39.5 30.75V43.25L30.75 39.5L22 43.25ZM24.5 23.25H32H30.75H24.5Z" fill="#2563EB"/>
</svg>
