<svg width="48" height="48" viewBox="0 0 48 48" fill="none" xmlns="http://www.w3.org/2000/svg">
<rect width="48" height="48" rx="24" fill="#E9E7EB"/>
<path d="M18.5 32C16.9833 32 15.6875 31.475 14.6125 30.425C13.5375 29.375 13 28.0917 13 26.575C13 25.275 13.3917 24.1167 14.175 23.1C14.9583 22.0833 15.9833 21.4333 17.25 21.15C17.6667 19.6167 18.5 18.375 19.75 17.425C21 16.475 22.4167 16 24 16C25.95 16 27.6042 16.6792 28.9625 18.0375C30.3208 19.3958 31 21.05 31 23C32.15 23.1333 33.1042 23.6292 33.8625 24.4875C34.6208 25.3458 35 26.35 35 27.5C35 28.75 34.5625 29.8125 33.6875 30.6875C32.8125 31.5625 31.75 32 30.5 32H25C24.45 32 23.9792 31.8042 23.5875 31.4125C23.1958 31.0208 23 30.55 23 30V24.85L21.4 26.4L20 25L24 21L28 25L26.6 26.4L25 24.85V30H30.5C31.2 30 31.7917 29.7583 32.275 29.275C32.7583 28.7917 33 28.2 33 27.5C33 26.8 32.7583 26.2083 32.275 25.725C31.7917 25.2417 31.2 25 30.5 25H29V23C29 21.6167 28.5125 20.4375 27.5375 19.4625C26.5625 18.4875 25.3833 18 24 18C22.6167 18 21.4375 18.4875 20.4625 19.4625C19.4875 20.4375 19 21.6167 19 23H18.5C17.5333 23 16.7083 23.3417 16.025 24.025C15.3417 24.7083 15 25.5333 15 26.5C15 27.4667 15.3417 28.2917 16.025 28.975C16.7083 29.6583 17.5333 30 18.5 30H21V32H18.5Z" fill="#44474E"/>
</svg>
