<svg width="40" height="40" viewBox="0 0 40 40" fill="none" xmlns="http://www.w3.org/2000/svg">
<rect width="40" height="40" rx="20" fill="#434655" fill-opacity="0.2"/>
<path fill-rule="evenodd" clip-rule="evenodd" d="M12.9382 17C12.9382 15.1435 13.6757 13.363 14.9884 12.0503C16.3012 10.7375 18.0816 10 19.9382 10C21.7947 10 23.5752 10.7375 24.8879 12.0503C26.2007 13.363 26.9382 15.1435 26.9382 17V20.764L28.7602 24.408C28.844 24.5757 28.8836 24.7621 28.8752 24.9494C28.8668 25.1368 28.8106 25.3188 28.712 25.4783C28.6134 25.6379 28.4757 25.7695 28.3119 25.8608C28.1481 25.9521 27.9637 26 27.7762 26H23.8122C23.5897 26.8582 23.0886 27.6183 22.3874 28.1609C21.6863 28.7035 20.8248 28.9979 19.9382 28.9979C19.0516 28.9979 18.1901 28.7035 17.4889 28.1609C16.7877 27.6183 16.2866 26.8582 16.0642 26H12.1002C11.9126 26 11.7282 25.9521 11.5644 25.8608C11.4006 25.7695 11.2629 25.6379 11.1643 25.4783C11.0657 25.3188 11.0095 25.1368 11.0011 24.9494C10.9927 24.7621 11.0323 24.5757 11.1162 24.408L12.9382 20.764V17ZM18.2062 26C18.3817 26.304 18.6342 26.5565 18.9382 26.732C19.2422 26.9075 19.5871 26.9999 19.9382 26.9999C20.2892 26.9999 20.6341 26.9075 20.9381 26.732C21.2421 26.5565 21.4946 26.304 21.6702 26H18.2062ZM19.9382 12C18.6121 12 17.3403 12.5268 16.4026 13.4645C15.4649 14.4021 14.9382 15.6739 14.9382 17V20.764C14.9381 21.0743 14.8659 21.3804 14.7272 21.658L13.5572 24H26.3202L25.1502 21.658C25.0111 21.3805 24.9385 21.0744 24.9382 20.764V17C24.9382 15.6739 24.4114 14.4021 23.4737 13.4645C22.536 12.5268 21.2642 12 19.9382 12Z" fill="black"/>
</svg>
