<svg width="628" height="41" viewBox="0 0 628 41" fill="none" xmlns="http://www.w3.org/2000/svg">
<mask id="path-1-inside-1_861_31011" fill="white">
<path d="M0 0H628V41H0V0Z"/>
</mask>
<path d="M0 0H628V41H0V0Z" fill="#E7E8E9"/>
<path d="M628 41V40H0V41V42H628V41Z" fill="#434655" fill-opacity="0.2" mask="url(#path-1-inside-1_861_31011)"/>
<path d="M8 27V13H13.525C14.6083 13 15.6083 13.3333 16.525 14C17.4417 14.6667 17.9 15.5917 17.9 16.775C17.9 17.625 17.7083 18.2792 17.325 18.7375C16.9417 19.1958 16.5833 19.525 16.25 19.725C16.6667 19.9083 17.1292 20.25 17.6375 20.75C18.1458 21.25 18.4 22 18.4 23C18.4 24.4833 17.8583 25.5208 16.775 26.1125C15.6917 26.7042 14.675 27 13.725 27H8ZM11.025 24.2H13.625C14.425 24.2 14.9125 23.9958 15.0875 23.5875C15.2625 23.1792 15.35 22.8833 15.35 22.7C15.35 22.5167 15.2625 22.2208 15.0875 21.8125C14.9125 21.4042 14.4 21.2 13.55 21.2H11.025V24.2ZM11.025 18.5H13.35C13.9 18.5 14.3 18.3583 14.55 18.075C14.8 17.7917 14.925 17.475 14.925 17.125C14.925 16.725 14.7833 16.4 14.5 16.15C14.2167 15.9 13.85 15.775 13.4 15.775H11.025V18.5Z" fill="black"/>
<path d="M36.0195 27V24.5H40.0195L43.0195 15.5H39.0195V13H49.0195V15.5H45.5195L42.5195 24.5H46.0195V27H36.0195Z" fill="black"/>
<path d="M64.0293 29V27H78.0293V29H64.0293ZM71.0293 25C69.346 25 68.0376 24.475 67.1043 23.425C66.171 22.375 65.7043 20.9833 65.7043 19.25V11H68.2793V19.4C68.2793 20.3333 68.5126 21.0917 68.9793 21.675C69.446 22.2583 70.1293 22.55 71.0293 22.55C71.9293 22.55 72.6126 22.2583 73.0793 21.675C73.546 21.0917 73.7793 20.3333 73.7793 19.4V11H76.3543V19.25C76.3543 20.9833 75.8876 22.375 74.9543 23.425C74.021 24.475 72.7126 25 71.0293 25Z" fill="black"/>
<rect x="96.0508" y="8" width="1" height="24" fill="#C3C6D7" fill-opacity="0.3"/>
<path d="M111.051 27V25H123.051V27H111.051ZM111.051 21V19H123.051V21H111.051ZM111.051 15V13H123.051V15H111.051ZM107.051 28C106.501 28 106.03 27.8042 105.638 27.4125C105.247 27.0208 105.051 26.55 105.051 26C105.051 25.45 105.247 24.9792 105.638 24.5875C106.03 24.1958 106.501 24 107.051 24C107.601 24 108.072 24.1958 108.463 24.5875C108.855 24.9792 109.051 25.45 109.051 26C109.051 26.55 108.855 27.0208 108.463 27.4125C108.072 27.8042 107.601 28 107.051 28ZM107.051 22C106.501 22 106.03 21.8042 105.638 21.4125C105.247 21.0208 105.051 20.55 105.051 20C105.051 19.45 105.247 18.9792 105.638 18.5875C106.03 18.1958 106.501 18 107.051 18C107.601 18 108.072 18.1958 108.463 18.5875C108.855 18.9792 109.051 19.45 109.051 20C109.051 20.55 108.855 21.0208 108.463 21.4125C108.072 21.8042 107.601 22 107.051 22ZM107.051 16C106.501 16 106.03 15.8042 105.638 15.4125C105.247 15.0208 105.051 14.55 105.051 14C105.051 13.45 105.247 12.9792 105.638 12.5875C106.03 12.1958 106.501 12 107.051 12C107.601 12 108.072 12.1958 108.463 12.5875C108.855 12.9792 109.051 13.45 109.051 14C109.051 14.55 108.855 15.0208 108.463 15.4125C108.072 15.8042 107.601 16 107.051 16Z" fill="black"/>
<path d="M133.061 30V28.5H135.561V27.75H134.061V26.25H135.561V25.5H133.061V24H136.061C136.344 24 136.581 24.0958 136.773 24.2875C136.965 24.4792 137.061 24.7167 137.061 25V26C137.061 26.2833 136.965 26.5208 136.773 26.7125C136.581 26.9042 136.344 27 136.061 27C136.344 27 136.581 27.0958 136.773 27.2875C136.965 27.4792 137.061 27.7167 137.061 28V29C137.061 29.2833 136.965 29.5208 136.773 29.7125C136.581 29.9042 136.344 30 136.061 30H133.061ZM133.061 23V20.25C133.061 19.9667 133.156 19.7292 133.348 19.5375C133.54 19.3458 133.777 19.25 134.061 19.25H135.561V18.5H133.061V17H136.061C136.344 17 136.581 17.0958 136.773 17.2875C136.965 17.4792 137.061 17.7167 137.061 18V19.75C137.061 20.0333 136.965 20.2708 136.773 20.4625C136.581 20.6542 136.344 20.75 136.061 20.75H134.561V21.5H137.061V23H133.061ZM134.561 16V11.5H133.061V10H136.061V16H134.561ZM139.061 27V25H151.061V27H139.061ZM139.061 21V19H151.061V21H139.061ZM139.061 15V13H151.061V15H139.061Z" fill="black"/>
<rect x="165.08" y="8" width="1" height="24" fill="#C3C6D7" fill-opacity="0.3"/>
<path d="M183.08 25H179.08C177.697 25 176.518 24.5125 175.543 23.5375C174.568 22.5625 174.08 21.3833 174.08 20C174.08 18.6167 174.568 17.4375 175.543 16.4625C176.518 15.4875 177.697 15 179.08 15H183.08V17H179.08C178.247 17 177.538 17.2917 176.955 17.875C176.372 18.4583 176.08 19.1667 176.08 20C176.08 20.8333 176.372 21.5417 176.955 22.125C177.538 22.7083 178.247 23 179.08 23H183.08V25ZM180.08 21V19H188.08V21H180.08ZM185.08 25V23H189.08C189.913 23 190.622 22.7083 191.205 22.125C191.788 21.5417 192.08 20.8333 192.08 20C192.08 19.1667 191.788 18.4583 191.205 17.875C190.622 17.2917 189.913 17 189.08 17H185.08V15H189.08C190.463 15 191.643 15.4875 192.618 16.4625C193.593 17.4375 194.08 18.6167 194.08 20C194.08 21.3833 193.593 22.5625 192.618 23.5375C191.643 24.5125 190.463 25 189.08 25H185.08Z" fill="black"/>
<path d="M204.09 29C203.54 29 203.069 28.8042 202.677 28.4125C202.286 28.0208 202.09 27.55 202.09 27V13C202.09 12.45 202.286 11.9792 202.677 11.5875C203.069 11.1958 203.54 11 204.09 11H218.09C218.64 11 219.111 11.1958 219.502 11.5875C219.894 11.9792 220.09 12.45 220.09 13V27C220.09 27.55 219.894 28.0208 219.502 28.4125C219.111 28.8042 218.64 29 218.09 29H204.09ZM204.09 27H218.09V13H204.09V27ZM205.09 25H217.09L213.34 20L210.34 24L208.09 21L205.09 25ZM204.09 27V13V27Z" fill="black"/>
<path d="M231.809 26L234.109 22C233.009 22 232.068 21.6083 231.284 20.825C230.501 20.0417 230.109 19.1 230.109 18C230.109 16.9 230.501 15.9583 231.284 15.175C232.068 14.3917 233.009 14 234.109 14C235.209 14 236.151 14.3917 236.934 15.175C237.718 15.9583 238.109 16.9 238.109 18C238.109 18.3833 238.064 18.7375 237.972 19.0625C237.88 19.3875 237.743 19.7 237.559 20L234.109 26H231.809ZM240.809 26L243.109 22C242.009 22 241.068 21.6083 240.284 20.825C239.501 20.0417 239.109 19.1 239.109 18C239.109 16.9 239.501 15.9583 240.284 15.175C241.068 14.3917 242.009 14 243.109 14C244.209 14 245.151 14.3917 245.934 15.175C246.718 15.9583 247.109 16.9 247.109 18C247.109 18.3833 247.064 18.7375 246.972 19.0625C246.88 19.3875 246.743 19.7 246.559 20L243.109 26H240.809ZM234.109 19.5C234.526 19.5 234.88 19.3542 235.172 19.0625C235.464 18.7708 235.609 18.4167 235.609 18C235.609 17.5833 235.464 17.2292 235.172 16.9375C234.88 16.6458 234.526 16.5 234.109 16.5C233.693 16.5 233.339 16.6458 233.047 16.9375C232.755 17.2292 232.609 17.5833 232.609 18C232.609 18.4167 232.755 18.7708 233.047 19.0625C233.339 19.3542 233.693 19.5 234.109 19.5ZM243.109 19.5C243.526 19.5 243.88 19.3542 244.172 19.0625C244.464 18.7708 244.609 18.4167 244.609 18C244.609 17.5833 244.464 17.2292 244.172 16.9375C243.88 16.6458 243.526 16.5 243.109 16.5C242.693 16.5 242.339 16.6458 242.047 16.9375C241.755 17.2292 241.609 17.5833 241.609 18C241.609 18.4167 241.755 18.7708 242.047 19.0625C242.339 19.3542 242.693 19.5 243.109 19.5Z" fill="black"/>
<path d="M264.131 26L258.131 20L264.131 14L265.556 15.425L260.956 20.025L265.531 24.6L264.131 26ZM272.131 26L270.706 24.575L275.306 19.975L270.731 15.4L272.131 14L278.131 20L272.131 26Z" fill="black"/>
<path d="M595.311 27V21H597.311V25H601.311V27H595.311ZM607.311 19V15H603.311V13H609.311V19H607.311Z" fill="black"/>
</svg>
