<svg width="43" height="48" viewBox="0 0 43 48" fill="none" xmlns="http://www.w3.org/2000/svg">
<rect width="42.45" height="48" rx="12" fill="#2563EB" fill-opacity="0.1"/>
<path d="M14.8092 33.2891C13.0398 33.2891 11.528 32.6766 10.2738 31.4516C9.01966 30.2266 8.39258 28.7294 8.39258 26.96C8.39258 25.4433 8.84952 24.0919 9.76341 22.9058C10.6773 21.7197 11.8731 20.9613 13.3509 20.6308C13.7981 19.0558 14.6294 17.7336 15.8447 16.6641C17.0599 15.5947 18.4648 14.9433 20.0592 14.71V24.1308L18.1926 22.3225L16.5592 23.9558L21.2259 28.6225L25.8926 23.9558L24.2592 22.3225L22.3926 24.1308V14.71C24.3954 14.9822 26.0627 15.8815 27.3947 17.4079C28.7266 18.9343 29.3926 20.728 29.3926 22.7891C30.7342 22.9447 31.8474 23.5232 32.7322 24.5245C33.6169 25.5259 34.0592 26.6975 34.0592 28.0391C34.0592 29.4975 33.5488 30.737 32.528 31.7579C31.5072 32.7787 30.2676 33.2891 28.8092 33.2891H14.8092Z" fill="#2563EB"/>
</svg>
