<svg width="13" height="25" viewBox="0 0 13 25" fill="none" xmlns="http://www.w3.org/2000/svg">
<path d="M0 0H12.5V9.8125C12.5 10.2917 12.3958 10.7188 12.1875 11.0938C11.9792 11.4688 11.6875 11.7708 11.3125 12L6.875 14.625L7.75 17.5H12.5L8.625 20.25L10.125 25L6.25 22.0625L2.375 25L3.875 20.25L0 17.5H4.75L5.625 14.625L1.1875 12C0.8125 11.7708 0.520833 11.4688 0.3125 11.0938C0.104167 10.7188 0 10.2917 0 9.8125V0ZM2.5 2.5V9.8125L5 11.3125V2.5H2.5ZM10 2.5H7.5V11.3125L10 9.8125V2.5Z" fill="#0055D7"/>
</svg>
