<svg width="64" height="64" viewBox="0 0 64 64" fill="none" xmlns="http://www.w3.org/2000/svg">
<rect width="64" height="64" rx="12" fill="#2563EB" fill-opacity="0.1"/>
<path d="M30.5 44H23.75C21.475 44 19.5312 43.2125 17.9188 41.6375C16.3063 40.0625 15.5 38.1375 15.5 35.8625C15.5 33.9125 16.0875 32.175 17.2625 30.65C18.4375 29.125 19.975 28.15 21.875 27.725C22.5 25.425 23.75 23.5625 25.625 22.1375C27.5 20.7125 29.625 20 32 20C34.925 20 37.4062 21.0188 39.4438 23.0563C41.4813 25.0938 42.5 27.575 42.5 30.5C44.225 30.7 45.6562 31.4437 46.7938 32.7312C47.9313 34.0188 48.5 35.525 48.5 37.25C48.5 39.125 47.8438 40.7188 46.5312 42.0312C45.2188 43.3438 43.625 44 41.75 44H33.5V33.275L35.9 35.6L38 33.5L32 27.5L26 33.5L28.1 35.6L30.5 33.275V44Z" fill="#2563EB"/>
</svg>
