<svg width="302" height="212" viewBox="0 0 302 212" fill="none" xmlns="http://www.w3.org/2000/svg">
<g clip-path="url(#clip0_1091_7916)">
<rect width="301.333" height="211.8" rx="24" fill="#2563EB"/>
<g opacity="0.1">
<path d="M231.667 209.584H245.667L285.667 169.917L271.333 155.584L231.667 195.25V209.584V209.584M290.333 165.25L297.333 157.917C298 157.25 298.333 156.473 298.333 155.584C298.333 154.695 298 153.917 297.333 153.25L288 143.917C287.333 143.25 286.556 142.917 285.667 142.917C284.778 142.917 284 143.25 283.333 143.917L276 150.917L290.333 165.25V165.25M218.333 236.25C214.667 236.25 211.528 234.945 208.917 232.334C206.306 229.723 205 226.584 205 222.917V129.584C205 125.917 206.306 122.778 208.917 120.167C211.528 117.556 214.667 116.25 218.333 116.25H246.333C247.778 112.25 250.194 109.028 253.583 106.584C256.972 104.139 260.778 102.917 265 102.917C269.222 102.917 273.028 104.139 276.417 106.584C279.806 109.028 282.222 112.25 283.667 116.25H311.667C315.333 116.25 318.472 117.556 321.083 120.167C323.694 122.778 325 125.917 325 129.584V222.917C325 226.584 323.694 229.723 321.083 232.334C318.472 234.945 315.333 236.25 311.667 236.25H218.333V236.25M218.333 222.917H311.667V222.917V222.917V129.584V129.584V129.584H218.333V129.584V129.584V222.917V222.917V222.917V222.917M265 124.584C266.444 124.584 267.639 124.111 268.583 123.167C269.528 122.223 270 121.028 270 119.584C270 118.139 269.528 116.945 268.583 116C267.639 115.056 266.444 114.584 265 114.584C263.556 114.584 262.361 115.056 261.417 116C260.472 116.945 260 118.139 260 119.584C260 121.028 260.472 122.223 261.417 123.167C262.361 124.111 263.556 124.584 265 124.584V124.584M218.333 222.917V222.917V222.917V129.584V129.584V129.584V129.584V129.584V129.584V222.917V222.917V222.917V222.917V222.917" fill="white"/>
</g>
</g>
<defs>
<clipPath id="clip0_1091_7916">
<rect width="301.333" height="211.8" rx="24" fill="white"/>
</clipPath>
</defs>
</svg>
