<svg width="24" height="24" viewBox="0 0 24 24" fill="none" xmlns="http://www.w3.org/2000/svg">
<g clip-path="url(#clip0_1091_7912)">
<path d="M18 22.0003H3.33333C2.97971 22.0003 2.64057 21.8599 2.39052 21.6098C2.14048 21.3598 2 21.0206 2 20.667V6.00033C2 5.6467 2.14048 5.30756 2.39052 5.05752C2.64057 4.80747 2.97971 4.66699 3.33333 4.66699H10V6.00033H3.33333V20.667H18V14.0003H19.3333V20.667C19.3333 21.0206 19.1929 21.3598 18.9428 21.6098C18.6928 21.8599 18.3536 22.0003 18 22.0003Z" fill="#2563EB"/>
<path d="M11.9999 2C11.8231 2 11.6536 2.07024 11.5285 2.19526C11.4035 2.32029 11.3333 2.48986 11.3333 2.66667C11.3333 2.84348 11.4035 3.01305 11.5285 3.13807C11.6536 3.2631 11.8231 3.33333 11.9999 3.33333H19.7266L10.4933 12.5667C10.4235 12.6264 10.3668 12.7 10.3268 12.7827C10.2868 12.8654 10.2643 12.9555 10.2608 13.0473C10.2572 13.1391 10.2727 13.2307 10.3062 13.3162C10.3397 13.4018 10.3905 13.4795 10.4555 13.5444C10.5205 13.6094 10.5982 13.6602 10.6837 13.6938C10.7693 13.7273 10.8608 13.7427 10.9527 13.7392C11.0445 13.7357 11.1346 13.7132 11.2173 13.6732C11.3 13.6331 11.3735 13.5765 11.4333 13.5067L20.6666 4.27333V12C20.6666 12.1768 20.7369 12.3464 20.8619 12.4714C20.9869 12.5964 21.1565 12.6667 21.3333 12.6667C21.5101 12.6667 21.6797 12.5964 21.8047 12.4714C21.9297 12.3464 21.9999 12.1768 21.9999 12V2H11.9999Z" fill="#2563EB"/>
</g>
<defs>
<clipPath id="clip0_1091_7912">
<rect width="24" height="24" fill="white"/>
</clipPath>
</defs>
</svg>
