<svg width="30" height="30" viewBox="0 0 30 30" fill="none" xmlns="http://www.w3.org/2000/svg">
<rect x="1" y="1" width="28" height="28" rx="14" fill="#F1F5F9"/>
<rect x="1" y="1" width="28" height="28" rx="14" stroke="white" stroke-width="2"/>
<path d="M8.76864 17.892V12.8636H10.04V17.892H8.76864ZM6.89009 16.0135V14.7422H11.9185V16.0135H6.89009ZM16.5563 11.7273V19H15.0186V13.1868H14.976L13.3105 14.2308V12.8672L15.111 11.7273H16.5563ZM18.2848 19V17.892L20.8736 15.495C21.0938 15.282 21.2784 15.0902 21.4276 14.9197C21.5791 14.7493 21.6939 14.5824 21.772 14.419C21.8501 14.2533 21.8892 14.0746 21.8892 13.8828C21.8892 13.6697 21.8407 13.4863 21.7436 13.3324C21.6465 13.1761 21.514 13.0566 21.3459 12.9737C21.1778 12.8885 20.9872 12.8459 20.7741 12.8459C20.5516 12.8459 20.3575 12.8909 20.1918 12.9808C20.026 13.0708 19.8982 13.1998 19.8082 13.3679C19.7183 13.536 19.6733 13.736 19.6733 13.968H18.2138C18.2138 13.4922 18.3215 13.0791 18.5369 12.7287C18.7524 12.3783 19.0542 12.1072 19.4425 11.9155C19.8307 11.7237 20.2782 11.6278 20.7848 11.6278C21.3056 11.6278 21.759 11.7202 22.1449 11.9048C22.5331 12.0871 22.835 12.3404 23.0504 12.6648C23.2659 12.9891 23.3736 13.3608 23.3736 13.7798C23.3736 14.0545 23.3191 14.3255 23.2102 14.593C23.1037 14.8606 22.9131 15.1577 22.6385 15.4844C22.3639 15.8087 21.9768 16.1982 21.4773 16.6527L20.4155 17.6932V17.7429H23.4695V19H18.2848Z" fill="#64748B"/>
</svg>
