<svg width="144" height="165" viewBox="0 0 144 165" fill="none" xmlns="http://www.w3.org/2000/svg">
<g clip-path="url(#clip0_1092_9714)">
<rect width="144" height="165" rx="8" fill="#2563EB"/>
<g opacity="0.1">
<path d="M106 181C104.35 181 102.938 180.412 101.763 179.237C100.588 178.062 100 176.65 100 175V142C100 140.35 100.588 138.937 101.763 137.762C102.938 136.587 104.35 136 106 136H118V130C118 128.35 118.588 126.938 119.763 125.763C120.938 124.588 122.35 124 124 124H136C137.65 124 139.062 124.588 140.237 125.763C141.412 126.938 142 128.35 142 130V136H154C155.65 136 157.062 136.587 158.237 137.762C159.412 138.937 160 140.35 160 142V175C160 176.65 159.412 178.062 158.237 179.237C157.062 180.412 155.65 181 154 181H106V181M106 175H154V175V175V142V142V142H106V142V142V175V175V175V175M124 136H136V130V130V130H124V130V130V136V136M106 175V175V175V142V142V142V142V142V142V175V175V175V175V175" fill="white"/>
</g>
</g>
<defs>
<clipPath id="clip0_1092_9714">
<rect width="144" height="165" rx="8" fill="white"/>
</clipPath>
</defs>
</svg>
