<svg width="144" height="164" viewBox="0 0 144 164" fill="none" xmlns="http://www.w3.org/2000/svg">
<g clip-path="url(#clip0_1092_9724)">
<rect width="144" height="164" rx="8" fill="#ACBFFF"/>
<g opacity="0.1">
<path d="M132.85 160.65L149.8 143.7L145.525 139.425L132.85 152.1L126.55 145.8L122.275 150.075L132.85 160.65V160.65M136 180C129.05 178.25 123.312 174.262 118.787 168.037C114.262 161.812 112 154.9 112 147.3V129L136 120L160 129V147.3C160 154.9 157.738 161.812 153.213 168.037C148.688 174.262 142.95 178.25 136 180V180M136 173.7C141.2 172.05 145.5 168.75 148.9 163.8C152.3 158.85 154 153.35 154 147.3V133.125L136 126.375L118 133.125V147.3C118 153.35 119.7 158.85 123.1 163.8C126.5 168.75 130.8 172.05 136 173.7V173.7M136 150V150V150V150V150V150V150V150V150V150" fill="#394C84"/>
</g>
</g>
<defs>
<clipPath id="clip0_1092_9724">
<rect width="144" height="164" rx="8" fill="white"/>
</clipPath>
</defs>
</svg>
