<svg width="14" height="14" viewBox="0 0 14 14" fill="none" xmlns="http://www.w3.org/2000/svg">
<path d="M6.75 10.5C6.9625 10.5 7.14062 10.4281 7.28438 10.2844C7.42813 10.1406 7.5 9.9625 7.5 9.75C7.5 9.5375 7.42813 9.35938 7.28438 9.21562C7.14062 9.07187 6.9625 9 6.75 9C6.5375 9 6.35938 9.07187 6.21562 9.21562C6.07187 9.35938 6 9.5375 6 9.75C6 9.9625 6.07187 10.1406 6.21562 10.2844C6.35938 10.4281 6.5375 10.5 6.75 10.5ZM6 7.5H7.5V3H6V7.5ZM3.9375 13.5L0 9.5625V3.9375L3.9375 0H9.5625L13.5 3.9375V9.5625L9.5625 13.5H3.9375ZM4.575 12H8.925L12 8.925V4.575L8.925 1.5H4.575L1.5 4.575V8.925L4.575 12Z" fill="#2E3132"/>
</svg>
