<svg width="24" height="24" viewBox="0 0 24 24" fill="none" xmlns="http://www.w3.org/2000/svg">
<g clip-path="url(#clip0_405_40530)">
<path d="M18 22.0003H3.33333C2.97971 22.0003 2.64057 21.8599 2.39052 21.6098C2.14048 21.3598 2 21.0206 2 20.667V6.00033C2 5.6467 2.14048 5.30756 2.39052 5.05752C2.64057 4.80747 2.97971 4.66699 3.33333 4.66699H10V6.00033H3.33333V20.667H18V14.0003H19.3333V20.667C19.3333 21.0206 19.1929 21.3598 18.9428 21.6098C18.6928 21.8599 18.3536 22.0003 18 22.0003Z" fill="#2563EB"/>
<path d="M11.9995 2C11.8227 2 11.6531 2.07024 11.5281 2.19526C11.403 2.32029 11.3328 2.48986 11.3328 2.66667C11.3328 2.84348 11.403 3.01305 11.5281 3.13807C11.6531 3.2631 11.8227 3.33333 11.9995 3.33333H19.7261L10.4928 12.5667C10.423 12.6264 10.3663 12.7 10.3263 12.7827C10.2863 12.8654 10.2638 12.9555 10.2603 13.0473C10.2567 13.1391 10.2722 13.2307 10.3057 13.3162C10.3392 13.4018 10.3901 13.4795 10.455 13.5444C10.52 13.6094 10.5977 13.6602 10.6832 13.6938C10.7688 13.7273 10.8604 13.7427 10.9522 13.7392C11.044 13.7357 11.1341 13.7132 11.2168 13.6732C11.2995 13.6331 11.373 13.5765 11.4328 13.5067L20.6661 4.27333V12C20.6661 12.1768 20.7364 12.3464 20.8614 12.4714C20.9864 12.5964 21.156 12.6667 21.3328 12.6667C21.5096 12.6667 21.6792 12.5964 21.8042 12.4714C21.9292 12.3464 21.9995 12.1768 21.9995 12V2H11.9995Z" fill="#2563EB"/>
</g>
<defs>
<clipPath id="clip0_405_40530">
<rect width="24" height="24" fill="white"/>
</clipPath>
</defs>
</svg>
