<svg width="304" height="173" viewBox="0 0 304 173" fill="none" xmlns="http://www.w3.org/2000/svg">
<g clip-path="url(#clip0_1083_8278)">
<rect width="303.333" height="173" rx="16" fill="white"/>
<path d="M280.542 194.366C273.325 192.832 267.714 188.981 263.709 182.814C259.704 176.646 258.468 169.954 260.002 162.737C261.536 155.521 265.387 149.91 271.554 145.905C277.722 141.9 284.414 140.664 291.631 142.198C298.847 143.732 304.458 147.582 308.463 153.75C312.468 159.918 313.704 166.61 312.17 173.826C310.636 181.043 306.785 186.654 300.618 190.659C294.45 194.664 287.758 195.9 280.542 194.366V194.366M292.191 182.529L296.619 179.653L288.916 167.793L292.021 153.186L286.804 152.077L283.256 168.771L292.191 182.529V182.529M219.049 175.843C216.18 175.233 213.941 173.689 212.332 171.211C210.723 168.734 210.224 166.061 210.833 163.191L226.358 90.1562C226.967 87.287 228.511 85.0479 230.989 83.439C233.466 81.83 236.14 81.3305 239.009 81.9404L260.789 86.5699C262.392 83.73 264.793 81.6277 267.991 80.2628C271.189 78.8979 274.44 78.5666 277.744 79.2688C281.222 80.0081 284.122 81.6469 286.445 84.1854C288.768 86.7238 290.085 89.6163 290.394 92.8627L312.044 97.4645C314.913 98.0743 317.152 99.6181 318.761 102.096C320.37 104.573 320.87 107.247 320.26 110.116L313.329 142.721C312.005 141.258 310.556 139.95 308.983 138.798C307.411 137.646 305.733 136.562 303.949 135.547L309.826 107.898V107.898V107.898L299.393 105.68L296.066 121.331L243.898 110.242L247.225 94.5917L236.791 92.3739V92.3739V92.3739L221.267 165.409V165.409V165.409L248.916 171.286C249.118 173.328 249.425 175.302 249.838 177.207C250.251 179.112 250.857 180.968 251.654 182.773L219.049 175.843V175.843M273.309 100.136C274.787 100.45 276.132 100.214 277.344 99.4262C278.557 98.6389 279.32 97.5062 279.634 96.0281C279.948 94.55 279.712 93.2047 278.925 91.9923C278.137 90.7799 277.004 90.0166 275.526 89.7024C274.048 89.3882 272.703 89.6248 271.491 90.4122C270.278 91.1995 269.515 92.3323 269.201 93.8103C268.887 95.2884 269.123 96.6337 269.91 97.8461C270.698 99.0585 271.831 99.8218 273.309 100.136V100.136" fill="#BA1A1A" fill-opacity="0.05"/>
</g>
<rect x="0.5" y="0.5" width="302.333" height="172" rx="15.5" stroke="#C3C6D7" stroke-opacity="0.15"/>
<defs>
<clipPath id="clip0_1083_8278">
<rect width="303.333" height="173" rx="16" fill="white"/>
</clipPath>
</defs>
</svg>
