<svg width="304" height="173" viewBox="0 0 304 173" fill="none" xmlns="http://www.w3.org/2000/svg">
<g clip-path="url(#clip0_1083_8265)">
<rect width="303.333" height="173" rx="16" fill="white"/>
<path d="M249.569 165.74L291.303 174.611L293.521 164.177L251.786 155.306L249.569 165.74V165.74M254.004 144.873L295.738 153.744L297.956 143.31L256.222 134.439L254.004 144.873V144.873M234.7 184.389C231.83 183.78 229.591 182.236 227.982 179.758C226.373 177.281 225.874 174.607 226.484 171.738L244.226 88.2695C244.836 85.4003 246.379 83.1612 248.857 81.5523C251.334 79.9433 254.008 79.4438 256.877 80.0537L298.611 88.9246L323.259 126.878L309.952 189.48C309.343 192.349 307.799 194.588 305.321 196.197C302.844 197.806 300.17 198.306 297.301 197.696L234.7 184.389V184.389M285.632 124.333L291.177 98.2493L254.659 90.4872V90.4872V90.4872L236.917 173.956V173.956V173.956L299.519 187.262V187.262V187.262L311.716 129.878L285.632 124.333V124.333M254.659 90.4872V90.4872L249.115 116.571V116.571L254.659 90.4872L249.115 116.571V116.571L236.917 173.956V173.956V173.956V173.956V173.956V173.956L254.659 90.4872V90.4872V90.4872V90.4872" fill="#004AC6" fill-opacity="0.05"/>
</g>
<rect x="0.5" y="0.5" width="302.333" height="172" rx="15.5" stroke="#C3C6D7" stroke-opacity="0.15"/>
<defs>
<clipPath id="clip0_1083_8265">
<rect width="303.333" height="173" rx="16" fill="white"/>
</clipPath>
</defs>
</svg>
