<svg width="304" height="173" viewBox="0 0 304 173" fill="none" xmlns="http://www.w3.org/2000/svg">
<g clip-path="url(#clip0_1083_8291)">
<rect width="303.333" height="173" rx="16" fill="white"/>
<path d="M256.898 163.629C258.541 166.159 261.02 167.753 264.333 168.412C267.646 169.071 270.335 168.393 272.399 166.378L310.927 128.767L260.897 148.666C258.216 149.732 256.469 151.86 255.655 155.049C254.841 158.239 255.255 161.098 256.898 163.629V163.629M277.736 105.354C282.866 106.445 287.648 108.211 292.081 110.653C296.515 113.094 300.514 116.194 304.077 119.95L292.835 124.103C290.28 122.015 287.537 120.274 284.608 118.879C281.678 117.483 278.649 116.453 275.519 115.788C263.955 113.33 253.244 115.302 243.386 121.703C233.529 128.105 227.371 137.087 224.913 148.651C224.137 152.303 223.87 156.018 224.112 159.795C224.354 163.572 225.056 167.22 226.216 170.738L298.208 186.04C300.91 183.162 303.096 180.037 304.767 176.666C306.438 173.295 307.68 169.697 308.493 165.871C309.158 162.741 309.435 159.62 309.325 156.506C309.214 153.393 308.715 150.288 307.829 147.192L316.196 138.611C317.935 143.251 319.076 148.038 319.618 152.969C320.161 157.901 319.948 162.854 318.982 167.828C318.015 172.803 316.443 177.421 314.265 181.684C312.086 185.946 309.389 189.871 306.173 193.459C304.884 194.82 303.321 195.76 301.484 196.279C299.647 196.797 297.816 196.862 295.99 196.474L223.999 181.172C222.173 180.784 220.526 179.979 219.059 178.759C217.592 177.538 216.546 176.044 215.923 174.275C214.494 169.882 213.637 165.361 213.353 160.711C213.069 156.062 213.445 151.303 214.48 146.434C216.014 139.217 218.82 132.748 222.899 127.026C226.977 121.305 231.89 116.579 237.635 112.847C243.381 109.116 249.719 106.555 256.648 105.166C263.577 103.776 270.607 103.839 277.736 105.354V105.354M269.972 146.37V146.37V146.37V146.37V146.37V146.37V146.37V146.37V146.37V146.37V146.37V146.37V146.37V146.37V146.37V146.37" fill="#784B00" fill-opacity="0.05"/>
</g>
<rect x="0.5" y="0.5" width="302.333" height="172" rx="15.5" stroke="#C3C6D7" stroke-opacity="0.15"/>
<defs>
<clipPath id="clip0_1083_8291">
<rect width="303.333" height="173" rx="16" fill="white"/>
</clipPath>
</defs>
</svg>
