<svg width="10" height="15" viewBox="0 0 10 15" fill="none" xmlns="http://www.w3.org/2000/svg">
<path d="M1.33333 14.6667C0.966667 14.6667 0.652778 14.5361 0.391667 14.275C0.130556 14.0139 0 13.7 0 13.3333V1.33333C0 0.966667 0.130556 0.652778 0.391667 0.391667C0.652778 0.130556 0.966667 0 1.33333 0H8C8.36667 0 8.68056 0.130556 8.94167 0.391667C9.20278 0.652778 9.33333 0.966667 9.33333 1.33333V3.4C9.53333 3.47778 9.69444 3.6 9.81667 3.76667C9.93889 3.93333 10 4.12222 10 4.33333V5.66667C10 5.87778 9.93889 6.06667 9.81667 6.23333C9.69444 6.4 9.53333 6.52222 9.33333 6.6V13.3333C9.33333 13.7 9.20278 14.0139 8.94167 14.275C8.68056 14.5361 8.36667 14.6667 8 14.6667H1.33333ZM1.33333 13.3333H8V1.33333H1.33333V13.3333ZM1.33333 13.3333V1.33333V13.3333ZM4.66667 3.33333C4.85556 3.33333 5.01389 3.26944 5.14167 3.14167C5.26944 3.01389 5.33333 2.85556 5.33333 2.66667C5.33333 2.47778 5.26944 2.31944 5.14167 2.19167C5.01389 2.06389 4.85556 2 4.66667 2C4.47778 2 4.31944 2.06389 4.19167 2.19167C4.06389 2.31944 4 2.47778 4 2.66667C4 2.85556 4.06389 3.01389 4.19167 3.14167C4.31944 3.26944 4.47778 3.33333 4.66667 3.33333Z" fill="#434655"/>
</svg>
