<svg width="16" height="12" viewBox="0 0 16 12" fill="none" xmlns="http://www.w3.org/2000/svg">
<path d="M1.33333 11.3333C0.966667 11.3333 0.652778 11.2028 0.391667 10.9417C0.130556 10.6806 0 10.3667 0 10H2.66667C2.3 10 1.98611 9.86944 1.725 9.60833C1.46389 9.34722 1.33333 9.03333 1.33333 8.66667V1.33333C1.33333 0.966667 1.46389 0.652778 1.725 0.391667C1.98611 0.130556 2.3 0 2.66667 0H13.3333C13.7 0 14.0139 0.130556 14.275 0.391667C14.5361 0.652778 14.6667 0.966667 14.6667 1.33333V8.66667C14.6667 9.03333 14.5361 9.34722 14.275 9.60833C14.0139 9.86944 13.7 10 13.3333 10H16C16 10.3667 15.8694 10.6806 15.6083 10.9417C15.3472 11.2028 15.0333 11.3333 14.6667 11.3333H1.33333ZM8 10.6667C8.18889 10.6667 8.34722 10.6028 8.475 10.475C8.60278 10.3472 8.66667 10.1889 8.66667 10C8.66667 9.81111 8.60278 9.65278 8.475 9.525C8.34722 9.39722 8.18889 9.33333 8 9.33333C7.81111 9.33333 7.65278 9.39722 7.525 9.525C7.39722 9.65278 7.33333 9.81111 7.33333 10C7.33333 10.1889 7.39722 10.3472 7.525 10.475C7.65278 10.6028 7.81111 10.6667 8 10.6667ZM2.66667 8.66667H13.3333V1.33333H2.66667V8.66667ZM2.66667 8.66667V1.33333V8.66667Z" fill="#434655"/>
</svg>
