<svg width="16" height="12" viewBox="0 0 16 12" fill="none" xmlns="http://www.w3.org/2000/svg">
<path d="M0 11.3333V10H2.66667V9.33333C2.3 9.33333 1.98611 9.20278 1.725 8.94167C1.46389 8.68056 1.33333 8.36667 1.33333 8V1.33333C1.33333 0.966667 1.46389 0.652778 1.725 0.391667C1.98611 0.130556 2.3 0 2.66667 0H13.3333C13.7 0 14.0139 0.130556 14.275 0.391667C14.5361 0.652778 14.6667 0.966667 14.6667 1.33333V8C14.6667 8.36667 14.5361 8.68056 14.275 8.94167C14.0139 9.20278 13.7 9.33333 13.3333 9.33333V10H16V11.3333H0ZM2.66667 8H13.3333V1.33333H2.66667V8ZM2.66667 8V1.33333V8Z" fill="#434655"/>
</svg>
