<svg width="48" height="48" viewBox="0 0 48 48" fill="none" xmlns="http://www.w3.org/2000/svg">
<rect width="48" height="48" rx="12" fill="#F0FDF4"/>
<path d="M19.75 37.125L17.375 33.125L12.875 32.125L13.3125 27.5L10.25 24L13.3125 20.5L12.875 15.875L17.375 14.875L19.75 10.875L24 12.6875L28.25 10.875L30.625 14.875L35.125 15.875L34.6875 20.5L37.75 24L34.6875 27.5L35.125 32.125L30.625 33.125L28.25 37.125L24 35.3125L19.75 37.125ZM22.6875 28.4375L29.75 21.375L28 19.5625L22.6875 24.875L20 22.25L18.25 24L22.6875 28.4375Z" fill="#16A34A"/>
</svg>
