<svg width="40" height="40" viewBox="0 0 40 40" fill="none" xmlns="http://www.w3.org/2000/svg">
<rect width="40" height="40" rx="4" fill="#FEF2F2"/>
<path d="M20 25C20.2833 25 20.5208 24.9042 20.7125 24.7125C20.9042 24.5208 21 24.2833 21 24C21 23.7167 20.9042 23.4792 20.7125 23.2875C20.5208 23.0958 20.2833 23 20 23C19.7167 23 19.4792 23.0958 19.2875 23.2875C19.0958 23.4792 19 23.7167 19 24C19 24.2833 19.0958 24.5208 19.2875 24.7125C19.4792 24.9042 19.7167 25 20 25ZM19 21H21V15H19V21ZM16.25 29L11 23.75V16.25L16.25 11H23.75L29 16.25V23.75L23.75 29H16.25ZM17.1 27H22.9L27 22.9V17.1L22.9 13H17.1L13 17.1V22.9L17.1 27Z" fill="#DC2626"/>
</svg>
