<svg width="40" height="40" viewBox="0 0 40 40" fill="none" xmlns="http://www.w3.org/2000/svg">
<rect width="40" height="40" rx="8" fill="#F3F4F5"/>
<path d="M14 28C13.7167 28 13.4793 27.904 13.288 27.712C13.0967 27.52 13.0007 27.2827 13 27C12.9993 26.7173 13.0953 26.48 13.288 26.288C13.4807 26.096 13.718 26 14 26H26C26.2833 26 26.521 26.096 26.713 26.288C26.905 26.48 27.0007 26.7173 27 27C26.9993 27.2827 26.9033 27.5203 26.712 27.713C26.5207 27.9057 26.2833 28.0013 26 28H14ZM14.7 24.5C14.2167 24.5 13.7877 24.3417 13.413 24.025C13.0383 23.7083 12.809 23.3083 12.725 22.825L11.725 16.475C11.6917 16.475 11.6543 16.4793 11.613 16.488C11.5717 16.4967 11.534 16.5007 11.5 16.5C11.0833 16.5 10.7293 16.3543 10.438 16.063C10.1467 15.7717 10.0007 15.4173 10 15C9.99934 14.5827 10.1453 14.2287 10.438 13.938C10.7307 13.6473 11.0847 13.5013 11.5 13.5C11.9153 13.4987 12.2697 13.6447 12.563 13.938C12.8563 14.2313 13.002 14.5853 13 15C13 15.1167 12.9873 15.225 12.962 15.325C12.9367 15.425 12.9077 15.5167 12.875 15.6L16 17L19.125 12.725C18.9417 12.5917 18.7917 12.4167 18.675 12.2C18.5583 11.9833 18.5 11.75 18.5 11.5C18.5 11.0833 18.646 10.729 18.938 10.437C19.23 10.145 19.584 9.99934 20 10C20.416 10.0007 20.7703 10.1467 21.063 10.438C21.3557 10.7293 21.5013 11.0833 21.5 11.5C21.5 11.75 21.4417 11.9833 21.325 12.2C21.2083 12.4167 21.0583 12.5917 20.875 12.725L24 17L27.125 15.6C27.0917 15.5167 27.0623 15.425 27.037 15.325C27.0117 15.225 26.9993 15.1167 27 15C27 14.5833 27.146 14.229 27.438 13.937C27.73 13.645 28.084 13.4993 28.5 13.5C28.916 13.5007 29.2703 13.6467 29.563 13.938C29.8557 14.2293 30.0013 14.5833 30 15C29.9987 15.4167 29.853 15.771 29.563 16.063C29.273 16.355 28.9187 16.5007 28.5 16.5C28.4667 16.5 28.4293 16.496 28.388 16.488C28.3467 16.48 28.309 16.4757 28.275 16.475L27.275 22.825C27.1917 23.3083 26.9627 23.7083 26.588 24.025C26.2133 24.3417 25.784 24.5 25.3 24.5H14.7ZM14.7 22.5H25.3L25.95 18.325L24.8 18.825C24.3667 19.0083 23.925 19.0417 23.475 18.925C23.025 18.8083 22.6583 18.5583 22.375 18.175L20 14.9L17.625 18.175C17.3417 18.5583 16.975 18.8083 16.525 18.925C16.075 19.0417 15.6333 19.0083 15.2 18.825L14.05 18.325L14.7 22.5Z" fill="#FD761A"/>
</svg>
