<svg width="40" height="44" viewBox="0 0 40 44" fill="none" xmlns="http://www.w3.org/2000/svg">
<rect width="40" height="44" rx="8" fill="#F3F4F5"/>
<path d="M16 30H24V27C24 25.9 23.6083 24.9583 22.825 24.175C22.0417 23.3917 21.1 23 20 23C18.9 23 17.9583 23.3917 17.175 24.175C16.3917 24.9583 16 25.9 16 27V30ZM20 21C21.1 21 22.0417 20.6083 22.825 19.825C23.6083 19.0417 24 18.1 24 17V14H16V17C16 18.1 16.3917 19.0417 17.175 19.825C17.9583 20.6083 18.9 21 20 21ZM12 32V30H14V27C14 25.9833 14.2375 25.0292 14.7125 24.1375C15.1875 23.2458 15.85 22.5333 16.7 22C15.85 21.4667 15.1875 20.7542 14.7125 19.8625C14.2375 18.9708 14 18.0167 14 17V14H12V12H28V14H26V17C26 18.0167 25.7625 18.9708 25.2875 19.8625C24.8125 20.7542 24.15 21.4667 23.3 22C24.15 22.5333 24.8125 23.2458 25.2875 24.1375C25.7625 25.0292 26 25.9833 26 27V30H28V32H12Z" fill="#2E3132"/>
</svg>
