<svg width="46" height="40" viewBox="0 0 46 40" fill="none" xmlns="http://www.w3.org/2000/svg">
<rect width="46" height="40" rx="8" fill="#F3F4F5"/>
<path d="M12 28V25.2C12 24.6333 12.1458 24.1125 12.4375 23.6375C12.7292 23.1625 13.1167 22.8 13.6 22.55C14.6333 22.0333 15.6833 21.6458 16.75 21.3875C17.8167 21.1292 18.9 21 20 21C21.1 21 22.1833 21.1292 23.25 21.3875C24.3167 21.6458 25.3667 22.0333 26.4 22.55C26.8833 22.8 27.2708 23.1625 27.5625 23.6375C27.8542 24.1125 28 24.6333 28 25.2V28H12ZM30 28V25C30 24.2667 29.7958 23.5625 29.3875 22.8875C28.9792 22.2125 28.4 21.6333 27.65 21.15C28.5 21.25 29.3 21.4208 30.05 21.6625C30.8 21.9042 31.5 22.2 32.15 22.55C32.75 22.8833 33.2083 23.2542 33.525 23.6625C33.8417 24.0708 34 24.5167 34 25V28H30ZM20 20C18.9 20 17.9583 19.6083 17.175 18.825C16.3917 18.0417 16 17.1 16 16C16 14.9 16.3917 13.9583 17.175 13.175C17.9583 12.3917 18.9 12 20 12C21.1 12 22.0417 12.3917 22.825 13.175C23.6083 13.9583 24 14.9 24 16C24 17.1 23.6083 18.0417 22.825 18.825C22.0417 19.6083 21.1 20 20 20ZM30 16C30 17.1 29.6083 18.0417 28.825 18.825C28.0417 19.6083 27.1 20 26 20C25.8167 20 25.5833 19.9792 25.3 19.9375C25.0167 19.8958 24.7833 19.85 24.6 19.8C25.05 19.2667 25.3958 18.675 25.6375 18.025C25.8792 17.375 26 16.7 26 16C26 15.3 25.8792 14.625 25.6375 13.975C25.3958 13.325 25.05 12.7333 24.6 12.2C24.8333 12.1167 25.0667 12.0625 25.3 12.0375C25.5333 12.0125 25.7667 12 26 12C27.1 12 28.0417 12.3917 28.825 13.175C29.6083 13.9583 30 14.9 30 16ZM14 26H26V25.2C26 25.0167 25.9542 24.85 25.8625 24.7C25.7708 24.55 25.65 24.4333 25.5 24.35C24.6 23.9 23.6917 23.5625 22.775 23.3375C21.8583 23.1125 20.9333 23 20 23C19.0667 23 18.1417 23.1125 17.225 23.3375C16.3083 23.5625 15.4 23.9 14.5 24.35C14.35 24.4333 14.2292 24.55 14.1375 24.7C14.0458 24.85 14 25.0167 14 25.2V26ZM20 18C20.55 18 21.0208 17.8042 21.4125 17.4125C21.8042 17.0208 22 16.55 22 16C22 15.45 21.8042 14.9792 21.4125 14.5875C21.0208 14.1958 20.55 14 20 14C19.45 14 18.9792 14.1958 18.5875 14.5875C18.1958 14.9792 18 15.45 18 16C18 16.55 18.1958 17.0208 18.5875 17.4125C18.9792 17.8042 19.45 18 20 18Z" fill="#FD761A"/>
</svg>
