<svg width="40" height="44" viewBox="0 0 40 44" fill="none" xmlns="http://www.w3.org/2000/svg">
<rect width="40" height="44" rx="8" fill="#F3F4F5"/>
<path d="M16 28H24V26H16V28ZM16 24H24V22H16V24ZM14 32C13.45 32 12.9792 31.8042 12.5875 31.4125C12.1958 31.0208 12 30.55 12 30V14C12 13.45 12.1958 12.9792 12.5875 12.5875C12.9792 12.1958 13.45 12 14 12H22L28 18V30C28 30.55 27.8042 31.0208 27.4125 31.4125C27.0208 31.8042 26.55 32 26 32H14ZM21 19V14H14V30H26V19H21ZM14 14V19V14V19V30V14Z" fill="#2563EB"/>
</svg>
