<svg width="44" height="44" viewBox="0 0 44 44" fill="none" xmlns="http://www.w3.org/2000/svg">
<rect width="44" height="44" rx="8" fill="#F3F4F5"/>
<path d="M20.6 26.6L27.65 19.55L26.25 18.15L20.6 23.8L17.75 20.95L16.35 22.35L20.6 26.6ZM22 32C20.6167 32 19.3167 31.7375 18.1 31.2125C16.8833 30.6875 15.825 29.975 14.925 29.075C14.025 28.175 13.3125 27.1167 12.7875 25.9C12.2625 24.6833 12 23.3833 12 22C12 20.6167 12.2625 19.3167 12.7875 18.1C13.3125 16.8833 14.025 15.825 14.925 14.925C15.825 14.025 16.8833 13.3125 18.1 12.7875C19.3167 12.2625 20.6167 12 22 12C23.3833 12 24.6833 12.2625 25.9 12.7875C27.1167 13.3125 28.175 14.025 29.075 14.925C29.975 15.825 30.6875 16.8833 31.2125 18.1C31.7375 19.3167 32 20.6167 32 22C32 23.3833 31.7375 24.6833 31.2125 25.9C30.6875 27.1167 29.975 28.175 29.075 29.075C28.175 29.975 27.1167 30.6875 25.9 31.2125C24.6833 31.7375 23.3833 32 22 32ZM22 30C24.2333 30 26.125 29.225 27.675 27.675C29.225 26.125 30 24.2333 30 22C30 19.7667 29.225 17.875 27.675 16.325C26.125 14.775 24.2333 14 22 14C19.7667 14 17.875 14.775 16.325 16.325C14.775 17.875 14 19.7667 14 22C14 24.2333 14.775 26.125 16.325 27.675C17.875 29.225 19.7667 30 22 30Z" fill="#007E37"/>
</svg>
