<svg width="22" height="19" viewBox="0 0 22 19" fill="none" xmlns="http://www.w3.org/2000/svg">
<path d="M0 19L11 0L22 19H0ZM3.45 17H18.55L11 4L3.45 17ZM11.713 15.713C11.9043 15.521 12 15.2833 12 15C12 14.7167 11.904 14.4793 11.712 14.288C11.52 14.0967 11.2827 14.0007 11 14C10.7173 13.9993 10.48 14.0953 10.288 14.288C10.096 14.4807 10 14.718 10 15C10 15.282 10.096 15.5197 10.288 15.713C10.48 15.9063 10.7173 16.002 11 16C11.2827 15.998 11.5203 15.903 11.713 15.713ZM10 13H12V8H10V13Z" fill="#2563EB"/>
</svg>
