<svg width="40" height="40" viewBox="0 0 40 40" fill="none" xmlns="http://www.w3.org/2000/svg">
<rect width="40" height="40" rx="4" fill="#EFF6FF"/>
<path d="M27 17C26.1667 17 25.4583 16.7083 24.875 16.125C24.2917 15.5417 24 14.8333 24 14C24 13.1667 24.2917 12.4583 24.875 11.875C25.4583 11.2917 26.1667 11 27 11C27.8333 11 28.5417 11.2917 29.125 11.875C29.7083 12.4583 30 13.1667 30 14C30 14.8333 29.7083 15.5417 29.125 16.125C28.5417 16.7083 27.8333 17 27 17ZM12 29C11.45 29 10.9792 28.8042 10.5875 28.4125C10.1958 28.0208 10 27.55 10 27V15C10 14.45 10.1958 13.9792 10.5875 13.5875C10.9792 13.1958 11.45 13 12 13H22.1C22.0333 13.3333 22 13.6667 22 14C22 14.3333 22.0333 14.6667 22.1 15C22.2167 15.5333 22.4083 16.0292 22.675 16.4875C22.9417 16.9458 23.2667 17.35 23.65 17.7L20 20L12 15V17L20 22L25.275 18.7C25.5583 18.8 25.8417 18.875 26.125 18.925C26.4083 18.975 26.7 19 27 19C27.5333 19 28.0583 18.9167 28.575 18.75C29.0917 18.5833 29.5667 18.3333 30 18V27C30 27.55 29.8042 28.0208 29.4125 28.4125C29.0208 28.8042 28.55 29 28 29H12Z" fill="#2563EB"/>
</svg>
