<svg width="136" height="44" viewBox="0 0 136 44" fill="none" xmlns="http://www.w3.org/2000/svg">
<rect width="136" height="44" rx="22" fill="white"/>
<path d="M31 23H26C25.7167 23 25.4793 22.904 25.288 22.712C25.0967 22.52 25.0007 22.2827 25 22C24.9993 21.7173 25.0953 21.48 25.288 21.288C25.4807 21.096 25.718 21 26 21H31V16C31 15.7167 31.096 15.4793 31.288 15.288C31.48 15.0967 31.7173 15.0007 32 15C32.2827 14.9993 32.5203 15.0953 32.713 15.288C32.9057 15.4807 33.0013 15.718 33 16V21H38C38.2833 21 38.521 21.096 38.713 21.288C38.905 21.48 39.0007 21.7173 39 22C38.9993 22.2827 38.9033 22.5203 38.712 22.713C38.5207 22.9057 38.2833 23.0013 38 23H33V28C33 28.2833 32.904 28.521 32.712 28.713C32.52 28.905 32.2827 29.0007 32 29C31.7173 28.9993 31.48 28.9033 31.288 28.712C31.096 28.5207 31 28.2833 31 28V23Z" fill="#2563EB"/>
<path d="M48.8629 17.6307V15.8636H58.147V17.6307H54.5504V27.5H52.4595V17.6307H48.8629ZM61.9027 22.3864V27.5H59.8459V15.8636H61.8572V20.2557H61.9595C62.1641 19.7633 62.4804 19.375 62.9084 19.0909C63.3402 18.803 63.8894 18.6591 64.5561 18.6591C65.1622 18.6591 65.6906 18.786 66.1413 19.0398C66.5921 19.2936 66.9406 19.6648 67.1868 20.1534C67.4368 20.642 67.5618 21.2386 67.5618 21.9432V27.5H65.505V22.2614C65.505 21.6742 65.3535 21.2178 65.0504 20.892C64.7512 20.5625 64.3307 20.3977 63.7891 20.3977C63.4254 20.3977 63.0997 20.4773 62.8118 20.6364C62.5277 20.7917 62.3042 21.017 62.1413 21.3125C61.9822 21.608 61.9027 21.9659 61.9027 22.3864ZM73.522 27.6705C72.647 27.6705 71.8913 27.4886 71.255 27.125C70.6224 26.7576 70.1357 26.2386 69.7947 25.5682C69.4538 24.8939 69.2834 24.1004 69.2834 23.1875C69.2834 22.2898 69.4538 21.5019 69.7947 20.8239C70.1394 20.142 70.6205 19.6117 71.2379 19.233C71.8554 18.8504 72.5807 18.6591 73.4141 18.6591C73.9519 18.6591 74.4595 18.7462 74.9368 18.9205C75.4179 19.0909 75.8421 19.3561 76.2095 19.7159C76.5807 20.0758 76.8724 20.5341 77.0845 21.0909C77.2966 21.6439 77.4027 22.303 77.4027 23.0682V23.6989H70.2493V22.3125H75.4311C75.4273 21.9186 75.3421 21.5682 75.1754 21.2614C75.0088 20.9508 74.7758 20.7064 74.4766 20.5284C74.1811 20.3504 73.8364 20.2614 73.4425 20.2614C73.022 20.2614 72.6527 20.3636 72.3345 20.5682C72.0163 20.7689 71.7682 21.0341 71.5902 21.3636C71.416 21.6894 71.3269 22.0473 71.3232 22.4375V23.6477C71.3232 24.1553 71.416 24.5909 71.6016 24.9545C71.7872 25.3144 72.0466 25.5909 72.38 25.7841C72.7133 25.9735 73.1035 26.0682 73.5504 26.0682C73.8497 26.0682 74.1205 26.0265 74.3629 25.9432C74.6054 25.8561 74.8156 25.7292 74.9936 25.5625C75.1716 25.3958 75.3061 25.1894 75.397 24.9432L77.3175 25.1591C77.1963 25.6667 76.9652 26.1098 76.6243 26.4886C76.2872 26.8636 75.8554 27.1553 75.3288 27.3636C74.8023 27.5682 74.2 27.6705 73.522 27.6705ZM82.9496 27.6705C82.0973 27.6705 81.3587 27.483 80.7337 27.108C80.1087 26.733 79.6238 26.2083 79.2791 25.5341C78.9382 24.8598 78.7678 24.072 78.7678 23.1705C78.7678 22.2689 78.9382 21.4792 79.2791 20.8011C79.6238 20.1231 80.1087 19.5966 80.7337 19.2216C81.3587 18.8466 82.0973 18.6591 82.9496 18.6591C83.8018 18.6591 84.5405 18.8466 85.1655 19.2216C85.7905 19.5966 86.2734 20.1231 86.6143 20.8011C86.959 21.4792 87.1314 22.2689 87.1314 23.1705C87.1314 24.072 86.959 24.8598 86.6143 25.5341C86.2734 26.2083 85.7905 26.733 85.1655 27.108C84.5405 27.483 83.8018 27.6705 82.9496 27.6705ZM82.9609 26.0227C83.4231 26.0227 83.8094 25.8958 84.12 25.642C84.4306 25.3845 84.6617 25.0398 84.8132 24.608C84.9685 24.1761 85.0462 23.6951 85.0462 23.1648C85.0462 22.6307 84.9685 22.1477 84.8132 21.7159C84.6617 21.2803 84.4306 20.9337 84.12 20.6761C83.8094 20.4186 83.4231 20.2898 82.9609 20.2898C82.4875 20.2898 82.0935 20.4186 81.7791 20.6761C81.4685 20.9337 81.2356 21.2803 81.0803 21.7159C80.9287 22.1477 80.853 22.6307 80.853 23.1648C80.853 23.6951 80.9287 24.1761 81.0803 24.608C81.2356 25.0398 81.4685 25.3845 81.7791 25.642C82.0935 25.8958 82.4875 26.0227 82.9609 26.0227ZM96.0845 27.6534C95.3989 27.6534 94.7853 27.4773 94.2436 27.125C93.7019 26.7727 93.2739 26.2614 92.9595 25.5909C92.6451 24.9205 92.4879 24.1061 92.4879 23.1477C92.4879 22.178 92.647 21.3598 92.9652 20.6932C93.2872 20.0227 93.7209 19.517 94.2663 19.1761C94.8118 18.8314 95.4197 18.6591 96.0902 18.6591C96.6016 18.6591 97.022 18.7462 97.3516 18.9205C97.6811 19.0909 97.9425 19.2973 98.1357 19.5398C98.3288 19.7784 98.4785 20.0038 98.5845 20.2159H98.6697V15.8636H100.732V27.5H98.7095V26.125H98.5845C98.4785 26.3371 98.325 26.5625 98.1243 26.8011C97.9235 27.036 97.6584 27.2367 97.3288 27.4034C96.9993 27.5701 96.5845 27.6534 96.0845 27.6534ZM96.6584 25.9659C97.094 25.9659 97.4652 25.8485 97.772 25.6136C98.0788 25.375 98.3118 25.0436 98.4709 24.6193C98.63 24.1951 98.7095 23.7008 98.7095 23.1364C98.7095 22.572 98.63 22.0814 98.4709 21.6648C98.3156 21.2481 98.0845 20.9242 97.7777 20.6932C97.4747 20.4621 97.1016 20.3466 96.6584 20.3466C96.2 20.3466 95.8175 20.4659 95.5107 20.7045C95.2038 20.9432 94.9728 21.2727 94.8175 21.6932C94.6622 22.1136 94.5845 22.5947 94.5845 23.1364C94.5845 23.6818 94.6622 24.1686 94.8175 24.5966C94.9766 25.0208 95.2095 25.3561 95.5163 25.6023C95.8269 25.8447 96.2076 25.9659 96.6584 25.9659ZM106.731 27.6705C105.879 27.6705 105.14 27.483 104.515 27.108C103.89 26.733 103.405 26.2083 103.06 25.5341C102.719 24.8598 102.549 24.072 102.549 23.1705C102.549 22.2689 102.719 21.4792 103.06 20.8011C103.405 20.1231 103.89 19.5966 104.515 19.2216C105.14 18.8466 105.879 18.6591 106.731 18.6591C107.583 18.6591 108.322 18.8466 108.947 19.2216C109.572 19.5966 110.055 20.1231 110.396 20.8011C110.74 21.4792 110.913 22.2689 110.913 23.1705C110.913 24.072 110.74 24.8598 110.396 25.5341C110.055 26.2083 109.572 26.733 108.947 27.108C108.322 27.483 107.583 27.6705 106.731 27.6705ZM106.742 26.0227C107.204 26.0227 107.591 25.8958 107.901 25.642C108.212 25.3845 108.443 25.0398 108.594 24.608C108.75 24.1761 108.827 23.6951 108.827 23.1648C108.827 22.6307 108.75 22.1477 108.594 21.7159C108.443 21.2803 108.212 20.9337 107.901 20.6761C107.591 20.4186 107.204 20.2898 106.742 20.2898C106.269 20.2898 105.875 20.4186 105.56 20.6761C105.25 20.9337 105.017 21.2803 104.862 21.7159C104.71 22.1477 104.634 22.6307 104.634 23.1648C104.634 23.6951 104.71 24.1761 104.862 24.608C105.017 25.0398 105.25 25.3845 105.56 25.642C105.875 25.8958 106.269 26.0227 106.742 26.0227ZM105.06 17.7102L103.816 17.6818C103.816 17.0076 103.99 16.4792 104.339 16.0966C104.687 15.714 105.117 15.5227 105.629 15.5227C105.875 15.5227 106.089 15.5644 106.271 15.6477C106.452 15.7273 106.619 15.8201 106.771 15.9261C106.926 16.0322 107.077 16.1269 107.225 16.2102C107.373 16.2898 107.536 16.3295 107.714 16.3295C107.93 16.3295 108.1 16.2481 108.225 16.0852C108.354 15.9223 108.42 15.714 108.424 15.4602L109.646 15.5114C109.642 16.1894 109.466 16.7159 109.117 17.0909C108.769 17.4621 108.341 17.6496 107.833 17.6534C107.56 17.6572 107.331 17.6174 107.146 17.5341C106.96 17.4508 106.797 17.3561 106.657 17.25C106.521 17.1439 106.382 17.0511 106.242 16.9716C106.102 16.8883 105.937 16.8466 105.748 16.8466C105.547 16.8466 105.382 16.9261 105.254 17.0852C105.125 17.2443 105.06 17.4527 105.06 17.7102ZM112.658 27.5V18.7727H114.715V27.5H112.658ZM113.692 17.5341C113.367 17.5341 113.086 17.4261 112.852 17.2102C112.617 16.9905 112.499 16.7273 112.499 16.4205C112.499 16.1098 112.617 15.8466 112.852 15.6307C113.086 15.411 113.367 15.3011 113.692 15.3011C114.022 15.3011 114.302 15.411 114.533 15.6307C114.768 15.8466 114.886 16.1098 114.886 16.4205C114.886 16.7273 114.768 16.9905 114.533 17.2102C114.302 17.4261 114.022 17.5341 113.692 17.5341Z" fill="#2563EB"/>
</svg>
