<svg width="24" height="24" viewBox="0 0 24 24" fill="none" xmlns="http://www.w3.org/2000/svg">
<path d="M16 24L8 21.2L1.8 23.6C1.35556 23.7778 0.944444 23.728 0.566667 23.4507C0.188889 23.1733 0 22.8009 0 22.3333V3.66667C0 3.37778 0.0835555 3.12222 0.250667 2.9C0.417778 2.67778 0.645333 2.51111 0.933333 2.4L8 0L16 2.8L22.2 0.4C22.6444 0.222222 23.0556 0.272445 23.4333 0.550667C23.8111 0.828889 24 1.20089 24 1.66667V20.3333C24 20.6222 23.9169 20.8778 23.7507 21.1C23.5844 21.3222 23.3564 21.4889 23.0667 21.6L16 24ZM14.6667 20.7333V5.13333L9.33333 3.26667V18.8667L14.6667 20.7333ZM17.3333 20.7333L21.3333 19.4V3.6L17.3333 5.13333V20.7333ZM2.66667 20.4L6.66667 18.8667V3.26667L2.66667 4.6V20.4Z" fill="black"/>
</svg>
