<svg width="115" height="115" viewBox="0 0 115 115" fill="none" xmlns="http://www.w3.org/2000/svg">
<path d="M91.7777 40.2241H96.3636C98.6541 40.2241 100.851 41.134 102.47 42.7538C104.09 44.3735 105 46.5703 105 48.8609V66.1345C105 68.4251 104.09 70.6219 102.47 72.2416C100.851 73.8613 98.6541 74.7712 96.3636 74.7712H91.7777C90.7259 83.1204 86.663 90.7985 80.3517 96.3643C74.0404 101.93 65.9147 105.001 57.5 105V96.3632C64.3715 96.3632 70.9616 93.6334 75.8205 88.7742C80.6794 83.9151 83.4091 77.3247 83.4091 70.4529V44.5425C83.4091 37.6706 80.6794 31.0802 75.8205 26.2211C70.9616 21.362 64.3715 18.6321 57.5 18.6321C50.6285 18.6321 44.0384 21.362 39.1795 26.2211C34.3206 31.0802 31.5909 37.6706 31.5909 44.5425V74.7712H18.6364C16.3459 74.7712 14.1492 73.8613 12.5295 72.2416C10.9099 70.6219 10 68.4251 10 66.1345V48.8609C10 46.5703 10.9099 44.3735 12.5295 42.7538C14.1492 41.134 16.3459 40.2241 18.6364 40.2241H23.2223C24.276 31.8762 28.3397 24.1997 34.6507 18.6351C40.9617 13.0704 49.0863 10 57.5 10C65.9137 10 74.0383 13.0704 80.3493 18.6351C86.6603 24.1997 90.724 31.8762 91.7777 40.2241ZM18.6364 48.8609V66.1345H22.9545V48.8609H18.6364ZM92.0455 48.8609V66.1345H96.3636V48.8609H92.0455ZM39.1909 73.8428L43.7682 66.5188C47.8835 69.0975 52.6436 70.4612 57.5 70.4529C62.3564 70.4612 67.1165 69.0975 71.2318 66.5188L75.8091 73.8428C70.3221 77.2815 63.9754 79.1003 57.5 79.0896C51.0246 79.1003 44.6779 77.2815 39.1909 73.8428Z" fill="#2563EB"/>
</svg>
