<svg width="115" height="115" viewBox="0 0 115 115" fill="none" xmlns="http://www.w3.org/2000/svg">
<path fill-rule="evenodd" clip-rule="evenodd" d="M17.6676 75.1014C17.5781 74.7345 17.533 74.3583 17.5334 73.9807V29.2478C17.5334 27.999 18.0295 26.8013 18.9125 25.9182C19.7956 25.0352 20.9933 24.5391 22.2421 24.5391H92.873C94.1218 24.5391 95.3195 25.0352 96.2026 25.9182C97.0856 26.8013 97.5817 27.999 97.5817 29.2478V73.9807C97.5817 74.5551 97.4781 75.1037 97.2921 75.6123L104.617 86.819C104.849 87.1742 104.98 87.5855 104.998 88.0094C105.016 88.4333 104.918 88.854 104.716 89.2272C104.514 89.6004 104.215 89.912 103.851 90.1292C103.487 90.3465 103.07 90.4612 102.646 90.4612H12.3538C11.934 90.4611 11.522 90.3488 11.1602 90.1359C10.7985 89.923 10.5002 89.6173 10.2963 89.2504C10.0925 88.8834 9.99041 88.4687 10.0007 88.0491C10.011 87.6295 10.1333 87.2202 10.3549 86.8638L17.6676 75.1014ZM22.2421 29.2478H92.873V73.9807H22.2421V29.2478Z" fill="#2563EB"/>
</svg>
