<svg width="32" height="32" viewBox="0 0 32 32" fill="none" xmlns="http://www.w3.org/2000/svg">
<path d="M21.3332 29.333V17.333C21.3332 15.4477 21.3332 14.505 20.7465 13.9197C20.1625 13.333 19.2198 13.333 17.3332 13.333H14.6665C12.7812 13.333 11.8385 13.333 11.2532 13.9197C10.6665 14.5037 10.6665 15.4463 10.6665 17.333V29.333" stroke="#2563EB" stroke-width="1.5" stroke-linecap="round"/>
<path opacity="0.5" d="M10.6665 29.333C10.6665 27.4477 10.6665 26.505 10.0798 25.9197C9.49584 25.333 8.55317 25.333 6.6665 25.333C4.77984 25.333 3.8385 25.333 3.25317 25.9197C2.6665 26.5037 2.6665 27.4463 2.6665 29.333M29.3332 29.333V25.333C29.3332 23.4477 29.3332 22.505 28.7465 21.9197C28.1625 21.333 27.2198 21.333 25.3332 21.333C23.4465 21.333 22.5052 21.333 21.9198 21.9197C21.3332 22.5037 21.3332 23.4463 21.3332 25.333V29.333" stroke="#2563EB" stroke-width="1.5" stroke-linecap="round"/>
<path d="M14.8612 4.0305C15.3679 3.11984 15.6212 2.6665 15.9999 2.6665C16.3786 2.6665 16.6319 3.11984 17.1386 4.0305L17.2692 4.26517C17.4132 4.52384 17.4852 4.65184 17.5972 4.73717C17.7106 4.8225 17.8506 4.8545 18.1306 4.91717L18.3839 4.97584C19.3679 5.1985 19.8599 5.30917 19.9772 5.68517C20.0946 6.06117 19.7586 6.4545 19.0879 7.2385L18.9146 7.44117C18.7239 7.66384 18.6279 7.7745 18.5852 7.91317C18.5426 8.05184 18.5572 8.19984 18.5852 8.49717L18.6119 8.76784C18.7132 9.8145 18.7639 10.3385 18.4586 10.5705C18.1519 10.8038 17.6906 10.5905 16.7692 10.1665L16.5319 10.0572C16.2692 9.93717 16.1386 9.87584 15.9999 9.87584C15.8612 9.87584 15.7306 9.93717 15.4679 10.0572L15.2306 10.1665C14.3092 10.5905 13.8479 10.8038 13.5412 10.5705C13.2346 10.3385 13.2866 9.8145 13.3879 8.76784L13.4146 8.49717C13.4426 8.19984 13.4572 8.05184 13.4146 7.91317C13.3719 7.7745 13.2759 7.66384 13.0852 7.44117L12.9119 7.2385C12.2412 6.4545 11.9052 6.0625 12.0226 5.68517C12.1399 5.30917 12.6319 5.1985 13.6159 4.97584L13.8692 4.91717C14.1492 4.8545 14.2892 4.82384 14.4026 4.73717C14.5146 4.65184 14.5866 4.52384 14.7306 4.26517L14.8612 4.0305Z" stroke="#2563EB" stroke-width="1.5"/>
</svg>
