<svg width="27" height="24" viewBox="0 0 27 24" fill="none" xmlns="http://www.w3.org/2000/svg">
<path d="M21.3333 16H18.6667V18.6667H21.3333M21.3333 10.6667H18.6667V13.3333H21.3333M24 21.3333H13.3333V18.6667H16V16H13.3333V13.3333H16V10.6667H13.3333V8H24M10.6667 5.33333H8V2.66667H10.6667M10.6667 10.6667H8V8H10.6667M10.6667 16H8V13.3333H10.6667M10.6667 21.3333H8V18.6667H10.6667M5.33333 5.33333H2.66667V2.66667H5.33333M5.33333 10.6667H2.66667V8H5.33333M5.33333 16H2.66667V13.3333H5.33333M5.33333 21.3333H2.66667V18.6667H5.33333M13.3333 5.33333V0H0V24H26.6667V5.33333H13.3333Z" fill="white"/>
</svg>
