<svg width="36" height="36" viewBox="0 0 36 36" fill="none" xmlns="http://www.w3.org/2000/svg">
<rect x="0.5" y="0.5" width="35" height="35" rx="17.5" fill="#007E37"/>
<rect x="0.5" y="0.5" width="35" height="35" rx="17.5" stroke="#007E37"/>
<path d="M17.2389 27.2197L17.0013 27.0588C15.8122 26.2269 14.7073 25.2807 13.7023 24.2337C11.9365 22.3838 9.95654 19.6106 9.95654 16.3376C9.95654 12.3109 13.2246 8.29541 18 8.29541C22.7753 8.29541 26.0434 12.3109 26.0434 16.3388C26.0434 19.6119 24.0635 22.385 22.2976 24.2325C21.2926 25.2794 20.1877 26.2256 18.9986 27.0576C18.8979 27.1277 18.8187 27.1813 18.761 27.2185C18.5098 27.3855 18.2536 27.5439 18 27.7048C17.7463 27.5439 17.4901 27.3855 17.2389 27.2197ZM18 18.8137C18.6563 18.8137 19.2858 18.553 19.75 18.0888C20.2141 17.6247 20.4749 16.9952 20.4749 16.3388C20.4749 15.6824 20.2141 15.0529 19.75 14.5888C19.2858 14.1247 18.6563 13.8639 18 13.8639C17.3436 13.8639 16.7141 14.1247 16.2499 14.5888C15.7858 15.0529 15.5251 15.6824 15.5251 16.3388C15.5251 16.9952 15.7858 17.6247 16.2499 18.0888C16.7141 18.553 17.3436 18.8137 18 18.8137Z" fill="white"/>
</svg>
