<svg width="36" height="36" viewBox="0 0 36 36" fill="none" xmlns="http://www.w3.org/2000/svg">
<rect x="0.5" y="0.5" width="35" height="35" rx="17.5" fill="#007E37"/>
<rect x="0.5" y="0.5" width="35" height="35" rx="17.5" stroke="#007E37"/>
<path d="M17.9999 18L15.0419 20.929C12.1199 23.823 10.6589 25.27 11.0679 26.519C11.1026 26.6257 11.1459 26.7297 11.1979 26.831C11.7999 28 13.8669 28 17.9999 28C22.1329 28 24.1999 28 24.8019 26.83C24.8539 26.73 24.8972 26.6263 24.9319 26.519C25.3419 25.27 23.8799 23.823 20.9579 20.929L17.9999 18ZM17.9999 18L20.9579 15.071C23.8799 12.177 25.3409 10.73 24.9319 9.481C24.8974 9.37352 24.854 9.26915 24.8019 9.169C24.1999 8 22.1329 8 17.9999 8C13.8669 8 11.7999 8 11.1979 9.17C11.1459 9.27 11.1026 9.37367 11.0679 9.481C10.6579 10.73 12.1199 12.177 15.0419 15.071L17.9999 18Z" stroke="white" stroke-width="1.5"/>
</svg>
