<svg width="40" height="44" viewBox="0 0 40 44" fill="none" xmlns="http://www.w3.org/2000/svg">
<path d="M24.9993 21.997V41.2566C25.0993 41.9899 24.8493 42.772 24.2744 43.2852C24.0432 43.5118 23.7685 43.6916 23.4661 43.8142C23.1637 43.9369 22.8395 44 22.5121 44C22.1848 44 21.8606 43.9369 21.5582 43.8142C21.2558 43.6916 20.9811 43.5118 20.7499 43.2852L15.7256 38.3726C15.4531 38.1119 15.2459 37.7931 15.1202 37.4413C14.9945 37.0894 14.9536 36.7138 15.0007 36.344V21.997H14.9257L0.527696 3.95946C0.121773 3.44994 -0.0613879 2.80403 0.0182364 2.16287C0.0978606 1.52171 0.433796 0.937431 0.952637 0.537705C1.42757 0.195529 1.9525 0 2.50242 0H37.4976C38.0475 0 38.5724 0.195529 39.0474 0.537705C39.5662 0.937431 39.9021 1.52171 39.9818 2.16287C40.0614 2.80403 39.8782 3.44994 39.4723 3.95946L25.0743 21.997H24.9993Z" fill="#2563EB"/>
</svg>
