<svg width="32" height="32" viewBox="0 0 32 32" fill="none" xmlns="http://www.w3.org/2000/svg">
<path d="M21.3332 9.33333C21.3332 6.81867 21.3332 5.56267 20.5518 4.78133C19.7705 4 18.5145 4 15.9998 4C13.4852 4 12.2292 4 11.4478 4.78133C10.6665 5.56267 10.6665 6.81867 10.6665 9.33333M2.6665 18.6667C2.6665 14.9213 2.6665 13.0493 3.56517 11.704C3.95439 11.1214 4.45458 10.6212 5.03717 10.232C6.3825 9.33333 8.25317 9.33333 11.9998 9.33333H19.9998C23.7452 9.33333 25.6172 9.33333 26.9625 10.232C27.5451 10.6212 28.0453 11.1214 28.4345 11.704C29.3332 13.0493 29.3332 14.92 29.3332 18.6667C29.3332 22.4133 29.3332 24.284 28.4345 25.6293C28.0453 26.2119 27.5451 26.7121 26.9625 27.1013C25.6172 28 23.7465 28 19.9998 28H11.9998C8.2545 28 6.3825 28 5.03717 27.1013C4.45458 26.7121 3.95439 26.2119 3.56517 25.6293C2.6665 24.284 2.6665 22.4133 2.6665 18.6667Z" stroke="#2563EB" stroke-width="1.5" stroke-linecap="round" stroke-linejoin="round"/>
<path d="M8 14.6665L8.86933 14.9358C13.517 16.3561 18.483 16.3561 23.1307 14.9358L24 14.6665M16 15.9998V18.6665" stroke="#2563EB" stroke-width="1.5" stroke-linecap="round" stroke-linejoin="round"/>
</svg>
