<svg width="32" height="32" viewBox="0 0 32 32" fill="none" xmlns="http://www.w3.org/2000/svg">
<g clip-path="url(#clip0_1049_2845)">
<path fill-rule="evenodd" clip-rule="evenodd" d="M1.14616 8.1998C0.803014 8.3612 0.512884 8.61691 0.309666 8.93707C0.106448 9.25722 -0.00146484 9.6286 -0.00146484 10.0078C-0.00146484 10.387 0.106448 10.7584 0.309666 11.0785C0.512884 11.3987 0.803014 11.6544 1.14616 11.8158L4.00616 13.1658V21.0058C4.00616 22.4898 4.48816 24.1458 5.89416 25.1658C7.66616 26.4458 10.8942 28.0058 16.0142 28.0058C21.1342 28.0058 24.3542 26.4358 26.1342 25.1658C27.5402 24.1498 28.0222 22.5058 28.0222 21.0058V13.1658L30.0222 12.2198V20.9998C30.0222 21.265 30.1275 21.5194 30.3151 21.7069C30.5026 21.8944 30.7569 21.9998 31.0222 21.9998C31.2874 21.9998 31.5417 21.8944 31.7293 21.7069C31.9168 21.5194 32.0222 21.265 32.0222 20.9998V9.9998C32.0222 9.62104 31.9148 9.25004 31.7122 8.92997C31.5097 8.6099 31.2205 8.35391 30.8782 8.1918L19.4382 2.7918C18.3689 2.28618 17.2009 2.02393 16.0182 2.02393C14.8354 2.02393 13.6674 2.28618 12.5982 2.7918L1.15816 8.1918L1.14616 8.1998ZM6.00616 20.9998V14.0998L12.5862 17.2198C13.6554 17.7254 14.8234 17.9877 16.0062 17.9877C17.1889 17.9877 18.3569 17.7254 19.4262 17.2198L26.0062 14.0998V20.9998C26.0062 22.1118 25.6462 23.0198 24.9462 23.5198C23.4982 24.5658 20.6862 25.9998 16.0062 25.9998C11.3262 25.9998 8.50616 24.5758 7.06616 23.5198C6.36816 23.0158 6.00616 22.1018 6.00616 20.9998ZM13.4462 4.5998C14.2464 4.22076 15.1207 4.02413 16.0062 4.02413C16.8916 4.02413 17.766 4.22076 18.5662 4.5998L30.0062 9.9998L18.5662 15.3998C17.766 15.7788 16.8916 15.9755 16.0062 15.9755C15.1207 15.9755 14.2464 15.7788 13.4462 15.3998L2.00616 9.9998L13.4462 4.5998Z" fill="#2563EB"/>
</g>
<defs>
<clipPath id="clip0_1049_2845">
<rect width="32" height="32" fill="white"/>
</clipPath>
</defs>
</svg>
