<svg width="115" height="115" viewBox="0 0 115 115" fill="none" xmlns="http://www.w3.org/2000/svg">
<path d="M79 18.5H37C33.6863 18.5 31 21.1863 31 24.5V90.5C31 93.8137 33.6863 96.5 37 96.5H79C82.3137 96.5 85 93.8137 85 90.5V24.5C85 21.1863 82.3137 18.5 79 18.5Z" stroke="#2563EB" stroke-width="3" stroke-linecap="round" stroke-linejoin="round"/>
<path d="M40.002 30.5H76.0001V42.5H40.002V30.5Z" stroke="#2563EB" stroke-width="2" stroke-linecap="round" stroke-linejoin="round"/>
<path d="M41.5 60.5C43.9853 60.5 46 58.4853 46 56C46 53.5147 43.9853 51.5 41.5 51.5C39.0147 51.5 37 53.5147 37 56C37 58.4853 39.0147 60.5 41.5 60.5Z" fill="#2563EB"/>
<path d="M58 60.5C60.4853 60.5 62.5 58.4853 62.5 56C62.5 53.5147 60.4853 51.5 58 51.5C55.5147 51.5 53.5 53.5147 53.5 56C53.5 58.4853 55.5147 60.5 58 60.5Z" fill="#2563EB"/>
<path d="M74.5 60.5C76.9853 60.5 79 58.4853 79 56C79 53.5147 76.9853 51.5 74.5 51.5C72.0147 51.5 70 53.5147 70 56C70 58.4853 72.0147 60.5 74.5 60.5Z" fill="#2563EB"/>
<path d="M41.5 75.5C43.9853 75.5 46 73.4853 46 71C46 68.5147 43.9853 66.5 41.5 66.5C39.0147 66.5 37 68.5147 37 71C37 73.4853 39.0147 75.5 41.5 75.5Z" fill="#2563EB"/>
<path d="M58 75.5C60.4853 75.5 62.5 73.4853 62.5 71C62.5 68.5147 60.4853 66.5 58 66.5C55.5147 66.5 53.5 68.5147 53.5 71C53.5 73.4853 55.5147 75.5 58 75.5Z" fill="#2563EB"/>
<path d="M41.5 90.5C43.9853 90.5 46 88.4853 46 86C46 83.5147 43.9853 81.5 41.5 81.5C39.0147 81.5 37 83.5147 37 86C37 88.4853 39.0147 90.5 41.5 90.5Z" fill="#2563EB"/>
<path d="M58 90.5C60.4853 90.5 62.5 88.4853 62.5 86C62.5 83.5147 60.4853 81.5 58 81.5C55.5147 81.5 53.5 83.5147 53.5 86C53.5 88.4853 55.5147 90.5 58 90.5Z" fill="#2563EB"/>
<path d="M79 71C79 68.5147 76.9853 66.5 74.5 66.5C72.0147 66.5 70 68.5147 70 71V86C70 88.4853 72.0147 90.5 74.5 90.5C76.9853 90.5 79 88.4853 79 86V71Z" fill="#2563EB"/>
</svg>
