<svg width="115" height="115" viewBox="0 0 115 115" fill="none" xmlns="http://www.w3.org/2000/svg">
<path d="M105 23.5714V16.7857H94.8214V10H88.0357V16.7857H84.6429C80.9005 16.7857 77.8571 19.8325 77.8571 23.5714V30.3571C77.8571 34.0995 80.9005 37.1429 84.6429 37.1429H98.2143V43.9286H77.8571V50.7143H88.0357V57.5H94.8214V50.7143H98.2143C101.957 50.7143 105 47.6709 105 43.9286V37.1429C105 33.4039 101.957 30.3571 98.2143 30.3571H84.6429V23.5714H105ZM84.6429 71.0714V77.8571H93.4168L81.25 90.0239L73.4736 82.2441C72.8383 81.6086 71.9768 81.2511 71.0782 81.25H71.0714C70.1728 81.2511 69.3114 81.6086 68.6761 82.2441L50.7143 100.202L55.5118 105L71.0748 89.4404L78.8512 97.2202C79.4875 97.8562 80.3503 98.2136 81.25 98.2136C82.1497 98.2136 83.0125 97.8562 83.6488 97.2202L98.2143 82.6546V91.4286H105V71.0714H84.6429ZM16.7857 105H10V88.0357C10 74.9393 20.6536 64.2857 33.75 64.2857H54.1071C60.8555 64.2857 67.3054 67.1696 71.8077 72.2012L66.7523 76.7273C65.1611 74.948 63.2123 73.5245 61.0333 72.5499C58.8543 71.5753 56.4942 71.0715 54.1071 71.0714H33.75C24.3959 71.0714 16.7857 78.6816 16.7857 88.0357V105ZM43.9286 57.5C50.2275 57.5 56.2684 54.9978 60.7224 50.5438C65.1763 46.0898 67.6786 40.0489 67.6786 33.75C67.6786 27.4511 65.1763 21.4102 60.7224 16.9562C56.2684 12.5022 50.2275 10 43.9286 10C37.6297 10 31.5888 12.5022 27.1348 16.9562C22.6808 21.4102 20.1786 27.4511 20.1786 33.75C20.1786 40.0489 22.6808 46.0898 27.1348 50.5438C31.5888 54.9978 37.6297 57.5 43.9286 57.5ZM43.9286 16.7857C48.4278 16.7857 52.7427 18.573 55.9241 21.7544C59.1056 24.9359 60.8929 29.2508 60.8929 33.75C60.8929 38.2492 59.1056 42.5641 55.9241 45.7456C52.7427 48.927 48.4278 50.7143 43.9286 50.7143C39.4294 50.7143 35.1144 48.927 31.933 45.7456C28.7516 42.5641 26.9643 38.2492 26.9643 33.75C26.9643 29.2508 28.7516 24.9359 31.933 21.7544C35.1144 18.573 39.4294 16.7857 43.9286 16.7857Z" fill="#2563EB"/>
</svg>
