<svg width="36" height="36" viewBox="0 0 36 36" fill="none" xmlns="http://www.w3.org/2000/svg">
<path d="M0 18C0 8.05875 8.05875 0 18 0C27.9413 0 36 8.05875 36 18C36 27.9413 27.9413 36 18 36C8.05875 36 0 27.9413 0 18ZM18.4297 19.308C20.6602 19.857 21.3285 20.5845 21.3285 21.813C21.3285 23.0895 20.4697 24.0555 18.4297 24.2107V19.308ZM17.082 16.5532C15.174 16.0755 14.4578 15.2767 14.4578 14.1907C14.4578 13.1047 15.3645 12.1155 17.0828 11.901L17.082 16.5532ZM18.4297 16.875V11.901C19.9567 12.0915 21.03 12.9622 21.1853 14.466H23.6663C23.571 11.7585 21.4118 9.969 18.4297 9.72975V7.7145H17.082V9.72975C14.076 9.957 11.9295 11.7217 11.9295 14.394C11.9295 16.815 13.5638 18.1755 16.593 18.879L17.082 18.9982V24.1987C15.162 23.9962 14.2553 22.9702 14.0408 21.5745H11.5718C11.6543 24.4372 14.0527 26.1427 17.082 26.37V28.3733H18.4297V26.37C21.4718 26.1547 23.8575 24.4972 23.8575 21.5745C23.8575 19.0342 22.14 17.7458 19.0027 17.0182L18.4297 16.875Z" fill="#007E37"/>
</svg>
