<svg width="115" height="115" viewBox="0 0 115 115" fill="none" xmlns="http://www.w3.org/2000/svg">
<path d="M95.0746 22.1976C94.0483 21.5332 92.8745 21.1313 91.6566 21.0271C90.4386 20.923 89.2137 21.1198 88.0896 21.6002L51.2537 36.116C50.3825 36.4741 49.4493 36.6568 48.5075 36.6536H24.9254C22.9461 36.6536 21.048 37.4403 19.6485 38.8407C18.2489 40.241 17.4627 42.1403 17.4627 44.1206V44.718H10V62.6387H17.4627V63.4153C17.5095 65.3644 18.3163 67.218 19.7108 68.5798C21.1053 69.9416 22.9768 70.7036 24.9254 70.703L33.8806 89.699C34.487 90.9782 35.4417 92.0604 36.635 92.8211C37.8283 93.5819 39.2119 93.9905 40.6269 94H44.3881C46.3569 93.9842 48.2398 93.1906 49.6264 91.792C51.0131 90.3933 51.7911 88.5031 51.791 86.533V71.4199L88.0896 85.9357C88.9836 86.2871 89.935 86.4694 90.8955 86.4733C92.3858 86.4458 93.8366 85.9896 95.0746 85.1591C96.0566 84.4957 96.8666 83.6079 97.4375 82.5692C98.0085 81.5304 98.3241 80.3705 98.3582 79.1855V28.3504C98.3527 27.1348 98.0508 25.939 97.4786 24.8668C96.9063 23.7945 96.0811 22.8783 95.0746 22.1976ZM44.3284 44.1206V63.4153H24.9254V44.1206H44.3284ZM44.3284 86.533H40.5672L33.2239 70.703H44.3284V86.533ZM54 64.3113C53.291 63.9491 52.5519 63.6493 51.791 63.4153V43.7025C52.5445 43.5458 53.2834 43.326 54 43.0454L90.8955 28.3504V79.0063L54 64.3113ZM98.5373 46.2114V61.1453C100.517 61.1453 102.415 60.3586 103.814 58.9583C105.214 57.558 106 55.6587 106 53.6783C106 51.698 105.214 49.7987 103.814 48.3984C102.415 46.9981 100.517 46.2114 98.5373 46.2114Z" fill="#2563EB"/>
</svg>
