<svg width="28" height="48" viewBox="0 0 28 48" fill="none" xmlns="http://www.w3.org/2000/svg">
<path fill-rule="evenodd" clip-rule="evenodd" d="M26.0878 20.9999C26.7508 21.6632 27.1233 22.5626 27.1233 23.5004C27.1233 24.4382 26.7508 25.3376 26.0878 26.0008L6.08062 46.008C5.75437 46.3458 5.36411 46.6152 4.93262 46.8006C4.50113 46.9859 4.03704 47.0835 3.56744 47.0876C3.09784 47.0917 2.63213 47.0022 2.19748 46.8243C1.76283 46.6465 1.36795 46.3839 1.03588 46.0518C0.703806 45.7198 0.441194 45.3249 0.263366 44.8902C0.0855368 44.4556 -0.00394717 43.9899 0.000133536 43.5203C0.00421425 43.0507 0.101779 42.5866 0.287134 42.1551C0.472489 41.7236 0.741922 41.3333 1.07971 41.0071L18.5864 23.5004L1.07971 5.9937C0.435474 5.32667 0.0789942 4.43329 0.0870523 3.50597C0.0951104 2.57866 0.467061 1.69161 1.1228 1.03588C1.77853 0.380143 2.66558 0.0081918 3.59289 0.000133697C4.52021 -0.0079244 5.41359 0.348556 6.08062 0.992795L26.0878 20.9999Z" fill="#2E3132"/>
</svg>
