<svg width="115" height="115" viewBox="0 0 115 115" fill="none" xmlns="http://www.w3.org/2000/svg">
<path d="M10 105.5V94.8333C10 89.1754 12.2476 83.7492 16.2484 79.7484C20.2492 75.7476 25.6754 73.5 31.3333 73.5H52.6667C58.3246 73.5 63.7508 75.7476 67.7516 79.7484C71.7524 83.7492 74 89.1754 74 94.8333V105.5M79.3333 10.1933C83.9222 11.3683 87.9895 14.0371 90.8941 17.779C93.7986 21.5209 95.3752 26.1231 95.3752 30.86C95.3752 35.5969 93.7986 40.1991 90.8941 43.941C87.9895 47.6829 83.9222 50.3517 79.3333 51.5267M106 105.5V94.8333C105.973 90.1248 104.389 85.5576 101.495 81.8435C98.6006 78.1294 94.5591 75.4771 90 74.3M20.6667 30.8333C20.6667 36.4913 22.9143 41.9175 26.9151 45.9183C30.9158 49.9191 36.342 52.1667 42 52.1667C47.658 52.1667 53.0842 49.9191 57.0849 45.9183C61.0857 41.9175 63.3333 36.4913 63.3333 30.8333C63.3333 25.1754 61.0857 19.7492 57.0849 15.7484C53.0842 11.7476 47.658 9.5 42 9.5C36.342 9.5 30.9158 11.7476 26.9151 15.7484C22.9143 19.7492 20.6667 25.1754 20.6667 30.8333Z" stroke="#2563EB" stroke-width="7" stroke-linecap="round" stroke-linejoin="round"/>
</svg>
