<svg width="60" height="68" viewBox="0 0 60 68" fill="none" xmlns="http://www.w3.org/2000/svg">
<path d="M0 34C0 15.2223 15.2223 0 34 0H60V68H34C15.2223 68 0 52.7777 0 34Z" fill="#434655" fill-opacity="0.76"/>
<g clip-path="url(#clip0_504_25921)">
<path fill-rule="evenodd" clip-rule="evenodd" d="M38.4578 31.7916C39.043 32.3776 39.3717 33.1718 39.3717 34C39.3717 34.8281 39.043 35.6224 38.4578 36.2083L26.6745 47.9958C26.0882 48.5818 25.2932 48.9109 24.4644 48.9107C23.6355 48.9105 22.8407 48.581 22.2547 47.9948C21.6687 47.4085 21.3396 46.6135 21.3398 45.7847C21.34 44.9558 21.6695 44.1609 22.2557 43.575L31.8307 34L22.2557 24.425C21.6862 23.8359 21.3708 23.0466 21.3776 22.2273C21.3843 21.4079 21.7126 20.6239 22.2917 20.0443C22.8709 19.4646 23.6545 19.1356 24.4739 19.1281C25.2932 19.1206 26.0828 19.4352 26.6724 20.0041L38.4599 31.7896L38.4578 31.7916Z" fill="#2563EB"/>
</g>
<defs>
<clipPath id="clip0_504_25921">
<rect width="50" height="50" fill="white" transform="translate(5 9)"/>
</clipPath>
</defs>
</svg>
