<svg width="28" height="48" viewBox="0 0 28 48" fill="none" xmlns="http://www.w3.org/2000/svg">
<path fill-rule="evenodd" clip-rule="evenodd" d="M1.03528 20.9999C0.372252 21.6632 -0.000219345 22.5626 -0.000219345 23.5004C-0.000219345 24.4382 0.372252 25.3376 1.03528 26.0008L21.0424 46.008C21.3687 46.3458 21.7589 46.6152 22.1904 46.8006C22.6219 46.9859 23.086 47.0835 23.5556 47.0876C24.0252 47.0917 24.4909 47.0022 24.9256 46.8243C25.3602 46.6465 25.7551 46.3839 26.0872 46.0518C26.4192 45.7198 26.6819 45.3249 26.8597 44.8902C27.0375 44.4556 27.127 43.9899 27.1229 43.5203C27.1188 43.0507 27.0213 42.5866 26.8359 42.1551C26.6506 41.7236 26.3811 41.3333 26.0433 41.0071L8.53663 23.5004L26.0433 5.9937C26.6876 5.32667 27.0441 4.43329 27.036 3.50597C27.0279 2.57866 26.656 1.69161 26.0003 1.03588C25.3445 0.380143 24.4575 0.0081918 23.5302 0.000133697C22.6028 -0.0079244 21.7095 0.348556 21.0424 0.992795L1.03528 20.9999Z" fill="#434655" fill-opacity="0.2"/>
</svg>
