<svg width="62" height="68" viewBox="0 0 62 68" fill="none" xmlns="http://www.w3.org/2000/svg">
<path d="M62 34C62 15.2223 46.7777 0 28 0H2V68H28C46.7777 68 62 52.7777 62 34Z" fill="#434655" fill-opacity="0.76"/>
<g clip-path="url(#clip0_504_25826)">
<path fill-rule="evenodd" clip-rule="evenodd" d="M16.5412 31.7916C15.956 32.3776 15.6273 33.1718 15.6273 34C15.6273 34.8281 15.956 35.6224 16.5412 36.2083L28.3245 47.9958C28.9108 48.5818 29.7058 48.9109 30.5347 48.9107C31.3635 48.9105 32.1584 48.581 32.7443 47.9948C33.3303 47.4085 33.6594 46.6135 33.6592 45.7847C33.659 44.9558 33.3295 44.1609 32.7433 43.575L23.1683 34L32.7433 24.425C33.3128 23.8359 33.6282 23.0466 33.6214 22.2273C33.6147 21.4079 33.2864 20.6239 32.7073 20.0443C32.1282 19.4646 31.3445 19.1356 30.5252 19.1281C29.7058 19.1206 28.9163 19.4352 28.3266 20.0041L16.5391 31.7896L16.5412 31.7916Z" fill="#2563EB"/>
</g>
<defs>
<clipPath id="clip0_504_25826">
<rect width="50" height="50" fill="white" transform="matrix(-1 0 0 1 50 9)"/>
</clipPath>
</defs>
</svg>
