<svg width="32" height="32" viewBox="0 0 32 32" fill="none" xmlns="http://www.w3.org/2000/svg">
<g clip-path="url(#clip0_1049_2808)">
<path d="M16.0001 15.111C17.2307 15.111 18.4337 14.746 19.4569 14.0623C20.4802 13.3786 21.2777 12.4068 21.7486 11.2699C22.2196 10.1329 22.3428 8.88183 22.1027 7.67483C21.8626 6.46784 21.27 5.35915 20.3998 4.48895C19.5296 3.61876 18.4209 3.02615 17.214 2.78606C16.007 2.54598 14.7559 2.6692 13.6189 3.14015C12.482 3.61109 11.5102 4.40861 10.8265 5.43185C10.1428 6.45509 9.77783 7.65809 9.77783 8.88873C9.77783 10.539 10.4334 12.1216 11.6003 13.2885C12.7672 14.4554 14.3498 15.111 16.0001 15.111ZM16.0001 4.44428C16.8791 4.44428 17.7384 4.70495 18.4693 5.19331C19.2001 5.68167 19.7698 6.3758 20.1062 7.18791C20.4426 8.00003 20.5306 8.89366 20.3591 9.7558C20.1876 10.6179 19.7643 11.4099 19.1428 12.0314C18.5212 12.653 17.7293 13.0763 16.8671 13.2478C16.005 13.4193 15.1114 13.3312 14.2992 12.9949C13.4871 12.6585 12.793 12.0888 12.3046 11.3579C11.8163 10.627 11.5556 9.76776 11.5556 8.88873C11.5556 7.70999 12.0239 6.57953 12.8574 5.74603C13.6909 4.91254 14.8213 4.44428 16.0001 4.44428Z" fill="#2E3132"/>
<path d="M27.0843 21.6622C25.6588 20.1556 23.941 18.9555 22.0359 18.1353C20.1308 17.3151 18.0785 16.8921 16.0043 16.8921C13.9302 16.8921 11.8778 17.3151 9.97275 18.1353C8.06765 18.9555 6.34984 20.1556 4.92434 21.6622C4.61528 21.9923 4.44364 22.4278 4.44434 22.88V27.5555C4.44434 28.027 4.63164 28.4792 4.96504 28.8126C5.29843 29.146 5.75062 29.3333 6.22212 29.3333H25.7777C26.2492 29.3333 26.7014 29.146 27.0347 28.8126C27.3681 28.4792 27.5554 28.027 27.5554 27.5555V22.88C27.5586 22.429 27.3902 21.9937 27.0843 21.6622ZM25.7777 27.5555H6.22212V22.8711C7.48187 21.5446 8.99837 20.4883 10.6793 19.7665C12.3603 19.0446 14.1705 18.6724 15.9999 18.6724C17.8293 18.6724 19.6395 19.0446 21.3205 19.7665C23.0014 20.4883 24.5179 21.5446 25.7777 22.8711V27.5555Z" fill="#2E3132"/>
</g>
<defs>
<clipPath id="clip0_1049_2808">
<rect width="32" height="32" fill="white"/>
</clipPath>
</defs>
</svg>
