<svg width="30" height="30" viewBox="0 0 30 30" fill="none" xmlns="http://www.w3.org/2000/svg">
<rect x="0.5" y="0.5" width="29" height="29" rx="3.5" stroke="#2563EB"/>
<path d="M15 22.0105L10.8 23.8105C10.1333 24.0938 9.5 24.0398 8.9 23.6485C8.3 23.2572 8 22.7028 8 21.9855V9.0105C8 8.4605 8.196 7.98983 8.588 7.5985C8.98 7.20716 9.45067 7.01116 10 7.0105H20C20.55 7.0105 21.021 7.2065 21.413 7.5985C21.805 7.9905 22.0007 8.46116 22 9.0105V21.9855C22 22.7022 21.7 23.2565 21.1 23.6485C20.5 24.0405 19.8667 24.0945 19.2 23.8105L15 22.0105ZM15 19.8105L20 21.9605V9.0105H10V21.9605L15 19.8105ZM15 9.0105H10H20H15Z" fill="#2563EB"/>
</svg>
