<svg width="32" height="32" viewBox="0 0 32 32" fill="none" xmlns="http://www.w3.org/2000/svg">
<path d="M1.3335 26.6667V25.3333C1.3335 22.858 2.31683 20.484 4.06717 18.7337C5.81751 16.9833 8.19148 16 10.6668 16C13.1422 16 15.5162 16.9833 17.2665 18.7337C19.0168 20.484 20.0002 22.858 20.0002 25.3333V26.6667" stroke="#2563EB" stroke-width="1.5" stroke-linecap="round"/>
<path d="M17.3335 18.6667C17.3335 16.8986 18.0359 15.2029 19.2861 13.9526C20.5364 12.7024 22.2321 12 24.0002 12C24.8756 12 25.7425 12.1724 26.5514 12.5075C27.3602 12.8425 28.0952 13.3336 28.7142 13.9526C29.3333 14.5717 29.8243 15.3066 30.1594 16.1154C30.4944 16.9243 30.6668 17.7912 30.6668 18.6667V19.3333" stroke="#2563EB" stroke-width="1.5" stroke-linecap="round"/>
<path d="M10.6668 16C12.0813 16 13.4379 15.4381 14.4381 14.4379C15.4383 13.4377 16.0002 12.0812 16.0002 10.6667C16.0002 9.25218 15.4383 7.89562 14.4381 6.89543C13.4379 5.89524 12.0813 5.33333 10.6668 5.33333C9.25234 5.33333 7.89579 5.89524 6.89559 6.89543C5.8954 7.89562 5.3335 9.25218 5.3335 10.6667C5.3335 12.0812 5.8954 13.4377 6.89559 14.4379C7.89579 15.4381 9.25234 16 10.6668 16ZM24.0002 12C25.061 12 26.0784 11.5786 26.8286 10.8284C27.5787 10.0783 28.0002 9.06087 28.0002 8C28.0002 6.93913 27.5787 5.92172 26.8286 5.17157C26.0784 4.42143 25.061 4 24.0002 4C22.9393 4 21.9219 4.42143 21.1717 5.17157C20.4216 5.92172 20.0002 6.93913 20.0002 8C20.0002 9.06087 20.4216 10.0783 21.1717 10.8284C21.9219 11.5786 22.9393 12 24.0002 12Z" stroke="#2563EB" stroke-width="1.5" stroke-linecap="round" stroke-linejoin="round"/>
</svg>
