<svg width="115" height="115" viewBox="0 0 115 115" fill="none" xmlns="http://www.w3.org/2000/svg">
<path d="M97.027 88.5103H14.973C12.2265 88.5103 10 90.7367 10 93.4832V98.4562C10 101.203 12.2265 103.429 14.973 103.429H97.027C99.7735 103.429 102 101.203 102 98.4562V93.4832C102 90.7367 99.7735 88.5103 97.027 88.5103Z" stroke="#2563EB" stroke-width="5" stroke-linecap="round" stroke-linejoin="round"/>
<path d="M22.4324 46.2303V88.5505M89.5676 46.2303V88.5505M68.4324 46.2303V88.5505M43.5676 46.2303V88.5505M51.2259 12.792L12.5859 33.9272C11.8034 34.3554 11.1504 34.9862 10.6954 35.7535C10.2404 36.5208 10.0002 37.3964 10 38.2885V43.2465C10 44.0379 10.3144 44.7968 10.8739 45.3564C11.4335 45.916 12.1924 46.2303 12.9838 46.2303H99.0162C99.8076 46.2303 100.567 45.916 101.126 45.3564C101.686 44.7968 102 44.0379 102 43.2465V38.2885C102 37.3964 101.76 36.5208 101.305 35.7535C100.85 34.9862 100.197 34.3554 99.414 33.9272L60.7741 12.792C59.3103 11.9911 57.6685 11.5713 56 11.5713C54.3314 11.5713 52.6897 11.9911 51.2259 12.792Z" stroke="#2563EB" stroke-width="5" stroke-linecap="round" stroke-linejoin="round"/>
</svg>
