<svg width="12" height="3" viewBox="0 0 12 3" fill="none" xmlns="http://www.w3.org/2000/svg">
<path d="M1.05469 2.10938C0.763021 2.10938 0.514323 2.00651 0.308594 1.80078C0.102865 1.59505 0 1.34635 0 1.05469C0 0.763021 0.102865 0.514323 0.308594 0.308594C0.514323 0.102865 0.763021 0 1.05469 0C1.34635 0 1.59505 0.102865 1.80078 0.308594C2.00651 0.514323 2.10938 0.763021 2.10938 1.05469C2.10938 1.34635 2.00651 1.59505 1.80078 1.80078C1.59505 2.00651 1.34635 2.10938 1.05469 2.10938ZM5.66406 2.10938C5.3724 2.10938 5.1237 2.00651 4.91797 1.80078C4.71224 1.59505 4.60938 1.34635 4.60938 1.05469C4.60938 0.763021 4.71224 0.514323 4.91797 0.308594C5.1237 0.102865 5.3724 0 5.66406 0C5.95573 0 6.20443 0.102865 6.41016 0.308594C6.61589 0.514323 6.71875 0.763021 6.71875 1.05469C6.71875 1.34635 6.61589 1.59505 6.41016 1.80078C6.20443 2.00651 5.95573 2.10938 5.66406 2.10938ZM10.2734 2.10938C9.98177 2.10938 9.73307 2.00651 9.52734 1.80078C9.32161 1.59505 9.21875 1.34635 9.21875 1.05469C9.21875 0.763021 9.32161 0.514323 9.52734 0.308594C9.73307 0.102865 9.98177 0 10.2734 0C10.5651 0 10.8138 0.102865 11.0195 0.308594C11.2253 0.514323 11.3281 0.763021 11.3281 1.05469C11.3281 1.34635 11.2253 1.59505 11.0195 1.80078C10.8138 2.00651 10.5651 2.10938 10.2734 2.10938Z" fill="#737686"/>
</svg>
