<svg width="40" height="40" viewBox="0 0 40 40" fill="none" xmlns="http://www.w3.org/2000/svg">
<rect width="40" height="40" rx="20" fill="white"/>
<g clip-path="url(#clip0_522_6437)">
<path d="M20 5C17.0333 5 14.1332 5.87973 11.6665 7.52796C9.19971 9.17618 7.27713 11.5189 6.14181 14.2597C5.0065 17.0006 4.70945 20.0166 5.28823 22.9263C5.86701 25.8361 7.29562 28.5088 9.3934 30.6066C11.4912 32.7044 14.1639 34.133 17.0736 34.7118C19.9834 35.2905 22.9994 34.9935 25.7403 33.8582C28.4811 32.7229 30.8238 30.8003 32.472 28.3335C34.1203 25.8668 35 22.9667 35 20C34.9955 16.0231 33.4137 12.2105 30.6016 9.39841C27.7895 6.58635 23.9769 5.00454 20 5ZM13.5714 31.1182V29.6429C13.5723 28.7906 13.9112 27.9736 14.5138 27.3709C15.1164 26.7683 15.9335 26.4294 16.7857 26.4286H23.2143C24.0665 26.4294 24.8836 26.7683 25.4862 27.3709C26.0888 27.9736 26.4277 28.7906 26.4286 29.6429V31.1182C24.4776 32.2573 22.2591 32.8575 20 32.8575C17.7409 32.8575 15.5224 32.2573 13.5714 31.1182ZM28.5639 29.5636C28.5431 28.1578 27.9706 26.8166 26.9698 25.8293C25.969 24.8419 24.6202 24.2875 23.2143 24.2857H16.7857C15.38 24.2878 14.0315 24.8423 13.0309 25.8296C12.0304 26.817 11.458 28.158 11.4371 29.5636C9.49418 27.8287 8.124 25.5445 7.50804 23.0136C6.89208 20.4826 7.0594 17.8243 7.98783 15.3906C8.91627 12.9568 10.562 10.8625 12.7072 9.38489C14.8524 7.90728 17.3957 7.1161 20.0005 7.1161C22.6054 7.1161 25.1487 7.90728 27.2939 9.38489C29.4391 10.8625 31.0848 12.9568 32.0132 15.3906C32.9417 17.8243 33.109 20.4826 32.493 23.0136C31.8771 25.5445 30.5069 27.8287 28.5639 29.5636Z" fill="#14AE5C"/>
<path d="M20 12.5C19.0729 12.5 18.1666 12.7749 17.3958 13.29C16.6249 13.8051 16.0241 14.5371 15.6693 15.3937C15.3145 16.2502 15.2217 17.1927 15.4026 18.102C15.5834 19.0113 16.0299 19.8465 16.6854 20.5021C17.341 21.1576 18.1762 21.6041 19.0855 21.7849C19.9948 21.9658 20.9373 21.873 21.7938 21.5182C22.6504 21.1634 23.3824 20.5626 23.8975 19.7917C24.4126 19.0209 24.6875 18.1146 24.6875 17.1875C24.6875 15.9443 24.1936 14.752 23.3146 13.8729C22.4355 12.9939 21.2432 12.5 20 12.5ZM20 20C19.4437 20 18.9 19.835 18.4375 19.526C17.9749 19.217 17.6145 18.7777 17.4016 18.2638C17.1887 17.7499 17.133 17.1844 17.2415 16.6388C17.3501 16.0932 17.6179 15.5921 18.0113 15.1988C18.4046 14.8054 18.9057 14.5376 19.4513 14.429C19.9969 14.3205 20.5624 14.3762 21.0763 14.5891C21.5902 14.802 22.0295 15.1624 22.3385 15.625C22.6476 16.0875 22.8125 16.6312 22.8125 17.1875C22.8118 17.9332 22.5152 18.6481 21.9879 19.1754C21.4606 19.7027 20.7457 19.9993 20 20Z" fill="#14AE5C"/>
</g>
<rect x="28.5" y="28.5" width="11" height="11" rx="5.5" fill="#E7E8E9"/>
<rect x="28.5" y="28.5" width="11" height="11" rx="5.5" stroke="white"/>
<path d="M37 32.5L34 35.5L31 32.5" stroke="#2E3132" stroke-linecap="round" stroke-linejoin="round"/>
<defs>
<clipPath id="clip0_522_6437">
<rect width="30" height="30" fill="white" transform="translate(5 5)"/>
</clipPath>
</defs>
</svg>
