<svg width="24" height="24" viewBox="0 0 24 24" fill="none" xmlns="http://www.w3.org/2000/svg">
<g clip-path="url(#clip0_1049_2828)">
<path d="M18 21.9998H3.33333C2.97971 21.9998 2.64057 21.8594 2.39052 21.6093C2.14048 21.3593 2 21.0201 2 20.6665V5.99984C2 5.64622 2.14048 5.30708 2.39052 5.05703C2.64057 4.80698 2.97971 4.6665 3.33333 4.6665H10V5.99984H3.33333V20.6665H18V13.9998H19.3333V20.6665C19.3333 21.0201 19.1929 21.3593 18.9428 21.6093C18.6928 21.8594 18.3536 21.9998 18 21.9998Z" fill="#2563EB"/>
<path d="M12.0004 2C11.8236 2 11.6541 2.07024 11.529 2.19526C11.404 2.32029 11.3338 2.48986 11.3338 2.66667C11.3338 2.84348 11.404 3.01305 11.529 3.13807C11.6541 3.2631 11.8236 3.33333 12.0004 3.33333H19.7271L10.4938 12.5667C10.424 12.6264 10.3673 12.7 10.3273 12.7827C10.2873 12.8654 10.2648 12.9555 10.2612 13.0473C10.2577 13.1391 10.2732 13.2307 10.3067 13.3162C10.3402 13.4018 10.391 13.4795 10.456 13.5444C10.521 13.6094 10.5987 13.6602 10.6842 13.6938C10.7698 13.7273 10.8613 13.7427 10.9531 13.7392C11.045 13.7357 11.135 13.7132 11.2178 13.6732C11.3005 13.6331 11.374 13.5765 11.4338 13.5067L20.6671 4.27333V12C20.6671 12.1768 20.7373 12.3464 20.8624 12.4714C20.9874 12.5964 21.157 12.6667 21.3338 12.6667C21.5106 12.6667 21.6802 12.5964 21.8052 12.4714C21.9302 12.3464 22.0004 12.1768 22.0004 12V2H12.0004Z" fill="#2563EB"/>
</g>
<defs>
<clipPath id="clip0_1049_2828">
<rect width="24" height="24" fill="white"/>
</clipPath>
</defs>
</svg>
